<svg width="1010" height="536" viewBox="0 0 1010 536" fill="none" xmlns="http://www.w3.org/2000/svg">
<rect width="1010" height="536" fill="white"/>
<rect x="194.5" y="107.5" width="173" height="188" stroke="black" stroke-width="3"/>
<rect x="656.5" y="154.5" width="161" height="92" stroke="#FECECE" stroke-width="3"/>
<path d="M383.232 199.232C382.256 200.209 382.256 201.791 383.232 202.768L399.142 218.678C400.118 219.654 401.701 219.654 402.678 218.678C403.654 217.701 403.654 216.118 402.678 215.142L388.536 201L402.678 186.858C403.654 185.882 403.654 184.299 402.678 183.322C401.701 182.346 400.118 182.346 399.142 183.322L383.232 199.232ZM473 198.5H385V203.5H473V198.5Z" fill="black"/>
<path d="M549.232 198.232C548.256 199.209 548.256 200.791 549.232 201.768L565.142 217.678C566.118 218.654 567.701 218.654 568.678 217.678C569.654 216.701 569.654 215.118 568.678 214.142L554.536 200L568.678 185.858C569.654 184.882 569.654 183.299 568.678 182.322C567.701 181.346 566.118 181.346 565.142 182.322L549.232 198.232ZM639 197.5H551V202.5H639V197.5Z" fill="black"/>
<path d="M487.167 177.591C486.753 177.591 486.456 177.483 486.276 177.267C486.095 177.051 485.996 176.808 485.978 176.538C485.978 176.358 486.032 176.088 486.14 175.728C486.249 175.368 486.438 174.944 486.708 174.458C486.978 173.972 487.383 173.513 487.923 173.081C488.463 172.648 489.103 172.333 489.841 172.135L490.705 172H491.03C491.624 172 491.975 172.009 492.083 172.027C493.217 172.225 494.163 172.702 494.919 173.459C495.675 174.215 496.216 175.052 496.54 175.971C496.864 176.889 497.017 177.889 496.999 178.969C496.999 180.68 496.576 182.634 495.73 184.83C494.883 187.027 493.83 188.711 492.569 189.882C491.111 191.232 489.499 191.907 487.734 191.907C485.933 191.907 484.583 191.205 483.682 189.801C483.124 188.972 482.845 188.144 482.845 187.316V187.018C482.845 184.912 483.628 183.012 485.195 181.319C486.762 179.626 488.499 178.771 490.408 178.753C491.507 178.753 492.335 179.032 492.893 179.59C493.452 180.149 493.821 180.752 494.001 181.4L494.082 181.103C494.442 179.608 494.622 178.375 494.622 177.402C494.622 175.818 494.253 174.701 493.515 174.053C492.776 173.405 491.939 173.072 491.003 173.054C489.598 173.054 488.508 173.63 487.734 174.782C488.472 174.89 488.842 175.25 488.842 175.863C488.842 176.313 488.68 176.709 488.355 177.051C488.031 177.393 487.635 177.573 487.167 177.591ZM493.326 183.048C493.326 181.859 493.064 181.013 492.542 180.509C492.02 180.004 491.408 179.752 490.705 179.752C489.571 179.752 488.572 180.167 487.707 180.995C487.257 181.499 486.906 182.03 486.654 182.589C486.402 183.147 486.104 184.065 485.762 185.344C485.438 186.64 485.276 187.586 485.276 188.18C485.276 189.891 486.176 190.746 487.977 190.746C488.193 190.746 488.355 190.737 488.463 190.719C489.85 190.485 490.967 189.675 491.813 188.288C492.083 187.838 492.398 187.081 492.758 186.019C493.118 184.957 493.307 183.966 493.326 183.048Z" fill="black"/>
<path d="M498.133 190.071H498.512C499.214 190.071 499.637 189.945 499.781 189.693V189.476C499.781 189.314 499.781 189.107 499.781 188.855C499.781 188.603 499.781 188.306 499.781 187.964C499.781 187.622 499.79 187.235 499.808 186.802C499.826 186.37 499.826 185.92 499.808 185.452C499.79 184.984 499.79 184.488 499.808 183.966C499.826 183.444 499.826 182.931 499.808 182.426C499.808 181.76 499.808 181.058 499.808 180.32C499.808 179.581 499.808 178.906 499.808 178.294C499.808 177.682 499.808 177.141 499.808 176.673C499.808 176.205 499.799 175.809 499.781 175.485C499.763 175.16 499.763 175.007 499.781 175.025C499.727 174.683 499.601 174.458 499.403 174.35C499.205 174.242 498.8 174.161 498.187 174.107H497.701V173.486C497.701 173.072 497.719 172.864 497.755 172.864L498.025 172.837C498.206 172.819 498.467 172.801 498.809 172.783C499.151 172.765 499.484 172.747 499.808 172.729C500.114 172.711 500.447 172.693 500.808 172.675C501.168 172.657 501.438 172.63 501.618 172.594C501.798 172.558 501.897 172.549 501.915 172.567H501.996V181.076C501.996 186.784 502.005 189.657 502.023 189.693C502.095 189.837 502.203 189.936 502.347 189.99C502.725 190.044 503.167 190.071 503.671 190.071H504.103V191.313H503.887L503.266 191.286C502.851 191.268 502.41 191.259 501.942 191.259C501.474 191.259 501.132 191.25 500.916 191.232C500.7 191.214 500.357 191.214 499.889 191.232C499.421 191.25 498.971 191.268 498.539 191.286L497.917 191.313H497.701V190.071H498.133Z" fill="black"/>
<path d="M505.264 185.533C505.264 183.822 505.85 182.345 507.02 181.103C508.191 179.86 509.604 179.23 511.261 179.212C512.882 179.212 514.277 179.824 515.448 181.049C516.618 182.273 517.212 183.759 517.23 185.506C517.23 187.217 516.654 188.657 515.502 189.828C514.349 190.998 512.936 191.583 511.261 191.583C509.514 191.583 508.083 190.98 506.966 189.774C505.85 188.567 505.282 187.154 505.264 185.533ZM511.261 190.503C513.458 190.503 514.556 189.035 514.556 186.1V185.236V184.56C514.556 184.164 514.547 183.822 514.529 183.534C514.511 183.246 514.448 182.904 514.34 182.508C514.232 182.111 514.088 181.787 513.908 181.535C513.728 181.283 513.449 181.031 513.071 180.779C512.693 180.527 512.251 180.347 511.747 180.239C511.657 180.221 511.513 180.212 511.315 180.212C510.775 180.212 510.262 180.32 509.775 180.536C509.001 180.932 508.497 181.481 508.263 182.183C508.029 182.886 507.912 183.714 507.912 184.668V185.209C507.912 186.937 508.083 188.153 508.425 188.855C509.001 189.954 509.946 190.503 511.261 190.503Z" fill="black"/>
<path d="M525.982 182.778C525.982 182.057 525.739 181.436 525.253 180.914C524.767 180.392 524.064 180.131 523.146 180.131C522.498 180.131 521.94 180.248 521.471 180.482C520.931 180.824 520.661 181.292 520.661 181.886C520.643 181.976 520.643 182.093 520.661 182.237C520.679 182.381 520.823 182.598 521.093 182.886C521.363 183.174 521.75 183.399 522.255 183.561C522.579 183.651 522.975 183.732 523.443 183.804C523.911 183.876 524.308 183.957 524.632 184.047C524.956 184.137 525.244 184.254 525.496 184.398C525.802 184.542 526.099 184.722 526.387 184.939C526.676 185.155 526.964 185.524 527.252 186.046C527.54 186.568 527.693 187.126 527.711 187.721C527.711 188.837 527.369 189.756 526.685 190.476C526 191.196 524.893 191.565 523.362 191.583H523.146C522.21 191.583 521.345 191.259 520.553 190.611L520.337 190.8L520.094 191.043C519.986 191.151 519.878 191.25 519.77 191.34L519.473 191.61H519.256H519.148C519.094 191.61 519.013 191.556 518.905 191.448V189.314V187.748C518.905 187.37 518.923 187.144 518.959 187.072C518.995 187 519.085 186.955 519.229 186.937H519.473C519.689 186.937 519.833 186.973 519.905 187.045C519.977 187.117 520.022 187.226 520.04 187.37C520.058 187.514 520.121 187.757 520.229 188.099C520.337 188.441 520.508 188.819 520.742 189.233C521.372 190.152 522.246 190.611 523.362 190.611C525.109 190.611 525.982 189.909 525.982 188.504C525.982 187.982 525.82 187.559 525.496 187.235C525.136 186.802 524.389 186.478 523.254 186.262C522.12 186.046 521.372 185.839 521.012 185.641C520.364 185.335 519.851 184.921 519.473 184.398C519.094 183.876 518.905 183.318 518.905 182.724C518.905 182.021 519.058 181.427 519.364 180.941C519.671 180.455 520.058 180.095 520.526 179.86C520.994 179.626 521.444 179.464 521.877 179.374C522.309 179.284 522.705 179.239 523.065 179.239H523.362C524.082 179.239 524.713 179.374 525.253 179.644L525.658 179.86L525.901 179.671C526.081 179.509 526.279 179.356 526.495 179.212H526.712H526.82C526.874 179.212 526.955 179.266 527.063 179.374V182.94L526.901 183.102H526.144C526.036 182.994 525.982 182.886 525.982 182.778Z" fill="black"/>
<path d="M536.625 182.778C536.625 182.057 536.381 181.436 535.895 180.914C535.409 180.392 534.707 180.131 533.788 180.131C533.14 180.131 532.582 180.248 532.114 180.482C531.573 180.824 531.303 181.292 531.303 181.886C531.285 181.976 531.285 182.093 531.303 182.237C531.321 182.381 531.465 182.598 531.736 182.886C532.006 183.174 532.393 183.399 532.897 183.561C533.221 183.651 533.617 183.732 534.086 183.804C534.554 183.876 534.95 183.957 535.274 184.047C535.598 184.137 535.886 184.254 536.138 184.398C536.445 184.542 536.742 184.722 537.03 184.939C537.318 185.155 537.606 185.524 537.894 186.046C538.182 186.568 538.335 187.126 538.353 187.721C538.353 188.837 538.011 189.756 537.327 190.476C536.643 191.196 535.535 191.565 534.004 191.583H533.788C532.852 191.583 531.988 191.259 531.195 190.611L530.979 190.8L530.736 191.043C530.628 191.151 530.52 191.25 530.412 191.34L530.115 191.61H529.899H529.791C529.737 191.61 529.656 191.556 529.548 191.448V189.314V187.748C529.548 187.37 529.566 187.144 529.602 187.072C529.638 187 529.728 186.955 529.872 186.937H530.115C530.331 186.937 530.475 186.973 530.547 187.045C530.619 187.117 530.664 187.226 530.682 187.37C530.7 187.514 530.763 187.757 530.871 188.099C530.979 188.441 531.15 188.819 531.384 189.233C532.015 190.152 532.888 190.611 534.004 190.611C535.751 190.611 536.625 189.909 536.625 188.504C536.625 187.982 536.463 187.559 536.138 187.235C535.778 186.802 535.031 186.478 533.896 186.262C532.762 186.046 532.015 185.839 531.654 185.641C531.006 185.335 530.493 184.921 530.115 184.398C529.737 183.876 529.548 183.318 529.548 182.724C529.548 182.021 529.701 181.427 530.007 180.941C530.313 180.455 530.7 180.095 531.168 179.86C531.636 179.626 532.087 179.464 532.519 179.374C532.951 179.284 533.347 179.239 533.707 179.239H534.004C534.725 179.239 535.355 179.374 535.895 179.644L536.3 179.86L536.544 179.671C536.724 179.509 536.922 179.356 537.138 179.212H537.354H537.462C537.516 179.212 537.597 179.266 537.705 179.374V182.94L537.543 183.102H536.787C536.679 182.994 536.625 182.886 536.625 182.778Z" fill="black"/>
<path d="M500.813 215.433C500.399 215.433 500.102 215.325 499.922 215.109C499.742 214.893 499.643 214.65 499.625 214.38C499.625 214.2 499.679 213.93 499.787 213.57C499.895 213.21 500.084 212.786 500.354 212.3C500.624 211.814 501.029 211.355 501.569 210.923C502.11 210.49 502.749 210.175 503.487 209.977L504.352 209.842H504.676C505.27 209.842 505.621 209.851 505.729 209.869C506.864 210.067 507.809 210.544 508.565 211.301C509.322 212.057 509.862 212.894 510.186 213.813C510.51 214.731 510.663 215.731 510.645 216.811C510.645 218.522 510.222 220.476 509.376 222.673C508.529 224.869 507.476 226.553 506.215 227.724C504.757 229.074 503.145 229.75 501.38 229.75C499.58 229.75 498.229 229.047 497.329 227.643C496.77 226.814 496.491 225.986 496.491 225.158V224.86C496.491 222.754 497.275 220.854 498.841 219.161C500.408 217.468 502.146 216.613 504.054 216.595C505.153 216.595 505.981 216.874 506.539 217.432C507.098 217.991 507.467 218.594 507.647 219.242L507.728 218.945C508.088 217.45 508.268 216.217 508.268 215.244C508.268 213.66 507.899 212.543 507.161 211.895C506.422 211.247 505.585 210.914 504.649 210.896C503.244 210.896 502.155 211.472 501.38 212.624C502.119 212.732 502.488 213.093 502.488 213.705C502.488 214.155 502.326 214.551 502.002 214.893C501.677 215.235 501.281 215.415 500.813 215.433ZM506.972 220.89C506.972 219.701 506.711 218.855 506.188 218.351C505.666 217.847 505.054 217.594 504.352 217.594C503.217 217.594 502.218 218.009 501.353 218.837C500.903 219.341 500.552 219.872 500.3 220.431C500.048 220.989 499.751 221.907 499.408 223.186C499.084 224.482 498.922 225.428 498.922 226.022C498.922 227.733 499.823 228.588 501.623 228.588C501.839 228.588 502.002 228.579 502.11 228.561C503.496 228.327 504.613 227.517 505.459 226.13C505.729 225.68 506.044 224.923 506.404 223.861C506.765 222.799 506.954 221.808 506.972 220.89Z" fill="black"/>
<path d="M511.348 221.404C511.348 221.152 511.483 220.719 511.753 220.107C512.023 219.495 512.455 218.856 513.049 218.189C513.643 217.523 514.31 217.199 515.048 217.217C515.786 217.217 516.381 217.424 516.831 217.838C517.281 218.252 517.515 218.829 517.533 219.567C517.497 219.909 517.47 220.098 517.452 220.134C517.452 220.188 517.308 220.602 517.02 221.377C516.732 222.151 516.435 223.024 516.129 223.997C515.822 224.969 515.678 225.744 515.696 226.32C515.696 227.094 515.822 227.634 516.075 227.941C516.327 228.247 516.705 228.409 517.209 228.427C517.623 228.427 518.01 228.328 518.37 228.13C518.731 227.932 519.01 227.724 519.208 227.508C519.406 227.292 519.649 226.995 519.937 226.617C519.937 226.599 519.982 226.419 520.072 226.077C520.162 225.735 520.288 225.203 520.45 224.483C520.612 223.763 520.784 223.096 520.964 222.484C521.648 219.783 522.026 218.369 522.098 218.243C522.332 217.757 522.719 217.514 523.26 217.514C523.494 217.514 523.683 217.577 523.827 217.703C523.971 217.829 524.07 217.937 524.124 218.027C524.178 218.117 524.196 218.198 524.178 218.27C524.178 218.505 523.737 220.395 522.854 223.943C521.972 227.49 521.468 229.435 521.342 229.777C520.838 231.272 519.964 232.46 518.722 233.343C517.479 234.225 516.237 234.675 514.994 234.693C514.184 234.693 513.472 234.495 512.86 234.099C512.248 233.703 511.942 233.109 511.942 232.316C511.942 231.92 512.005 231.587 512.131 231.317C512.257 231.047 512.428 230.849 512.644 230.723C512.86 230.597 513.04 230.507 513.184 230.453C513.328 230.399 513.481 230.372 513.643 230.372C514.436 230.372 514.832 230.75 514.832 231.506C514.832 231.866 514.724 232.181 514.508 232.451C514.292 232.722 514.085 232.902 513.887 232.992C513.689 233.082 513.571 233.127 513.535 233.127L513.454 233.154C513.49 233.244 513.662 233.352 513.968 233.478C514.274 233.604 514.58 233.667 514.886 233.667H515.102C515.408 233.667 515.642 233.649 515.804 233.613C516.399 233.451 516.948 233.109 517.452 232.586C517.956 232.064 518.343 231.506 518.614 230.912C518.884 230.318 519.091 229.813 519.235 229.399C519.379 228.985 519.451 228.715 519.451 228.589L519.289 228.697C519.181 228.769 519.01 228.868 518.776 228.994C518.542 229.12 518.307 229.228 518.073 229.318C517.713 229.408 517.362 229.453 517.02 229.453C516.192 229.453 515.462 229.255 514.832 228.859C514.202 228.463 513.788 227.823 513.589 226.941C513.571 226.815 513.562 226.536 513.562 226.104C513.562 225.077 513.878 223.736 514.508 222.079C515.138 220.422 515.453 219.369 515.453 218.919C515.453 218.901 515.453 218.883 515.453 218.865C515.453 218.703 515.453 218.595 515.453 218.541C515.453 218.487 515.417 218.424 515.345 218.351C515.273 218.279 515.174 218.243 515.048 218.243H514.94C514.526 218.243 514.148 218.415 513.806 218.757C513.463 219.099 513.193 219.468 512.995 219.864C512.797 220.26 512.644 220.638 512.536 220.999C512.428 221.359 512.356 221.557 512.32 221.593C512.284 221.629 512.14 221.647 511.888 221.647H511.51C511.402 221.539 511.348 221.458 511.348 221.404Z" fill="black"/>
<path d="M515.172 214.813L518.873 211.193L519.089 211.41C521.43 213.642 522.6 214.777 522.6 214.813L521.898 215.596C521.862 215.578 521.34 215.128 520.331 214.246L518.9 213.003L517.414 214.273C517.18 214.471 516.946 214.678 516.712 214.894C516.478 215.11 516.289 215.281 516.145 215.407L515.929 215.569C515.893 215.605 515.757 215.479 515.523 215.191L515.172 214.813Z" fill="black"/>
<path d="M542 203.63H479.01V202.01H542V203.63Z" fill="black"/>
<path d="M668.521 196.714C667.752 196.714 667.139 196.458 666.684 195.945C666.228 195.433 666 194.806 666 194.065C666 192.043 666.755 190.291 668.264 188.81C669.774 187.329 671.654 186.589 673.904 186.589C676.496 186.589 678.66 187.386 680.398 188.981C682.135 190.576 683.018 192.641 683.047 195.176C683.047 196.401 682.762 197.569 682.192 198.679C681.622 199.79 680.939 200.759 680.141 201.585C679.344 202.411 678.205 203.464 676.724 204.746C675.698 205.629 674.274 206.939 672.451 208.677L669.931 211.069L673.178 211.112C677.649 211.112 680.027 211.041 680.312 210.898C680.512 210.841 680.853 209.574 681.338 207.096V206.968H683.047V207.096C683.018 207.181 682.833 208.477 682.491 210.984C682.149 213.49 681.936 214.8 681.85 214.914V215.042H666V214.231V213.718C666 213.519 666.085 213.305 666.256 213.077C666.427 212.849 666.854 212.351 667.538 211.582C668.364 210.67 669.076 209.873 669.674 209.189C669.931 208.905 670.415 208.378 671.127 207.609C671.839 206.84 672.323 206.313 672.579 206.028C672.836 205.743 673.249 205.273 673.818 204.618C674.388 203.963 674.787 203.479 675.015 203.165C675.242 202.852 675.57 202.425 675.997 201.884C676.424 201.343 676.724 200.887 676.894 200.517C677.065 200.146 677.279 199.733 677.535 199.278C677.792 198.822 677.977 198.366 678.091 197.91C678.205 197.455 678.304 197.028 678.39 196.629C678.475 196.23 678.518 195.76 678.518 195.219C678.518 193.425 678.034 191.872 677.065 190.562C676.097 189.252 674.716 188.597 672.921 188.597C671.981 188.597 671.155 188.839 670.443 189.323C669.731 189.807 669.233 190.277 668.948 190.733C668.663 191.189 668.521 191.459 668.521 191.545C668.521 191.573 668.592 191.587 668.734 191.587C669.247 191.587 669.774 191.787 670.315 192.186C670.856 192.584 671.127 193.239 671.127 194.151C671.127 194.863 670.899 195.461 670.443 195.945C669.988 196.429 669.347 196.686 668.521 196.714Z" fill="black"/>
<path d="M689.241 204.362C689.241 202.396 689.384 200.531 689.669 198.765C689.954 196.999 690.281 195.475 690.651 194.193C691.022 192.912 691.549 191.659 692.232 190.434C692.916 189.209 693.457 188.255 693.856 187.571C694.254 186.888 694.852 186.147 695.65 185.35C696.447 184.552 696.917 184.068 697.06 183.897C697.202 183.726 697.558 183.427 698.128 183H698.683H698.854C699.253 183 699.452 183.128 699.452 183.385C699.452 183.47 699.21 183.769 698.726 184.282C698.242 184.794 697.658 185.549 696.974 186.546C696.291 187.543 695.593 188.768 694.881 190.22C694.169 191.673 693.571 193.638 693.087 196.116C692.602 198.594 692.36 201.343 692.36 204.362C692.36 207.381 692.602 210.115 693.087 212.564C693.571 215.014 694.155 216.993 694.838 218.503C695.522 220.013 696.22 221.237 696.932 222.177C697.644 223.117 698.242 223.872 698.726 224.442C699.21 225.011 699.452 225.31 699.452 225.339C699.452 225.595 699.239 225.723 698.811 225.723H698.683H698.128L696.932 224.698C694.254 222.277 692.303 219.258 691.079 215.641C689.854 212.023 689.241 208.264 689.241 204.362Z" fill="black"/>
<path d="M702.956 202.781C702.956 202.382 703.169 201.699 703.597 200.73C704.024 199.762 704.707 198.751 705.647 197.697C706.587 196.643 707.641 196.13 708.809 196.159C709.977 196.159 710.916 196.486 711.629 197.141C712.341 197.797 712.711 198.708 712.739 199.876C712.682 200.417 712.64 200.716 712.611 200.773C712.611 200.858 712.383 201.513 711.928 202.738C711.472 203.963 711.002 205.344 710.518 206.882C710.034 208.42 709.806 209.645 709.834 210.557C709.834 211.781 710.034 212.636 710.432 213.12C710.831 213.604 711.429 213.861 712.227 213.889C712.882 213.889 713.494 213.732 714.064 213.419C714.633 213.106 715.075 212.778 715.388 212.436C715.701 212.095 716.086 211.625 716.542 211.027C716.542 210.998 716.613 210.713 716.755 210.172C716.898 209.631 717.097 208.791 717.353 207.651C717.61 206.512 717.88 205.458 718.165 204.49C719.247 200.218 719.846 197.982 719.96 197.782C720.33 197.013 720.942 196.629 721.797 196.629C722.167 196.629 722.466 196.728 722.694 196.928C722.922 197.127 723.078 197.298 723.164 197.441C723.249 197.583 723.278 197.711 723.249 197.825C723.249 198.195 722.551 201.186 721.156 206.797C719.76 212.408 718.963 215.484 718.763 216.025C717.966 218.389 716.584 220.269 714.619 221.665C712.654 223.06 710.689 223.772 708.723 223.801C707.442 223.801 706.317 223.487 705.348 222.861C704.38 222.234 703.896 221.294 703.896 220.041C703.896 219.415 703.995 218.888 704.195 218.46C704.394 218.033 704.665 217.72 705.006 217.52C705.348 217.321 705.633 217.179 705.861 217.093C706.089 217.008 706.331 216.965 706.587 216.965C707.84 216.965 708.467 217.563 708.467 218.759C708.467 219.329 708.296 219.828 707.954 220.255C707.613 220.682 707.285 220.967 706.972 221.109C706.658 221.252 706.473 221.323 706.416 221.323L706.288 221.366C706.345 221.508 706.616 221.679 707.1 221.878C707.584 222.078 708.068 222.177 708.552 222.177H708.894C709.378 222.177 709.749 222.149 710.005 222.092C710.945 221.836 711.814 221.294 712.611 220.468C713.409 219.642 714.021 218.759 714.448 217.82C714.875 216.88 715.203 216.082 715.431 215.427C715.659 214.772 715.773 214.345 715.773 214.145L715.516 214.316C715.345 214.43 715.075 214.587 714.705 214.786C714.334 214.986 713.964 215.156 713.594 215.299C713.024 215.441 712.469 215.512 711.928 215.512C710.617 215.512 709.464 215.199 708.467 214.573C707.47 213.946 706.815 212.935 706.502 211.539C706.473 211.34 706.459 210.898 706.459 210.215C706.459 208.591 706.957 206.469 707.954 203.849C708.951 201.229 709.45 199.562 709.45 198.85C709.45 198.822 709.45 198.793 709.45 198.765C709.45 198.509 709.45 198.338 709.45 198.252C709.45 198.167 709.393 198.067 709.279 197.953C709.165 197.839 709.008 197.782 708.809 197.782H708.638C707.983 197.782 707.385 198.053 706.844 198.594C706.302 199.135 705.875 199.719 705.562 200.346C705.249 200.972 705.006 201.57 704.836 202.14C704.665 202.71 704.551 203.023 704.494 203.08C704.437 203.137 704.209 203.165 703.81 203.165H703.212C703.041 202.995 702.956 202.866 702.956 202.781Z" fill="black"/>
<path d="M709.005 192.356L714.858 186.631L715.2 186.973C718.903 190.505 720.754 192.299 720.754 192.356L719.643 193.595C719.586 193.567 718.76 192.855 717.165 191.459L714.901 189.494L712.551 191.502C712.181 191.815 711.811 192.143 711.44 192.485C711.07 192.826 710.771 193.097 710.543 193.296L710.202 193.553C710.145 193.61 709.931 193.41 709.561 192.954L709.005 192.356Z" fill="black"/>
<path d="M738.664 204.917C738.664 204.917 738.664 204.732 738.664 204.362C738.664 203.991 738.863 203.707 739.262 203.507H764.084C764.511 203.735 764.725 204.02 764.725 204.362C764.725 204.704 764.511 204.988 764.084 205.216H739.262C738.863 205.017 738.664 204.732 738.664 204.362V204.917Z" fill="black"/>
<path d="M778.704 202.781C778.704 202.382 778.918 201.699 779.345 200.73C779.772 199.762 780.456 198.751 781.396 197.697C782.335 196.643 783.389 196.13 784.557 196.159C785.725 196.159 786.665 196.486 787.377 197.141C788.089 197.797 788.459 198.708 788.488 199.876C788.431 200.417 788.388 200.716 788.359 200.773C788.359 200.858 788.132 201.513 787.676 202.738C787.22 203.963 786.75 205.344 786.266 206.882C785.782 208.42 785.554 209.645 785.582 210.557C785.582 211.781 785.782 212.636 786.181 213.12C786.579 213.604 787.177 213.861 787.975 213.889C788.63 213.889 789.242 213.732 789.812 213.419C790.382 213.106 790.823 212.778 791.136 212.436C791.45 212.095 791.834 211.625 792.29 211.027C792.29 210.998 792.361 210.713 792.504 210.172C792.646 209.631 792.845 208.791 793.102 207.651C793.358 206.512 793.629 205.458 793.913 204.49C794.996 200.218 795.594 197.982 795.708 197.782C796.078 197.013 796.69 196.629 797.545 196.629C797.915 196.629 798.214 196.728 798.442 196.928C798.67 197.127 798.827 197.298 798.912 197.441C798.998 197.583 799.026 197.711 798.998 197.825C798.998 198.195 798.3 201.186 796.904 206.797C795.508 212.408 794.711 215.484 794.512 216.025C793.714 218.389 792.333 220.269 790.367 221.665C788.402 223.06 786.437 223.772 784.472 223.801C783.19 223.801 782.065 223.487 781.096 222.861C780.128 222.234 779.644 221.294 779.644 220.041C779.644 219.415 779.744 218.888 779.943 218.46C780.142 218.033 780.413 217.72 780.755 217.52C781.096 217.321 781.381 217.179 781.609 217.093C781.837 217.008 782.079 216.965 782.335 216.965C783.589 216.965 784.215 217.563 784.215 218.759C784.215 219.329 784.044 219.828 783.703 220.255C783.361 220.682 783.033 220.967 782.72 221.109C782.407 221.252 782.222 221.323 782.165 221.323L782.036 221.366C782.093 221.508 782.364 221.679 782.848 221.878C783.332 222.078 783.817 222.177 784.301 222.177H784.643C785.127 222.177 785.497 222.149 785.753 222.092C786.693 221.836 787.562 221.294 788.359 220.468C789.157 219.642 789.769 218.759 790.197 217.82C790.624 216.88 790.951 216.082 791.179 215.427C791.407 214.772 791.521 214.345 791.521 214.145L791.265 214.316C791.094 214.43 790.823 214.587 790.453 214.786C790.083 214.986 789.712 215.156 789.342 215.299C788.772 215.441 788.217 215.512 787.676 215.512C786.366 215.512 785.212 215.199 784.215 214.573C783.218 213.946 782.563 212.935 782.25 211.539C782.222 211.34 782.207 210.898 782.207 210.215C782.207 208.591 782.706 206.469 783.703 203.849C784.699 201.229 785.198 199.562 785.198 198.85C785.198 198.822 785.198 198.793 785.198 198.765C785.198 198.509 785.198 198.338 785.198 198.252C785.198 198.167 785.141 198.067 785.027 197.953C784.913 197.839 784.756 197.782 784.557 197.782H784.386C783.731 197.782 783.133 198.053 782.592 198.594C782.051 199.135 781.623 199.719 781.31 200.346C780.997 200.972 780.755 201.57 780.584 202.14C780.413 202.71 780.299 203.023 780.242 203.08C780.185 203.137 779.957 203.165 779.558 203.165H778.96C778.789 202.995 778.704 202.866 778.704 202.781Z" fill="black"/>
<path d="M801.305 183.043L801.475 183C801.618 183 801.76 183 801.903 183H802.415L803.612 184.025C806.289 186.446 808.24 189.465 809.465 193.083C810.689 196.7 811.302 200.46 811.302 204.362C811.302 206.298 811.159 208.164 810.875 209.958C810.59 211.753 810.262 213.277 809.892 214.53C809.522 215.783 808.995 217.036 808.311 218.289C807.628 219.543 807.086 220.497 806.688 221.152C806.289 221.807 805.705 222.533 804.936 223.331C804.167 224.128 803.711 224.598 803.569 224.741C803.426 224.883 803.099 225.154 802.586 225.552C802.501 225.638 802.444 225.695 802.415 225.723H801.903C801.675 225.723 801.518 225.723 801.433 225.723C801.347 225.723 801.276 225.681 801.219 225.595C801.162 225.51 801.119 225.381 801.091 225.211C801.119 225.182 801.276 224.997 801.561 224.655C805.976 220.07 808.183 213.305 808.183 204.362C808.183 195.418 805.976 188.654 801.561 184.068C801.276 183.726 801.119 183.541 801.091 183.513C801.091 183.285 801.162 183.128 801.305 183.043Z" fill="black"/>
<path d="M238.222 132.635C237.804 132.635 237.505 132.527 237.323 132.309C237.142 132.091 237.042 131.846 237.024 131.574C237.024 131.392 237.078 131.12 237.187 130.757C237.296 130.394 237.487 129.967 237.759 129.477C238.031 128.987 238.44 128.525 238.984 128.089C239.528 127.653 240.173 127.336 240.917 127.136L241.788 127H242.115C242.714 127 243.068 127.009 243.177 127.027C244.32 127.227 245.273 127.708 246.035 128.47C246.797 129.232 247.342 130.076 247.668 131.002C247.995 131.928 248.149 132.935 248.131 134.024C248.131 135.748 247.705 137.717 246.852 139.931C245.999 142.146 244.937 143.843 243.667 145.022C242.196 146.384 240.572 147.064 238.793 147.064C236.978 147.064 235.617 146.356 234.71 144.941C234.147 144.106 233.866 143.271 233.866 142.436V142.137C233.866 140.013 234.655 138.098 236.234 136.392C237.813 134.686 239.565 133.824 241.489 133.806C242.596 133.806 243.431 134.087 243.993 134.65C244.556 135.213 244.928 135.821 245.109 136.474L245.191 136.175C245.554 134.668 245.736 133.425 245.736 132.445C245.736 130.848 245.364 129.722 244.619 129.069C243.875 128.416 243.031 128.08 242.088 128.062C240.672 128.062 239.574 128.643 238.793 129.804C239.538 129.913 239.91 130.276 239.91 130.893C239.91 131.347 239.746 131.746 239.42 132.091C239.093 132.436 238.694 132.617 238.222 132.635ZM244.429 138.135C244.429 136.937 244.166 136.084 243.639 135.576C243.113 135.067 242.496 134.813 241.788 134.813C240.645 134.813 239.637 135.231 238.766 136.066C238.312 136.574 237.959 137.109 237.704 137.672C237.45 138.235 237.151 139.16 236.806 140.449C236.479 141.755 236.316 142.708 236.316 143.307C236.316 145.031 237.223 145.894 239.038 145.894C239.256 145.894 239.42 145.884 239.528 145.866C240.926 145.63 242.051 144.814 242.904 143.416C243.177 142.962 243.494 142.2 243.857 141.129C244.22 140.059 244.411 139.06 244.429 138.135Z" fill="black"/>
<path d="M248.839 138.652C248.839 138.398 248.975 137.962 249.247 137.345C249.52 136.728 249.955 136.084 250.554 135.412C251.153 134.741 251.825 134.414 252.569 134.432C253.313 134.432 253.912 134.641 254.366 135.058C254.819 135.476 255.055 136.057 255.073 136.801C255.037 137.146 255.01 137.336 254.992 137.372C254.992 137.427 254.847 137.844 254.556 138.625C254.266 139.405 253.966 140.285 253.658 141.265C253.349 142.246 253.204 143.026 253.222 143.607C253.222 144.387 253.349 144.932 253.603 145.24C253.857 145.549 254.239 145.712 254.747 145.73C255.164 145.73 255.554 145.63 255.917 145.431C256.28 145.231 256.562 145.022 256.761 144.805C256.961 144.587 257.206 144.287 257.496 143.906C257.496 143.888 257.542 143.707 257.633 143.362C257.723 143.017 257.85 142.482 258.014 141.756C258.177 141.03 258.349 140.358 258.531 139.741C259.221 137.019 259.602 135.594 259.674 135.467C259.91 134.977 260.3 134.732 260.845 134.732C261.081 134.732 261.271 134.795 261.417 134.922C261.562 135.049 261.662 135.158 261.716 135.249C261.771 135.34 261.789 135.421 261.771 135.494C261.771 135.73 261.326 137.636 260.437 141.211C259.547 144.786 259.039 146.747 258.912 147.091C258.404 148.598 257.524 149.796 256.271 150.685C255.019 151.574 253.767 152.028 252.514 152.046C251.698 152.046 250.981 151.847 250.364 151.447C249.747 151.048 249.438 150.449 249.438 149.651C249.438 149.251 249.502 148.915 249.629 148.643C249.756 148.371 249.928 148.171 250.146 148.044C250.364 147.917 250.545 147.827 250.69 147.772C250.836 147.718 250.99 147.69 251.153 147.69C251.952 147.69 252.351 148.072 252.351 148.834C252.351 149.197 252.242 149.514 252.024 149.787C251.807 150.059 251.598 150.24 251.398 150.331C251.199 150.422 251.081 150.467 251.044 150.467L250.963 150.494C250.999 150.585 251.171 150.694 251.48 150.821C251.788 150.948 252.097 151.012 252.405 151.012H252.623C252.932 151.012 253.168 150.994 253.331 150.957C253.93 150.794 254.484 150.449 254.992 149.923C255.5 149.396 255.89 148.834 256.162 148.235C256.435 147.636 256.643 147.128 256.789 146.71C256.934 146.293 257.006 146.021 257.006 145.894L256.843 146.002C256.734 146.075 256.562 146.175 256.326 146.302C256.09 146.429 255.854 146.538 255.618 146.629C255.255 146.719 254.901 146.765 254.556 146.765C253.721 146.765 252.986 146.565 252.351 146.166C251.716 145.767 251.298 145.122 251.099 144.233C251.081 144.106 251.071 143.825 251.071 143.389C251.071 142.354 251.389 141.002 252.024 139.333C252.66 137.663 252.977 136.601 252.977 136.147C252.977 136.129 252.977 136.111 252.977 136.093C252.977 135.93 252.977 135.821 252.977 135.766C252.977 135.712 252.941 135.648 252.868 135.576C252.796 135.503 252.696 135.467 252.569 135.467H252.46C252.042 135.467 251.661 135.639 251.317 135.984C250.972 136.329 250.699 136.701 250.5 137.1C250.3 137.499 250.146 137.881 250.037 138.244C249.928 138.607 249.855 138.806 249.819 138.843C249.783 138.879 249.638 138.897 249.384 138.897H249.002C248.894 138.788 248.839 138.706 248.839 138.652Z" fill="black"/>
<path d="M252.694 132.009L256.424 128.361L256.642 128.579C259.001 130.829 260.181 131.973 260.181 132.009L259.473 132.799C259.437 132.781 258.91 132.327 257.894 131.437L256.451 130.185L254.954 131.465C254.718 131.664 254.482 131.873 254.246 132.091C254.01 132.309 253.819 132.481 253.674 132.608L253.456 132.771C253.42 132.808 253.284 132.681 253.048 132.39L252.694 132.009Z" fill="black"/>
<path d="M239.945 169.715C239.528 169.715 239.228 169.606 239.047 169.388C238.865 169.17 238.765 168.925 238.747 168.653C238.747 168.472 238.802 168.199 238.91 167.836C239.019 167.473 239.21 167.047 239.482 166.557C239.754 166.067 240.163 165.604 240.707 165.168C241.252 164.733 241.896 164.415 242.64 164.215L243.511 164.079H243.838C244.437 164.079 244.791 164.088 244.9 164.107C246.043 164.306 246.996 164.787 247.758 165.549C248.521 166.312 249.065 167.156 249.392 168.081C249.718 169.007 249.873 170.014 249.855 171.103C249.855 172.827 249.428 174.797 248.575 177.011C247.722 179.225 246.66 180.922 245.39 182.102C243.92 183.463 242.295 184.144 240.517 184.144C238.702 184.144 237.341 183.436 236.433 182.02C235.87 181.185 235.589 180.35 235.589 179.515V179.216C235.589 177.092 236.379 175.178 237.958 173.472C239.537 171.766 241.288 170.904 243.212 170.885C244.319 170.885 245.154 171.167 245.717 171.729C246.279 172.292 246.651 172.9 246.833 173.553L246.914 173.254C247.277 171.747 247.459 170.504 247.459 169.524C247.459 167.927 247.087 166.802 246.343 166.148C245.599 165.495 244.755 165.159 243.811 165.141C242.395 165.141 241.297 165.722 240.517 166.883C241.261 166.992 241.633 167.355 241.633 167.972C241.633 168.426 241.47 168.825 241.143 169.17C240.816 169.515 240.417 169.697 239.945 169.715ZM246.152 175.214C246.152 174.016 245.889 173.163 245.363 172.655C244.836 172.147 244.219 171.893 243.511 171.893C242.368 171.893 241.361 172.31 240.489 173.145C240.036 173.653 239.682 174.189 239.428 174.751C239.174 175.314 238.874 176.239 238.529 177.528C238.203 178.835 238.039 179.788 238.039 180.387C238.039 182.111 238.947 182.973 240.762 182.973C240.979 182.973 241.143 182.964 241.252 182.946C242.649 182.71 243.775 181.893 244.628 180.496C244.9 180.042 245.217 179.28 245.58 178.209C245.943 177.138 246.134 176.14 246.152 175.214Z" fill="black"/>
<path d="M251.842 165.93C251.842 165.749 251.878 165.54 251.951 165.304C252.023 165.068 252.132 164.95 252.278 164.95C252.296 164.95 252.949 164.905 254.238 164.814C255.526 164.724 256.189 164.669 256.225 164.651C256.443 164.651 256.552 164.733 256.552 164.896C256.552 165.059 256.243 166.357 255.626 168.789C255.481 169.406 255.327 170.041 255.163 170.695C255 171.348 254.864 171.838 254.755 172.165L254.646 172.682C254.646 172.737 254.701 172.709 254.809 172.6C255.699 171.874 256.615 171.511 257.559 171.511C258.684 171.511 259.592 171.929 260.281 172.764C260.971 173.599 261.325 174.651 261.343 175.922C261.343 177.936 260.626 179.76 259.193 181.394C257.759 183.027 256.216 183.844 254.564 183.844C253.657 183.844 252.831 183.499 252.087 182.809C251.343 182.12 250.962 181.004 250.944 179.461V179.216C250.944 178.835 251.016 178.308 251.161 177.637C251.307 176.965 251.751 175.178 252.495 172.274C253.403 168.698 253.857 166.802 253.857 166.584C253.857 166.366 253.512 166.239 252.822 166.203C252.731 166.203 252.659 166.203 252.604 166.203H252.468C252.287 166.203 252.169 166.203 252.114 166.203C252.06 166.203 251.996 166.176 251.924 166.121C251.851 166.067 251.824 166.003 251.842 165.93ZM259.002 174.697V174.533C259.002 173.19 258.448 172.519 257.341 172.519C257.033 172.519 256.715 172.591 256.388 172.737C256.062 172.882 255.762 173.072 255.49 173.308C255.218 173.544 254.982 173.762 254.782 173.962C254.583 174.161 254.419 174.361 254.292 174.561L254.129 174.778L253.557 177.12C253.158 178.68 252.958 179.788 252.958 180.441C252.958 181.312 253.176 181.966 253.612 182.401C253.902 182.692 254.265 182.837 254.701 182.837C255.299 182.837 255.907 182.546 256.525 181.966C256.978 181.548 257.341 181.04 257.614 180.441C257.886 179.842 258.185 178.889 258.512 177.582C258.839 176.276 259.002 175.314 259.002 174.697Z" fill="black"/>
<path d="M265.979 158.879H230V157.246H265.979V158.879Z" fill="black"/>
<path d="M280.735 132.635C280.317 132.635 280.018 132.527 279.836 132.309C279.655 132.091 279.555 131.846 279.537 131.574C279.537 131.392 279.591 131.12 279.7 130.757C279.809 130.394 280 129.967 280.272 129.477C280.544 128.987 280.953 128.525 281.497 128.089C282.042 127.653 282.686 127.336 283.43 127.136L284.301 127H284.628C285.227 127 285.581 127.009 285.69 127.027C286.833 127.227 287.786 127.708 288.548 128.47C289.31 129.232 289.855 130.076 290.182 131.002C290.508 131.928 290.663 132.935 290.644 134.024C290.644 135.748 290.218 137.717 289.365 139.931C288.512 142.146 287.45 143.843 286.18 145.022C284.71 146.384 283.085 147.064 281.307 147.064C279.492 147.064 278.13 146.356 277.223 144.941C276.66 144.106 276.379 143.271 276.379 142.436V142.137C276.379 140.013 277.168 138.098 278.747 136.392C280.326 134.686 282.078 133.824 284.002 133.806C285.109 133.806 285.944 134.087 286.506 134.65C287.069 135.213 287.441 135.821 287.623 136.474L287.704 136.175C288.067 134.668 288.249 133.425 288.249 132.445C288.249 130.848 287.877 129.722 287.133 129.069C286.388 128.416 285.544 128.08 284.601 128.062C283.185 128.062 282.087 128.643 281.307 129.804C282.051 129.913 282.423 130.276 282.423 130.893C282.423 131.347 282.259 131.746 281.933 132.091C281.606 132.436 281.207 132.617 280.735 132.635ZM286.942 138.135C286.942 136.937 286.679 136.084 286.152 135.576C285.626 135.067 285.009 134.813 284.301 134.813C283.158 134.813 282.15 135.231 281.279 136.066C280.826 136.574 280.472 137.109 280.218 137.672C279.963 138.235 279.664 139.16 279.319 140.449C278.992 141.755 278.829 142.708 278.829 143.307C278.829 145.031 279.737 145.894 281.552 145.894C281.769 145.894 281.933 145.884 282.042 145.866C283.439 145.63 284.564 144.814 285.417 143.416C285.69 142.962 286.007 142.2 286.37 141.129C286.733 140.059 286.924 139.06 286.942 138.135Z" fill="black"/>
<path d="M291.788 145.213H292.169C292.877 145.213 293.303 145.086 293.448 144.832V144.614C293.448 144.451 293.448 144.242 293.448 143.988C293.448 143.734 293.448 143.434 293.448 143.089C293.448 142.745 293.458 142.354 293.476 141.919C293.494 141.483 293.494 141.029 293.476 140.558C293.458 140.086 293.458 139.587 293.476 139.06C293.494 138.534 293.494 138.017 293.476 137.508C293.476 136.837 293.476 136.129 293.476 135.385C293.476 134.641 293.476 133.96 293.476 133.343C293.476 132.726 293.476 132.182 293.476 131.71C293.476 131.238 293.467 130.839 293.448 130.512C293.43 130.185 293.43 130.031 293.448 130.049C293.394 129.704 293.267 129.477 293.067 129.368C292.868 129.26 292.459 129.178 291.842 129.123H291.352V128.497C291.352 128.08 291.37 127.871 291.407 127.871L291.679 127.844C291.86 127.826 292.124 127.808 292.468 127.789C292.813 127.771 293.149 127.753 293.476 127.735C293.784 127.717 294.12 127.699 294.483 127.681C294.846 127.662 295.118 127.635 295.3 127.599C295.481 127.563 295.581 127.553 295.599 127.572H295.681V136.147C295.681 141.901 295.69 144.795 295.708 144.832C295.781 144.977 295.89 145.077 296.035 145.131C296.416 145.186 296.861 145.213 297.369 145.213H297.804V146.465H297.587L296.96 146.438C296.543 146.42 296.098 146.411 295.626 146.411C295.154 146.411 294.81 146.402 294.592 146.384C294.374 146.365 294.029 146.365 293.557 146.384C293.085 146.402 292.632 146.42 292.196 146.438L291.57 146.465H291.352V145.213H291.788Z" fill="black"/>
<path d="M298.975 140.639C298.975 138.915 299.565 137.427 300.744 136.174C301.924 134.922 303.349 134.287 305.019 134.269C306.652 134.269 308.059 134.886 309.238 136.12C310.418 137.354 311.017 138.851 311.035 140.612C311.035 142.336 310.454 143.788 309.293 144.968C308.131 146.148 306.707 146.737 305.019 146.737C303.258 146.737 301.815 146.129 300.69 144.913C299.565 143.697 298.993 142.273 298.975 140.639ZM305.019 145.648C307.233 145.648 308.34 144.169 308.34 141.211V140.34V139.659C308.34 139.26 308.331 138.915 308.313 138.625C308.295 138.334 308.231 137.989 308.122 137.59C308.013 137.191 307.868 136.864 307.687 136.61C307.505 136.356 307.224 136.102 306.843 135.848C306.462 135.594 306.017 135.412 305.509 135.303C305.418 135.285 305.273 135.276 305.073 135.276C304.529 135.276 304.011 135.385 303.521 135.603C302.741 136.002 302.233 136.556 301.997 137.263C301.761 137.971 301.643 138.806 301.643 139.768V140.313C301.643 142.055 301.815 143.28 302.16 143.988C302.741 145.095 303.694 145.648 305.019 145.648Z" fill="black"/>
<path d="M319.856 137.862C319.856 137.136 319.611 136.51 319.121 135.984C318.631 135.458 317.923 135.195 316.997 135.195C316.344 135.195 315.781 135.312 315.309 135.548C314.765 135.893 314.493 136.365 314.493 136.964C314.475 137.055 314.475 137.173 314.493 137.318C314.511 137.463 314.656 137.681 314.928 137.971C315.201 138.262 315.591 138.489 316.099 138.652C316.426 138.743 316.825 138.824 317.297 138.897C317.769 138.97 318.168 139.051 318.495 139.142C318.821 139.233 319.112 139.351 319.366 139.496C319.674 139.641 319.974 139.823 320.264 140.04C320.555 140.258 320.845 140.63 321.135 141.157C321.426 141.683 321.58 142.246 321.598 142.844C321.598 143.97 321.253 144.895 320.564 145.621C319.874 146.347 318.758 146.719 317.215 146.738H316.997C316.054 146.738 315.182 146.411 314.384 145.757L314.166 145.948L313.921 146.193C313.812 146.302 313.703 146.402 313.594 146.493L313.295 146.765H313.077H312.968C312.914 146.765 312.832 146.71 312.723 146.601V144.451V142.872C312.723 142.491 312.741 142.264 312.778 142.191C312.814 142.119 312.905 142.073 313.05 142.055H313.295C313.513 142.055 313.658 142.091 313.73 142.164C313.803 142.236 313.848 142.345 313.867 142.491C313.885 142.636 313.948 142.881 314.057 143.226C314.166 143.57 314.338 143.952 314.574 144.369C315.21 145.295 316.09 145.757 317.215 145.757C318.976 145.757 319.856 145.05 319.856 143.634C319.856 143.108 319.693 142.681 319.366 142.354C319.003 141.919 318.25 141.592 317.106 141.374C315.963 141.157 315.21 140.948 314.847 140.748C314.193 140.44 313.676 140.022 313.295 139.496C312.914 138.97 312.723 138.407 312.723 137.808C312.723 137.1 312.877 136.501 313.186 136.011C313.494 135.521 313.885 135.158 314.357 134.922C314.828 134.686 315.282 134.523 315.718 134.432C316.153 134.341 316.553 134.296 316.916 134.296H317.215C317.941 134.296 318.576 134.432 319.121 134.704L319.529 134.922L319.774 134.732C319.956 134.568 320.155 134.414 320.373 134.269H320.591H320.7C320.754 134.269 320.836 134.323 320.945 134.432V138.026L320.781 138.189H320.019C319.91 138.08 319.856 137.971 319.856 137.862Z" fill="black"/>
<path d="M330.582 137.862C330.582 137.136 330.337 136.51 329.847 135.984C329.357 135.458 328.649 135.195 327.724 135.195C327.07 135.195 326.508 135.312 326.036 135.548C325.491 135.893 325.219 136.365 325.219 136.964C325.201 137.055 325.201 137.173 325.219 137.318C325.237 137.463 325.382 137.681 325.655 137.971C325.927 138.262 326.317 138.489 326.825 138.652C327.152 138.743 327.551 138.824 328.023 138.897C328.495 138.97 328.894 139.051 329.221 139.142C329.548 139.233 329.838 139.351 330.092 139.496C330.401 139.641 330.7 139.823 330.991 140.04C331.281 140.258 331.571 140.63 331.862 141.157C332.152 141.683 332.306 142.246 332.325 142.844C332.325 143.97 331.98 144.895 331.29 145.621C330.6 146.347 329.484 146.719 327.941 146.738H327.724C326.78 146.738 325.909 146.411 325.11 145.757L324.892 145.948L324.647 146.193C324.538 146.302 324.43 146.402 324.321 146.493L324.021 146.765H323.803H323.694C323.64 146.765 323.558 146.71 323.449 146.601V144.451V142.872C323.449 142.491 323.468 142.264 323.504 142.191C323.54 142.119 323.631 142.073 323.776 142.055H324.021C324.239 142.055 324.384 142.091 324.457 142.164C324.529 142.236 324.575 142.345 324.593 142.491C324.611 142.636 324.675 142.881 324.783 143.226C324.892 143.57 325.065 143.952 325.301 144.369C325.936 145.295 326.816 145.757 327.941 145.757C329.702 145.757 330.582 145.05 330.582 143.634C330.582 143.108 330.419 142.681 330.092 142.354C329.729 141.919 328.976 141.592 327.833 141.374C326.689 141.157 325.936 140.948 325.573 140.748C324.92 140.44 324.402 140.022 324.021 139.496C323.64 138.97 323.449 138.407 323.449 137.808C323.449 137.1 323.604 136.501 323.912 136.011C324.221 135.521 324.611 135.158 325.083 134.922C325.555 134.686 326.009 134.523 326.444 134.432C326.88 134.341 327.279 134.296 327.642 134.296H327.941C328.667 134.296 329.303 134.432 329.847 134.704L330.256 134.922L330.501 134.732C330.682 134.568 330.882 134.414 331.099 134.269H331.317H331.426C331.481 134.269 331.562 134.323 331.671 134.432V138.026L331.508 138.189H330.746C330.637 138.08 330.582 137.971 330.582 137.862Z" fill="black"/>
<path d="M294.488 170.776C294.071 170.776 293.772 170.667 293.59 170.45C293.409 170.232 293.309 169.987 293.291 169.715C293.291 169.533 293.345 169.261 293.454 168.898C293.563 168.535 293.753 168.108 294.026 167.618C294.298 167.128 294.706 166.666 295.251 166.23C295.795 165.794 296.44 165.477 297.184 165.277L298.055 165.141H298.382C298.98 165.141 299.334 165.15 299.443 165.168C300.587 165.368 301.54 165.849 302.302 166.611C303.064 167.373 303.609 168.217 303.935 169.143C304.262 170.069 304.416 171.076 304.398 172.165C304.398 173.889 303.972 175.858 303.119 178.072C302.266 180.287 301.204 181.984 299.933 183.163C298.463 184.525 296.839 185.205 295.06 185.205C293.245 185.205 291.884 184.497 290.977 183.082C290.414 182.247 290.133 181.412 290.133 180.577V180.278C290.133 178.154 290.922 176.239 292.501 174.533C294.08 172.827 295.832 171.965 297.755 171.947C298.863 171.947 299.697 172.228 300.26 172.791C300.823 173.354 301.195 173.962 301.376 174.615L301.458 174.316C301.821 172.809 302.002 171.566 302.002 170.586C302.002 168.989 301.63 167.863 300.886 167.21C300.142 166.557 299.298 166.221 298.354 166.203C296.939 166.203 295.841 166.784 295.06 167.945C295.804 168.054 296.176 168.417 296.176 169.034C296.176 169.488 296.013 169.887 295.686 170.232C295.36 170.577 294.96 170.758 294.488 170.776ZM300.696 176.276C300.696 175.078 300.432 174.225 299.906 173.717C299.38 173.208 298.763 172.954 298.055 172.954C296.911 172.954 295.904 173.372 295.033 174.207C294.579 174.715 294.225 175.25 293.971 175.813C293.717 176.375 293.418 177.301 293.073 178.59C292.746 179.896 292.583 180.849 292.583 181.448C292.583 183.172 293.49 184.035 295.305 184.035C295.523 184.035 295.686 184.025 295.795 184.007C297.193 183.771 298.318 182.955 299.171 181.557C299.443 181.103 299.761 180.341 300.124 179.27C300.487 178.2 300.677 177.201 300.696 176.276Z" fill="black"/>
<path d="M305.106 176.793C305.106 176.539 305.242 176.103 305.514 175.486C305.787 174.869 306.222 174.225 306.821 173.553C307.42 172.882 308.091 172.555 308.836 172.573C309.58 172.573 310.179 172.782 310.632 173.199C311.086 173.617 311.322 174.198 311.34 174.942C311.304 175.287 311.277 175.477 311.259 175.513C311.259 175.568 311.113 175.985 310.823 176.766C310.533 177.546 310.233 178.426 309.925 179.406C309.616 180.387 309.471 181.167 309.489 181.748C309.489 182.528 309.616 183.073 309.87 183.381C310.124 183.69 310.505 183.853 311.014 183.871C311.431 183.871 311.821 183.771 312.184 183.572C312.547 183.372 312.828 183.163 313.028 182.946C313.228 182.728 313.473 182.428 313.763 182.047C313.763 182.029 313.809 181.848 313.899 181.503C313.99 181.158 314.117 180.622 314.28 179.897C314.444 179.171 314.616 178.499 314.798 177.882C315.487 175.16 315.869 173.735 315.941 173.608C316.177 173.118 316.567 172.873 317.112 172.873C317.348 172.873 317.538 172.936 317.683 173.063C317.829 173.19 317.928 173.299 317.983 173.39C318.037 173.481 318.056 173.562 318.037 173.635C318.037 173.871 317.593 175.777 316.703 179.352C315.814 182.927 315.306 184.888 315.179 185.232C314.671 186.739 313.79 187.937 312.538 188.826C311.286 189.715 310.033 190.169 308.781 190.187C307.964 190.187 307.248 189.988 306.63 189.588C306.013 189.189 305.705 188.59 305.705 187.792C305.705 187.392 305.768 187.056 305.895 186.784C306.022 186.512 306.195 186.312 306.413 186.185C306.63 186.058 306.812 185.968 306.957 185.913C307.102 185.859 307.257 185.831 307.42 185.831C308.219 185.831 308.618 186.213 308.618 186.975C308.618 187.338 308.509 187.655 308.291 187.928C308.073 188.2 307.865 188.381 307.665 188.472C307.465 188.563 307.347 188.608 307.311 188.608L307.229 188.635C307.266 188.726 307.438 188.835 307.747 188.962C308.055 189.089 308.364 189.153 308.672 189.153H308.89C309.199 189.153 309.435 189.135 309.598 189.098C310.197 188.935 310.75 188.59 311.259 188.064C311.767 187.537 312.157 186.975 312.429 186.376C312.701 185.777 312.91 185.269 313.055 184.851C313.201 184.434 313.273 184.162 313.273 184.035L313.11 184.143C313.001 184.216 312.828 184.316 312.593 184.443C312.357 184.57 312.121 184.679 311.885 184.77C311.522 184.86 311.168 184.906 310.823 184.906C309.988 184.906 309.253 184.706 308.618 184.307C307.983 183.908 307.565 183.263 307.366 182.374C307.347 182.247 307.338 181.966 307.338 181.53C307.338 180.495 307.656 179.143 308.291 177.474C308.926 175.804 309.244 174.742 309.244 174.288C309.244 174.27 309.244 174.252 309.244 174.234C309.244 174.071 309.244 173.962 309.244 173.907C309.244 173.853 309.208 173.789 309.135 173.717C309.062 173.644 308.963 173.608 308.836 173.608H308.727C308.309 173.608 307.928 173.78 307.583 174.125C307.238 174.47 306.966 174.842 306.767 175.241C306.567 175.64 306.413 176.022 306.304 176.385C306.195 176.748 306.122 176.947 306.086 176.984C306.05 177.02 305.904 177.038 305.65 177.038H305.269C305.16 176.929 305.106 176.847 305.106 176.793Z" fill="black"/>
<path d="M308.961 170.15L312.691 166.502L312.908 166.72C315.268 168.971 316.447 170.114 316.447 170.15L315.74 170.94C315.703 170.922 315.177 170.468 314.161 169.579L312.718 168.326L311.22 169.606C310.984 169.805 310.749 170.014 310.513 170.232C310.277 170.45 310.086 170.622 309.941 170.749L309.723 170.913C309.687 170.949 309.551 170.822 309.315 170.531L308.961 170.15Z" fill="black"/>
<path d="M336 158.879H272.513V157.246H336V158.879Z" fill="black"/>
<path d="M236.457 217.664C236.038 217.664 235.737 217.554 235.554 217.335C235.372 217.116 235.272 216.87 235.253 216.597C235.253 216.414 235.308 216.141 235.418 215.776C235.527 215.411 235.719 214.982 235.992 214.49C236.266 213.997 236.676 213.532 237.223 213.094C237.771 212.657 238.418 212.337 239.166 212.137L240.042 212H240.37C240.972 212 241.328 212.009 241.437 212.027C242.586 212.228 243.544 212.711 244.31 213.477C245.076 214.244 245.623 215.092 245.951 216.022C246.28 216.952 246.435 217.965 246.417 219.059C246.417 220.792 245.988 222.771 245.131 224.996C244.273 227.222 243.206 228.927 241.929 230.113C240.452 231.481 238.819 232.165 237.032 232.165C235.208 232.165 233.84 231.453 232.928 230.031C232.362 229.192 232.08 228.353 232.08 227.513V227.213C232.08 225.078 232.873 223.154 234.46 221.439C236.047 219.725 237.807 218.858 239.741 218.84C240.853 218.84 241.692 219.123 242.258 219.688C242.823 220.254 243.197 220.865 243.38 221.521L243.462 221.221C243.826 219.707 244.009 218.457 244.009 217.472C244.009 215.867 243.635 214.736 242.887 214.079C242.139 213.423 241.291 213.085 240.343 213.067C238.92 213.067 237.816 213.651 237.032 214.818C237.78 214.928 238.154 215.292 238.154 215.913C238.154 216.369 237.989 216.77 237.661 217.116C237.333 217.463 236.932 217.645 236.457 217.664ZM242.696 223.19C242.696 221.987 242.431 221.129 241.902 220.619C241.373 220.108 240.753 219.852 240.042 219.852C238.892 219.852 237.88 220.272 237.005 221.111C236.549 221.622 236.193 222.16 235.937 222.725C235.682 223.291 235.381 224.221 235.035 225.516C234.706 226.829 234.542 227.787 234.542 228.389C234.542 230.122 235.454 230.988 237.278 230.988C237.497 230.988 237.661 230.979 237.771 230.961C239.175 230.724 240.306 229.903 241.163 228.498C241.437 228.042 241.756 227.276 242.121 226.2C242.486 225.124 242.677 224.121 242.696 223.19Z" fill="black"/>
<path d="M247.128 223.71C247.128 223.455 247.265 223.017 247.538 222.397C247.812 221.777 248.25 221.129 248.852 220.454C249.454 219.78 250.129 219.451 250.876 219.47C251.624 219.47 252.226 219.679 252.682 220.099C253.138 220.518 253.375 221.102 253.394 221.85C253.357 222.196 253.33 222.388 253.312 222.424C253.312 222.479 253.166 222.899 252.874 223.683C252.582 224.467 252.281 225.352 251.971 226.337C251.661 227.322 251.515 228.106 251.533 228.69C251.533 229.474 251.661 230.022 251.916 230.332C252.171 230.642 252.555 230.806 253.065 230.824C253.485 230.824 253.877 230.724 254.242 230.523C254.607 230.323 254.889 230.113 255.09 229.894C255.291 229.675 255.537 229.374 255.829 228.991C255.829 228.973 255.874 228.79 255.965 228.444C256.057 228.097 256.184 227.559 256.349 226.83C256.513 226.1 256.686 225.425 256.868 224.805C257.562 222.069 257.945 220.637 258.018 220.509C258.255 220.017 258.647 219.77 259.194 219.77C259.431 219.77 259.623 219.834 259.769 219.962C259.915 220.09 260.015 220.199 260.07 220.29C260.124 220.382 260.143 220.464 260.124 220.537C260.124 220.774 259.677 222.689 258.784 226.282C257.89 229.876 257.379 231.846 257.251 232.192C256.741 233.706 255.856 234.91 254.597 235.804C253.339 236.698 252.08 237.154 250.822 237.172C250.001 237.172 249.28 236.971 248.66 236.57C248.04 236.169 247.73 235.567 247.73 234.764C247.73 234.363 247.794 234.025 247.921 233.752C248.049 233.478 248.222 233.278 248.441 233.15C248.66 233.022 248.843 232.931 248.989 232.876C249.134 232.822 249.289 232.794 249.454 232.794C250.256 232.794 250.658 233.177 250.658 233.943C250.658 234.308 250.548 234.627 250.329 234.901C250.11 235.175 249.901 235.357 249.7 235.448C249.499 235.539 249.381 235.585 249.344 235.585L249.262 235.612C249.299 235.704 249.472 235.813 249.782 235.941C250.092 236.068 250.402 236.132 250.712 236.132H250.931C251.241 236.132 251.478 236.114 251.643 236.077C252.244 235.913 252.801 235.567 253.312 235.038C253.822 234.509 254.214 233.943 254.488 233.341C254.762 232.739 254.971 232.229 255.117 231.809C255.263 231.39 255.336 231.116 255.336 230.988L255.172 231.098C255.063 231.171 254.889 231.271 254.652 231.399C254.415 231.526 254.178 231.636 253.941 231.727C253.576 231.818 253.22 231.864 252.874 231.864C252.035 231.864 251.296 231.663 250.658 231.262C250.019 230.861 249.6 230.213 249.399 229.319C249.381 229.192 249.372 228.909 249.372 228.471C249.372 227.431 249.691 226.073 250.329 224.394C250.968 222.716 251.287 221.649 251.287 221.193C251.287 221.175 251.287 221.157 251.287 221.139C251.287 220.974 251.287 220.865 251.287 220.81C251.287 220.755 251.25 220.692 251.177 220.619C251.104 220.546 251.004 220.509 250.876 220.509H250.767C250.347 220.509 249.964 220.683 249.618 221.029C249.271 221.376 248.998 221.75 248.797 222.151C248.596 222.552 248.441 222.935 248.332 223.3C248.222 223.665 248.149 223.865 248.113 223.902C248.076 223.938 247.931 223.957 247.675 223.957H247.292C247.183 223.847 247.128 223.765 247.128 223.71Z" fill="black"/>
<path d="M251.002 217.034L254.751 213.368L254.969 213.587C257.341 215.849 258.526 216.998 258.526 217.034L257.815 217.828C257.779 217.81 257.25 217.354 256.228 216.46L254.778 215.201L253.273 216.487C253.036 216.688 252.799 216.898 252.562 217.117C252.325 217.335 252.133 217.509 251.987 217.636L251.768 217.801C251.732 217.837 251.595 217.709 251.358 217.417L251.002 217.034Z" fill="black"/>
<path d="M234.263 254.929C233.843 254.929 233.542 254.82 233.36 254.601C233.178 254.382 233.077 254.136 233.059 253.862C233.059 253.68 233.114 253.406 233.223 253.041C233.333 252.676 233.524 252.248 233.798 251.755C234.071 251.263 234.482 250.798 235.029 250.36C235.576 249.922 236.224 249.603 236.972 249.402L237.847 249.265H238.175C238.777 249.265 239.133 249.274 239.242 249.293C240.392 249.493 241.349 249.977 242.115 250.743C242.881 251.509 243.429 252.357 243.757 253.287C244.085 254.218 244.24 255.23 244.222 256.324C244.222 258.057 243.793 260.036 242.936 262.262C242.079 264.487 241.012 266.192 239.735 267.378C238.258 268.746 236.625 269.43 234.837 269.43C233.013 269.43 231.645 268.719 230.733 267.296C230.168 266.457 229.885 265.618 229.885 264.779V264.478C229.885 262.344 230.679 260.419 232.266 258.705C233.852 256.99 235.613 256.124 237.546 256.106C238.659 256.106 239.498 256.388 240.063 256.954C240.629 257.519 241.003 258.13 241.185 258.787L241.267 258.486C241.632 256.972 241.814 255.722 241.814 254.737C241.814 253.132 241.44 252.001 240.693 251.345C239.945 250.688 239.097 250.351 238.148 250.332C236.725 250.332 235.622 250.916 234.837 252.084C235.585 252.193 235.959 252.558 235.959 253.178C235.959 253.634 235.795 254.035 235.467 254.382C235.138 254.728 234.737 254.911 234.263 254.929ZM240.501 260.456C240.501 259.252 240.237 258.395 239.708 257.884C239.179 257.373 238.558 257.118 237.847 257.118C236.698 257.118 235.686 257.537 234.81 258.376C234.354 258.887 233.998 259.425 233.743 259.991C233.488 260.556 233.187 261.486 232.84 262.782C232.512 264.095 232.348 265.052 232.348 265.654C232.348 267.387 233.26 268.254 235.084 268.254C235.303 268.254 235.467 268.245 235.576 268.226C236.981 267.989 238.112 267.168 238.969 265.764C239.242 265.308 239.562 264.542 239.927 263.466C240.291 262.389 240.483 261.386 240.501 260.456Z" fill="black"/>
<path d="M260.091 258.294C260.091 257.911 260.265 257.555 260.611 257.227C260.958 256.899 261.341 256.726 261.76 256.707C262.089 256.707 262.39 256.871 262.663 257.2C262.937 257.528 263.083 258.048 263.101 258.759C263.101 259.288 262.928 260.337 262.581 261.906C262.308 262.927 262.061 263.766 261.842 264.423C261.624 265.08 261.304 265.818 260.885 266.639C260.465 267.46 259.964 268.08 259.38 268.5C258.796 268.919 258.14 269.129 257.41 269.129C256.607 269.129 255.896 268.983 255.276 268.691C254.656 268.399 254.209 268.007 253.935 267.515C253.917 267.533 253.89 267.569 253.853 267.624C253.105 268.627 252.193 269.129 251.117 269.129C250.643 269.129 250.187 269.074 249.749 268.965C249.311 268.855 248.883 268.682 248.463 268.445C248.044 268.208 247.706 267.852 247.451 267.378C247.195 266.904 247.068 266.329 247.068 265.654C247.068 264.669 247.378 263.338 247.998 261.66C248.618 259.981 248.937 258.914 248.956 258.458C248.956 258.44 248.956 258.422 248.956 258.404C248.956 258.239 248.956 258.13 248.956 258.075C248.956 258.021 248.919 257.957 248.846 257.884C248.773 257.811 248.673 257.774 248.545 257.774H248.436C248.016 257.774 247.633 257.948 247.287 258.294C246.94 258.641 246.666 259.015 246.466 259.416C246.265 259.817 246.11 260.2 246.001 260.565C245.891 260.93 245.818 261.131 245.782 261.167C245.745 261.204 245.599 261.222 245.344 261.222H244.961C244.851 261.112 244.797 261.03 244.797 260.976C244.797 260.866 244.87 260.611 245.016 260.209C245.162 259.808 245.371 259.343 245.645 258.814C245.919 258.285 246.32 257.811 246.849 257.391C247.378 256.972 247.971 256.762 248.627 256.762C249.412 256.762 250.014 256.99 250.433 257.446C250.853 257.902 251.062 258.431 251.062 259.033C251.062 259.361 250.761 260.346 250.159 261.988C249.558 263.63 249.257 264.897 249.257 265.791C249.257 266.63 249.448 267.223 249.831 267.569C250.214 267.916 250.698 268.098 251.281 268.117C252.066 268.117 252.759 267.56 253.361 266.448L253.497 266.201V265.572C253.497 265.517 253.497 265.435 253.497 265.326C253.497 265.216 253.507 265.143 253.525 265.107C253.543 265.071 253.552 265.007 253.552 264.915C253.552 264.824 253.561 264.742 253.58 264.669C253.598 264.596 253.625 264.478 253.662 264.314C253.698 264.149 253.725 263.994 253.744 263.848C253.762 263.702 253.817 263.484 253.908 263.192C253.999 262.9 254.072 262.608 254.127 262.316C254.181 262.024 254.282 261.632 254.428 261.14C254.957 259.06 255.258 257.939 255.331 257.774C255.568 257.282 255.96 257.036 256.507 257.036C256.854 257.036 257.091 257.127 257.219 257.309C257.346 257.492 257.419 257.665 257.437 257.829C257.437 258.066 257.173 259.234 256.644 261.331C256.115 263.429 255.823 264.633 255.768 264.943C255.732 265.143 255.714 265.463 255.714 265.9V266.092C255.714 266.366 255.741 266.63 255.796 266.885C255.85 267.141 256.024 267.405 256.316 267.679C256.607 267.953 257.018 268.098 257.547 268.117C258.842 268.117 259.872 267.004 260.639 264.779C260.803 264.359 260.985 263.766 261.186 263C261.386 262.234 261.496 261.687 261.514 261.359C261.514 260.757 261.396 260.282 261.158 259.936C260.921 259.589 260.684 259.297 260.447 259.06C260.21 258.823 260.091 258.568 260.091 258.294Z" fill="black"/>
<path d="M266.549 244.039H226V242.398H266.549V244.039Z" fill="black"/>
<path d="M281.378 217.664C280.958 217.664 280.658 217.554 280.475 217.335C280.293 217.116 280.192 216.87 280.174 216.597C280.174 216.414 280.229 216.141 280.338 215.776C280.448 215.411 280.639 214.982 280.913 214.49C281.186 213.997 281.597 213.532 282.144 213.094C282.691 212.657 283.339 212.337 284.087 212.137L284.962 212H285.291C285.893 212 286.248 212.009 286.358 212.027C287.507 212.228 288.464 212.711 289.231 213.477C289.997 214.244 290.544 215.092 290.872 216.022C291.2 216.952 291.356 217.965 291.337 219.059C291.337 220.792 290.909 222.771 290.051 224.996C289.194 227.222 288.127 228.927 286.85 230.113C285.373 231.481 283.74 232.165 281.953 232.165C280.129 232.165 278.761 231.453 277.848 230.031C277.283 229.192 277 228.353 277 227.513V227.213C277 225.078 277.794 223.154 279.381 221.439C280.968 219.725 282.728 218.858 284.661 218.84C285.774 218.84 286.613 219.123 287.178 219.688C287.744 220.254 288.118 220.865 288.3 221.521L288.382 221.221C288.747 219.707 288.93 218.457 288.93 217.472C288.93 215.867 288.556 214.736 287.808 214.079C287.06 213.423 286.212 213.085 285.263 213.067C283.84 213.067 282.737 213.651 281.953 214.818C282.7 214.928 283.074 215.292 283.074 215.913C283.074 216.369 282.91 216.77 282.582 217.116C282.254 217.463 281.852 217.645 281.378 217.664ZM287.616 223.19C287.616 221.987 287.352 221.129 286.823 220.619C286.294 220.108 285.674 219.852 284.962 219.852C283.813 219.852 282.801 220.272 281.925 221.111C281.469 221.622 281.114 222.16 280.858 222.725C280.603 223.291 280.302 224.221 279.955 225.516C279.627 226.829 279.463 227.787 279.463 228.389C279.463 230.122 280.375 230.988 282.199 230.988C282.418 230.988 282.582 230.979 282.691 230.961C284.096 230.724 285.227 229.903 286.084 228.498C286.358 228.042 286.677 227.276 287.042 226.2C287.406 225.124 287.598 224.121 287.616 223.19Z" fill="black"/>
<path d="M292.486 230.304H292.87C293.581 230.304 294.01 230.177 294.155 229.921V229.702C294.155 229.538 294.155 229.328 294.155 229.073C294.155 228.818 294.155 228.517 294.155 228.17C294.155 227.824 294.165 227.431 294.183 226.994C294.201 226.556 294.201 226.1 294.183 225.626C294.165 225.151 294.165 224.65 294.183 224.121C294.201 223.592 294.201 223.072 294.183 222.561C294.183 221.886 294.183 221.175 294.183 220.427C294.183 219.679 294.183 218.995 294.183 218.375C294.183 217.755 294.183 217.208 294.183 216.733C294.183 216.259 294.174 215.858 294.155 215.53C294.137 215.201 294.137 215.046 294.155 215.064C294.101 214.718 293.973 214.49 293.772 214.38C293.572 214.271 293.161 214.189 292.541 214.134H292.049V213.505C292.049 213.085 292.067 212.876 292.103 212.876L292.377 212.848C292.559 212.83 292.824 212.812 293.17 212.793C293.517 212.775 293.855 212.757 294.183 212.739C294.493 212.72 294.83 212.702 295.195 212.684C295.56 212.666 295.834 212.638 296.016 212.602C296.198 212.565 296.299 212.556 296.317 212.575H296.399V221.193C296.399 226.975 296.408 229.885 296.426 229.921C296.499 230.067 296.609 230.167 296.755 230.222C297.138 230.277 297.585 230.304 298.095 230.304H298.533V231.563H298.314L297.685 231.536C297.265 231.517 296.819 231.508 296.344 231.508C295.87 231.508 295.524 231.499 295.305 231.481C295.086 231.463 294.739 231.463 294.265 231.481C293.791 231.499 293.335 231.517 292.897 231.536L292.268 231.563H292.049V230.304H292.486Z" fill="black"/>
<path d="M299.71 225.708C299.71 223.975 300.302 222.479 301.488 221.221C302.674 219.962 304.106 219.324 305.784 219.305C307.425 219.305 308.839 219.926 310.025 221.166C311.21 222.406 311.812 223.911 311.83 225.68C311.83 227.413 311.247 228.872 310.079 230.058C308.912 231.244 307.48 231.837 305.784 231.837C304.014 231.837 302.564 231.225 301.433 230.003C300.302 228.781 299.728 227.349 299.71 225.708ZM305.784 230.742C308.009 230.742 309.122 229.256 309.122 226.282V225.407V224.723C309.122 224.321 309.113 223.975 309.094 223.683C309.076 223.391 309.012 223.045 308.903 222.643C308.793 222.242 308.647 221.914 308.465 221.658C308.283 221.403 308 221.148 307.617 220.892C307.234 220.637 306.787 220.455 306.276 220.345C306.185 220.327 306.039 220.318 305.838 220.318C305.291 220.318 304.771 220.427 304.279 220.646C303.495 221.047 302.984 221.604 302.747 222.315C302.51 223.026 302.391 223.865 302.391 224.832V225.379C302.391 227.131 302.564 228.362 302.911 229.073C303.495 230.186 304.452 230.742 305.784 230.742Z" fill="black"/>
<path d="M320.695 222.917C320.695 222.187 320.449 221.558 319.957 221.029C319.464 220.5 318.753 220.236 317.822 220.236C317.166 220.236 316.6 220.354 316.126 220.591C315.579 220.938 315.305 221.412 315.305 222.014C315.287 222.105 315.287 222.224 315.305 222.37C315.323 222.516 315.469 222.735 315.743 223.026C316.017 223.318 316.409 223.546 316.92 223.71C317.248 223.802 317.649 223.884 318.123 223.957C318.598 224.03 318.999 224.112 319.327 224.203C319.656 224.294 319.947 224.413 320.203 224.559C320.513 224.705 320.814 224.887 321.106 225.106C321.398 225.325 321.689 225.699 321.981 226.228C322.273 226.757 322.428 227.322 322.446 227.924C322.446 229.055 322.1 229.985 321.407 230.715C320.714 231.444 319.592 231.818 318.041 231.837H317.822C316.874 231.837 315.998 231.508 315.196 230.852L314.977 231.043L314.731 231.289C314.621 231.399 314.512 231.499 314.402 231.59L314.101 231.864H313.882H313.773C313.718 231.864 313.636 231.809 313.527 231.7V229.538V227.951C313.527 227.568 313.545 227.34 313.582 227.267C313.618 227.194 313.709 227.149 313.855 227.13H314.101C314.32 227.13 314.466 227.167 314.539 227.24C314.612 227.313 314.658 227.422 314.676 227.568C314.694 227.714 314.758 227.96 314.867 228.307C314.977 228.654 315.15 229.037 315.387 229.456C316.026 230.386 316.91 230.852 318.041 230.852C319.811 230.852 320.695 230.14 320.695 228.717C320.695 228.188 320.531 227.76 320.203 227.431C319.838 226.994 319.081 226.665 317.932 226.446C316.783 226.228 316.026 226.018 315.661 225.817C315.004 225.507 314.484 225.088 314.101 224.559C313.718 224.03 313.527 223.464 313.527 222.862C313.527 222.151 313.682 221.549 313.992 221.056C314.302 220.564 314.694 220.199 315.168 219.962C315.643 219.725 316.099 219.561 316.536 219.47C316.974 219.378 317.376 219.333 317.74 219.333H318.041C318.771 219.333 319.409 219.47 319.957 219.743L320.367 219.962L320.613 219.77C320.796 219.606 320.996 219.451 321.215 219.305H321.434H321.543C321.598 219.305 321.68 219.36 321.79 219.47V223.081L321.626 223.245H320.859C320.75 223.136 320.695 223.026 320.695 222.917Z" fill="black"/>
<path d="M331.475 222.917C331.475 222.187 331.229 221.558 330.737 221.029C330.244 220.5 329.533 220.236 328.603 220.236C327.946 220.236 327.38 220.354 326.906 220.591C326.359 220.938 326.085 221.412 326.085 222.014C326.067 222.105 326.067 222.224 326.085 222.37C326.104 222.516 326.25 222.735 326.523 223.026C326.797 223.318 327.189 223.546 327.7 223.71C328.028 223.802 328.429 223.884 328.904 223.957C329.378 224.03 329.779 224.112 330.107 224.203C330.436 224.294 330.728 224.413 330.983 224.559C331.293 224.705 331.594 224.887 331.886 225.106C332.178 225.325 332.47 225.699 332.761 226.228C333.053 226.757 333.208 227.322 333.227 227.924C333.227 229.055 332.88 229.985 332.187 230.715C331.494 231.444 330.372 231.818 328.821 231.837H328.603C327.654 231.837 326.779 231.508 325.976 230.852L325.757 231.043L325.511 231.289C325.401 231.399 325.292 231.499 325.182 231.59L324.882 231.864H324.663H324.553C324.498 231.864 324.416 231.809 324.307 231.7V229.538V227.951C324.307 227.568 324.325 227.34 324.362 227.267C324.398 227.194 324.489 227.149 324.635 227.13H324.882C325.1 227.13 325.246 227.167 325.319 227.24C325.392 227.313 325.438 227.422 325.456 227.568C325.474 227.714 325.538 227.96 325.648 228.307C325.757 228.654 325.93 229.037 326.167 229.456C326.806 230.386 327.691 230.852 328.821 230.852C330.591 230.852 331.475 230.14 331.475 228.717C331.475 228.188 331.311 227.76 330.983 227.431C330.618 226.994 329.861 226.665 328.712 226.446C327.563 226.228 326.806 226.018 326.441 225.817C325.784 225.507 325.265 225.088 324.882 224.559C324.498 224.03 324.307 223.464 324.307 222.862C324.307 222.151 324.462 221.549 324.772 221.056C325.082 220.564 325.474 220.199 325.949 219.962C326.423 219.725 326.879 219.561 327.317 219.47C327.754 219.378 328.156 219.333 328.52 219.333H328.821C329.551 219.333 330.189 219.47 330.737 219.743L331.147 219.962L331.393 219.77C331.576 219.606 331.776 219.451 331.995 219.305H332.214H332.324C332.378 219.305 332.46 219.36 332.57 219.47V223.081L332.406 223.245H331.64C331.53 223.136 331.475 223.026 331.475 222.917Z" fill="black"/>
<path d="M295.201 255.996C294.781 255.996 294.48 255.886 294.298 255.668C294.115 255.449 294.015 255.202 293.997 254.929C293.997 254.746 294.052 254.473 294.161 254.108C294.27 253.743 294.462 253.315 294.736 252.822C295.009 252.33 295.42 251.864 295.967 251.427C296.514 250.989 297.162 250.67 297.909 250.469L298.785 250.332H299.113C299.715 250.332 300.071 250.341 300.18 250.36C301.33 250.56 302.287 251.044 303.053 251.81C303.819 252.576 304.367 253.424 304.695 254.354C305.023 255.285 305.178 256.297 305.16 257.391C305.16 259.124 304.731 261.103 303.874 263.329C303.017 265.554 301.95 267.259 300.673 268.445C299.195 269.813 297.563 270.497 295.775 270.497C293.951 270.497 292.583 269.786 291.671 268.363C291.106 267.524 290.823 266.685 290.823 265.846V265.545C290.823 263.411 291.616 261.486 293.203 259.772C294.79 258.057 296.551 257.191 298.484 257.172C299.597 257.172 300.436 257.455 301.001 258.021C301.567 258.586 301.941 259.197 302.123 259.854L302.205 259.553C302.57 258.039 302.752 256.789 302.752 255.804C302.752 254.199 302.378 253.068 301.63 252.412C300.883 251.755 300.034 251.418 299.086 251.399C297.663 251.399 296.56 251.983 295.775 253.15C296.523 253.26 296.897 253.625 296.897 254.245C296.897 254.701 296.733 255.102 296.405 255.449C296.076 255.795 295.675 255.978 295.201 255.996ZM301.439 261.523C301.439 260.319 301.174 259.462 300.645 258.951C300.117 258.44 299.496 258.185 298.785 258.185C297.636 258.185 296.623 258.604 295.748 259.443C295.292 259.954 294.936 260.492 294.681 261.058C294.425 261.623 294.125 262.553 293.778 263.848C293.45 265.162 293.285 266.119 293.285 266.721C293.285 268.454 294.197 269.321 296.022 269.321C296.24 269.321 296.405 269.311 296.514 269.293C297.919 269.056 299.049 268.235 299.907 266.831C300.18 266.375 300.5 265.609 300.864 264.532C301.229 263.456 301.421 262.453 301.439 261.523Z" fill="black"/>
<path d="M305.871 262.043C305.871 261.787 306.008 261.35 306.282 260.729C306.555 260.109 306.993 259.462 307.595 258.787C308.197 258.112 308.872 257.784 309.62 257.802C310.368 257.802 310.969 258.012 311.425 258.431C311.882 258.851 312.119 259.434 312.137 260.182C312.1 260.529 312.073 260.72 312.055 260.757C312.055 260.811 311.909 261.231 311.617 262.015C311.325 262.8 311.024 263.684 310.714 264.669C310.404 265.654 310.258 266.439 310.276 267.022C310.276 267.807 310.404 268.354 310.659 268.664C310.915 268.974 311.298 269.138 311.809 269.156C312.228 269.156 312.62 269.056 312.985 268.856C313.35 268.655 313.633 268.445 313.833 268.226C314.034 268.007 314.28 267.706 314.572 267.323C314.572 267.305 314.618 267.123 314.709 266.776C314.8 266.43 314.928 265.891 315.092 265.162C315.256 264.432 315.429 263.757 315.612 263.137C316.305 260.401 316.688 258.969 316.761 258.841C316.998 258.349 317.39 258.103 317.937 258.103C318.174 258.103 318.366 258.167 318.512 258.294C318.658 258.422 318.758 258.531 318.813 258.623C318.868 258.714 318.886 258.796 318.868 258.869C318.868 259.106 318.421 261.021 317.527 264.615C316.633 268.208 316.122 270.178 315.995 270.525C315.484 272.038 314.599 273.242 313.341 274.136C312.082 275.03 310.824 275.486 309.565 275.504C308.744 275.504 308.024 275.304 307.403 274.902C306.783 274.501 306.473 273.899 306.473 273.096C306.473 272.695 306.537 272.358 306.665 272.084C306.792 271.81 306.966 271.61 307.185 271.482C307.403 271.354 307.586 271.263 307.732 271.209C307.878 271.154 308.033 271.126 308.197 271.126C309 271.126 309.401 271.509 309.401 272.276C309.401 272.64 309.291 272.96 309.072 273.233C308.854 273.507 308.644 273.689 308.443 273.78C308.243 273.872 308.124 273.917 308.087 273.917L308.005 273.945C308.042 274.036 308.215 274.145 308.525 274.273C308.835 274.401 309.145 274.464 309.456 274.464H309.674C309.984 274.464 310.222 274.446 310.386 274.41C310.988 274.246 311.544 273.899 312.055 273.37C312.566 272.841 312.958 272.276 313.231 271.674C313.505 271.072 313.715 270.561 313.861 270.141C314.007 269.722 314.079 269.448 314.079 269.321L313.915 269.43C313.806 269.503 313.633 269.603 313.395 269.731C313.158 269.859 312.921 269.968 312.684 270.059C312.319 270.151 311.964 270.196 311.617 270.196C310.778 270.196 310.039 269.996 309.401 269.594C308.762 269.193 308.343 268.545 308.142 267.652C308.124 267.524 308.115 267.241 308.115 266.803C308.115 265.764 308.434 264.405 309.072 262.727C309.711 261.049 310.03 259.982 310.03 259.526C310.03 259.507 310.03 259.489 310.03 259.471C310.03 259.307 310.03 259.197 310.03 259.142C310.03 259.088 309.994 259.024 309.921 258.951C309.848 258.878 309.747 258.841 309.62 258.841H309.51C309.091 258.841 308.708 259.015 308.361 259.361C308.015 259.708 307.741 260.082 307.54 260.483C307.34 260.884 307.185 261.267 307.075 261.632C306.966 261.997 306.893 262.198 306.856 262.234C306.82 262.271 306.674 262.289 306.418 262.289H306.035C305.926 262.179 305.871 262.097 305.871 262.043Z" fill="black"/>
<path d="M309.746 255.367L313.494 251.7L313.713 251.919C316.084 254.181 317.27 255.33 317.27 255.367L316.558 256.16C316.522 256.142 315.993 255.686 314.971 254.792L313.521 253.534L312.017 254.819C311.779 255.02 311.542 255.23 311.305 255.449C311.068 255.668 310.877 255.841 310.731 255.969L310.512 256.133C310.475 256.169 310.338 256.042 310.101 255.75L309.746 255.367Z" fill="black"/>
<path d="M336.92 244.039H273.115V242.398H336.92V244.039Z" fill="black"/>
</svg>
