<svg width="1010" height="536" viewBox="0 0 1010 536" fill="none" xmlns="http://www.w3.org/2000/svg">
<rect width="1010" height="536" fill="white"/>
<rect x="194.5" y="147.5" width="173" height="100" stroke="black" stroke-width="3"/>
<rect x="637.5" y="154.5" width="161" height="92" stroke="#FECECE" stroke-width="3"/>
<path d="M181.768 204.768C182.744 203.791 182.744 202.209 181.768 201.232L165.858 185.322C164.882 184.346 163.299 184.346 162.322 185.322C161.346 186.299 161.346 187.882 162.322 188.858L176.464 203L162.322 217.142C161.346 218.118 161.346 219.701 162.322 220.678C163.299 221.654 164.882 221.654 165.858 220.678L181.768 204.768ZM91 205.5L180 205.5L180 200.5L91 200.5L91 205.5Z" fill="#4BA3C3"/>
<path d="M128.768 471.768C129.744 470.791 129.744 469.209 128.768 468.232L112.858 452.322C111.882 451.346 110.299 451.346 109.322 452.322C108.346 453.299 108.346 454.882 109.322 455.858L123.464 470L109.322 484.142C108.346 485.118 108.346 486.701 109.322 487.678C110.299 488.654 111.882 488.654 112.858 487.678L128.768 471.768ZM38 472.5L127 472.5L127 467.5L38 467.5L38 472.5Z" fill="#4BA3C3"/>
<path d="M469.768 201.768C470.744 200.791 470.744 199.209 469.768 198.232L453.858 182.322C452.882 181.346 451.299 181.346 450.322 182.322C449.346 183.299 449.346 184.882 450.322 185.858L464.464 200L450.322 214.142C449.346 215.118 449.346 216.701 450.322 217.678C451.299 218.654 452.882 218.654 453.858 217.678L469.768 201.768ZM380 202.5L468 202.5L468 197.5L380 197.5L380 202.5Z" fill="#3E77CD"/>
<path d="M240.768 472.768C241.744 471.791 241.744 470.209 240.768 469.232L224.858 453.322C223.882 452.346 222.299 452.346 221.322 453.322C220.346 454.299 220.346 455.882 221.322 456.858L235.464 471L221.322 485.142C220.346 486.118 220.346 487.701 221.322 488.678C222.299 489.654 223.882 489.654 224.858 488.678L240.768 472.768ZM151 473.5L239 473.5L239 468.5L151 468.5L151 473.5Z" fill="#3E77CD"/>
<path d="M621.768 200.768C622.744 199.791 622.744 198.209 621.768 197.232L605.858 181.322C604.882 180.346 603.299 180.346 602.322 181.322C601.346 182.299 601.346 183.882 602.322 184.858L616.464 199L602.322 213.142C601.346 214.118 601.346 215.701 602.322 216.678C603.299 217.654 604.882 217.654 605.858 216.678L621.768 200.768ZM532 201.5H620V196.5H532V201.5Z" fill="#4BA3C3"/>
<path d="M906.768 202.768C907.744 201.791 907.744 200.209 906.768 199.232L890.858 183.322C889.882 182.346 888.299 182.346 887.322 183.322C886.346 184.299 886.346 185.882 887.322 186.858L901.464 201L887.322 215.142C886.346 216.118 886.346 217.701 887.322 218.678C888.299 219.654 889.882 219.654 890.858 218.678L906.768 202.768ZM813 203.5L905 203.5L905 198.5L813 198.5L813 203.5Z" fill="#3E77CD"/>
<path d="M645 200.51C645 198.441 645.15 196.477 645.45 194.618C645.75 192.759 646.094 191.155 646.484 189.805C646.874 188.456 647.429 187.137 648.149 185.847C648.868 184.558 649.438 183.553 649.858 182.834C650.278 182.114 650.907 181.334 651.747 180.495C652.586 179.655 653.081 179.145 653.231 178.966C653.381 178.786 653.756 178.471 654.356 178.021H654.94H655.12C655.54 178.021 655.75 178.156 655.75 178.426C655.75 178.516 655.495 178.831 654.985 179.37C654.476 179.91 653.861 180.705 653.141 181.754C652.422 182.804 651.687 184.093 650.937 185.622C650.188 187.152 649.558 189.221 649.048 191.83C648.538 194.438 648.283 197.332 648.283 200.51C648.283 203.689 648.538 206.568 649.048 209.146C649.558 211.725 650.173 213.809 650.892 215.399C651.612 216.988 652.347 218.277 653.096 219.267C653.846 220.256 654.476 221.051 654.985 221.651C655.495 222.25 655.75 222.565 655.75 222.595C655.75 222.865 655.525 223 655.075 223H654.94H654.356L653.096 221.921C650.278 219.372 648.223 216.193 646.934 212.385C645.645 208.577 645 204.619 645 200.51Z" fill="black"/>
<path d="M659.438 198.846C659.438 198.426 659.663 197.707 660.113 196.687C660.563 195.668 661.282 194.603 662.272 193.494C663.261 192.384 664.371 191.845 665.6 191.875C666.83 191.875 667.819 192.219 668.569 192.909C669.319 193.599 669.708 194.558 669.738 195.788C669.678 196.357 669.633 196.672 669.603 196.732C669.603 196.822 669.364 197.512 668.884 198.801C668.404 200.091 667.909 201.545 667.4 203.164C666.89 204.783 666.65 206.073 666.68 207.032C666.68 208.322 666.89 209.221 667.31 209.731C667.729 210.241 668.359 210.511 669.199 210.541C669.888 210.541 670.533 210.376 671.133 210.046C671.732 209.716 672.197 209.371 672.527 209.012C672.857 208.652 673.262 208.157 673.742 207.527C673.742 207.497 673.817 207.197 673.966 206.628C674.116 206.058 674.326 205.173 674.596 203.974C674.866 202.774 675.151 201.665 675.451 200.645C676.59 196.148 677.22 193.794 677.34 193.584C677.73 192.774 678.374 192.369 679.274 192.369C679.664 192.369 679.979 192.474 680.219 192.684C680.458 192.894 680.623 193.074 680.713 193.224C680.803 193.374 680.833 193.509 680.803 193.629C680.803 194.019 680.069 197.167 678.599 203.074C677.13 208.982 676.29 212.22 676.08 212.79C675.241 215.279 673.787 217.258 671.718 218.727C669.648 220.196 667.579 220.946 665.51 220.976C664.161 220.976 662.977 220.646 661.957 219.986C660.938 219.327 660.428 218.337 660.428 217.018C660.428 216.358 660.533 215.803 660.743 215.354C660.953 214.904 661.237 214.574 661.597 214.364C661.957 214.154 662.257 214.004 662.497 213.914C662.737 213.824 662.992 213.779 663.261 213.779C664.581 213.779 665.241 214.409 665.241 215.668C665.241 216.268 665.061 216.793 664.701 217.243C664.341 217.692 663.996 217.992 663.666 218.142C663.336 218.292 663.142 218.367 663.082 218.367L662.947 218.412C663.007 218.562 663.291 218.742 663.801 218.952C664.311 219.162 664.821 219.267 665.33 219.267H665.69C666.2 219.267 666.59 219.237 666.86 219.177C667.849 218.907 668.764 218.337 669.603 217.468C670.443 216.598 671.088 215.668 671.538 214.679C671.987 213.689 672.332 212.85 672.572 212.16C672.812 211.47 672.932 211.021 672.932 210.811L672.662 210.991C672.482 211.111 672.197 211.275 671.807 211.485C671.418 211.695 671.028 211.875 670.638 212.025C670.038 212.175 669.454 212.25 668.884 212.25C667.504 212.25 666.29 211.92 665.241 211.26C664.191 210.601 663.501 209.536 663.171 208.067C663.142 207.857 663.127 207.392 663.127 206.673C663.127 204.963 663.651 202.729 664.701 199.971C665.75 197.212 666.275 195.458 666.275 194.708C666.275 194.678 666.275 194.648 666.275 194.618C666.275 194.348 666.275 194.168 666.275 194.078C666.275 193.989 666.215 193.884 666.095 193.764C665.975 193.644 665.81 193.584 665.6 193.584H665.42C664.731 193.584 664.101 193.869 663.531 194.438C662.962 195.008 662.512 195.623 662.182 196.282C661.852 196.942 661.597 197.572 661.417 198.172C661.237 198.771 661.117 199.101 661.057 199.161C660.998 199.221 660.758 199.251 660.338 199.251H659.708C659.528 199.071 659.438 198.936 659.438 198.846Z" fill="#4BA3C3"/>
<path d="M665.807 187.871L671.969 181.844L672.329 182.204C676.227 185.922 678.176 187.811 678.176 187.871L677.007 189.176C676.947 189.146 676.077 188.396 674.398 186.927L672.014 184.858L669.541 186.972C669.151 187.302 668.761 187.646 668.371 188.006C667.981 188.366 667.666 188.651 667.426 188.861L667.067 189.131C667.007 189.191 666.782 188.981 666.392 188.501L665.807 187.871Z" fill="#4BA3C3"/>
<path d="M697.032 201.095C697.032 201.095 697.032 200.9 697.032 200.51C697.032 200.121 697.242 199.821 697.661 199.611H723.794C724.244 199.851 724.469 200.151 724.469 200.51C724.469 200.87 724.244 201.17 723.794 201.41H697.661C697.242 201.2 697.032 200.9 697.032 200.51V201.095Z" fill="black"/>
<path d="M739.186 198.846C739.186 198.426 739.411 197.707 739.861 196.687C740.311 195.668 741.03 194.603 742.02 193.494C743.009 192.384 744.119 191.845 745.348 191.875C746.578 191.875 747.567 192.219 748.317 192.909C749.067 193.599 749.456 194.558 749.486 195.788C749.426 196.357 749.381 196.672 749.351 196.732C749.351 196.822 749.112 197.512 748.632 198.801C748.152 200.091 747.657 201.545 747.147 203.164C746.638 204.783 746.398 206.073 746.428 207.032C746.428 208.322 746.638 209.221 747.057 209.731C747.477 210.241 748.107 210.511 748.947 210.541C749.636 210.541 750.281 210.376 750.881 210.046C751.48 209.716 751.945 209.371 752.275 209.012C752.605 208.652 753.01 208.157 753.489 207.527C753.489 207.497 753.564 207.197 753.714 206.628C753.864 206.058 754.074 205.173 754.344 203.974C754.614 202.774 754.899 201.665 755.199 200.645C756.338 196.148 756.968 193.794 757.088 193.584C757.478 192.774 758.122 192.369 759.022 192.369C759.412 192.369 759.727 192.474 759.966 192.684C760.206 192.894 760.371 193.074 760.461 193.224C760.551 193.374 760.581 193.509 760.551 193.629C760.551 194.019 759.817 197.167 758.347 203.074C756.878 208.982 756.038 212.22 755.828 212.79C754.989 215.279 753.534 217.258 751.465 218.727C749.396 220.196 747.327 220.946 745.258 220.976C743.909 220.976 742.725 220.646 741.705 219.986C740.685 219.327 740.176 218.337 740.176 217.018C740.176 216.358 740.281 215.803 740.491 215.354C740.7 214.904 740.985 214.574 741.345 214.364C741.705 214.154 742.005 214.004 742.245 213.914C742.485 213.824 742.739 213.779 743.009 213.779C744.329 213.779 744.988 214.409 744.988 215.668C744.988 216.268 744.809 216.793 744.449 217.243C744.089 217.692 743.744 217.992 743.414 218.142C743.084 218.292 742.889 218.367 742.829 218.367L742.695 218.412C742.754 218.562 743.039 218.742 743.549 218.952C744.059 219.162 744.569 219.267 745.078 219.267H745.438C745.948 219.267 746.338 219.237 746.608 219.177C747.597 218.907 748.512 218.337 749.351 217.468C750.191 216.598 750.836 215.668 751.286 214.679C751.735 213.689 752.08 212.85 752.32 212.16C752.56 211.47 752.68 211.021 752.68 210.811L752.41 210.991C752.23 211.111 751.945 211.275 751.555 211.485C751.166 211.695 750.776 211.875 750.386 212.025C749.786 212.175 749.201 212.25 748.632 212.25C747.252 212.25 746.038 211.92 744.988 211.26C743.939 210.601 743.249 209.536 742.919 208.067C742.889 207.857 742.874 207.392 742.874 206.673C742.874 204.963 743.399 202.729 744.449 199.971C745.498 197.212 746.023 195.458 746.023 194.708C746.023 194.678 746.023 194.648 746.023 194.618C746.023 194.348 746.023 194.168 746.023 194.078C746.023 193.989 745.963 193.884 745.843 193.764C745.723 193.644 745.558 193.584 745.348 193.584H745.168C744.479 193.584 743.849 193.869 743.279 194.438C742.71 195.008 742.26 195.623 741.93 196.282C741.6 196.942 741.345 197.572 741.165 198.172C740.985 198.771 740.865 199.101 740.805 199.161C740.745 199.221 740.506 199.251 740.086 199.251H739.456C739.276 199.071 739.186 198.936 739.186 198.846Z" fill="#1CC1C7"/>
<path d="M762.98 178.066L763.16 178.021C763.31 178.021 763.46 178.021 763.61 178.021H764.15L765.409 179.1C768.228 181.649 770.282 184.828 771.571 188.636C772.861 192.444 773.505 196.402 773.505 200.51C773.505 202.55 773.355 204.514 773.055 206.403C772.756 208.292 772.411 209.896 772.021 211.215C771.631 212.535 771.076 213.854 770.357 215.174C769.637 216.493 769.067 217.498 768.648 218.187C768.228 218.877 767.613 219.642 766.803 220.481C765.994 221.321 765.514 221.816 765.364 221.965C765.214 222.115 764.869 222.4 764.33 222.82C764.24 222.91 764.18 222.97 764.15 223H763.61C763.37 223 763.205 223 763.115 223C763.025 223 762.95 222.955 762.89 222.865C762.83 222.775 762.785 222.64 762.755 222.46C762.785 222.43 762.95 222.235 763.25 221.876C767.898 217.048 770.222 209.926 770.222 200.51C770.222 191.095 767.898 183.973 763.25 179.145C762.95 178.786 762.785 178.591 762.755 178.561C762.755 178.321 762.83 178.156 762.98 178.066Z" fill="black"/>
<path d="M781.244 179.537C780.672 179.537 780.216 179.346 779.877 178.964C779.538 178.583 779.368 178.116 779.368 177.565C779.368 176.06 779.93 174.756 781.054 173.654C782.177 172.551 783.576 172 785.251 172C787.18 172 788.792 172.594 790.085 173.781C791.378 174.968 792.035 176.505 792.056 178.392C792.056 179.303 791.844 180.173 791.42 180.999C790.996 181.826 790.488 182.547 789.894 183.162C789.3 183.777 788.452 184.561 787.35 185.515C786.587 186.172 785.527 187.147 784.17 188.441L782.294 190.221L784.711 190.253C788.039 190.253 789.809 190.2 790.021 190.094C790.17 190.052 790.424 189.108 790.784 187.264V187.169H792.056V187.264C792.035 187.328 791.897 188.292 791.643 190.158C791.389 192.023 791.23 192.999 791.166 193.084V193.179H779.368V192.575V192.193C779.368 192.045 779.432 191.886 779.559 191.716C779.686 191.546 780.004 191.175 780.513 190.603C781.128 189.925 781.658 189.331 782.103 188.822C782.294 188.61 782.654 188.218 783.184 187.646C783.714 187.073 784.075 186.681 784.265 186.469C784.456 186.257 784.764 185.907 785.188 185.42C785.612 184.932 785.908 184.572 786.078 184.338C786.248 184.105 786.491 183.787 786.809 183.384C787.127 182.982 787.35 182.642 787.477 182.367C787.604 182.091 787.763 181.784 787.954 181.445C788.145 181.105 788.283 180.766 788.368 180.427C788.452 180.088 788.527 179.77 788.59 179.473C788.654 179.176 788.686 178.826 788.686 178.424C788.686 177.088 788.325 175.933 787.604 174.957C786.884 173.982 785.855 173.495 784.52 173.495C783.82 173.495 783.205 173.675 782.675 174.035C782.145 174.396 781.774 174.745 781.562 175.085C781.35 175.424 781.244 175.625 781.244 175.689C781.244 175.71 781.297 175.721 781.403 175.721C781.785 175.721 782.177 175.869 782.58 176.166C782.983 176.463 783.184 176.95 783.184 177.629C783.184 178.159 783.015 178.604 782.675 178.964C782.336 179.325 781.859 179.515 781.244 179.537Z" fill="black"/>
<path d="M483 192.838C483 192.151 483.368 190.972 484.105 189.303C484.841 187.634 486.019 185.891 487.64 184.074C489.26 182.258 491.076 181.374 493.089 181.423C495.102 181.423 496.723 181.988 497.95 183.117C499.177 184.246 499.816 185.817 499.865 187.83C499.767 188.763 499.693 189.278 499.644 189.377C499.644 189.524 499.251 190.653 498.466 192.764C497.68 194.875 496.87 197.257 496.035 199.908C495.201 202.559 494.808 204.67 494.857 206.241C494.857 208.353 495.201 209.826 495.888 210.66C496.575 211.495 497.606 211.937 498.981 211.986C500.11 211.986 501.166 211.716 502.148 211.176C503.13 210.636 503.891 210.071 504.431 209.482C504.971 208.893 505.634 208.083 506.419 207.052C506.419 207.002 506.542 206.511 506.787 205.579C507.033 204.646 507.377 203.197 507.819 201.234C508.26 199.27 508.727 197.453 509.218 195.784C511.083 188.419 512.115 184.565 512.311 184.221C512.949 182.896 514.005 182.233 515.478 182.233C516.116 182.233 516.631 182.405 517.024 182.749C517.417 183.092 517.687 183.387 517.834 183.632C517.982 183.878 518.031 184.099 517.982 184.295C517.982 184.933 516.779 190.089 514.373 199.761C511.967 209.433 510.592 214.735 510.249 215.668C508.874 219.743 506.493 222.984 503.105 225.389C499.718 227.795 496.33 229.022 492.942 229.072C490.733 229.072 488.793 228.531 487.124 227.451C485.455 226.371 484.62 224.751 484.62 222.591C484.62 221.511 484.792 220.602 485.136 219.866C485.479 219.129 485.946 218.589 486.535 218.246C487.124 217.902 487.615 217.656 488.008 217.509C488.401 217.362 488.818 217.288 489.26 217.288C491.42 217.288 492.5 218.319 492.5 220.381C492.5 221.363 492.206 222.223 491.617 222.959C491.027 223.695 490.463 224.186 489.923 224.432C489.383 224.677 489.063 224.8 488.965 224.8L488.744 224.874C488.843 225.119 489.309 225.414 490.144 225.757C490.978 226.101 491.813 226.273 492.648 226.273H493.237C494.071 226.273 494.71 226.224 495.151 226.126C496.772 225.684 498.269 224.751 499.644 223.327C501.019 221.903 502.074 220.381 502.811 218.761C503.547 217.141 504.112 215.766 504.504 214.637C504.897 213.508 505.094 212.771 505.094 212.428L504.652 212.722C504.357 212.919 503.891 213.189 503.252 213.532C502.614 213.876 501.976 214.171 501.338 214.416C500.356 214.662 499.398 214.784 498.466 214.784C496.207 214.784 494.219 214.244 492.5 213.164C490.782 212.084 489.653 210.341 489.113 207.935C489.063 207.592 489.039 206.831 489.039 205.652C489.039 202.854 489.898 199.196 491.617 194.679C493.335 190.162 494.194 187.29 494.194 186.063C494.194 186.013 494.194 185.964 494.194 185.915C494.194 185.473 494.194 185.179 494.194 185.032C494.194 184.884 494.096 184.712 493.9 184.516C493.703 184.32 493.433 184.221 493.089 184.221H492.795C491.666 184.221 490.635 184.688 489.702 185.621C488.769 186.554 488.032 187.56 487.492 188.64C486.952 189.72 486.535 190.751 486.24 191.733C485.946 192.715 485.749 193.255 485.651 193.353C485.553 193.452 485.16 193.501 484.473 193.501H483.442C483.147 193.206 483 192.985 483 192.838Z" fill="#3E77CD"/>
<path d="M493.428 174.868L503.518 165L504.107 165.589C510.489 171.677 513.681 174.77 513.681 174.868L511.766 177.004C511.668 176.955 510.244 175.728 507.495 173.322L503.591 169.934L499.541 173.396C498.903 173.936 498.264 174.5 497.626 175.089C496.988 175.679 496.472 176.145 496.079 176.489L495.49 176.931C495.392 177.029 495.024 176.685 494.386 175.9L493.428 174.868Z" fill="#3E77CD"/>
<path d="M921.768 211.114H922.44C923.687 211.114 924.439 210.89 924.695 210.442V210.058C924.695 209.77 924.695 209.402 924.695 208.954C924.695 208.506 924.695 207.978 924.695 207.371C924.695 206.763 924.711 206.075 924.743 205.307C924.775 204.539 924.775 203.739 924.743 202.907C924.711 202.076 924.711 201.196 924.743 200.268C924.775 199.34 924.775 198.428 924.743 197.533C924.743 196.349 924.743 195.101 924.743 193.789C924.743 192.478 924.743 191.278 924.743 190.19C924.743 189.102 924.743 188.142 924.743 187.311C924.743 186.479 924.727 185.775 924.695 185.199C924.663 184.623 924.663 184.351 924.695 184.383C924.599 183.775 924.375 183.375 924.023 183.183C923.671 182.991 922.952 182.847 921.864 182.751H921V181.648C921 180.912 921.032 180.544 921.096 180.544L921.576 180.496C921.896 180.464 922.36 180.432 922.968 180.4C923.575 180.368 924.167 180.336 924.743 180.304C925.287 180.272 925.879 180.24 926.519 180.208C927.159 180.176 927.639 180.128 927.959 180.064C928.279 180 928.455 179.984 928.487 180.016H928.63V195.133C928.63 205.275 928.646 210.378 928.678 210.442C928.806 210.698 928.998 210.874 929.254 210.97C929.926 211.066 930.71 211.114 931.606 211.114H932.374V213.321H931.99L930.886 213.273C930.15 213.241 929.366 213.225 928.534 213.225C927.703 213.225 927.095 213.209 926.711 213.177C926.327 213.145 925.719 213.145 924.887 213.177C924.055 213.209 923.256 213.241 922.488 213.273L921.384 213.321H921V211.114H921.768Z" fill="#3E77CD"/>
<path d="M934.437 203.051C934.437 200.012 935.477 197.389 937.557 195.181C939.636 192.973 942.148 191.854 945.091 191.822C947.971 191.822 950.45 192.909 952.53 195.085C954.609 197.261 955.665 199.9 955.697 203.003C955.697 206.043 954.673 208.602 952.626 210.682C950.578 212.761 948.067 213.801 945.091 213.801C941.988 213.801 939.444 212.729 937.461 210.586C935.477 208.442 934.469 205.931 934.437 203.051ZM945.091 211.882C948.994 211.882 950.946 209.274 950.946 204.059V202.524V201.324C950.946 200.62 950.93 200.012 950.898 199.5C950.866 198.988 950.754 198.38 950.562 197.676C950.37 196.973 950.114 196.397 949.794 195.949C949.474 195.501 948.978 195.053 948.306 194.605C947.635 194.157 946.851 193.837 945.955 193.645C945.795 193.613 945.539 193.597 945.187 193.597C944.227 193.597 943.315 193.789 942.452 194.173C941.076 194.877 940.18 195.853 939.764 197.101C939.348 198.348 939.14 199.82 939.14 201.516V202.476C939.14 205.547 939.444 207.706 940.052 208.954C941.076 210.906 942.756 211.882 945.091 211.882Z" fill="#3E77CD"/>
<path d="M971.246 198.156C971.246 196.877 970.814 195.773 969.95 194.845C969.086 193.917 967.839 193.453 966.207 193.453C965.055 193.453 964.063 193.661 963.232 194.077C962.272 194.685 961.792 195.517 961.792 196.573C961.76 196.733 961.76 196.941 961.792 197.197C961.824 197.453 962.08 197.836 962.56 198.348C963.04 198.86 963.727 199.26 964.623 199.548C965.199 199.708 965.903 199.852 966.735 199.98C967.567 200.108 968.271 200.252 968.846 200.412C969.422 200.572 969.934 200.78 970.382 201.036C970.926 201.292 971.454 201.612 971.966 201.996C972.478 202.38 972.99 203.035 973.502 203.963C974.013 204.891 974.285 205.883 974.317 206.939C974.317 208.922 973.709 210.554 972.494 211.834C971.278 213.113 969.31 213.769 966.591 213.801H966.207C964.543 213.801 963.008 213.225 961.6 212.074L961.216 212.41L960.784 212.841C960.592 213.033 960.4 213.209 960.208 213.369L959.68 213.849H959.296H959.104C959.008 213.849 958.864 213.753 958.672 213.561V209.77V206.987C958.672 206.315 958.704 205.915 958.768 205.787C958.832 205.659 958.992 205.579 959.248 205.547H959.68C960.064 205.547 960.32 205.611 960.448 205.739C960.576 205.867 960.656 206.059 960.688 206.315C960.72 206.571 960.832 207.003 961.024 207.61C961.216 208.218 961.52 208.89 961.936 209.626C963.056 211.258 964.607 212.074 966.591 212.074C969.694 212.074 971.246 210.826 971.246 208.33C971.246 207.403 970.958 206.651 970.382 206.075C969.742 205.307 968.415 204.731 966.399 204.347C964.383 203.963 963.056 203.595 962.416 203.243C961.264 202.699 960.352 201.964 959.68 201.036C959.008 200.108 958.672 199.116 958.672 198.06C958.672 196.813 958.944 195.757 959.488 194.893C960.032 194.029 960.72 193.389 961.552 192.973C962.384 192.557 963.184 192.27 963.951 192.11C964.719 191.95 965.423 191.87 966.063 191.87H966.591C967.871 191.87 968.99 192.11 969.95 192.589L970.67 192.973L971.102 192.637C971.422 192.35 971.774 192.078 972.158 191.822H972.542H972.734C972.83 191.822 972.974 191.918 973.166 192.11V198.444L972.878 198.732H971.534C971.342 198.54 971.246 198.348 971.246 198.156Z" fill="#3E77CD"/>
<path d="M990.154 198.156C990.154 196.877 989.722 195.773 988.858 194.845C987.995 193.917 986.747 193.453 985.115 193.453C983.963 193.453 982.972 193.661 982.14 194.077C981.18 194.685 980.7 195.517 980.7 196.573C980.668 196.733 980.668 196.941 980.7 197.197C980.732 197.453 980.988 197.836 981.468 198.348C981.948 198.86 982.636 199.26 983.531 199.548C984.107 199.708 984.811 199.852 985.643 199.98C986.475 200.108 987.179 200.252 987.755 200.412C988.331 200.572 988.842 200.78 989.29 201.036C989.834 201.292 990.362 201.612 990.874 201.996C991.386 202.38 991.898 203.035 992.41 203.963C992.922 204.891 993.194 205.883 993.226 206.939C993.226 208.922 992.618 210.554 991.402 211.834C990.186 213.113 988.219 213.769 985.499 213.801H985.115C983.452 213.801 981.916 213.225 980.508 212.074L980.124 212.41L979.692 212.841C979.5 213.033 979.308 213.209 979.116 213.369L978.588 213.849H978.205H978.013C977.917 213.849 977.773 213.753 977.581 213.561V209.77V206.987C977.581 206.315 977.613 205.915 977.677 205.787C977.741 205.659 977.901 205.579 978.157 205.547H978.588C978.972 205.547 979.228 205.611 979.356 205.739C979.484 205.867 979.564 206.059 979.596 206.315C979.628 206.571 979.74 207.003 979.932 207.61C980.124 208.218 980.428 208.89 980.844 209.626C981.964 211.258 983.516 212.074 985.499 212.074C988.602 212.074 990.154 210.826 990.154 208.33C990.154 207.403 989.866 206.651 989.29 206.075C988.65 205.307 987.323 204.731 985.307 204.347C983.292 203.963 981.964 203.595 981.324 203.243C980.172 202.699 979.26 201.964 978.588 201.036C977.917 200.108 977.581 199.116 977.581 198.06C977.581 196.813 977.853 195.757 978.397 194.893C978.94 194.029 979.628 193.389 980.46 192.973C981.292 192.557 982.092 192.27 982.86 192.11C983.627 191.95 984.331 191.87 984.971 191.87H985.499C986.779 191.87 987.899 192.11 988.858 192.589L989.578 192.973L990.01 192.637C990.33 192.35 990.682 192.078 991.066 191.822H991.45H991.642C991.738 191.822 991.882 191.918 992.074 192.11V198.444L991.786 198.732H990.442C990.25 198.54 990.154 198.348 990.154 198.156Z" fill="#3E77CD"/>
<path d="M23.7652 195.887C24.2497 192.979 26.1188 189.622 29.3722 185.815C32.6257 182.007 36.6406 180.069 41.417 180C43.8398 180 46.055 180.623 48.0624 181.869C50.0699 183.115 51.5582 184.673 52.5273 186.542C55.4347 182.181 58.9304 180 63.0146 180C65.5758 180 67.791 180.761 69.66 182.284C71.529 183.807 72.4981 185.849 72.5673 188.411C72.5673 190.418 72.0828 192.045 71.1137 193.291C70.1445 194.537 69.21 195.298 68.3101 195.575C67.4102 195.852 66.6142 195.991 65.9219 195.991C64.6067 195.991 63.5338 195.61 62.7031 194.848C61.8724 194.087 61.4571 193.083 61.4571 191.837C61.4571 188.653 63.1876 186.472 66.6488 185.296C65.8873 184.396 64.5029 183.946 62.4954 183.946C61.5955 183.946 60.9379 184.015 60.5226 184.153C57.8921 185.261 55.9538 187.545 54.7078 191.006C50.5545 206.305 48.4778 215.234 48.4778 217.796C48.4778 219.734 49.0315 221.118 50.1391 221.949C51.2467 222.78 52.4581 223.195 53.7733 223.195C56.3346 223.195 58.8612 222.053 61.3532 219.769C63.8453 217.484 65.5412 214.681 66.4411 211.358C66.6488 210.666 66.8565 210.285 67.0641 210.216C67.2718 210.147 67.8256 210.077 68.7255 210.008H69.1408C70.1792 210.008 70.6983 210.285 70.6983 210.839C70.6983 210.908 70.6291 211.289 70.4907 211.981C69.3831 215.927 67.2372 219.422 64.0529 222.468C60.8687 225.514 57.1652 227.037 52.9426 227.037C48.097 227.037 44.4282 224.856 41.9362 220.495C39.0981 224.787 35.8446 226.933 32.1758 226.933H31.5528C28.1608 226.933 25.738 226.033 24.2844 224.233C22.8307 222.434 22.0692 220.53 22 218.523C22 216.307 22.6576 214.508 23.9729 213.123C25.2881 211.739 26.8456 211.046 28.6454 211.046C31.622 211.046 33.1103 212.5 33.1103 215.408C33.1103 216.792 32.6949 218.003 31.8643 219.042C31.0336 220.08 30.2375 220.772 29.4761 221.118C28.7146 221.465 28.2647 221.638 28.1262 221.638L27.8147 221.741C27.8147 221.811 28.0224 221.949 28.4377 222.157C28.8531 222.364 29.4069 222.607 30.0991 222.884C30.7913 223.161 31.4489 223.264 32.0719 223.195C34.564 223.195 36.7099 221.638 38.5097 218.523C39.1327 217.415 39.9287 215.061 40.8979 211.462C41.867 207.862 42.8361 204.124 43.8052 200.248C44.7743 196.371 45.3281 194.087 45.4666 193.395C45.8127 191.526 45.9857 190.176 45.9857 189.345C45.9857 187.407 45.4666 186.022 44.4282 185.192C43.3899 184.361 42.2131 183.946 40.8979 183.946C38.1289 183.946 35.5331 185.053 33.1103 187.268C30.6875 189.484 28.9915 192.322 28.0224 195.783C27.8839 196.406 27.7109 196.752 27.5032 196.821C27.2956 196.89 26.7418 196.96 25.8419 197.029H24.3882C23.9729 196.614 23.7652 196.233 23.7652 195.887Z" fill="#4BA3C3"/>
<path d="M233.814 191.928C233.814 191.206 234.141 190.536 234.794 189.918C235.447 189.299 236.168 188.972 236.959 188.938C237.577 188.938 238.144 189.247 238.66 189.866C239.175 190.485 239.45 191.464 239.485 192.804C239.485 193.801 239.158 195.777 238.505 198.732C237.99 200.656 237.526 202.237 237.113 203.474C236.701 204.711 236.1 206.103 235.309 207.649C234.519 209.196 233.574 210.364 232.474 211.155C231.375 211.945 230.137 212.34 228.763 212.34C227.251 212.34 225.911 212.065 224.742 211.515C223.574 210.966 222.732 210.227 222.216 209.299C222.182 209.333 222.131 209.402 222.062 209.505C220.653 211.395 218.935 212.34 216.907 212.34C216.014 212.34 215.155 212.237 214.33 212.031C213.505 211.825 212.698 211.498 211.907 211.052C211.117 210.605 210.481 209.935 210 209.041C209.519 208.148 209.278 207.065 209.278 205.794C209.278 203.938 209.863 201.43 211.031 198.268C212.199 195.107 212.801 193.096 212.835 192.237C212.835 192.203 212.835 192.168 212.835 192.134C212.835 191.825 212.835 191.619 212.835 191.515C212.835 191.412 212.766 191.292 212.629 191.155C212.491 191.017 212.302 190.948 212.062 190.948H211.856C211.065 190.948 210.344 191.275 209.691 191.928C209.038 192.581 208.522 193.285 208.144 194.041C207.766 194.797 207.474 195.519 207.268 196.206C207.062 196.893 206.924 197.271 206.856 197.34C206.787 197.409 206.512 197.443 206.031 197.443H205.309C205.103 197.237 205 197.082 205 196.979C205 196.773 205.137 196.292 205.412 195.536C205.687 194.78 206.082 193.904 206.598 192.907C207.113 191.911 207.869 191.017 208.866 190.227C209.863 189.436 210.979 189.041 212.216 189.041C213.694 189.041 214.828 189.471 215.619 190.33C216.409 191.189 216.804 192.186 216.804 193.32C216.804 193.938 216.237 195.794 215.103 198.887C213.969 201.979 213.402 204.368 213.402 206.052C213.402 207.632 213.763 208.749 214.485 209.402C215.206 210.055 216.117 210.399 217.216 210.433C218.694 210.433 220 209.385 221.134 207.289L221.392 206.825V205.639C221.392 205.536 221.392 205.381 221.392 205.175C221.392 204.969 221.409 204.832 221.443 204.763C221.478 204.694 221.495 204.574 221.495 204.402C221.495 204.23 221.512 204.076 221.546 203.938C221.581 203.801 221.632 203.577 221.701 203.268C221.77 202.959 221.821 202.667 221.856 202.392C221.89 202.117 221.993 201.704 222.165 201.155C222.337 200.605 222.474 200.055 222.577 199.505C222.68 198.955 222.869 198.216 223.144 197.289C224.141 193.371 224.708 191.258 224.845 190.948C225.292 190.021 226.031 189.557 227.062 189.557C227.715 189.557 228.162 189.729 228.402 190.072C228.643 190.416 228.78 190.742 228.814 191.052C228.814 191.498 228.316 193.698 227.32 197.649C226.323 201.601 225.773 203.869 225.67 204.454C225.601 204.832 225.567 205.433 225.567 206.258V206.619C225.567 207.134 225.619 207.632 225.722 208.113C225.825 208.594 226.151 209.093 226.701 209.608C227.251 210.124 228.024 210.399 229.021 210.433C231.46 210.433 233.402 208.337 234.845 204.144C235.155 203.354 235.498 202.237 235.876 200.794C236.254 199.35 236.46 198.32 236.495 197.701C236.495 196.567 236.271 195.674 235.825 195.021C235.378 194.368 234.931 193.818 234.485 193.371C234.038 192.924 233.814 192.443 233.814 191.928Z" fill="#1CC1C7"/>
<path d="M243.505 196.876C243.746 195.433 244.674 193.766 246.289 191.876C247.904 189.986 249.897 189.024 252.268 188.99C253.471 188.99 254.57 189.299 255.567 189.918C256.564 190.536 257.302 191.309 257.783 192.237C259.227 190.072 260.962 188.99 262.99 188.99C264.261 188.99 265.361 189.368 266.289 190.124C267.216 190.88 267.698 191.893 267.732 193.165C267.732 194.162 267.491 194.969 267.01 195.588C266.529 196.206 266.065 196.584 265.619 196.722C265.172 196.859 264.777 196.928 264.433 196.928C263.78 196.928 263.247 196.739 262.835 196.361C262.423 195.983 262.216 195.485 262.216 194.866C262.216 193.285 263.076 192.203 264.794 191.619C264.416 191.172 263.728 190.948 262.732 190.948C262.285 190.948 261.959 190.983 261.753 191.052C260.447 191.601 259.485 192.735 258.866 194.454C256.804 202.048 255.773 206.481 255.773 207.753C255.773 208.715 256.048 209.402 256.598 209.814C257.148 210.227 257.749 210.433 258.402 210.433C259.674 210.433 260.928 209.866 262.165 208.732C263.402 207.598 264.244 206.206 264.691 204.557C264.794 204.213 264.897 204.024 265 203.99C265.103 203.955 265.378 203.921 265.825 203.887H266.031C266.546 203.887 266.804 204.024 266.804 204.299C266.804 204.333 266.77 204.522 266.701 204.866C266.151 206.825 265.086 208.56 263.505 210.072C261.924 211.584 260.086 212.34 257.99 212.34C255.584 212.34 253.763 211.258 252.526 209.093C251.117 211.223 249.502 212.289 247.68 212.289H247.371C245.687 212.289 244.485 211.842 243.763 210.948C243.041 210.055 242.663 209.11 242.629 208.113C242.629 207.014 242.955 206.12 243.608 205.433C244.261 204.746 245.034 204.402 245.928 204.402C247.405 204.402 248.144 205.124 248.144 206.567C248.144 207.254 247.938 207.856 247.526 208.371C247.113 208.887 246.718 209.23 246.34 209.402C245.962 209.574 245.739 209.66 245.67 209.66L245.515 209.711C245.515 209.746 245.619 209.814 245.825 209.918C246.031 210.021 246.306 210.141 246.649 210.278C246.993 210.416 247.32 210.467 247.629 210.433C248.866 210.433 249.931 209.66 250.825 208.113C251.134 207.564 251.529 206.395 252.01 204.608C252.491 202.821 252.972 200.966 253.454 199.041C253.935 197.117 254.21 195.983 254.278 195.639C254.45 194.711 254.536 194.041 254.536 193.629C254.536 192.667 254.278 191.979 253.763 191.567C253.247 191.155 252.663 190.948 252.01 190.948C250.636 190.948 249.347 191.498 248.144 192.598C246.942 193.698 246.1 195.107 245.619 196.825C245.55 197.134 245.464 197.306 245.361 197.34C245.258 197.375 244.983 197.409 244.536 197.443H243.814C243.608 197.237 243.505 197.048 243.505 196.876Z" fill="#4BA3C3"/>
<path d="M284.65 199.557C284.65 199.557 284.65 199.333 284.65 198.887C284.65 198.44 284.89 198.096 285.371 197.856H300.784V190.124L300.835 182.392C301.179 181.945 301.505 181.722 301.814 181.722C302.261 181.722 302.605 181.979 302.845 182.495V197.856H318.206C318.722 198.131 318.979 198.474 318.979 198.887C318.979 199.299 318.722 199.643 318.206 199.918H302.845V215.278C302.57 215.759 302.261 216 301.918 216H301.814H301.711C301.299 216 300.99 215.759 300.784 215.278V199.918H285.371C284.89 199.677 284.65 199.333 284.65 198.887V199.557Z" fill="black"/>
<path d="M337.083 178.423C337.083 178.079 337.151 177.684 337.289 177.237C337.426 176.79 337.632 176.567 337.907 176.567C337.942 176.567 339.179 176.481 341.619 176.309C344.058 176.137 345.313 176.034 345.381 176C345.794 176 346 176.155 346 176.464C346 176.773 345.416 179.23 344.247 183.835C343.973 185.003 343.68 186.206 343.371 187.443C343.062 188.68 342.804 189.608 342.598 190.227L342.392 191.206C342.392 191.309 342.495 191.258 342.701 191.052C344.385 189.677 346.12 188.99 347.907 188.99C350.038 188.99 351.756 189.78 353.062 191.361C354.368 192.942 355.038 194.935 355.072 197.34C355.072 201.155 353.715 204.608 351 207.701C348.285 210.794 345.364 212.34 342.237 212.34C340.519 212.34 338.955 211.687 337.546 210.381C336.137 209.076 335.416 206.962 335.381 204.041V203.577C335.381 202.856 335.519 201.859 335.794 200.588C336.069 199.316 336.911 195.931 338.32 190.433C340.038 183.663 340.897 180.072 340.897 179.66C340.897 179.247 340.244 179.007 338.938 178.938C338.766 178.938 338.629 178.938 338.526 178.938H338.268C337.924 178.938 337.701 178.938 337.598 178.938C337.495 178.938 337.375 178.887 337.237 178.784C337.1 178.68 337.048 178.56 337.083 178.423ZM350.639 195.021V194.711C350.639 192.168 349.591 190.897 347.495 190.897C346.911 190.897 346.309 191.034 345.691 191.309C345.072 191.584 344.505 191.945 343.99 192.392C343.474 192.838 343.028 193.251 342.65 193.629C342.272 194.007 341.962 194.385 341.722 194.763L341.412 195.175L340.33 199.608C339.574 202.564 339.196 204.66 339.196 205.897C339.196 207.546 339.608 208.784 340.433 209.608C340.983 210.158 341.67 210.433 342.495 210.433C343.629 210.433 344.78 209.883 345.948 208.784C346.808 207.993 347.495 207.031 348.01 205.897C348.526 204.763 349.093 202.959 349.711 200.485C350.33 198.01 350.639 196.189 350.639 195.021Z" fill="#1CC1C7"/>
<path d="M150.066 454.543C150.066 453.301 150.309 452.184 150.793 451.191C151.285 450.199 151.965 449.434 152.832 448.895C153.707 448.355 154.703 448.086 155.82 448.086C157.547 448.086 158.941 448.684 160.004 449.879C161.074 451.074 161.609 452.664 161.609 454.648V454.801C161.609 456.035 161.371 457.145 160.895 458.129C160.426 459.105 159.75 459.867 158.867 460.414C157.992 460.961 156.984 461.234 155.844 461.234C154.125 461.234 152.73 460.637 151.66 459.441C150.598 458.246 150.066 456.664 150.066 454.695V454.543ZM152.246 454.801C152.246 456.207 152.57 457.336 153.219 458.188C153.875 459.039 154.75 459.465 155.844 459.465C156.945 459.465 157.82 459.035 158.469 458.176C159.117 457.309 159.441 456.098 159.441 454.543C159.441 453.152 159.109 452.027 158.445 451.168C157.789 450.301 156.914 449.867 155.82 449.867C154.75 449.867 153.887 450.293 153.23 451.145C152.574 451.996 152.246 453.215 152.246 454.801ZM172.156 459.746C171.312 460.738 170.074 461.234 168.441 461.234C167.09 461.234 166.059 460.844 165.348 460.062C164.645 459.273 164.289 458.109 164.281 456.57V448.32H166.449V456.512C166.449 458.434 167.23 459.395 168.793 459.395C170.449 459.395 171.551 458.777 172.098 457.543V448.32H174.266V461H172.203L172.156 459.746ZM180.512 445.25V448.32H182.879V449.996H180.512V457.859C180.512 458.367 180.617 458.75 180.828 459.008C181.039 459.258 181.398 459.383 181.906 459.383C182.156 459.383 182.5 459.336 182.938 459.242V461C182.367 461.156 181.812 461.234 181.273 461.234C180.305 461.234 179.574 460.941 179.082 460.355C178.59 459.77 178.344 458.938 178.344 457.859V449.996H176.035V448.32H178.344V445.25H180.512ZM196.133 454.801C196.133 456.73 195.691 458.285 194.809 459.465C193.926 460.645 192.73 461.234 191.223 461.234C189.684 461.234 188.473 460.746 187.59 459.77V465.875H185.422V448.32H187.402L187.508 449.727C188.391 448.633 189.617 448.086 191.188 448.086C192.711 448.086 193.914 448.66 194.797 449.809C195.688 450.957 196.133 452.555 196.133 454.602V454.801ZM193.965 454.555C193.965 453.125 193.66 451.996 193.051 451.168C192.441 450.34 191.605 449.926 190.543 449.926C189.23 449.926 188.246 450.508 187.59 451.672V457.73C188.238 458.887 189.23 459.465 190.566 459.465C191.605 459.465 192.43 459.055 193.039 458.234C193.656 457.406 193.965 456.18 193.965 454.555ZM206.727 459.746C205.883 460.738 204.645 461.234 203.012 461.234C201.66 461.234 200.629 460.844 199.918 460.062C199.215 459.273 198.859 458.109 198.852 456.57V448.32H201.02V456.512C201.02 458.434 201.801 459.395 203.363 459.395C205.02 459.395 206.121 458.777 206.668 457.543V448.32H208.836V461H206.773L206.727 459.746ZM215.082 445.25V448.32H217.449V449.996H215.082V457.859C215.082 458.367 215.188 458.75 215.398 459.008C215.609 459.258 215.969 459.383 216.477 459.383C216.727 459.383 217.07 459.336 217.508 459.242V461C216.938 461.156 216.383 461.234 215.844 461.234C214.875 461.234 214.145 460.941 213.652 460.355C213.16 459.77 212.914 458.938 212.914 457.859V449.996H210.605V448.32H212.914V445.25H215.082Z" fill="#3E77CD"/>
<path d="M41.9961 461H39.8281V448.32H41.9961V461ZM39.6523 444.957C39.6523 444.605 39.7578 444.309 39.9688 444.066C40.1875 443.824 40.5078 443.703 40.9297 443.703C41.3516 443.703 41.6719 443.824 41.8906 444.066C42.1094 444.309 42.2188 444.605 42.2188 444.957C42.2188 445.309 42.1094 445.602 41.8906 445.836C41.6719 446.07 41.3516 446.188 40.9297 446.188C40.5078 446.188 40.1875 446.07 39.9688 445.836C39.7578 445.602 39.6523 445.309 39.6523 444.957ZM47.5273 448.32L47.5977 449.914C48.5664 448.695 49.832 448.086 51.3945 448.086C54.0742 448.086 55.4258 449.598 55.4492 452.621V461H53.2812V452.609C53.2734 451.695 53.0625 451.02 52.6484 450.582C52.2422 450.145 51.6055 449.926 50.7383 449.926C50.0352 449.926 49.418 450.113 48.8867 450.488C48.3555 450.863 47.9414 451.355 47.6445 451.965V461H45.4766V448.32H47.5273ZM69.4297 454.801C69.4297 456.73 68.9883 458.285 68.1055 459.465C67.2227 460.645 66.0273 461.234 64.5195 461.234C62.9805 461.234 61.7695 460.746 60.8867 459.77V465.875H58.7188V448.32H60.6992L60.8047 449.727C61.6875 448.633 62.9141 448.086 64.4844 448.086C66.0078 448.086 67.2109 448.66 68.0938 449.809C68.9844 450.957 69.4297 452.555 69.4297 454.602V454.801ZM67.2617 454.555C67.2617 453.125 66.957 451.996 66.3477 451.168C65.7383 450.34 64.9023 449.926 63.8398 449.926C62.5273 449.926 61.543 450.508 60.8867 451.672V457.73C61.5352 458.887 62.5273 459.465 63.8633 459.465C64.9023 459.465 65.7266 459.055 66.3359 458.234C66.9531 457.406 67.2617 456.18 67.2617 454.555ZM80.0234 459.746C79.1797 460.738 77.9414 461.234 76.3086 461.234C74.957 461.234 73.9258 460.844 73.2148 460.062C72.5117 459.273 72.1562 458.109 72.1484 456.57V448.32H74.3164V456.512C74.3164 458.434 75.0977 459.395 76.6602 459.395C78.3164 459.395 79.418 458.777 79.9648 457.543V448.32H82.1328V461H80.0703L80.0234 459.746ZM88.3789 445.25V448.32H90.7461V449.996H88.3789V457.859C88.3789 458.367 88.4844 458.75 88.6953 459.008C88.9062 459.258 89.2656 459.383 89.7734 459.383C90.0234 459.383 90.3672 459.336 90.8047 459.242V461C90.2344 461.156 89.6797 461.234 89.1406 461.234C88.1719 461.234 87.4414 460.941 86.9492 460.355C86.457 459.77 86.2109 458.938 86.2109 457.859V449.996H83.9023V448.32H86.2109V445.25H88.3789Z" fill="#4BA3C3"/>
<path d="M205.32 141H203.624L197.182 131.139V141H195.485V128.203H197.182L203.642 138.108V128.203H205.32V141ZM212.009 141.176C210.72 141.176 209.671 140.754 208.862 139.91C208.054 139.061 207.649 137.927 207.649 136.509V136.21C207.649 135.267 207.828 134.426 208.186 133.688C208.549 132.943 209.053 132.363 209.697 131.947C210.348 131.525 211.051 131.314 211.807 131.314C213.043 131.314 214.004 131.722 214.689 132.536C215.375 133.351 215.718 134.517 215.718 136.034V136.711H209.275C209.299 137.648 209.571 138.407 210.093 138.987C210.62 139.562 211.288 139.849 212.097 139.849C212.671 139.849 213.157 139.731 213.556 139.497C213.954 139.263 214.303 138.952 214.602 138.565L215.595 139.339C214.798 140.563 213.603 141.176 212.009 141.176ZM211.807 132.65C211.15 132.65 210.6 132.891 210.154 133.371C209.709 133.846 209.434 134.514 209.328 135.375H214.092V135.252C214.045 134.426 213.822 133.787 213.424 133.336C213.025 132.879 212.486 132.65 211.807 132.65ZM223.479 140.06C222.846 140.804 221.917 141.176 220.692 141.176C219.679 141.176 218.905 140.883 218.372 140.297C217.845 139.705 217.578 138.832 217.572 137.678V131.49H219.198V137.634C219.198 139.075 219.784 139.796 220.956 139.796C222.198 139.796 223.024 139.333 223.435 138.407V131.49H225.061V141H223.514L223.479 140.06ZM232.136 132.949C231.89 132.908 231.623 132.888 231.336 132.888C230.27 132.888 229.546 133.342 229.165 134.25V141H227.539V131.49H229.121L229.147 132.589C229.681 131.739 230.437 131.314 231.415 131.314C231.731 131.314 231.972 131.355 232.136 131.438V132.949ZM233.032 136.157C233.032 135.226 233.214 134.388 233.577 133.644C233.946 132.899 234.456 132.325 235.106 131.921C235.763 131.517 236.51 131.314 237.348 131.314C238.643 131.314 239.688 131.763 240.485 132.659C241.288 133.556 241.689 134.748 241.689 136.236V136.351C241.689 137.276 241.511 138.108 241.153 138.847C240.802 139.579 240.295 140.15 239.633 140.561C238.977 140.971 238.221 141.176 237.365 141.176C236.076 141.176 235.03 140.728 234.228 139.831C233.431 138.935 233.032 137.748 233.032 136.271V136.157ZM234.667 136.351C234.667 137.405 234.91 138.252 235.396 138.891C235.889 139.529 236.545 139.849 237.365 139.849C238.191 139.849 238.848 139.526 239.334 138.882C239.82 138.231 240.063 137.323 240.063 136.157C240.063 135.114 239.814 134.271 239.316 133.626C238.824 132.976 238.168 132.65 237.348 132.65C236.545 132.65 235.897 132.97 235.405 133.608C234.913 134.247 234.667 135.161 234.667 136.351ZM245.267 131.49L245.319 132.686C246.046 131.771 246.995 131.314 248.167 131.314C250.177 131.314 251.19 132.448 251.208 134.716V141H249.582V134.707C249.576 134.021 249.418 133.515 249.107 133.187C248.803 132.858 248.325 132.694 247.675 132.694C247.147 132.694 246.685 132.835 246.286 133.116C245.888 133.397 245.577 133.767 245.354 134.224V141H243.729V131.49H245.267Z" fill="black"/>
<path d="M641.256 141.296C639.809 140.88 638.754 140.37 638.092 139.767C637.436 139.157 637.107 138.407 637.107 137.517C637.107 136.509 637.509 135.677 638.312 135.021C639.12 134.358 640.169 134.027 641.458 134.027C642.337 134.027 643.119 134.197 643.805 134.537C644.496 134.877 645.029 135.346 645.404 135.943C645.785 136.541 645.976 137.194 645.976 137.903H644.279C644.279 137.13 644.033 136.523 643.541 136.084C643.049 135.639 642.354 135.416 641.458 135.416C640.626 135.416 639.976 135.601 639.507 135.97C639.044 136.333 638.812 136.84 638.812 137.49C638.812 138.012 639.032 138.454 639.472 138.817C639.917 139.175 640.67 139.503 641.73 139.802C642.797 140.101 643.629 140.432 644.227 140.795C644.83 141.152 645.275 141.571 645.562 142.052C645.855 142.532 646.002 143.098 646.002 143.748C646.002 144.785 645.598 145.617 644.789 146.244C643.98 146.865 642.899 147.176 641.546 147.176C640.667 147.176 639.847 147.009 639.085 146.675C638.323 146.335 637.734 145.872 637.318 145.286C636.908 144.7 636.703 144.035 636.703 143.291H638.399C638.399 144.064 638.684 144.677 639.252 145.128C639.826 145.573 640.591 145.796 641.546 145.796C642.437 145.796 643.119 145.614 643.594 145.251C644.068 144.888 644.306 144.393 644.306 143.766C644.306 143.139 644.086 142.655 643.646 142.315C643.207 141.97 642.41 141.63 641.256 141.296ZM647.522 142.166C647.522 140.672 647.865 139.491 648.551 138.624C649.236 137.751 650.156 137.314 651.311 137.314C652.436 137.314 653.323 137.692 653.974 138.448L654.044 137.49H655.538V150.656H653.912V146.121C653.256 146.824 652.383 147.176 651.293 147.176C650.145 147.176 649.228 146.73 648.542 145.84C647.862 144.943 647.522 143.757 647.522 142.28V142.166ZM649.148 142.351C649.148 143.44 649.377 144.296 649.834 144.917C650.297 145.538 650.918 145.849 651.697 145.849C652.664 145.849 653.402 145.421 653.912 144.565V139.907C653.396 139.069 652.664 138.65 651.715 138.65C650.93 138.65 650.306 138.964 649.843 139.591C649.38 140.212 649.148 141.132 649.148 142.351ZM664.02 146.06C663.387 146.804 662.458 147.176 661.233 147.176C660.22 147.176 659.446 146.883 658.913 146.297C658.386 145.705 658.119 144.832 658.113 143.678V137.49H659.739V143.634C659.739 145.075 660.325 145.796 661.497 145.796C662.739 145.796 663.565 145.333 663.976 144.407V137.49H665.602V147H664.055L664.02 146.06ZM673.951 147C673.857 146.812 673.781 146.479 673.723 145.998C672.967 146.783 672.064 147.176 671.016 147.176C670.078 147.176 669.308 146.912 668.704 146.385C668.106 145.852 667.808 145.178 667.808 144.363C667.808 143.373 668.183 142.605 668.933 142.061C669.688 141.51 670.749 141.234 672.114 141.234H673.696V140.487C673.696 139.919 673.526 139.468 673.187 139.134C672.847 138.794 672.346 138.624 671.684 138.624C671.104 138.624 670.617 138.771 670.225 139.063C669.832 139.356 669.636 139.711 669.636 140.127H668.001C668.001 139.652 668.168 139.195 668.502 138.756C668.842 138.311 669.299 137.959 669.873 137.701C670.453 137.443 671.089 137.314 671.78 137.314C672.876 137.314 673.734 137.59 674.355 138.141C674.977 138.686 675.299 139.438 675.322 140.399V144.776C675.322 145.649 675.434 146.344 675.656 146.859V147H673.951ZM671.253 145.761C671.763 145.761 672.246 145.629 672.703 145.365C673.16 145.102 673.491 144.759 673.696 144.337V142.386H672.422C670.43 142.386 669.434 142.969 669.434 144.135C669.434 144.645 669.604 145.043 669.943 145.33C670.283 145.617 670.72 145.761 671.253 145.761ZM682.468 138.949C682.222 138.908 681.955 138.888 681.668 138.888C680.602 138.888 679.878 139.342 679.497 140.25V147H677.871V137.49H679.453L679.479 138.589C680.013 137.739 680.769 137.314 681.747 137.314C682.063 137.314 682.304 137.355 682.468 137.438V138.949ZM687.741 147.176C686.452 147.176 685.403 146.754 684.595 145.91C683.786 145.061 683.382 143.927 683.382 142.509V142.21C683.382 141.267 683.561 140.426 683.918 139.688C684.281 138.943 684.785 138.363 685.43 137.947C686.08 137.525 686.783 137.314 687.539 137.314C688.775 137.314 689.736 137.722 690.422 138.536C691.107 139.351 691.45 140.517 691.45 142.034V142.711H685.008C685.031 143.648 685.304 144.407 685.825 144.987C686.353 145.562 687.021 145.849 687.829 145.849C688.403 145.849 688.89 145.731 689.288 145.497C689.687 145.263 690.035 144.952 690.334 144.565L691.327 145.339C690.53 146.563 689.335 147.176 687.741 147.176ZM687.539 138.65C686.883 138.65 686.332 138.891 685.887 139.371C685.441 139.846 685.166 140.514 685.061 141.375H689.824V141.252C689.777 140.426 689.555 139.787 689.156 139.336C688.758 138.879 688.219 138.65 687.539 138.65ZM692.944 142.166C692.944 140.707 693.29 139.535 693.981 138.65C694.673 137.76 695.578 137.314 696.697 137.314C697.811 137.314 698.692 137.695 699.343 138.457V133.5H700.969V147H699.475L699.396 145.98C698.745 146.777 697.84 147.176 696.68 147.176C695.578 147.176 694.679 146.725 693.981 145.822C693.29 144.92 692.944 143.742 692.944 142.289V142.166ZM694.57 142.351C694.57 143.429 694.793 144.272 695.238 144.882C695.684 145.491 696.299 145.796 697.084 145.796C698.115 145.796 698.868 145.333 699.343 144.407V140.039C698.856 139.143 698.109 138.694 697.102 138.694C696.305 138.694 695.684 139.002 695.238 139.617C694.793 140.232 694.57 141.144 694.57 142.351ZM715.453 141.085H709.907V145.62H716.35V147H708.22V134.203H716.262V135.592H709.907V139.705H715.453V141.085ZM722.792 138.949C722.546 138.908 722.279 138.888 721.992 138.888C720.926 138.888 720.202 139.342 719.821 140.25V147H718.195V137.49H719.777L719.804 138.589C720.337 137.739 721.093 137.314 722.071 137.314C722.388 137.314 722.628 137.355 722.792 137.438V138.949ZM728.892 138.949C728.646 138.908 728.379 138.888 728.092 138.888C727.025 138.888 726.302 139.342 725.921 140.25V147H724.295V137.49H725.877L725.903 138.589C726.437 137.739 727.192 137.314 728.171 137.314C728.487 137.314 728.728 137.355 728.892 137.438V138.949ZM729.788 142.157C729.788 141.226 729.97 140.388 730.333 139.644C730.702 138.899 731.212 138.325 731.862 137.921C732.519 137.517 733.266 137.314 734.104 137.314C735.398 137.314 736.444 137.763 737.241 138.659C738.044 139.556 738.445 140.748 738.445 142.236V142.351C738.445 143.276 738.267 144.108 737.909 144.847C737.558 145.579 737.051 146.15 736.389 146.561C735.732 146.971 734.977 147.176 734.121 147.176C732.832 147.176 731.786 146.728 730.983 145.831C730.187 144.935 729.788 143.748 729.788 142.271V142.157ZM731.423 142.351C731.423 143.405 731.666 144.252 732.152 144.891C732.645 145.529 733.301 145.849 734.121 145.849C734.947 145.849 735.604 145.526 736.09 144.882C736.576 144.231 736.819 143.323 736.819 142.157C736.819 141.114 736.57 140.271 736.072 139.626C735.58 138.976 734.924 138.65 734.104 138.65C733.301 138.65 732.653 138.97 732.161 139.608C731.669 140.247 731.423 141.161 731.423 142.351ZM745.081 138.949C744.835 138.908 744.568 138.888 744.281 138.888C743.215 138.888 742.491 139.342 742.11 140.25V147H740.484V137.49H742.066L742.093 138.589C742.626 137.739 743.382 137.314 744.36 137.314C744.677 137.314 744.917 137.355 745.081 137.438V138.949Z" fill="black"/>
<path d="M246.137 339.257L224.693 222.755" stroke="#1CC1C7" stroke-width="4"/>
<path d="M49 173L72.6151 75" stroke="#4BA3C3" stroke-width="4"/>
<path d="M224.301 370.518L227.957 355.98H231.209L225.672 375H223.035L218.412 360.586L213.912 375H211.275L205.756 355.98H208.99L212.734 370.219L217.164 355.98H219.783L224.301 370.518ZM242.424 375.352C239.846 375.352 237.748 374.508 236.131 372.82C234.514 371.121 233.705 368.854 233.705 366.018V365.42C233.705 363.533 234.062 361.852 234.777 360.375C235.504 358.887 236.512 357.727 237.801 356.895C239.102 356.051 240.508 355.629 242.02 355.629C244.492 355.629 246.414 356.443 247.785 358.072C249.156 359.701 249.842 362.033 249.842 365.068V366.422H236.957C237.004 368.297 237.549 369.814 238.592 370.975C239.646 372.123 240.982 372.697 242.6 372.697C243.748 372.697 244.721 372.463 245.518 371.994C246.314 371.525 247.012 370.904 247.609 370.131L249.596 371.678C248.002 374.127 245.611 375.352 242.424 375.352ZM242.02 358.301C240.707 358.301 239.605 358.781 238.715 359.742C237.824 360.691 237.273 362.027 237.062 363.75H246.59V363.504C246.496 361.852 246.051 360.574 245.254 359.672C244.457 358.758 243.379 358.301 242.02 358.301ZM257.154 375H253.902V355.98H257.154V375ZM253.639 350.936C253.639 350.408 253.797 349.963 254.113 349.6C254.441 349.236 254.922 349.055 255.555 349.055C256.188 349.055 256.668 349.236 256.996 349.6C257.324 349.963 257.488 350.408 257.488 350.936C257.488 351.463 257.324 351.902 256.996 352.254C256.668 352.605 256.188 352.781 255.555 352.781C254.922 352.781 254.441 352.605 254.113 352.254C253.797 351.902 253.639 351.463 253.639 350.936ZM261.602 365.332C261.602 362.367 262.287 360.012 263.658 358.266C265.029 356.508 266.846 355.629 269.107 355.629C271.428 355.629 273.238 356.449 274.539 358.09L274.697 355.98H277.668V374.543C277.668 377.004 276.936 378.943 275.471 380.361C274.018 381.779 272.061 382.488 269.6 382.488C268.229 382.488 266.887 382.195 265.574 381.609C264.262 381.023 263.26 380.221 262.568 379.201L264.256 377.25C265.65 378.973 267.355 379.834 269.371 379.834C270.953 379.834 272.184 379.389 273.062 378.498C273.953 377.607 274.398 376.354 274.398 374.736V373.102C273.098 374.602 271.322 375.352 269.072 375.352C266.846 375.352 265.041 374.455 263.658 372.662C262.287 370.869 261.602 368.426 261.602 365.332ZM264.871 365.701C264.871 367.846 265.311 369.533 266.189 370.764C267.068 371.982 268.299 372.592 269.881 372.592C271.932 372.592 273.438 371.66 274.398 369.797V361.113C273.402 359.297 271.908 358.389 269.916 358.389C268.334 358.389 267.098 359.004 266.207 360.234C265.316 361.465 264.871 363.287 264.871 365.701ZM285.842 358.283C287.283 356.514 289.158 355.629 291.467 355.629C295.486 355.629 297.514 357.896 297.549 362.432V375H294.297V362.414C294.285 361.043 293.969 360.029 293.348 359.373C292.738 358.717 291.783 358.389 290.482 358.389C289.428 358.389 288.502 358.67 287.705 359.232C286.908 359.795 286.287 360.533 285.842 361.447V375H282.59V348H285.842V358.283ZM306.83 351.375V355.98H310.381V358.494H306.83V370.289C306.83 371.051 306.988 371.625 307.305 372.012C307.621 372.387 308.16 372.574 308.922 372.574C309.297 372.574 309.812 372.504 310.469 372.363V375C309.613 375.234 308.781 375.352 307.973 375.352C306.52 375.352 305.424 374.912 304.686 374.033C303.947 373.154 303.578 371.906 303.578 370.289V358.494H300.115V355.98H303.578V351.375H306.83Z" fill="#1CC1C7"/>
<path d="M54.9941 62H51.7422V42.9805H54.9941V62ZM51.4785 37.9355C51.4785 37.4082 51.6367 36.9629 51.9531 36.5996C52.2812 36.2363 52.7617 36.0547 53.3945 36.0547C54.0273 36.0547 54.5078 36.2363 54.8359 36.5996C55.1641 36.9629 55.3281 37.4082 55.3281 37.9355C55.3281 38.4629 55.1641 38.9023 54.8359 39.2539C54.5078 39.6055 54.0273 39.7812 53.3945 39.7812C52.7617 39.7812 52.2812 39.6055 51.9531 39.2539C51.6367 38.9023 51.4785 38.4629 51.4785 37.9355ZM63.291 42.9805L63.3965 45.3711C64.8496 43.543 66.748 42.6289 69.0918 42.6289C73.1113 42.6289 75.1387 44.8965 75.1738 49.4316V62H71.9219V49.4141C71.9102 48.043 71.5938 47.0293 70.9727 46.373C70.3633 45.7168 69.4082 45.3887 68.1074 45.3887C67.0527 45.3887 66.127 45.6699 65.3301 46.2324C64.5332 46.7949 63.9121 47.5332 63.4668 48.4473V62H60.2148V42.9805H63.291ZM96.1445 52.7012C96.1445 55.5957 95.4824 57.9277 94.1582 59.6973C92.834 61.4668 91.041 62.3516 88.7793 62.3516C86.4707 62.3516 84.6543 61.6191 83.3301 60.1543V69.3125H80.0781V42.9805H83.0488L83.207 45.0898C84.5312 43.4492 86.3711 42.6289 88.7266 42.6289C91.0117 42.6289 92.8164 43.4902 94.1406 45.2129C95.4766 46.9355 96.1445 49.332 96.1445 52.4023V52.7012ZM92.8926 52.332C92.8926 50.1875 92.4355 48.4941 91.5215 47.252C90.6074 46.0098 89.3535 45.3887 87.7598 45.3887C85.791 45.3887 84.3145 46.2617 83.3301 48.0078V57.0957C84.3027 58.8301 85.791 59.6973 87.7949 59.6973C89.3535 59.6973 90.5898 59.082 91.5039 57.8516C92.4297 56.6094 92.8926 54.7695 92.8926 52.332ZM112.035 60.1191C110.77 61.6074 108.912 62.3516 106.463 62.3516C104.436 62.3516 102.889 61.7656 101.822 60.5938C100.768 59.4102 100.234 57.6641 100.223 55.3555V42.9805H103.475V55.2676C103.475 58.1504 104.646 59.5918 106.99 59.5918C109.475 59.5918 111.127 58.666 111.947 56.8145V42.9805H115.199V62H112.105L112.035 60.1191ZM124.568 38.375V42.9805H128.119V45.4941H124.568V57.2891C124.568 58.0508 124.727 58.625 125.043 59.0117C125.359 59.3867 125.898 59.5742 126.66 59.5742C127.035 59.5742 127.551 59.5039 128.207 59.3633V62C127.352 62.2344 126.52 62.3516 125.711 62.3516C124.258 62.3516 123.162 61.9121 122.424 61.0332C121.686 60.1543 121.316 58.9062 121.316 57.2891V45.4941H117.854V42.9805H121.316V38.375H124.568Z" fill="#4BA3C3"/>
<path d="M365.562 45.7012C365.562 48.6074 364.895 50.9453 363.559 52.7148C362.223 54.4727 360.43 55.3516 358.18 55.3516C355.777 55.3516 353.92 54.502 352.607 52.8027L352.449 55H349.461V28H352.713V38.0723C354.025 36.4434 355.836 35.6289 358.145 35.6289C360.453 35.6289 362.264 36.502 363.576 38.248C364.9 39.9941 365.562 42.3848 365.562 45.4199V45.7012ZM362.311 45.332C362.311 43.1172 361.883 41.4062 361.027 40.1992C360.172 38.9922 358.941 38.3887 357.336 38.3887C355.191 38.3887 353.65 39.3848 352.713 41.377V49.6035C353.709 51.5957 355.262 52.5918 357.371 52.5918C358.93 52.5918 360.143 51.9883 361.01 50.7812C361.877 49.5742 362.311 47.7578 362.311 45.332ZM373.209 55H369.957V35.9805H373.209V55ZM369.693 30.9355C369.693 30.4082 369.852 29.9629 370.168 29.5996C370.496 29.2363 370.977 29.0547 371.609 29.0547C372.242 29.0547 372.723 29.2363 373.051 29.5996C373.379 29.9629 373.543 30.4082 373.543 30.9355C373.543 31.4629 373.379 31.9023 373.051 32.2539C372.723 32.6055 372.242 32.7812 371.609 32.7812C370.977 32.7812 370.496 32.6055 370.168 32.2539C369.852 31.9023 369.693 31.4629 369.693 30.9355ZM390.172 55C389.984 54.625 389.832 53.957 389.715 52.9961C388.203 54.5664 386.398 55.3516 384.301 55.3516C382.426 55.3516 380.885 54.8242 379.678 53.7695C378.482 52.7031 377.885 51.3555 377.885 49.7266C377.885 47.7461 378.635 46.2109 380.135 45.1211C381.646 44.0195 383.768 43.4688 386.498 43.4688H389.662V41.9746C389.662 40.8379 389.322 39.9355 388.643 39.2676C387.963 38.5879 386.961 38.248 385.637 38.248C384.477 38.248 383.504 38.541 382.719 39.127C381.934 39.7129 381.541 40.4219 381.541 41.2539H378.271C378.271 40.3047 378.605 39.3906 379.273 38.5117C379.953 37.6211 380.867 36.918 382.016 36.4023C383.176 35.8867 384.447 35.6289 385.83 35.6289C388.021 35.6289 389.738 36.1797 390.98 37.2812C392.223 38.3711 392.867 39.877 392.914 41.7988V50.5527C392.914 52.2988 393.137 53.6875 393.582 54.7188V55H390.172ZM384.775 52.5215C385.795 52.5215 386.762 52.2578 387.676 51.7305C388.59 51.2031 389.252 50.5176 389.662 49.6738V45.7715H387.113C383.129 45.7715 381.137 46.9375 381.137 49.2695C381.137 50.2891 381.477 51.0859 382.156 51.6602C382.836 52.2344 383.709 52.5215 384.775 52.5215ZM409.086 49.9551C409.086 49.0762 408.752 48.3965 408.084 47.916C407.428 47.4238 406.273 47.002 404.621 46.6504C402.98 46.2988 401.674 45.877 400.701 45.3848C399.74 44.8926 399.025 44.3066 398.557 43.627C398.1 42.9473 397.871 42.1387 397.871 41.2012C397.871 39.6426 398.527 38.3242 399.84 37.2461C401.164 36.168 402.852 35.6289 404.902 35.6289C407.059 35.6289 408.805 36.1855 410.141 37.2988C411.488 38.4121 412.162 39.8359 412.162 41.5703H408.893C408.893 40.6797 408.512 39.9121 407.75 39.2676C407 38.623 406.051 38.3008 404.902 38.3008C403.719 38.3008 402.793 38.5586 402.125 39.0742C401.457 39.5898 401.123 40.2637 401.123 41.0957C401.123 41.8809 401.434 42.4727 402.055 42.8711C402.676 43.2695 403.795 43.6504 405.412 44.0137C407.041 44.377 408.359 44.8105 409.367 45.3145C410.375 45.8184 411.119 46.4277 411.6 47.1426C412.092 47.8457 412.338 48.707 412.338 49.7266C412.338 51.4258 411.658 52.791 410.299 53.8223C408.939 54.8418 407.176 55.3516 405.008 55.3516C403.484 55.3516 402.137 55.082 400.965 54.543C399.793 54.0039 398.873 53.2539 398.205 52.293C397.549 51.3203 397.221 50.2715 397.221 49.1465H400.473C400.531 50.2363 400.965 51.1035 401.773 51.748C402.594 52.3809 403.672 52.6973 405.008 52.6973C406.238 52.6973 407.223 52.4512 407.961 51.959C408.711 51.4551 409.086 50.7871 409.086 49.9551Z" fill="#1CC1C7"/>
<path d="M454.527 363.701C454.527 366.596 453.865 368.928 452.541 370.697C451.217 372.467 449.424 373.352 447.162 373.352C444.854 373.352 443.037 372.619 441.713 371.154V380.312H438.461V353.98H441.432L441.59 356.09C442.914 354.449 444.754 353.629 447.109 353.629C449.395 353.629 451.199 354.49 452.523 356.213C453.859 357.936 454.527 360.332 454.527 363.402V363.701ZM451.275 363.332C451.275 361.188 450.818 359.494 449.904 358.252C448.99 357.01 447.736 356.389 446.143 356.389C444.174 356.389 442.697 357.262 441.713 359.008V368.096C442.686 369.83 444.174 370.697 446.178 370.697C447.736 370.697 448.973 370.082 449.887 368.852C450.812 367.609 451.275 365.77 451.275 363.332ZM467.869 356.898C467.377 356.816 466.844 356.775 466.27 356.775C464.137 356.775 462.689 357.684 461.928 359.5V373H458.676V353.98H461.84L461.893 356.178C462.959 354.479 464.471 353.629 466.428 353.629C467.061 353.629 467.541 353.711 467.869 353.875V356.898ZM478.416 373.352C475.838 373.352 473.74 372.508 472.123 370.82C470.506 369.121 469.697 366.854 469.697 364.018V363.42C469.697 361.533 470.055 359.852 470.77 358.375C471.496 356.887 472.504 355.727 473.793 354.895C475.094 354.051 476.5 353.629 478.012 353.629C480.484 353.629 482.406 354.443 483.777 356.072C485.148 357.701 485.834 360.033 485.834 363.068V364.422H472.949C472.996 366.297 473.541 367.814 474.584 368.975C475.639 370.123 476.975 370.697 478.592 370.697C479.74 370.697 480.713 370.463 481.51 369.994C482.307 369.525 483.004 368.904 483.602 368.131L485.588 369.678C483.994 372.127 481.604 373.352 478.416 373.352ZM478.012 356.301C476.699 356.301 475.598 356.781 474.707 357.742C473.816 358.691 473.266 360.027 473.055 361.75H482.582V361.504C482.488 359.852 482.043 358.574 481.246 357.672C480.449 356.758 479.371 356.301 478.012 356.301ZM488.822 363.332C488.822 360.414 489.514 358.07 490.896 356.301C492.279 354.52 494.09 353.629 496.328 353.629C498.555 353.629 500.318 354.391 501.619 355.914V346H504.871V373H501.883L501.725 370.961C500.424 372.555 498.613 373.352 496.293 373.352C494.09 373.352 492.291 372.449 490.896 370.645C489.514 368.84 488.822 366.484 488.822 363.578V363.332ZM492.074 363.701C492.074 365.857 492.52 367.545 493.41 368.764C494.301 369.982 495.531 370.592 497.102 370.592C499.164 370.592 500.67 369.666 501.619 367.814V359.078C500.646 357.285 499.152 356.389 497.137 356.389C495.543 356.389 494.301 357.004 493.41 358.234C492.52 359.465 492.074 361.287 492.074 363.701ZM513.467 373H510.215V353.98H513.467V373ZM509.951 348.936C509.951 348.408 510.109 347.963 510.426 347.6C510.754 347.236 511.234 347.055 511.867 347.055C512.5 347.055 512.98 347.236 513.309 347.6C513.637 347.963 513.801 348.408 513.801 348.936C513.801 349.463 513.637 349.902 513.309 350.254C512.98 350.605 512.5 350.781 511.867 350.781C511.234 350.781 510.754 350.605 510.426 350.254C510.109 349.902 509.951 349.463 509.951 348.936ZM526.316 370.697C527.477 370.697 528.49 370.346 529.357 369.643C530.225 368.939 530.705 368.061 530.799 367.006H533.875C533.816 368.096 533.441 369.133 532.75 370.117C532.059 371.102 531.133 371.887 529.973 372.473C528.824 373.059 527.605 373.352 526.316 373.352C523.727 373.352 521.664 372.49 520.129 370.768C518.605 369.033 517.844 366.666 517.844 363.666V363.121C517.844 361.27 518.184 359.623 518.863 358.182C519.543 356.74 520.516 355.621 521.781 354.824C523.059 354.027 524.564 353.629 526.299 353.629C528.432 353.629 530.201 354.268 531.607 355.545C533.025 356.822 533.781 358.48 533.875 360.52H530.799C530.705 359.289 530.236 358.281 529.393 357.496C528.561 356.699 527.529 356.301 526.299 356.301C524.646 356.301 523.363 356.898 522.449 358.094C521.547 359.277 521.096 360.994 521.096 363.244V363.859C521.096 366.051 521.547 367.738 522.449 368.922C523.352 370.105 524.641 370.697 526.316 370.697ZM541.943 349.375V353.98H545.494V356.494H541.943V368.289C541.943 369.051 542.102 369.625 542.418 370.012C542.734 370.387 543.273 370.574 544.035 370.574C544.41 370.574 544.926 370.504 545.582 370.363V373C544.727 373.234 543.895 373.352 543.086 373.352C541.633 373.352 540.537 372.912 539.799 372.033C539.061 371.154 538.691 369.906 538.691 368.289V356.494H535.229V353.98H538.691V349.375H541.943ZM552.842 373H549.59V353.98H552.842V373ZM549.326 348.936C549.326 348.408 549.484 347.963 549.801 347.6C550.129 347.236 550.609 347.055 551.242 347.055C551.875 347.055 552.355 347.236 552.684 347.6C553.012 347.963 553.176 348.408 553.176 348.936C553.176 349.463 553.012 349.902 552.684 350.254C552.355 350.605 551.875 350.781 551.242 350.781C550.609 350.781 550.129 350.605 549.801 350.254C549.484 349.902 549.326 349.463 549.326 348.936ZM557.201 363.314C557.201 361.451 557.564 359.775 558.291 358.287C559.029 356.799 560.049 355.65 561.35 354.842C562.662 354.033 564.156 353.629 565.832 353.629C568.422 353.629 570.514 354.525 572.107 356.318C573.713 358.111 574.516 360.496 574.516 363.473V363.701C574.516 365.553 574.158 367.217 573.443 368.693C572.74 370.158 571.727 371.301 570.402 372.121C569.09 372.941 567.578 373.352 565.867 373.352C563.289 373.352 561.197 372.455 559.592 370.662C557.998 368.869 557.201 366.496 557.201 363.543V363.314ZM560.471 363.701C560.471 365.811 560.957 367.504 561.93 368.781C562.914 370.059 564.227 370.697 565.867 370.697C567.52 370.697 568.832 370.053 569.805 368.764C570.777 367.463 571.264 365.646 571.264 363.314C571.264 361.229 570.766 359.541 569.77 358.252C568.785 356.951 567.473 356.301 565.832 356.301C564.227 356.301 562.932 356.939 561.947 358.217C560.963 359.494 560.471 361.322 560.471 363.701ZM581.67 353.98L581.775 356.371C583.229 354.543 585.127 353.629 587.471 353.629C591.49 353.629 593.518 355.896 593.553 360.432V373H590.301V360.414C590.289 359.043 589.973 358.029 589.352 357.373C588.742 356.717 587.787 356.389 586.486 356.389C585.432 356.389 584.506 356.67 583.709 357.232C582.912 357.795 582.291 358.533 581.846 359.447V373H578.594V353.98H581.67Z" fill="#3E77CD"/>
<path d="M805.994 356H802.742V329H805.994V356ZM810.354 346.314C810.354 344.451 810.717 342.775 811.443 341.287C812.182 339.799 813.201 338.65 814.502 337.842C815.814 337.033 817.309 336.629 818.984 336.629C821.574 336.629 823.666 337.525 825.26 339.318C826.865 341.111 827.668 343.496 827.668 346.473V346.701C827.668 348.553 827.311 350.217 826.596 351.693C825.893 353.158 824.879 354.301 823.555 355.121C822.242 355.941 820.73 356.352 819.02 356.352C816.441 356.352 814.35 355.455 812.744 353.662C811.15 351.869 810.354 349.496 810.354 346.543V346.314ZM813.623 346.701C813.623 348.811 814.109 350.504 815.082 351.781C816.066 353.059 817.379 353.697 819.02 353.697C820.672 353.697 821.984 353.053 822.957 351.764C823.93 350.463 824.416 348.646 824.416 346.314C824.416 344.229 823.918 342.541 822.922 341.252C821.938 339.951 820.625 339.301 818.984 339.301C817.379 339.301 816.084 339.939 815.1 341.217C814.115 342.494 813.623 344.322 813.623 346.701ZM842.82 350.955C842.82 350.076 842.486 349.396 841.818 348.916C841.162 348.424 840.008 348.002 838.355 347.65C836.715 347.299 835.408 346.877 834.436 346.385C833.475 345.893 832.76 345.307 832.291 344.627C831.834 343.947 831.605 343.139 831.605 342.201C831.605 340.643 832.262 339.324 833.574 338.246C834.898 337.168 836.586 336.629 838.637 336.629C840.793 336.629 842.539 337.186 843.875 338.299C845.223 339.412 845.896 340.836 845.896 342.57H842.627C842.627 341.68 842.246 340.912 841.484 340.268C840.734 339.623 839.785 339.301 838.637 339.301C837.453 339.301 836.527 339.559 835.859 340.074C835.191 340.59 834.857 341.264 834.857 342.096C834.857 342.881 835.168 343.473 835.789 343.871C836.41 344.27 837.529 344.65 839.146 345.014C840.775 345.377 842.094 345.811 843.102 346.314C844.109 346.818 844.854 347.428 845.334 348.143C845.826 348.846 846.072 349.707 846.072 350.727C846.072 352.426 845.393 353.791 844.033 354.822C842.674 355.842 840.91 356.352 838.742 356.352C837.219 356.352 835.871 356.082 834.699 355.543C833.527 355.004 832.607 354.254 831.939 353.293C831.283 352.32 830.955 351.271 830.955 350.146H834.207C834.266 351.236 834.699 352.104 835.508 352.748C836.328 353.381 837.406 353.697 838.742 353.697C839.973 353.697 840.957 353.451 841.695 352.959C842.445 352.455 842.82 351.787 842.82 350.955ZM861.383 350.955C861.383 350.076 861.049 349.396 860.381 348.916C859.725 348.424 858.57 348.002 856.918 347.65C855.277 347.299 853.971 346.877 852.998 346.385C852.037 345.893 851.322 345.307 850.854 344.627C850.396 343.947 850.168 343.139 850.168 342.201C850.168 340.643 850.824 339.324 852.137 338.246C853.461 337.168 855.148 336.629 857.199 336.629C859.355 336.629 861.102 337.186 862.438 338.299C863.785 339.412 864.459 340.836 864.459 342.57H861.189C861.189 341.68 860.809 340.912 860.047 340.268C859.297 339.623 858.348 339.301 857.199 339.301C856.016 339.301 855.09 339.559 854.422 340.074C853.754 340.59 853.42 341.264 853.42 342.096C853.42 342.881 853.73 343.473 854.352 343.871C854.973 344.27 856.092 344.65 857.709 345.014C859.338 345.377 860.656 345.811 861.664 346.314C862.672 346.818 863.416 347.428 863.896 348.143C864.389 348.846 864.635 349.707 864.635 350.727C864.635 352.426 863.955 353.791 862.596 354.822C861.236 355.842 859.473 356.352 857.305 356.352C855.781 356.352 854.434 356.082 853.262 355.543C852.09 355.004 851.17 354.254 850.502 353.293C849.846 352.32 849.518 351.271 849.518 350.146H852.77C852.828 351.236 853.262 352.104 854.07 352.748C854.891 353.381 855.969 353.697 857.305 353.697C858.535 353.697 859.52 353.451 860.258 352.959C861.008 352.455 861.383 351.787 861.383 350.955ZM876.939 346.314C876.939 344.451 877.303 342.775 878.029 341.287C878.768 339.799 879.787 338.65 881.088 337.842C882.4 337.033 883.895 336.629 885.57 336.629C888.16 336.629 890.252 337.525 891.846 339.318C893.451 341.111 894.254 343.496 894.254 346.473V346.701C894.254 348.553 893.896 350.217 893.182 351.693C892.479 353.158 891.465 354.301 890.141 355.121C888.828 355.941 887.316 356.352 885.605 356.352C883.027 356.352 880.936 355.455 879.33 353.662C877.736 351.869 876.939 349.496 876.939 346.543V346.314ZM880.209 346.701C880.209 348.811 880.695 350.504 881.668 351.781C882.652 353.059 883.965 353.697 885.605 353.697C887.258 353.697 888.57 353.053 889.543 351.764C890.516 350.463 891.002 348.646 891.002 346.314C891.002 344.229 890.504 342.541 889.508 341.252C888.523 339.951 887.211 339.301 885.57 339.301C883.965 339.301 882.67 339.939 881.686 341.217C880.701 342.494 880.209 344.322 880.209 346.701ZM910.074 354.119C908.809 355.607 906.951 356.352 904.502 356.352C902.475 356.352 900.928 355.766 899.861 354.594C898.807 353.41 898.273 351.664 898.262 349.355V336.98H901.514V349.268C901.514 352.15 902.686 353.592 905.029 353.592C907.514 353.592 909.166 352.666 909.986 350.814V336.98H913.238V356H910.145L910.074 354.119ZM922.607 332.375V336.98H926.158V339.494H922.607V351.289C922.607 352.051 922.766 352.625 923.082 353.012C923.398 353.387 923.938 353.574 924.699 353.574C925.074 353.574 925.59 353.504 926.246 353.363V356C925.391 356.234 924.559 356.352 923.75 356.352C922.297 356.352 921.201 355.912 920.463 355.033C919.725 354.154 919.355 352.906 919.355 351.289V339.494H915.893V336.98H919.355V332.375H922.607ZM946.039 346.701C946.039 349.596 945.377 351.928 944.053 353.697C942.729 355.467 940.936 356.352 938.674 356.352C936.365 356.352 934.549 355.619 933.225 354.154V363.312H929.973V336.98H932.943L933.102 339.09C934.426 337.449 936.266 336.629 938.621 336.629C940.906 336.629 942.711 337.49 944.035 339.213C945.371 340.936 946.039 343.332 946.039 346.402V346.701ZM942.787 346.332C942.787 344.188 942.33 342.494 941.416 341.252C940.502 340.01 939.248 339.389 937.654 339.389C935.686 339.389 934.209 340.262 933.225 342.008V351.096C934.197 352.83 935.686 353.697 937.689 353.697C939.248 353.697 940.484 353.082 941.398 351.852C942.324 350.609 942.787 348.77 942.787 346.332ZM961.93 354.119C960.664 355.607 958.807 356.352 956.357 356.352C954.33 356.352 952.783 355.766 951.717 354.594C950.662 353.41 950.129 351.664 950.117 349.355V336.98H953.369V349.268C953.369 352.15 954.541 353.592 956.885 353.592C959.369 353.592 961.021 352.666 961.842 350.814V336.98H965.094V356H962L961.93 354.119ZM974.463 332.375V336.98H978.014V339.494H974.463V351.289C974.463 352.051 974.621 352.625 974.938 353.012C975.254 353.387 975.793 353.574 976.555 353.574C976.93 353.574 977.445 353.504 978.102 353.363V356C977.246 356.234 976.414 356.352 975.605 356.352C974.152 356.352 973.057 355.912 972.318 355.033C971.58 354.154 971.211 352.906 971.211 351.289V339.494H967.748V336.98H971.211V332.375H974.463Z" fill="#3E77CD"/>
<path d="M734.994 45H731.742V25.9805H734.994V45ZM731.479 20.9355C731.479 20.4082 731.637 19.9629 731.953 19.5996C732.281 19.2363 732.762 19.0547 733.395 19.0547C734.027 19.0547 734.508 19.2363 734.836 19.5996C735.164 19.9629 735.328 20.4082 735.328 20.9355C735.328 21.4629 735.164 21.9023 734.836 22.2539C734.508 22.6055 734.027 22.7812 733.395 22.7812C732.762 22.7812 732.281 22.6055 731.953 22.2539C731.637 21.9023 731.479 21.4629 731.479 20.9355ZM743.291 25.9805L743.396 28.3711C744.85 26.543 746.748 25.6289 749.092 25.6289C753.111 25.6289 755.139 27.8965 755.174 32.4316V45H751.922V32.4141C751.91 31.043 751.594 30.0293 750.973 29.373C750.363 28.7168 749.408 28.3887 748.107 28.3887C747.053 28.3887 746.127 28.6699 745.33 29.2324C744.533 29.7949 743.912 30.5332 743.467 31.4473V45H740.215V25.9805H743.291ZM776.145 35.7012C776.145 38.5957 775.482 40.9277 774.158 42.6973C772.834 44.4668 771.041 45.3516 768.779 45.3516C766.471 45.3516 764.654 44.6191 763.33 43.1543V52.3125H760.078V25.9805H763.049L763.207 28.0898C764.531 26.4492 766.371 25.6289 768.727 25.6289C771.012 25.6289 772.816 26.4902 774.141 28.2129C775.477 29.9355 776.145 32.332 776.145 35.4023V35.7012ZM772.893 35.332C772.893 33.1875 772.436 31.4941 771.521 30.252C770.607 29.0098 769.354 28.3887 767.76 28.3887C765.791 28.3887 764.314 29.2617 763.33 31.0078V40.0957C764.303 41.8301 765.791 42.6973 767.795 42.6973C769.354 42.6973 770.59 42.082 771.504 40.8516C772.43 39.6094 772.893 37.7695 772.893 35.332ZM792.035 43.1191C790.77 44.6074 788.912 45.3516 786.463 45.3516C784.436 45.3516 782.889 44.7656 781.822 43.5938C780.768 42.4102 780.234 40.6641 780.223 38.3555V25.9805H783.475V38.2676C783.475 41.1504 784.646 42.5918 786.99 42.5918C789.475 42.5918 791.127 41.666 791.947 39.8145V25.9805H795.199V45H792.105L792.035 43.1191ZM804.568 21.375V25.9805H808.119V28.4941H804.568V40.2891C804.568 41.0508 804.727 41.625 805.043 42.0117C805.359 42.3867 805.898 42.5742 806.66 42.5742C807.035 42.5742 807.551 42.5039 808.207 42.3633V45C807.352 45.2344 806.52 45.3516 805.711 45.3516C804.258 45.3516 803.162 44.9121 802.424 44.0332C801.686 43.1543 801.316 41.9062 801.316 40.2891V28.4941H797.854V25.9805H801.316V21.375H804.568ZM824.396 45H821.145V18H824.396V45ZM841.359 45C841.172 44.625 841.02 43.957 840.902 42.9961C839.391 44.5664 837.586 45.3516 835.488 45.3516C833.613 45.3516 832.072 44.8242 830.865 43.7695C829.67 42.7031 829.072 41.3555 829.072 39.7266C829.072 37.7461 829.822 36.2109 831.322 35.1211C832.834 34.0195 834.955 33.4688 837.686 33.4688H840.85V31.9746C840.85 30.8379 840.51 29.9355 839.83 29.2676C839.15 28.5879 838.148 28.248 836.824 28.248C835.664 28.248 834.691 28.541 833.906 29.127C833.121 29.7129 832.729 30.4219 832.729 31.2539H829.459C829.459 30.3047 829.793 29.3906 830.461 28.5117C831.141 27.6211 832.055 26.918 833.203 26.4023C834.363 25.8867 835.635 25.6289 837.018 25.6289C839.209 25.6289 840.926 26.1797 842.168 27.2812C843.41 28.3711 844.055 29.877 844.102 31.7988V40.5527C844.102 42.2988 844.324 43.6875 844.77 44.7188V45H841.359ZM835.963 42.5215C836.982 42.5215 837.949 42.2578 838.863 41.7305C839.777 41.2031 840.439 40.5176 840.85 39.6738V35.7715H838.301C834.316 35.7715 832.324 36.9375 832.324 39.2695C832.324 40.2891 832.664 41.0859 833.344 41.6602C834.023 42.2344 834.896 42.5215 835.963 42.5215ZM865.301 35.7012C865.301 38.6074 864.633 40.9453 863.297 42.7148C861.961 44.4727 860.168 45.3516 857.918 45.3516C855.516 45.3516 853.658 44.502 852.346 42.8027L852.188 45H849.199V18H852.451V28.0723C853.764 26.4434 855.574 25.6289 857.883 25.6289C860.191 25.6289 862.002 26.502 863.314 28.248C864.639 29.9941 865.301 32.3848 865.301 35.4199V35.7012ZM862.049 35.332C862.049 33.1172 861.621 31.4062 860.766 30.1992C859.91 28.9922 858.68 28.3887 857.074 28.3887C854.93 28.3887 853.389 29.3848 852.451 31.377V39.6035C853.447 41.5957 855 42.5918 857.109 42.5918C858.668 42.5918 859.881 41.9883 860.748 40.7812C861.615 39.5742 862.049 37.7578 862.049 35.332ZM877.307 45.3516C874.729 45.3516 872.631 44.5078 871.014 42.8203C869.396 41.1211 868.588 38.8535 868.588 36.0176V35.4199C868.588 33.5332 868.945 31.8516 869.66 30.375C870.387 28.8867 871.395 27.7266 872.684 26.8945C873.984 26.0508 875.391 25.6289 876.902 25.6289C879.375 25.6289 881.297 26.4434 882.668 28.0723C884.039 29.7012 884.725 32.0332 884.725 35.0684V36.4219H871.84C871.887 38.2969 872.432 39.8145 873.475 40.9746C874.529 42.123 875.865 42.6973 877.482 42.6973C878.631 42.6973 879.604 42.4629 880.4 41.9941C881.197 41.5254 881.895 40.9043 882.492 40.1309L884.479 41.6777C882.885 44.127 880.494 45.3516 877.307 45.3516ZM876.902 28.3008C875.59 28.3008 874.488 28.7812 873.598 29.7422C872.707 30.6914 872.156 32.0273 871.945 33.75H881.473V33.5039C881.379 31.8516 880.934 30.5742 880.137 29.6719C879.34 28.7578 878.262 28.3008 876.902 28.3008ZM892.037 45H888.785V18H892.037V45Z" fill="#1CC1C7"/>
<path d="M347 169L369 67" stroke="#1CC1C7" stroke-width="4"/>
<path d="M501 235L514 334" stroke="#3E77CD" stroke-width="4"/>
<path d="M947.152 223L887 328" stroke="#3E77CD" stroke-width="4"/>
<path d="M806.907 52.7253L751.64 182.748" stroke="#1CC1C7" stroke-width="4"/>
</svg>
