<svg width="1010" height="156" viewBox="0 0 1010 156" fill="none" xmlns="http://www.w3.org/2000/svg">
<rect width="1010" height="156" fill="white"/>
<rect x="196.5" y="19.5" width="173" height="100" stroke="black" stroke-width="3"/>
<rect x="639.5" y="26.5" width="161" height="92" stroke="#FECECE" stroke-width="3"/>
<path d="M183.768 76.7678C184.744 75.7915 184.744 74.2086 183.768 73.2322L167.858 57.3223C166.882 56.346 165.299 56.346 164.322 57.3223C163.346 58.2986 163.346 59.8816 164.322 60.8579L178.464 75L164.322 89.1421C163.346 90.1185 163.346 91.7014 164.322 92.6777C165.299 93.654 166.882 93.654 167.858 92.6777L183.768 76.7678ZM93 77.5L182 77.5L182 72.5L93 72.5L93 77.5Z" fill="black"/>
<path d="M471.768 72.7678C472.744 71.7914 472.744 70.2085 471.768 69.2322L455.858 53.3223C454.882 52.346 453.299 52.346 452.322 53.3223C451.346 54.2986 451.346 55.8815 452.322 56.8579L466.464 71L452.322 85.1421C451.346 86.1184 451.346 87.7014 452.322 88.6777C453.299 89.654 454.882 89.654 455.858 88.6777L471.768 72.7678ZM382 73.5L470 73.5L470 68.5L382 68.5L382 73.5Z" fill="black"/>
<path d="M623.768 72.7678C624.744 71.7915 624.744 70.2085 623.768 69.2322L607.858 53.3223C606.882 52.346 605.299 52.346 604.322 53.3223C603.346 54.2986 603.346 55.8816 604.322 56.8579L618.464 71L604.322 85.1421C603.346 86.1184 603.346 87.7014 604.322 88.6777C605.299 89.654 606.882 89.654 607.858 88.6777L623.768 72.7678ZM534 73.5H622V68.5H534V73.5Z" fill="black"/>
<path d="M908.768 74.7678C909.744 73.7914 909.744 72.2085 908.768 71.2322L892.858 55.3223C891.882 54.346 890.299 54.346 889.322 55.3223C888.346 56.2986 888.346 57.8815 889.322 58.8579L903.464 73L889.322 87.1421C888.346 88.1184 888.346 89.7014 889.322 90.6777C890.299 91.654 891.882 91.654 892.858 90.6777L908.768 74.7678ZM815 75.5L907 75.5L907 70.5L815 70.5L815 75.5Z" fill="black"/>
<path d="M26.8332 69.3807C25.9688 69.3807 25.2805 69.0926 24.7683 68.5163C24.2561 67.9401 24 67.2358 24 66.4035C24 64.1305 24.8483 62.1617 26.545 60.497C28.2417 58.8324 30.3546 58 32.8836 58C35.7968 58 38.2298 58.8964 40.1826 60.6891C42.1354 62.4819 43.1278 64.8028 43.1598 67.652C43.1598 69.0285 42.8397 70.3411 42.1994 71.5896C41.5592 72.8381 40.7909 73.9265 39.8945 74.8549C38.9981 75.7833 37.7176 76.9678 36.0529 78.4084C34.9004 79.4008 33.2998 80.8734 31.251 82.8262L28.4178 85.5153L32.0673 85.5633C37.0933 85.5633 39.7664 85.4832 40.0866 85.3232C40.3107 85.2592 40.6948 83.8346 41.239 81.0494V80.9054H43.1598V81.0494C43.1278 81.1455 42.9197 82.6021 42.5356 85.4192C42.1514 88.2364 41.9113 89.709 41.8153 89.837V89.9811H24V89.0687V88.4925C24 88.2684 24.096 88.0283 24.2881 87.7722C24.4802 87.5161 24.9604 86.9558 25.7287 86.0915C26.6571 85.0671 27.4574 84.1707 28.1297 83.4024C28.4178 83.0823 28.962 82.49 29.7624 81.6257C30.5627 80.7613 31.1069 80.1691 31.395 79.8489C31.6831 79.5288 32.1473 79.0006 32.7876 78.2643C33.4278 77.528 33.876 76.9838 34.1321 76.6316C34.3882 76.2795 34.7564 75.7993 35.2366 75.191C35.7168 74.5828 36.0529 74.0706 36.245 73.6544C36.4371 73.2382 36.6772 72.7741 36.9653 72.2618C37.2534 71.7496 37.4615 71.2374 37.5895 70.7252C37.7176 70.213 37.8296 69.7328 37.9257 69.2846C38.0217 68.8364 38.0697 68.3082 38.0697 67.7C38.0697 65.6832 37.5255 63.9384 36.4371 62.4658C35.3486 60.9932 33.796 60.2569 31.7792 60.2569C30.7227 60.2569 29.7944 60.5291 28.994 61.0733C28.1937 61.6175 27.6335 62.1457 27.3134 62.6579C26.9932 63.1701 26.8332 63.4743 26.8332 63.5703C26.8332 63.6023 26.9132 63.6183 27.0733 63.6183C27.6495 63.6183 28.2417 63.8424 28.85 64.2906C29.4582 64.7388 29.7624 65.4751 29.7624 66.4995C29.7624 67.2998 29.5062 67.9721 28.994 68.5163C28.4818 69.0605 27.7615 69.3487 26.8332 69.3807Z" fill="black"/>
<path d="M49.3544 87.0999C49.3544 86.3316 49.6265 85.6593 50.1707 85.0831C50.7149 84.5068 51.4032 84.2187 52.2355 84.2187C53.0039 84.2187 53.6761 84.4748 54.2524 84.987C54.8286 85.4993 55.1327 86.1875 55.1647 87.0519C55.1647 87.8522 54.8926 88.5405 54.3484 89.1167C53.8042 89.693 53.1159 89.9811 52.2836 89.9811C51.4512 89.9811 50.7629 89.709 50.2187 89.1647C49.6745 88.6205 49.3864 87.9322 49.3544 87.0999Z" fill="black"/>
<path d="M69.1864 62.2258L68.5621 62.4658C68.114 62.6259 67.4737 62.786 66.6414 62.946C65.809 63.1061 64.8806 63.2182 63.8562 63.2822H62.9438V61.0733H63.8562C65.3608 61.0093 66.7534 60.7692 68.0339 60.353C69.3144 59.9368 70.2108 59.5527 70.723 59.2005C71.2352 58.8484 71.6834 58.4962 72.0676 58.1441C72.1316 58.048 72.3237 58 72.6438 58C72.9319 58 73.204 58.0961 73.4601 58.2881V72.646L73.5082 87.0519C73.7323 87.276 73.9243 87.42 74.0844 87.4841C74.2445 87.5481 74.6286 87.6121 75.2369 87.6761C75.8451 87.7402 76.8375 87.7722 78.2141 87.7722H79.4626V89.9811H78.9344C78.2621 89.885 75.7171 89.837 71.2993 89.837C66.9455 89.837 64.4325 89.885 63.7602 89.9811H63.1839V87.7722H64.4325C65.1367 87.7722 65.745 87.7722 66.2572 87.7722C66.7694 87.7722 67.1696 87.7562 67.4577 87.7242C67.7458 87.6921 68.0019 87.6441 68.226 87.5801C68.4501 87.5161 68.5781 87.4841 68.6102 87.4841C68.6422 87.4841 68.7382 87.404 68.8983 87.244C69.0583 87.0839 69.1544 87.0199 69.1864 87.0519V62.2258Z" fill="black"/>
<path d="M477.981 64.9751C477.072 64.9751 476.347 64.6719 475.808 64.0656C475.269 63.4592 475 62.7182 475 61.8423C475 59.4507 475.893 57.379 477.678 55.6274C479.463 53.8758 481.687 53 484.348 53C487.413 53 489.973 53.9432 492.028 55.8295C494.083 57.7159 495.127 60.1581 495.161 63.1561C495.161 64.6045 494.824 65.9856 494.15 67.2993C493.476 68.6131 492.668 69.7584 491.725 70.7352C490.782 71.7121 489.434 72.9585 487.682 74.4743C486.47 75.5185 484.786 77.068 482.63 79.1228L479.649 81.9524L483.489 82.0029C488.777 82.0029 491.59 81.9187 491.927 81.7503C492.163 81.6829 492.567 80.1839 493.139 77.2533V77.1017H495.161V77.2533C495.127 77.3544 494.908 78.887 494.504 81.8513C494.1 84.8156 493.847 86.3652 493.746 86.4999V86.6515H475V85.6915V85.0851C475 84.8493 475.101 84.5967 475.303 84.3272C475.505 84.0577 476.011 83.4682 476.819 82.5587C477.796 81.4808 478.638 80.5376 479.345 79.7292C479.649 79.3923 480.221 78.7692 481.063 77.8597C481.905 76.9502 482.478 76.327 482.781 75.9901C483.084 75.6533 483.573 75.0975 484.247 74.3227C484.92 73.5479 485.392 72.9753 485.661 72.6048C485.931 72.2342 486.318 71.7289 486.824 71.0889C487.329 70.4489 487.682 69.9099 487.885 69.472C488.087 69.0341 488.339 68.5457 488.643 68.0067C488.946 67.4678 489.165 66.9288 489.299 66.3898C489.434 65.8509 489.552 65.3456 489.653 64.874C489.754 64.4024 489.805 63.8466 489.805 63.2066C489.805 61.0844 489.232 59.2486 488.087 57.6991C486.941 56.1495 485.308 55.3748 483.186 55.3748C482.074 55.3748 481.097 55.6611 480.255 56.2337C479.413 56.8064 478.823 57.3622 478.486 57.9012C478.15 58.4401 477.981 58.7601 477.981 58.8612C477.981 58.8949 478.065 58.9117 478.234 58.9117C478.84 58.9117 479.463 59.1475 480.103 59.6191C480.743 60.0907 481.063 60.8655 481.063 61.9434C481.063 62.7855 480.794 63.4929 480.255 64.0656C479.716 64.6382 478.958 64.9414 477.981 64.9751Z" fill="black"/>
<path d="M501.679 83.6198C501.679 82.8114 501.965 82.104 502.538 81.4977C503.11 80.8913 503.835 80.5882 504.71 80.5882C505.519 80.5882 506.226 80.8576 506.833 81.3966C507.439 81.9356 507.759 82.6598 507.793 83.5693C507.793 84.4114 507.506 85.1357 506.934 85.742C506.361 86.3483 505.637 86.6515 504.761 86.6515C503.885 86.6515 503.161 86.3652 502.588 85.7925C502.016 85.2199 501.712 84.4956 501.679 83.6198Z" fill="black"/>
<path d="M522.547 57.4464L521.89 57.6991C521.418 57.8675 520.744 58.0359 519.869 58.2043C518.993 58.3728 518.016 58.4907 516.938 58.558H515.978V56.2337H516.938C518.521 56.1664 519.987 55.9137 521.334 55.4758C522.681 55.0379 523.625 54.6337 524.164 54.2632C524.702 53.8926 525.174 53.5221 525.578 53.1516C525.646 53.0505 525.848 53 526.185 53C526.488 53 526.774 53.101 527.044 53.3031V68.411L527.094 83.5693C527.33 83.8051 527.532 83.9567 527.7 84.024C527.869 84.0914 528.273 84.1588 528.913 84.2262C529.553 84.2935 530.597 84.3272 532.046 84.3272H533.36V86.6515H532.804C532.096 86.5504 529.418 86.4999 524.77 86.4999C520.189 86.4999 517.544 86.5504 516.837 86.6515H516.231V84.3272H517.544C518.285 84.3272 518.925 84.3272 519.464 84.3272C520.003 84.3272 520.424 84.3104 520.728 84.2767C521.031 84.243 521.3 84.1925 521.536 84.1251C521.772 84.0577 521.907 84.024 521.94 84.024C521.974 84.024 522.075 83.9398 522.243 83.7714C522.412 83.603 522.513 83.5356 522.547 83.5693V57.4464Z" fill="black"/>
<path d="M201 73.5251C201 72.1888 201.097 70.9203 201.291 69.7195C201.484 68.5188 201.707 67.4827 201.959 66.6112C202.21 65.7396 202.569 64.8875 203.034 64.0547C203.498 63.222 203.866 62.5732 204.137 62.1084C204.409 61.6436 204.815 61.14 205.358 60.5978C205.9 60.0555 206.219 59.7263 206.316 59.6101C206.413 59.4939 206.655 59.2905 207.042 59H207.42H207.536C207.807 59 207.943 59.0872 207.943 59.2615C207.943 59.3196 207.778 59.5229 207.449 59.8715C207.12 60.2201 206.723 60.7333 206.258 61.4112C205.793 62.089 205.319 62.9218 204.835 63.9095C204.35 64.8972 203.944 66.2335 203.615 67.9184C203.285 69.6033 203.121 71.4722 203.121 73.5251C203.121 75.578 203.285 77.4372 203.615 79.1027C203.944 80.7683 204.341 82.1143 204.806 83.1407C205.27 84.1672 205.745 84.9999 206.229 85.639C206.713 86.2781 207.12 86.7914 207.449 87.1787C207.778 87.566 207.943 87.7694 207.943 87.7887C207.943 87.9631 207.798 88.0502 207.507 88.0502H207.42H207.042L206.229 87.353C204.409 85.7068 203.082 83.6539 202.249 81.1944C201.416 78.7348 201 76.1784 201 73.5251Z" fill="black"/>
<path d="M215.757 63.9966L215.38 64.1419C215.109 64.2387 214.721 64.3355 214.218 64.4324C213.714 64.5292 213.153 64.597 212.533 64.6357H211.981V63.2994H212.533C213.443 63.2607 214.286 63.1154 215.06 62.8637C215.835 62.6119 216.377 62.3795 216.687 62.1665C216.997 61.9534 217.268 61.7404 217.5 61.5273C217.539 61.4692 217.655 61.4402 217.849 61.4402C218.023 61.4402 218.188 61.4983 218.343 61.6145V70.3005L218.372 79.0156C218.508 79.1511 218.624 79.2383 218.721 79.277C218.817 79.3158 219.05 79.3545 219.418 79.3932C219.786 79.432 220.386 79.4513 221.219 79.4513H221.974V80.7876H221.655C221.248 80.7295 219.708 80.7005 217.036 80.7005C214.402 80.7005 212.882 80.7295 212.475 80.7876H212.126V79.4513H212.882C213.308 79.4513 213.676 79.4513 213.985 79.4513C214.295 79.4513 214.537 79.4416 214.712 79.4223C214.886 79.4029 215.041 79.3739 215.176 79.3351C215.312 79.2964 215.39 79.277 215.409 79.277C215.428 79.277 215.486 79.2286 215.583 79.1318C215.68 79.0349 215.738 78.9962 215.757 79.0156V63.9966Z" fill="black"/>
<path d="M225.838 59.0291L225.954 59C226.051 59 226.148 59 226.245 59H226.593L227.407 59.6972C229.227 61.3434 230.554 63.3963 231.387 65.8558C232.219 68.3154 232.636 70.8718 232.636 73.5251C232.636 74.842 232.539 76.1106 232.345 77.3307C232.152 78.5508 231.929 79.5869 231.677 80.439C231.425 81.2912 231.067 82.1433 230.602 82.9955C230.137 83.8476 229.769 84.4964 229.498 84.9418C229.227 85.3873 228.83 85.8811 228.307 86.4234C227.784 86.9657 227.474 87.2852 227.378 87.382C227.281 87.4789 227.058 87.6629 226.71 87.934C226.651 87.9921 226.613 88.0308 226.593 88.0502H226.245C226.09 88.0502 225.983 88.0502 225.925 88.0502C225.867 88.0502 225.819 88.0212 225.78 87.9631C225.741 87.905 225.712 87.8178 225.693 87.7016C225.712 87.6822 225.819 87.5563 226.012 87.3239C229.014 84.2059 230.515 79.6063 230.515 73.5251C230.515 67.4439 229.014 62.8443 226.012 59.7263C225.819 59.4939 225.712 59.368 225.693 59.3486C225.693 59.1937 225.741 59.0872 225.838 59.0291Z" fill="black"/>
<path d="M238.126 73.5251C238.126 72.1888 238.223 70.9203 238.417 69.7195C238.61 68.5188 238.833 67.4827 239.085 66.6112C239.337 65.7396 239.695 64.8875 240.16 64.0547C240.625 63.222 240.993 62.5732 241.264 62.1084C241.535 61.6436 241.941 61.14 242.484 60.5978C243.026 60.0555 243.346 59.7263 243.442 59.6101C243.539 59.4939 243.781 59.2905 244.169 59H244.546H244.663C244.934 59 245.069 59.0872 245.069 59.2615C245.069 59.3196 244.905 59.5229 244.575 59.8715C244.246 60.2201 243.849 60.7333 243.384 61.4112C242.92 62.089 242.445 62.9218 241.961 63.9095C241.477 64.8972 241.07 66.2335 240.741 67.9184C240.412 69.6033 240.247 71.4722 240.247 73.5251C240.247 75.578 240.412 77.4372 240.741 79.1027C241.07 80.7683 241.467 82.1143 241.932 83.1407C242.397 84.1672 242.871 84.9999 243.355 85.639C243.839 86.2781 244.246 86.7914 244.575 87.1787C244.905 87.566 245.069 87.7694 245.069 87.7887C245.069 87.9631 244.924 88.0502 244.633 88.0502H244.546H244.169L243.355 87.353C241.535 85.7068 240.208 83.6539 239.375 81.1944C238.543 78.7348 238.126 76.1784 238.126 73.5251Z" fill="black"/>
<path d="M249.862 68.3251C249.339 68.3251 248.923 68.1508 248.613 67.8022C248.303 67.4536 248.148 67.0275 248.148 66.524C248.148 65.1489 248.662 63.9579 249.688 62.9508C250.715 61.9437 251.993 61.4402 253.523 61.4402C255.285 61.4402 256.757 61.9825 257.938 63.067C259.12 64.1515 259.72 65.5556 259.739 67.2793C259.739 68.1121 259.546 68.9061 259.158 69.6614C258.771 70.4167 258.306 71.0752 257.764 71.6368C257.222 72.1985 256.447 72.915 255.44 73.7865C254.743 74.3869 253.774 75.2778 252.535 76.4591L250.821 78.086L253.029 78.115C256.069 78.115 257.687 78.0666 257.88 77.9698C258.016 77.931 258.248 77.0692 258.577 75.3843V75.2971H259.739V75.3843C259.72 75.4424 259.594 76.3236 259.362 78.0279C259.129 79.7321 258.984 80.623 258.926 80.7005V80.7876H248.148V80.2357V79.8871C248.148 79.7515 248.207 79.6063 248.323 79.4513C248.439 79.2964 248.729 78.9575 249.194 78.4346C249.756 77.8148 250.24 77.2726 250.647 76.8078C250.821 76.6141 251.15 76.2558 251.634 75.7329C252.119 75.21 252.448 74.8517 252.622 74.658C252.796 74.4644 253.077 74.1448 253.465 73.6994C253.852 73.2539 254.123 72.9247 254.278 72.7117C254.433 72.4986 254.656 72.2081 254.946 71.8402C255.237 71.4722 255.44 71.1623 255.556 70.9106C255.672 70.6588 255.818 70.378 255.992 70.0681C256.166 69.7582 256.292 69.4484 256.37 69.1385C256.447 68.8286 256.515 68.5381 256.573 68.267C256.631 67.9959 256.66 67.6763 256.66 67.3083C256.66 66.0882 256.331 65.0327 255.672 64.1419C255.014 63.251 254.075 62.8056 252.855 62.8056C252.215 62.8056 251.654 62.9702 251.17 63.2994C250.685 63.6286 250.347 63.9482 250.153 64.2581C249.959 64.5679 249.862 64.7519 249.862 64.81C249.862 64.8294 249.911 64.8391 250.008 64.8391C250.356 64.8391 250.715 64.9746 251.083 65.2458C251.45 65.5169 251.634 65.9623 251.634 66.5821C251.634 67.0663 251.48 67.473 251.17 67.8022C250.86 68.1314 250.424 68.3057 249.862 68.3251Z" fill="black"/>
<path d="M263.487 79.0446C263.487 78.5798 263.652 78.1731 263.981 77.8245C264.31 77.4759 264.726 77.3016 265.23 77.3016C265.695 77.3016 266.101 77.4565 266.45 77.7664C266.799 78.0763 266.983 78.4927 267.002 79.0156C267.002 79.4997 266.837 79.9161 266.508 80.2647C266.179 80.6133 265.763 80.7876 265.259 80.7876C264.755 80.7876 264.339 80.623 264.01 80.2938C263.681 79.9645 263.506 79.5482 263.487 79.0446Z" fill="black"/>
<path d="M275.485 63.9966L275.107 64.1419C274.836 64.2387 274.449 64.3355 273.945 64.4324C273.441 64.5292 272.88 64.597 272.26 64.6357H271.708V63.2994H272.26C273.17 63.2607 274.013 63.1154 274.787 62.8637C275.562 62.6119 276.104 62.3795 276.414 62.1665C276.724 61.9534 276.995 61.7404 277.228 61.5273C277.266 61.4692 277.383 61.4402 277.576 61.4402C277.751 61.4402 277.915 61.4983 278.07 61.6145V70.3005L278.099 79.0156C278.235 79.1511 278.351 79.2383 278.448 79.277C278.545 79.3158 278.777 79.3545 279.145 79.3932C279.513 79.432 280.113 79.4513 280.946 79.4513H281.701V80.7876H281.382C280.975 80.7295 279.435 80.7005 276.763 80.7005C274.129 80.7005 272.609 80.7295 272.202 80.7876H271.853V79.4513H272.609C273.035 79.4513 273.403 79.4513 273.713 79.4513C274.022 79.4513 274.265 79.4416 274.439 79.4223C274.613 79.4029 274.768 79.3739 274.904 79.3351C275.039 79.2964 275.117 79.277 275.136 79.277C275.155 79.277 275.214 79.2286 275.31 79.1318C275.407 79.0349 275.465 78.9962 275.485 79.0156V63.9966Z" fill="black"/>
<path d="M285.565 59.0291L285.681 59C285.778 59 285.875 59 285.972 59H286.32L287.134 59.6972C288.954 61.3434 290.281 63.3963 291.114 65.8558C291.947 68.3154 292.363 70.8718 292.363 73.5251C292.363 74.842 292.266 76.1106 292.072 77.3307C291.879 78.5508 291.656 79.5869 291.404 80.439C291.152 81.2912 290.794 82.1433 290.329 82.9955C289.865 83.8476 289.497 84.4964 289.225 84.9418C288.954 85.3873 288.557 85.8811 288.034 86.4234C287.512 86.9657 287.202 87.2852 287.105 87.382C287.008 87.4789 286.785 87.6629 286.437 87.934C286.379 87.9921 286.34 88.0308 286.32 88.0502H285.972C285.817 88.0502 285.71 88.0502 285.652 88.0502C285.594 88.0502 285.546 88.0212 285.507 87.9631C285.468 87.905 285.439 87.8178 285.42 87.7016C285.439 87.6822 285.546 87.5563 285.739 87.3239C288.741 84.2059 290.242 79.6063 290.242 73.5251C290.242 67.4439 288.741 62.8443 285.739 59.7263C285.546 59.4939 285.439 59.368 285.42 59.3486C285.42 59.1937 285.468 59.0872 285.565 59.0291Z" fill="black"/>
<path d="M303.205 73.9027C303.205 73.9027 303.205 73.7768 303.205 73.5251C303.205 73.2733 303.34 73.0796 303.611 72.9441H312.297V68.5865L312.326 64.229C312.52 63.9772 312.704 63.8514 312.878 63.8514C313.13 63.8514 313.324 63.9966 313.459 64.2871V72.9441H322.116C322.407 73.099 322.552 73.2927 322.552 73.5251C322.552 73.7575 322.407 73.9511 322.116 74.1061H313.459V82.763C313.304 83.0342 313.13 83.1697 312.936 83.1697H312.878H312.82C312.588 83.1697 312.414 83.0342 312.297 82.763V74.1061H303.611C303.34 73.9705 303.205 73.7768 303.205 73.5251V73.9027Z" fill="black"/>
<path d="M333.364 73.5251C333.364 72.1888 333.461 70.9203 333.655 69.7195C333.848 68.5188 334.071 67.4827 334.323 66.6112C334.575 65.7396 334.933 64.8875 335.398 64.0547C335.863 63.222 336.231 62.5732 336.502 62.1084C336.773 61.6436 337.18 61.14 337.722 60.5978C338.264 60.0555 338.584 59.7263 338.68 59.6101C338.777 59.4939 339.019 59.2905 339.407 59H339.784H339.901C340.172 59 340.307 59.0872 340.307 59.2615C340.307 59.3196 340.143 59.5229 339.813 59.8715C339.484 60.2201 339.087 60.7333 338.622 61.4112C338.158 62.089 337.683 62.9218 337.199 63.9095C336.715 64.8972 336.308 66.2335 335.979 67.9184C335.65 69.6033 335.485 71.4722 335.485 73.5251C335.485 75.578 335.65 77.4372 335.979 79.1027C336.308 80.7683 336.705 82.1143 337.17 83.1407C337.635 84.1672 338.109 84.9999 338.593 85.639C339.077 86.2781 339.484 86.7914 339.813 87.1787C340.143 87.566 340.307 87.7694 340.307 87.7887C340.307 87.9631 340.162 88.0502 339.872 88.0502H339.784H339.407L338.593 87.353C336.773 85.7068 335.446 83.6539 334.613 81.1944C333.781 78.7348 333.364 76.1784 333.364 73.5251Z" fill="black"/>
<path d="M344.723 63.7933C345.807 62.2246 347.289 61.4402 349.167 61.4402C350.097 61.4402 351.027 61.692 351.956 62.1955C352.886 62.6991 353.641 63.5899 354.222 64.8681C354.939 66.4756 355.297 68.6834 355.297 71.4916C355.297 74.4934 354.881 76.7884 354.048 78.3765C353.661 79.1899 353.128 79.8387 352.45 80.3229C351.772 80.807 351.182 81.1072 350.678 81.2234C350.175 81.3396 349.681 81.4074 349.196 81.4268C348.693 81.4268 348.189 81.3687 347.686 81.2525C347.182 81.1363 346.592 80.8264 345.914 80.3229C345.236 79.8193 344.703 79.1705 344.316 78.3765C343.483 76.7884 343.067 74.4934 343.067 71.4916C343.067 68.1218 343.619 65.5557 344.723 63.7933ZM351.259 63.4447C350.678 62.8249 349.991 62.5151 349.196 62.5151C348.383 62.5151 347.686 62.8249 347.105 63.4447C346.621 63.9482 346.301 64.6454 346.146 65.5363C345.991 66.4272 345.914 68.2864 345.914 71.1139C345.914 74.1739 345.991 76.188 346.146 77.1564C346.301 78.1247 346.65 78.8897 347.192 79.4513C347.734 80.0323 348.402 80.3229 349.196 80.3229C349.971 80.3229 350.63 80.0323 351.172 79.4513C351.734 78.8703 352.082 78.0569 352.218 77.0111C352.353 75.9653 352.431 73.9996 352.45 71.1139C352.45 68.3058 352.373 66.4562 352.218 65.5653C352.063 64.6745 351.743 63.9676 351.259 63.4447Z" fill="black"/>
<path d="M358.202 59.0291L358.319 59C358.415 59 358.512 59 358.609 59H358.958L359.771 59.6972C361.592 61.3434 362.918 63.3963 363.751 65.8558C364.584 68.3154 365 70.8718 365 73.5251C365 74.842 364.903 76.1106 364.71 77.3307C364.516 78.5508 364.293 79.5869 364.041 80.439C363.79 81.2912 363.431 82.1433 362.967 82.9955C362.502 83.8476 362.134 84.4964 361.863 84.9418C361.592 85.3873 361.195 85.8811 360.672 86.4234C360.149 86.9657 359.839 87.2852 359.742 87.382C359.645 87.4789 359.422 87.6629 359.074 87.934C359.016 87.9921 358.977 88.0308 358.958 88.0502H358.609C358.454 88.0502 358.348 88.0502 358.29 88.0502C358.231 88.0502 358.183 88.0212 358.144 87.9631C358.106 87.905 358.076 87.8178 358.057 87.7016C358.076 87.6822 358.183 87.5563 358.377 87.3239C361.379 84.2059 362.879 79.6063 362.879 73.5251C362.879 67.4439 361.379 62.8443 358.377 59.7263C358.183 59.4939 358.076 59.368 358.057 59.3486C358.057 59.1937 358.106 59.0872 358.202 59.0291Z" fill="black"/>
<path d="M921.891 68.292C921.067 68.292 920.426 68.0326 919.968 67.5138C919.511 66.9951 919.266 66.3237 919.236 65.4998C919.236 63.8214 919.968 62.3262 921.433 61.014C922.898 59.7019 924.668 59.0458 926.743 59.0458C927.811 59.0458 928.482 59.061 928.757 59.0916C931.015 59.4577 932.739 60.2664 933.929 61.5175C935.119 62.7687 935.729 64.1266 935.76 65.5913C935.76 67.1782 935.241 68.7192 934.204 70.2144C933.166 71.7097 931.732 72.793 929.901 73.4643L929.764 73.5559C929.764 73.5864 929.901 73.6322 930.176 73.6932C930.45 73.7542 930.893 73.8916 931.503 74.1052C932.113 74.3188 932.693 74.6392 933.242 75.0664C935.745 76.6837 936.996 78.8198 936.996 81.4747C936.996 83.8854 936.05 85.9909 934.158 87.7914C932.266 89.5918 929.871 90.492 926.972 90.492C924.53 90.492 922.425 89.8359 920.655 88.5237C918.885 87.2116 918 85.5485 918 83.5344C918 82.68 918.275 81.9934 918.824 81.4747C919.373 80.9559 920.06 80.6812 920.884 80.6507C921.738 80.6507 922.44 80.9254 922.989 81.4747C923.539 82.0239 923.813 82.7105 923.813 83.5344C923.813 83.8701 923.767 84.1753 923.676 84.4499C923.584 84.7245 923.478 84.9687 923.355 85.1823C923.233 85.3959 923.066 85.579 922.852 85.7316C922.638 85.8841 922.455 86.0062 922.303 86.0977C922.15 86.1893 921.998 86.2503 921.845 86.2808C921.692 86.3114 921.57 86.3571 921.479 86.4182L921.296 86.4639C922.852 87.8371 924.744 88.5237 926.972 88.5237C928.65 88.5237 929.916 87.7151 930.771 86.0977C931.289 85.0907 931.549 83.5497 931.549 81.4747V80.5592C931.549 77.6602 930.572 75.7225 928.619 74.746C928.162 74.5629 927.231 74.4561 925.827 74.4256L923.905 74.3798L923.767 74.2883C923.706 74.1967 923.676 73.9526 923.676 73.5559C923.676 73.0066 923.798 72.732 924.042 72.732C924.896 72.732 925.781 72.6557 926.697 72.5031C927.734 72.3505 928.68 71.7097 929.535 70.5806C930.389 69.4516 930.816 67.7427 930.816 65.454V65.0878C930.816 63.3485 930.282 62.1431 929.214 61.4718C928.543 61.0445 927.826 60.8309 927.063 60.8309C926.087 60.8309 925.186 60.9988 924.362 61.3344C923.539 61.6701 922.959 62.021 922.623 62.3872C922.287 62.7534 922.12 62.9365 922.12 62.9365H922.257C922.348 62.967 922.471 62.9975 922.623 63.028C922.776 63.0586 922.928 63.1349 923.081 63.2569C923.233 63.379 923.416 63.4858 923.63 63.5773C923.844 63.6689 923.996 63.8367 924.088 64.0808C924.179 64.325 924.301 64.5538 924.454 64.7674C924.607 64.981 924.652 65.2862 924.591 65.6829C924.591 66.3542 924.378 66.9493 923.951 67.468C923.523 67.9868 922.837 68.2615 921.891 68.292Z" fill="black"/>
<path d="M942.534 86.7386C942.534 86.0062 942.794 85.3654 943.313 84.8161C943.831 84.2668 944.487 83.9922 945.281 83.9922C946.013 83.9922 946.654 84.2363 947.203 84.7245C947.753 85.2128 948.042 85.8689 948.073 86.6928C948.073 87.4557 947.814 88.1118 947.295 88.661C946.776 89.2103 946.12 89.485 945.327 89.485C944.533 89.485 943.877 89.2256 943.358 88.7068C942.84 88.188 942.565 87.532 942.534 86.7386Z" fill="black"/>
<path d="M953.612 75.1579C953.612 70.1839 954.847 66.2474 957.319 63.3485C959.791 60.4495 962.537 59 965.558 59C967.664 59 969.174 59.5493 970.09 60.6478C971.005 61.7464 971.463 62.967 971.463 64.3097C971.463 65.0726 971.249 65.6829 970.822 66.1406C970.395 66.5984 969.8 66.8272 969.037 66.8272C968.335 66.8272 967.755 66.6136 967.298 66.1864C966.84 65.7592 966.611 65.1641 966.611 64.4012C966.611 63.0586 967.328 62.2499 968.762 61.9753C968.091 61.3039 967.145 60.9225 965.924 60.8309C963.758 60.8309 961.973 61.7464 960.569 63.5773C959.135 65.5913 958.418 68.6734 958.418 72.8235L958.463 73.0066C958.616 72.8235 958.738 72.6252 958.83 72.4116C960.081 70.5806 961.713 69.6652 963.727 69.6652H963.91C965.314 69.6652 966.55 69.9551 967.618 70.5349C968.35 70.9621 969.083 71.5724 969.815 72.3658C970.548 73.1592 971.143 74.0289 971.6 74.9749C972.241 76.4701 972.562 78.1027 972.562 79.8726V80.6965C972.562 81.3984 972.485 82.0544 972.333 82.6648C971.997 84.4652 971.021 86.2198 969.403 87.9287C967.786 89.6375 965.741 90.492 963.27 90.492C962.415 90.492 961.591 90.3699 960.798 90.1258C960.004 89.8817 959.15 89.4239 958.235 88.7526C957.319 88.0813 956.541 87.181 955.9 86.052C955.259 84.9229 954.71 83.4429 954.252 81.612C953.795 79.781 953.581 77.6297 953.612 75.1579ZM963.453 71.313C962.537 71.313 961.744 71.5724 961.073 72.0911C960.401 72.6099 959.882 73.2965 959.516 74.1509C959.15 75.0054 958.891 75.8751 958.738 76.76C958.586 77.645 958.494 78.5909 958.463 79.5979C958.463 82.1307 958.647 83.9464 959.013 85.045C959.379 86.1435 959.959 87.0285 960.752 87.6998C961.484 88.2491 962.293 88.5237 963.178 88.5237C964.734 88.5237 965.924 87.9439 966.748 86.7843C967.145 86.2351 967.42 85.5485 967.572 84.7245C967.725 83.9006 967.801 82.2986 967.801 79.9184C967.801 77.4771 967.725 75.8445 967.572 75.0206C967.42 74.1967 967.145 73.5101 966.748 72.9608C965.924 71.8623 964.826 71.313 963.453 71.313Z" fill="black"/>
<path d="M984.325 63.028L983.73 63.2569C983.303 63.4095 982.693 63.5621 981.899 63.7146C981.106 63.8672 980.221 63.974 979.244 64.035H978.375V61.9295H979.244C980.679 61.8684 982.006 61.6396 983.227 61.2429C984.447 60.8462 985.302 60.48 985.79 60.1443C986.278 59.8087 986.705 59.473 987.072 59.1373C987.133 59.0458 987.316 59 987.621 59C987.896 59 988.155 59.0915 988.399 59.2746V72.9608L988.445 86.6928C988.658 86.9064 988.842 87.0437 988.994 87.1047C989.147 87.1658 989.513 87.2268 990.093 87.2878C990.672 87.3489 991.618 87.3794 992.931 87.3794H994.121V89.485H993.617C992.976 89.3934 990.55 89.3476 986.339 89.3476C982.189 89.3476 979.794 89.3934 979.153 89.485H978.604V87.3794H979.794C980.465 87.3794 981.045 87.3794 981.533 87.3794C982.021 87.3794 982.403 87.3641 982.677 87.3336C982.952 87.3031 983.196 87.2573 983.41 87.1963C983.623 87.1353 983.745 87.1047 983.776 87.1047C983.807 87.1047 983.898 87.0285 984.051 86.8759C984.203 86.7233 984.295 86.6623 984.325 86.6928V63.028Z" fill="black"/>
<path d="M645 74.0379C645 72.2935 645.126 70.6375 645.379 69.07C645.632 67.5025 645.923 66.1499 646.251 65.0122C646.58 63.8745 647.048 62.762 647.655 61.6749C648.261 60.5877 648.742 59.7408 649.096 59.134C649.45 58.5272 649.981 57.8699 650.689 57.162C651.396 56.4541 651.814 56.0243 651.94 55.8726C652.066 55.7209 652.382 55.4554 652.888 55.0762H653.381H653.533C653.887 55.0762 654.064 55.19 654.064 55.4175C654.064 55.4934 653.849 55.7588 653.419 56.2139C652.989 56.669 652.471 57.339 651.864 58.2239C651.257 59.1087 650.638 60.1959 650.006 61.4853C649.374 62.7747 648.843 64.5192 648.413 66.7187C647.983 68.9183 647.768 71.358 647.768 74.0379C647.768 76.7179 647.983 79.145 648.413 81.3193C648.843 83.4935 649.361 85.2507 649.968 86.5906C650.575 87.9306 651.194 89.0177 651.826 89.852C652.458 90.6864 652.989 91.3563 653.419 91.862C653.849 92.3676 654.064 92.6331 654.064 92.6584C654.064 92.8859 653.874 92.9997 653.495 92.9997H653.381H652.888L651.826 92.0895C649.45 89.9405 647.718 87.2606 646.631 84.0498C645.544 80.8389 645 77.5016 645 74.0379Z" fill="black"/>
<path d="M660.321 67.25C659.638 67.25 659.095 67.0224 658.69 66.5673C658.286 66.1122 658.083 65.556 658.083 64.8987C658.083 63.1037 658.753 61.5488 660.093 60.2341C661.433 58.9194 663.102 58.2621 665.099 58.2621C667.4 58.2621 669.321 58.97 670.864 60.3858C672.406 61.8016 673.19 63.6346 673.215 65.8847C673.215 66.9718 672.962 68.0084 672.457 68.9944C671.951 69.9804 671.344 70.84 670.636 71.5732C669.928 72.3064 668.917 73.2419 667.602 74.3796C666.692 75.1633 665.428 76.3263 663.81 77.8685L661.572 79.9922L664.455 80.0302C668.424 80.0302 670.535 79.967 670.788 79.8406C670.965 79.79 671.268 78.6649 671.698 76.4654V76.3516H673.215V76.4654C673.19 76.5412 673.025 77.6916 672.722 79.9164C672.419 82.1412 672.229 83.3042 672.153 83.4054V83.5191H658.083V82.7986V82.3435C658.083 82.1665 658.159 81.9769 658.311 81.7747C658.463 81.5724 658.842 81.13 659.449 80.4473C660.182 79.6383 660.814 78.9304 661.345 78.3236C661.572 78.0708 662.002 77.6031 662.634 76.9204C663.266 76.2378 663.696 75.7701 663.924 75.5173C664.151 75.2645 664.518 74.8473 665.023 74.2658C665.529 73.6843 665.883 73.2545 666.085 72.9764C666.288 72.6983 666.578 72.3191 666.958 71.8387C667.337 71.3583 667.602 70.9538 667.754 70.6251C667.906 70.2965 668.095 69.9299 668.323 69.5254C668.55 69.1208 668.715 68.7163 668.816 68.3118C668.917 67.9073 669.005 67.5281 669.081 67.1741C669.157 66.8202 669.195 66.403 669.195 65.9226C669.195 64.3298 668.765 62.952 667.906 61.789C667.046 60.626 665.82 60.0445 664.227 60.0445C663.393 60.0445 662.66 60.2594 662.028 60.6892C661.395 61.119 660.953 61.5361 660.7 61.9407C660.447 62.3452 660.321 62.5854 660.321 62.6612C660.321 62.6865 660.384 62.6991 660.511 62.6991C660.966 62.6991 661.433 62.8761 661.914 63.2301C662.394 63.584 662.634 64.1655 662.634 64.9745C662.634 65.6066 662.432 66.1375 662.028 66.5673C661.623 66.9971 661.054 67.2247 660.321 67.25Z" fill="black"/>
<path d="M678.107 81.2438C678.107 80.637 678.322 80.1061 678.752 79.651C679.182 79.1959 679.725 78.9683 680.383 78.9683C680.989 78.9683 681.52 79.1706 681.975 79.5751C682.43 79.9796 682.671 80.5232 682.696 81.2058C682.696 81.8379 682.481 82.3815 682.051 82.8365C681.621 83.2916 681.078 83.5192 680.421 83.5192C679.763 83.5192 679.22 83.3043 678.79 82.8745C678.36 82.4447 678.132 81.9011 678.107 81.2438Z" fill="black"/>
<path d="M693.769 61.5994L693.276 61.789C692.922 61.9154 692.417 62.0418 691.759 62.1682C691.102 62.2946 690.369 62.3831 689.56 62.4337H688.839V60.6892H689.56C690.748 60.6387 691.848 60.449 692.859 60.1204C693.871 59.7917 694.578 59.4883 694.983 59.2102C695.387 58.9321 695.741 58.654 696.045 58.3759C696.095 58.3 696.247 58.2621 696.5 58.2621C696.727 58.2621 696.942 58.338 697.145 58.4897V69.8288L697.183 81.2058C697.36 81.3828 697.511 81.4966 697.638 81.5471C697.764 81.5977 698.067 81.6483 698.548 81.6988C699.028 81.7494 699.812 81.7747 700.899 81.7747H701.885V83.5192H701.468C700.937 83.4433 698.927 83.4054 695.438 83.4054C692 83.4054 690.015 83.4433 689.484 83.5192H689.029V81.7747H690.015C690.571 81.7747 691.052 81.7747 691.456 81.7747C691.861 81.7747 692.177 81.762 692.404 81.7368C692.632 81.7115 692.834 81.6736 693.011 81.623C693.188 81.5724 693.289 81.5471 693.314 81.5471C693.34 81.5471 693.415 81.4839 693.542 81.3575C693.668 81.2311 693.744 81.1805 693.769 81.2058V61.5994Z" fill="black"/>
<path d="M716.266 74.5313C716.266 74.5313 716.266 74.367 716.266 74.0383C716.266 73.7096 716.443 73.4568 716.797 73.2798H738.83C739.21 73.4821 739.399 73.7349 739.399 74.0383C739.399 74.3417 739.21 74.5945 738.83 74.7968H716.797C716.443 74.6198 716.266 74.367 716.266 74.0383V74.5313Z" fill="black"/>
<path d="M768.532 83.5191C768.077 83.4433 766.446 83.4054 763.64 83.4054C760.707 83.4054 759.013 83.4433 758.558 83.5191H758.217V81.7747H759.392C759.898 81.7747 760.239 81.7747 760.416 81.7747C760.593 81.7747 760.808 81.7494 761.061 81.6988C761.314 81.6482 761.491 81.585 761.592 81.5092C761.693 81.4333 761.781 81.3322 761.857 81.2058C761.883 81.1552 761.895 80.4726 761.895 79.1579V77.2618H752.073V75.5173L757.799 66.7569C761.668 60.8914 763.627 57.9461 763.678 57.9208C763.728 57.8702 763.994 57.8449 764.474 57.8449H765.157L765.384 58.0725V75.5173H768.873V77.2618H765.384V79.1959C765.384 80.2324 765.384 80.8392 765.384 81.0162C765.384 81.1932 765.46 81.3449 765.612 81.4713C765.814 81.6482 766.534 81.7494 767.773 81.7747H768.873V83.5191H768.532ZM762.123 75.5173V62.8508L753.817 75.4794L757.951 75.5173H762.123Z" fill="black"/>
<path d="M772.248 55.1144L772.4 55.0765C772.527 55.0765 772.653 55.0765 772.779 55.0765H773.234L774.296 55.9867C776.673 58.1357 778.405 60.8156 779.492 64.0265C780.579 67.2373 781.123 70.5746 781.123 74.0383C781.123 75.7575 780.996 77.4134 780.743 79.0062C780.49 80.599 780.2 81.9516 779.871 83.064C779.542 84.1765 779.075 85.2889 778.468 86.4013C777.861 87.5137 777.381 88.3607 777.027 88.9422C776.673 89.5237 776.155 90.1684 775.472 90.8763C774.789 91.5842 774.385 92.0013 774.258 92.1278C774.132 92.2542 773.841 92.4944 773.386 92.8483C773.31 92.9242 773.26 92.9747 773.234 93H772.779C772.577 93 772.438 93 772.362 93C772.286 93 772.223 92.9621 772.173 92.8862C772.122 92.8104 772.084 92.6966 772.059 92.5449C772.084 92.5196 772.223 92.3553 772.476 92.0519C776.395 87.9815 778.354 81.9769 778.354 74.0383C778.354 66.0996 776.395 60.095 772.476 56.0246C772.223 55.7212 772.084 55.5569 772.059 55.5316C772.059 55.3293 772.122 55.1903 772.248 55.1144Z" fill="black"/>
<path d="M787.648 56.3544C787.165 56.3544 786.781 56.1936 786.495 55.8718C786.209 55.5501 786.066 55.1568 786.066 54.6921C786.066 53.423 786.54 52.3237 787.487 51.3942C788.434 50.4648 789.614 50 791.026 50C792.653 50 794.011 50.5005 795.102 51.5015C796.192 52.5025 796.746 53.7984 796.764 55.3892C796.764 56.1578 796.585 56.8907 796.228 57.5878C795.87 58.2849 795.441 58.8926 794.941 59.411C794.44 59.9294 793.725 60.5907 792.796 61.3951C792.152 61.9492 791.258 62.7714 790.115 63.8618L788.533 65.3632L790.57 65.3901C793.377 65.3901 794.869 65.3454 795.048 65.256C795.173 65.2202 795.388 64.4248 795.691 62.8697V62.7893H796.764V62.8697C796.746 62.9234 796.63 63.7367 796.415 65.3096C796.201 66.8826 796.067 67.7048 796.013 67.7763V67.8568H786.066V67.3473V67.0256C786.066 66.9005 786.12 66.7664 786.227 66.6234C786.334 66.4804 786.602 66.1676 787.031 65.685C787.55 65.113 787.996 64.6125 788.372 64.1835C788.533 64.0048 788.836 63.6741 789.283 63.1915C789.73 62.7089 790.034 62.3782 790.195 62.1994C790.356 62.0207 790.615 61.7258 790.972 61.3146C791.33 60.9035 791.58 60.5997 791.723 60.403C791.866 60.2064 792.072 59.9383 792.34 59.5987C792.608 59.2591 792.796 58.9731 792.903 58.7407C793.01 58.5083 793.144 58.2491 793.305 57.9632C793.466 57.6772 793.582 57.3912 793.654 57.1052C793.725 56.8192 793.788 56.5511 793.841 56.3008C793.895 56.0506 793.922 55.7556 793.922 55.416C793.922 54.2899 793.618 53.3158 793.01 52.4935C792.402 51.6713 791.536 51.2602 790.409 51.2602C789.82 51.2602 789.301 51.4121 788.854 51.716C788.407 52.0198 788.095 52.3148 787.916 52.6008C787.737 52.8868 787.648 53.0566 787.648 53.1102C787.648 53.1281 787.693 53.137 787.782 53.137C788.104 53.137 788.434 53.2621 788.774 53.5124C789.114 53.7626 789.283 54.1737 789.283 54.7457C789.283 55.1926 789.14 55.568 788.854 55.8718C788.568 56.1757 788.166 56.3366 787.648 56.3544Z" fill="black"/>
</svg>
