<svg width="619" height="55" viewBox="0 0 619 55" fill="none" xmlns="http://www.w3.org/2000/svg">
<path d="M216.285 29.0273H209.676L208.293 33H205.211L211.656 15.9375H214.316L220.773 33H217.68L216.285 29.0273ZM210.508 26.6367H215.453L212.98 19.5586L210.508 26.6367ZM227.652 30.9609C228.363 30.9609 228.953 30.7539 229.422 30.3398C229.891 29.9258 230.141 29.4141 230.172 28.8047H232.855C232.824 29.5938 232.578 30.332 232.117 31.0195C231.656 31.6992 231.031 32.2383 230.242 32.6367C229.453 33.0352 228.602 33.2344 227.688 33.2344C225.914 33.2344 224.508 32.6602 223.469 31.5117C222.43 30.3633 221.91 28.7773 221.91 26.7539V26.4609C221.91 24.5312 222.426 22.9883 223.457 21.832C224.488 20.668 225.895 20.0859 227.676 20.0859C229.184 20.0859 230.41 20.5273 231.355 21.4102C232.309 22.2852 232.809 23.4375 232.855 24.8672H230.172C230.141 24.1406 229.891 23.543 229.422 23.0742C228.961 22.6055 228.371 22.3711 227.652 22.3711C226.73 22.3711 226.02 22.707 225.52 23.3789C225.02 24.043 224.766 25.0547 224.758 26.4141V26.8711C224.758 28.2461 225.004 29.2734 225.496 29.9531C225.996 30.625 226.715 30.9609 227.652 30.9609ZM239.125 27.5625L237.859 28.8633V33H235.012V15H237.859V25.3828L238.75 24.2695L242.254 20.3203H245.676L240.965 25.6055L246.18 33H242.887L239.125 27.5625ZM250.188 20.3203L250.27 21.7852C251.207 20.6523 252.438 20.0859 253.961 20.0859C256.602 20.0859 257.945 21.5977 257.992 24.6211V33H255.145V24.7852C255.145 23.9805 254.969 23.3867 254.617 23.0039C254.273 22.6133 253.707 22.418 252.918 22.418C251.77 22.418 250.914 22.9375 250.352 23.9766V33H247.504V20.3203H250.188ZM260.371 26.543C260.371 25.3008 260.617 24.1836 261.109 23.1914C261.602 22.1914 262.293 21.4258 263.184 20.8945C264.074 20.3555 265.098 20.0859 266.254 20.0859C267.965 20.0859 269.352 20.6367 270.414 21.7383C271.484 22.8398 272.062 24.3008 272.148 26.1211L272.16 26.7891C272.16 28.0391 271.918 29.1562 271.434 30.1406C270.957 31.125 270.27 31.8867 269.371 32.4258C268.48 32.9648 267.449 33.2344 266.277 33.2344C264.488 33.2344 263.055 32.6406 261.977 31.4531C260.906 30.2578 260.371 28.668 260.371 26.6836V26.543ZM263.219 26.7891C263.219 28.0938 263.488 29.1172 264.027 29.8594C264.566 30.5938 265.316 30.9609 266.277 30.9609C267.238 30.9609 267.984 30.5859 268.516 29.8359C269.055 29.0859 269.324 27.9883 269.324 26.543C269.324 25.2617 269.047 24.2461 268.492 23.4961C267.945 22.7461 267.199 22.3711 266.254 22.3711C265.324 22.3711 264.586 22.7422 264.039 23.4844C263.492 24.2188 263.219 25.3203 263.219 26.7891ZM285.707 29.0742L287.723 20.3203H290.5L287.043 33H284.699L281.98 24.293L279.309 33H276.965L273.496 20.3203H276.273L278.324 28.9805L280.926 20.3203H283.07L285.707 29.0742ZM295.434 33H292.586V15H295.434V33ZM304.129 33.2344C302.324 33.2344 300.859 32.668 299.734 31.5352C298.617 30.3945 298.059 28.8789 298.059 26.9883V26.6367C298.059 25.3711 298.301 24.2422 298.785 23.25C299.277 22.25 299.965 21.4727 300.848 20.918C301.73 20.3633 302.715 20.0859 303.801 20.0859C305.527 20.0859 306.859 20.6367 307.797 21.7383C308.742 22.8398 309.215 24.3984 309.215 26.4141V27.5625H300.93C301.016 28.6094 301.363 29.4375 301.973 30.0469C302.59 30.6562 303.363 30.9609 304.293 30.9609C305.598 30.9609 306.66 30.4336 307.48 29.3789L309.016 30.8438C308.508 31.6016 307.828 32.1914 306.977 32.6133C306.133 33.0273 305.184 33.2344 304.129 33.2344ZM303.789 22.3711C303.008 22.3711 302.375 22.6445 301.891 23.1914C301.414 23.7383 301.109 24.5 300.977 25.4766H306.402V25.2656C306.34 24.3125 306.086 23.5938 305.641 23.1094C305.195 22.6172 304.578 22.3711 303.789 22.3711ZM310.902 26.5664C310.902 24.6133 311.355 23.0469 312.262 21.8672C313.168 20.6797 314.383 20.0859 315.906 20.0859C317.25 20.0859 318.336 20.5547 319.164 21.4922V15H322.012V33H319.434L319.293 31.6875C318.441 32.7188 317.305 33.2344 315.883 33.2344C314.398 33.2344 313.195 32.6367 312.273 31.4414C311.359 30.2461 310.902 28.6211 310.902 26.5664ZM313.75 26.8125C313.75 28.1016 313.996 29.1094 314.488 29.8359C314.988 30.5547 315.695 30.9141 316.609 30.9141C317.773 30.9141 318.625 30.3945 319.164 29.3555V23.9414C318.641 22.9258 317.797 22.418 316.633 22.418C315.711 22.418 315 22.7852 314.5 23.5195C314 24.2461 313.75 25.3438 313.75 26.8125ZM324.484 26.5664C324.484 24.5977 324.945 23.0273 325.867 21.8555C326.797 20.6758 328.027 20.0859 329.559 20.0859C331.004 20.0859 332.141 20.5898 332.969 21.5977L333.098 20.3203H335.664V32.6133C335.664 34.2773 335.145 35.5898 334.105 36.5508C333.074 37.5117 331.68 37.9922 329.922 37.9922C328.992 37.9922 328.082 37.7969 327.191 37.4062C326.309 37.0234 325.637 36.5195 325.176 35.8945L326.523 34.1836C327.398 35.2227 328.477 35.7422 329.758 35.7422C330.703 35.7422 331.449 35.4844 331.996 34.9688C332.543 34.4609 332.816 33.7109 332.816 32.7188V31.8633C331.996 32.7773 330.902 33.2344 329.535 33.2344C328.051 33.2344 326.836 32.6445 325.891 31.4648C324.953 30.2852 324.484 28.6523 324.484 26.5664ZM327.32 26.8125C327.32 28.0859 327.578 29.0898 328.094 29.8242C328.617 30.5508 329.34 30.9141 330.262 30.9141C331.41 30.9141 332.262 30.4219 332.816 29.4375V23.8594C332.277 22.8984 331.434 22.418 330.285 22.418C329.348 22.418 328.617 22.7891 328.094 23.5312C327.578 24.2734 327.32 25.3672 327.32 26.8125ZM341.277 20.3203L341.359 21.6445C342.25 20.6055 343.469 20.0859 345.016 20.0859C346.711 20.0859 347.871 20.7344 348.496 22.0312C349.418 20.7344 350.715 20.0859 352.387 20.0859C353.785 20.0859 354.824 20.4727 355.504 21.2461C356.191 22.0195 356.543 23.1602 356.559 24.668V33H353.711V24.75C353.711 23.9453 353.535 23.3555 353.184 22.9805C352.832 22.6055 352.25 22.418 351.438 22.418C350.789 22.418 350.258 22.5938 349.844 22.9453C349.438 23.2891 349.152 23.7422 348.988 24.3047L349 33H346.152V24.6562C346.113 23.1641 345.352 22.418 343.867 22.418C342.727 22.418 341.918 22.8828 341.441 23.8125V33H338.594V20.3203H341.277ZM365.066 33.2344C363.262 33.2344 361.797 32.668 360.672 31.5352C359.555 30.3945 358.996 28.8789 358.996 26.9883V26.6367C358.996 25.3711 359.238 24.2422 359.723 23.25C360.215 22.25 360.902 21.4727 361.785 20.918C362.668 20.3633 363.652 20.0859 364.738 20.0859C366.465 20.0859 367.797 20.6367 368.734 21.7383C369.68 22.8398 370.152 24.3984 370.152 26.4141V27.5625H361.867C361.953 28.6094 362.301 29.4375 362.91 30.0469C363.527 30.6562 364.301 30.9609 365.23 30.9609C366.535 30.9609 367.598 30.4336 368.418 29.3789L369.953 30.8438C369.445 31.6016 368.766 32.1914 367.914 32.6133C367.07 33.0273 366.121 33.2344 365.066 33.2344ZM364.727 22.3711C363.945 22.3711 363.312 22.6445 362.828 23.1914C362.352 23.7383 362.047 24.5 361.914 25.4766H367.34V25.2656C367.277 24.3125 367.023 23.5938 366.578 23.1094C366.133 22.6172 365.516 22.3711 364.727 22.3711ZM375.016 20.3203L375.098 21.7852C376.035 20.6523 377.266 20.0859 378.789 20.0859C381.43 20.0859 382.773 21.5977 382.82 24.6211V33H379.973V24.7852C379.973 23.9805 379.797 23.3867 379.445 23.0039C379.102 22.6133 378.535 22.418 377.746 22.418C376.598 22.418 375.742 22.9375 375.18 23.9766V33H372.332V20.3203H375.016ZM389.301 17.2383V20.3203H391.539V22.4297H389.301V29.5078C389.301 29.9922 389.395 30.3438 389.582 30.5625C389.777 30.7734 390.121 30.8789 390.613 30.8789C390.941 30.8789 391.273 30.8398 391.609 30.7617V32.9648C390.961 33.1445 390.336 33.2344 389.734 33.2344C387.547 33.2344 386.453 32.0273 386.453 29.6133V22.4297H384.367V20.3203H386.453V17.2383H389.301ZM400.832 29.5547C400.832 29.0469 400.621 28.6602 400.199 28.3945C399.785 28.1289 399.094 27.8945 398.125 27.6914C397.156 27.4883 396.348 27.2305 395.699 26.918C394.277 26.2305 393.566 25.2344 393.566 23.9297C393.566 22.8359 394.027 21.9219 394.949 21.1875C395.871 20.4531 397.043 20.0859 398.465 20.0859C399.98 20.0859 401.203 20.4609 402.133 21.2109C403.07 21.9609 403.539 22.9336 403.539 24.1289H400.691C400.691 23.582 400.488 23.1289 400.082 22.7695C399.676 22.4023 399.137 22.2188 398.465 22.2188C397.84 22.2188 397.328 22.3633 396.93 22.6523C396.539 22.9414 396.344 23.3281 396.344 23.8125C396.344 24.25 396.527 24.5898 396.895 24.832C397.262 25.0742 398.004 25.3203 399.121 25.5703C400.238 25.8125 401.113 26.1055 401.746 26.4492C402.387 26.7852 402.859 27.1914 403.164 27.668C403.477 28.1445 403.633 28.7227 403.633 29.4023C403.633 30.543 403.16 31.4688 402.215 32.1797C401.27 32.8828 400.031 33.2344 398.5 33.2344C397.461 33.2344 396.535 33.0469 395.723 32.6719C394.91 32.2969 394.277 31.7812 393.824 31.125C393.371 30.4688 393.145 29.7617 393.145 29.0039H395.91C395.949 29.6758 396.203 30.1953 396.672 30.5625C397.141 30.9219 397.762 31.1016 398.535 31.1016C399.285 31.1016 399.855 30.9609 400.246 30.6797C400.637 30.3906 400.832 30.0156 400.832 29.5547Z" fill="black"/>
<rect x="0.5" y="0.5" width="618" height="54" stroke="black"/>
</svg>
