<svg width="466" height="264" viewBox="0 0 466 264" fill="none" xmlns="http://www.w3.org/2000/svg">
<path d="M405.895 28H220.537V210H405.895V28Z" fill="#999999" stroke="black" stroke-width="9"/>
<path d="M313.216 63L349.135 101.25H277.298L313.216 63Z" fill="#FA9600"/>
<line x1="313.5" y1="125" x2="313.5" y2="90" stroke="#FA9600" stroke-width="15"/>
<path d="M19.8186 54.1665C19.8186 54.1665 19.8186 54.0795 19.8186 53.9055C19.8186 53.7316 19.9145 53.5977 20.1064 53.504H32.0508C32.2563 53.6111 32.3591 53.7449 32.3591 53.9055C32.3591 54.0661 32.2563 54.2 32.0508 54.307H20.1064C19.9145 54.2134 19.8186 54.0795 19.8186 53.9055V54.1665Z" fill="#FA9600"/>
<path d="M71.5022 35.1556C71.1869 35.1556 70.9608 35.0753 70.8237 34.9147C70.6867 34.7541 70.6113 34.5734 70.5976 34.3726C70.5976 34.2388 70.6387 34.038 70.7209 33.7704C70.8032 33.5027 70.9471 33.1882 71.1527 32.8269C71.3582 32.4655 71.6666 32.1242 72.0778 31.803C72.489 31.4818 72.9755 31.2476 73.5374 31.1004L74.1953 31H74.442C74.8943 31 75.1615 31.0067 75.2438 31.0201C76.1072 31.1673 76.8267 31.522 77.4024 32.0841C77.978 32.6462 78.3892 33.2685 78.6359 33.9511C78.8826 34.6336 78.9991 35.3764 78.9854 36.1794C78.9854 37.4508 78.6633 38.9029 78.0191 40.5356C77.375 42.1684 76.5732 43.4197 75.6138 44.2897C74.5037 45.2934 73.277 45.7953 71.9339 45.7953C70.5633 45.7953 69.5354 45.2733 68.8501 44.2294C68.4253 43.6138 68.2128 42.9982 68.2128 42.3825V42.1617C68.2128 40.5959 68.809 39.1839 70.0014 37.9259C71.1938 36.6679 72.5164 36.0322 73.9691 36.0188C74.8052 36.0188 75.4356 36.2262 75.8605 36.6411C76.2854 37.056 76.5663 37.5043 76.7034 37.9861L76.7651 37.7653C77.0392 36.6545 77.1762 35.7377 77.1762 35.015C77.1762 33.8373 76.8953 33.0075 76.3334 32.5257C75.7714 32.0439 75.1341 31.7963 74.4214 31.783C73.3524 31.783 72.5232 32.2112 71.9339 33.0678C72.4958 33.1481 72.7768 33.4157 72.7768 33.8708C72.7768 34.2053 72.6534 34.4998 72.4067 34.7541C72.16 35.0083 71.8585 35.1422 71.5022 35.1556ZM76.1894 39.2107C76.1894 38.3274 75.9907 37.6984 75.5933 37.3236C75.1958 36.9489 74.7298 36.7615 74.1953 36.7615C73.3318 36.7615 72.5712 37.0694 71.9133 37.685C71.5707 38.0597 71.3034 38.4545 71.1115 38.8694C70.9197 39.2843 70.6935 39.9669 70.4331 40.9171C70.1864 41.8807 70.0631 42.5833 70.0631 43.0249C70.0631 44.2964 70.7484 44.9321 72.1189 44.9321C72.2834 44.9321 72.4067 44.9254 72.489 44.912C73.5443 44.738 74.394 44.1358 75.0382 43.1052C75.2438 42.7707 75.4836 42.2086 75.7577 41.4189C76.0318 40.6293 76.1757 39.8932 76.1894 39.2107Z" fill="#FA9600"/>
<path d="M79.8488 44.4303H80.1366C80.6711 44.4303 80.9932 44.3366 81.1029 44.1493V43.9887C81.1029 43.8682 81.1029 43.7143 81.1029 43.5269C81.1029 43.3396 81.1029 43.1187 81.1029 42.8645C81.1029 42.6102 81.1097 42.3224 81.1234 42.0012C81.1371 41.68 81.1371 41.3455 81.1234 40.9975C81.1097 40.6495 81.1097 40.2815 81.1234 39.8934C81.1371 39.5053 81.1371 39.1238 81.1234 38.7491C81.1234 38.2539 81.1234 37.732 81.1234 37.1832C81.1234 36.6345 81.1234 36.1327 81.1234 35.6776C81.1234 35.2226 81.1234 34.8211 81.1234 34.4731C81.1234 34.1252 81.1166 33.8307 81.1029 33.5898C81.0891 33.3489 81.0891 33.2352 81.1029 33.2486C81.0617 32.9943 80.9658 32.827 80.815 32.7467C80.6643 32.6664 80.3559 32.6062 79.8899 32.566H79.5199V32.1043C79.5199 31.7965 79.5336 31.6426 79.561 31.6426L79.7666 31.6225C79.9036 31.6091 80.1024 31.5957 80.3628 31.5823C80.6232 31.5689 80.8767 31.5556 81.1234 31.5422C81.3564 31.5288 81.61 31.5154 81.8841 31.502C82.1582 31.4886 82.3638 31.4686 82.5008 31.4418C82.6379 31.415 82.7133 31.4083 82.727 31.4217H82.7886V37.7453C82.7886 41.9879 82.7955 44.1225 82.8092 44.1493C82.864 44.2563 82.9462 44.3299 83.0559 44.3701C83.3437 44.4102 83.6795 44.4303 84.0632 44.4303H84.3922V45.3538H84.2277L83.7549 45.3337C83.4396 45.3203 83.1039 45.3136 82.7475 45.3136C82.3912 45.3136 82.1308 45.3069 81.9663 45.2935C81.8018 45.2802 81.5414 45.2802 81.1851 45.2935C80.8287 45.3069 80.4861 45.3203 80.1572 45.3337L79.6843 45.3538H79.5199V44.4303H79.8488Z" fill="#FA9600"/>
<path d="M85.2762 41.0576C85.2762 39.7861 85.7216 38.6887 86.6125 37.7653C87.5033 36.8418 88.5792 36.3734 89.8401 36.36C91.0736 36.36 92.1358 36.815 93.0267 37.7251C93.9175 38.6352 94.3698 39.7393 94.3835 41.0375C94.3835 42.3089 93.9449 43.3796 93.0678 44.2495C92.1906 45.1194 91.1147 45.5544 89.8401 45.5544C88.5107 45.5544 87.4211 45.106 86.5714 44.2093C85.7216 43.3126 85.2899 42.2621 85.2762 41.0576ZM89.8401 44.7514C91.5122 44.7514 92.3482 43.6606 92.3482 41.4791V40.8367V40.3349C92.3482 40.0404 92.3414 39.7861 92.3277 39.572C92.314 39.3579 92.266 39.1036 92.1838 38.8092C92.1015 38.5147 91.9919 38.2738 91.8548 38.0865C91.7178 37.8991 91.5054 37.7117 91.2175 37.5244C90.9297 37.337 90.5939 37.2032 90.2102 37.1229C90.1417 37.1095 90.032 37.1028 89.8812 37.1028C89.4701 37.1028 89.0795 37.1831 88.7094 37.3437C88.1201 37.6381 87.7363 38.0463 87.5582 38.5683C87.38 39.0902 87.2909 39.7058 87.2909 40.4152V40.8167C87.2909 42.1015 87.4211 43.0048 87.6815 43.5268C88.1201 44.3432 88.8396 44.7514 89.8401 44.7514Z" fill="#FA9600"/>
<path d="M101.044 39.0101C101.044 38.4747 100.859 38.013 100.489 37.6249C100.119 37.2368 99.5847 37.0427 98.8858 37.0427C98.3924 37.0427 97.9675 37.1297 97.6111 37.3037C97.2 37.558 96.9944 37.9059 96.9944 38.3476C96.9807 38.4145 96.9807 38.5015 96.9944 38.6086C97.0081 38.7156 97.1177 38.8762 97.3233 39.0904C97.5289 39.3045 97.8236 39.4718 98.2073 39.5922C98.454 39.6592 98.7556 39.7194 99.1119 39.7729C99.4682 39.8264 99.7698 39.8867 100.016 39.9536C100.263 40.0205 100.482 40.1075 100.674 40.2146C100.907 40.3216 101.133 40.4555 101.353 40.6161C101.572 40.7767 101.791 41.051 102.011 41.4391C102.23 41.8273 102.346 42.2421 102.36 42.6838C102.36 43.5136 102.1 44.1961 101.579 44.7314C101.058 45.2668 100.215 45.5411 99.0502 45.5545H98.8858C98.1731 45.5545 97.5152 45.3136 96.9122 44.8318L96.7477 44.9723L96.5627 45.153C96.4804 45.2333 96.3982 45.3069 96.316 45.3738L96.0898 45.5746H95.9254H95.8431C95.802 45.5746 95.7403 45.5344 95.6581 45.4541V43.8682V42.7039C95.6581 42.4228 95.6718 42.2555 95.6992 42.202C95.7266 42.1485 95.7952 42.115 95.9048 42.1016H96.0898C96.2543 42.1016 96.3639 42.1284 96.4188 42.1819C96.4736 42.2354 96.5079 42.3157 96.5216 42.4228C96.5353 42.5299 96.5832 42.7106 96.6655 42.9648C96.7477 43.2191 96.8779 43.5002 97.0561 43.808C97.5358 44.4905 98.2005 44.8318 99.0502 44.8318C100.38 44.8318 101.044 44.3099 101.044 43.266C101.044 42.8778 100.921 42.5633 100.674 42.3224C100.4 42.0012 99.8314 41.7603 98.968 41.5997C98.1045 41.4391 97.5358 41.2852 97.2617 41.138C96.7683 40.9105 96.3777 40.6027 96.0898 40.2146C95.802 39.8264 95.6581 39.4116 95.6581 38.9699C95.6581 38.448 95.7746 38.0063 96.0076 37.645C96.2406 37.2836 96.5353 37.016 96.8916 36.842C97.248 36.668 97.5906 36.5475 97.9195 36.4806C98.2485 36.4137 98.55 36.3802 98.8241 36.3802H99.0502C99.5984 36.3802 100.078 36.4806 100.489 36.6814L100.798 36.842L100.983 36.7014C101.12 36.581 101.271 36.4672 101.435 36.3602H101.599H101.682C101.723 36.3602 101.784 36.4003 101.867 36.4806V39.1305L101.743 39.251H101.168C101.085 39.1707 101.044 39.0904 101.044 39.0101Z" fill="#FA9600"/>
<path d="M109.144 39.0101C109.144 38.4747 108.959 38.013 108.589 37.6249C108.219 37.2368 107.685 37.0427 106.986 37.0427C106.492 37.0427 106.067 37.1297 105.711 37.3037C105.3 37.558 105.094 37.9059 105.094 38.3476C105.081 38.4145 105.081 38.5015 105.094 38.6086C105.108 38.7156 105.218 38.8762 105.423 39.0904C105.629 39.3045 105.924 39.4718 106.307 39.5922C106.554 39.6592 106.856 39.7194 107.212 39.7729C107.568 39.8264 107.87 39.8867 108.116 39.9536C108.363 40.0205 108.582 40.1075 108.774 40.2146C109.007 40.3216 109.233 40.4555 109.453 40.6161C109.672 40.7767 109.891 41.051 110.111 41.4391C110.33 41.8273 110.446 42.2421 110.46 42.6838C110.46 43.5136 110.2 44.1961 109.679 44.7314C109.158 45.2668 108.315 45.5411 107.15 45.5545H106.986C106.273 45.5545 105.615 45.3136 105.012 44.8318L104.848 44.9723L104.663 45.153C104.58 45.2333 104.498 45.3069 104.416 45.3738L104.19 45.5746H104.025H103.943C103.902 45.5746 103.84 45.5344 103.758 45.4541V43.8682V42.7039C103.758 42.4228 103.772 42.2555 103.799 42.202C103.827 42.1485 103.895 42.115 104.005 42.1016H104.19C104.354 42.1016 104.464 42.1284 104.519 42.1819C104.574 42.2354 104.608 42.3157 104.622 42.4228C104.635 42.5299 104.683 42.7106 104.765 42.9648C104.848 43.2191 104.978 43.5002 105.156 43.808C105.636 44.4905 106.3 44.8318 107.15 44.8318C108.48 44.8318 109.144 44.3099 109.144 43.266C109.144 42.8778 109.021 42.5633 108.774 42.3224C108.5 42.0012 107.931 41.7603 107.068 41.5997C106.205 41.4391 105.636 41.2852 105.362 41.138C104.868 40.9105 104.478 40.6027 104.19 40.2146C103.902 39.8264 103.758 39.4116 103.758 38.9699C103.758 38.448 103.875 38.0063 104.108 37.645C104.341 37.2836 104.635 37.016 104.992 36.842C105.348 36.668 105.691 36.5475 106.02 36.4806C106.348 36.4137 106.65 36.3802 106.924 36.3802H107.15C107.698 36.3802 108.178 36.4806 108.589 36.6814L108.898 36.842L109.083 36.7014C109.22 36.581 109.371 36.4672 109.535 36.3602H109.699H109.782C109.823 36.3602 109.884 36.4003 109.967 36.4806V39.1305L109.843 39.251H109.268C109.185 39.1707 109.144 39.0904 109.144 39.0101Z" fill="#FA9600"/>
<path d="M42.7616 62.4977C42.4464 62.4977 42.2203 62.4174 42.0832 62.2568C41.9462 62.0962 41.8708 61.9155 41.8571 61.7147C41.8571 61.5809 41.8982 61.3801 41.9804 61.1125C42.0627 60.8448 42.2066 60.5303 42.4122 60.169C42.6177 59.8076 42.9261 59.4663 43.3373 59.1451C43.7484 58.8239 44.235 58.5897 44.7969 58.4425L45.4548 58.3421H45.7015C46.1538 58.3421 46.421 58.3488 46.5033 58.3622C47.3667 58.5094 48.0862 58.8641 48.6619 59.4262C49.2375 59.9883 49.6487 60.6106 49.8954 61.2932C50.1421 61.9757 50.2586 62.7185 50.2449 63.5215C50.2449 64.7929 49.9228 66.245 49.2786 67.8777C48.6345 69.5105 47.8327 70.7619 46.8733 71.6318C45.7632 72.6355 44.5365 73.1374 43.1934 73.1374C41.8228 73.1374 40.7949 72.6154 40.1096 71.5715C39.6848 70.9559 39.4723 70.3403 39.4723 69.7246V69.5038C39.4723 67.938 40.0685 66.526 41.2609 65.268C42.4533 64.01 43.7759 63.3743 45.2286 63.3609C46.0647 63.3609 46.6951 63.5683 47.12 63.9832C47.5449 64.3981 47.8258 64.8464 47.9629 65.3282L48.0246 65.1074C48.2987 63.9966 48.4357 63.0798 48.4357 62.3571C48.4357 61.1794 48.1548 60.3496 47.5928 59.8678C47.0309 59.386 46.3936 59.1384 45.6809 59.1251C44.6119 59.1251 43.7827 59.5533 43.1934 60.4099C43.7553 60.4902 44.0363 60.7578 44.0363 61.2129C44.0363 61.5474 43.9129 61.8419 43.6662 62.0962C43.4195 62.3504 43.118 62.4843 42.7616 62.4977ZM47.4489 66.5528C47.4489 65.6695 47.2502 65.0405 46.8527 64.6658C46.4553 64.291 45.9893 64.1037 45.4548 64.1037C44.5913 64.1037 43.8307 64.4115 43.1728 65.0271C42.8302 65.4018 42.5629 65.7966 42.371 66.2115C42.1792 66.6264 41.953 67.309 41.6926 68.2592C41.4459 69.2228 41.3226 69.9254 41.3226 70.367C41.3226 71.6385 42.0078 72.2742 43.3784 72.2742C43.5429 72.2742 43.6662 72.2675 43.7484 72.2541C44.8038 72.0801 45.6535 71.4779 46.2977 70.4473C46.5033 70.1128 46.7431 69.5507 47.0172 68.761C47.2913 67.9714 47.4352 67.2353 47.4489 66.5528Z" fill="#FA9600"/>
<path d="M53.0614 66.572C53.0614 66.572 52.9106 66.572 52.6091 66.572C52.3075 66.572 52.054 66.4716 51.8484 66.2708C51.6428 66.0701 51.54 65.8091 51.54 65.4879C51.54 65.0195 51.773 64.6046 52.239 64.2433C52.705 63.8819 53.5342 63.7012 54.7266 63.7012C55.7271 63.7012 56.5357 63.9154 57.1525 64.3436C57.7692 64.7719 58.1804 65.2805 58.3859 65.8693C58.4545 66.0567 58.4887 66.2641 58.4887 66.4917C58.4887 66.7192 58.4956 67.4887 58.5093 68.8003V70.2055C58.5093 70.8479 58.5436 71.2896 58.6121 71.5305C58.6806 71.7714 58.8245 71.8918 59.0438 71.8918C59.2494 71.8918 59.3865 71.7848 59.455 71.5706C59.5235 71.3565 59.5578 71.0018 59.5578 70.5067V69.784H60.3801V70.5669C60.3664 71.1022 60.3458 71.4167 60.3184 71.5104C60.1951 71.9119 59.9552 72.2264 59.5989 72.4539C59.2425 72.6814 58.8656 72.8019 58.4682 72.8153C58.0707 72.8287 57.7486 72.7082 57.5019 72.4539C57.2552 72.1996 57.0908 71.9186 57.0085 71.6108V71.5305L56.9674 71.5907C56.94 71.6309 56.9058 71.671 56.8646 71.7112C56.8235 71.7513 56.7687 71.8115 56.7002 71.8918C56.6316 71.9721 56.5494 72.0457 56.4535 72.1127C56.3575 72.1796 56.2547 72.2599 56.1451 72.3535C56.0355 72.4472 55.9121 72.5208 55.775 72.5744C55.638 72.6279 55.4872 72.6814 55.3228 72.735C55.1583 72.7885 54.9801 72.8287 54.7882 72.8554C54.5964 72.8822 54.3839 72.9023 54.1509 72.9156C53.3286 72.9156 52.5885 72.7082 51.9306 72.2933C51.2728 71.8784 50.9438 71.2963 50.9438 70.5468C50.9438 70.2658 50.9918 69.9981 51.0878 69.7438C51.1837 69.4895 51.3687 69.2152 51.6428 68.9207C51.9169 68.6263 52.2459 68.3787 52.6296 68.178C53.0134 67.9772 53.5479 67.7898 54.2332 67.6159C54.9185 67.4419 55.6723 67.3415 56.4946 67.3147H56.7824V66.8731C56.7824 66.418 56.7413 66.0835 56.6591 65.8693C56.3575 64.9191 55.6928 64.444 54.6649 64.444C54.4182 64.444 54.1852 64.4507 53.9659 64.4641C53.7466 64.4775 53.5753 64.5042 53.452 64.5444C53.3286 64.5845 53.2738 64.6046 53.2875 64.6046C53.589 64.8054 53.7398 65.0998 53.7398 65.4879C53.7398 65.8225 53.6301 66.0835 53.4108 66.2708L53.0614 66.572ZM52.8352 70.5669C52.8352 70.9818 52.9997 71.3498 53.3286 71.671C53.6575 71.9922 54.0619 72.1595 54.5415 72.1729C55.0624 72.1729 55.5215 72.019 55.919 71.7112C56.3164 71.4033 56.5837 71.0018 56.7207 70.5067C56.7481 70.413 56.7687 69.9713 56.7824 69.1817C56.7824 68.4055 56.7755 68.0174 56.7618 68.0174C56.6522 68.0174 56.5083 68.024 56.3301 68.0374C56.1519 68.0508 55.8436 68.111 55.405 68.2181C54.9664 68.3252 54.569 68.459 54.2126 68.6196C53.8563 68.7802 53.541 69.0278 53.2669 69.3624C52.9928 69.697 52.8489 70.0985 52.8352 70.5669Z" fill="#FA9600"/>
<path d="M68.1305 66.5728C68.1305 66.5728 67.9866 66.5728 67.6988 66.5728C67.411 66.5728 67.1643 66.4724 66.9587 66.2717C66.7531 66.0709 66.6435 65.8167 66.6298 65.5088C66.6298 65.201 66.7326 64.9467 66.9382 64.746C67.0067 64.6791 67.041 64.6389 67.041 64.6255C67.041 64.6122 66.9724 64.5988 66.8354 64.5854C66.479 64.5319 66.1432 64.5051 65.828 64.5051C65.1564 64.5051 64.6082 64.7192 64.1834 65.1475C63.5392 65.7765 63.2171 66.8271 63.2171 68.2993C63.2171 69.3967 63.4295 70.2599 63.8544 70.8889C64.4163 71.7053 65.1702 72.1135 66.1158 72.1135C66.6778 72.1135 67.13 71.9395 67.4727 71.5916C67.8153 71.2436 68.062 70.8287 68.2128 70.3469C68.2402 70.2398 68.2744 70.1729 68.3156 70.1462C68.3567 70.1194 68.4663 70.106 68.6445 70.106H68.9323C69.0145 70.1863 69.0557 70.2465 69.0557 70.2867C69.0557 70.3402 69.0283 70.4473 68.9734 70.6079C68.9186 70.7685 68.809 70.9893 68.6445 71.2704C68.48 71.5514 68.2813 71.8057 68.0483 72.0332C67.8153 72.2607 67.4864 72.4682 67.0615 72.6555C66.6366 72.8429 66.1638 72.9299 65.643 72.9165C64.4643 72.9165 63.4364 72.4882 62.5592 71.6317C61.6821 70.7752 61.2367 69.6978 61.223 68.3996C61.223 67.0078 61.6684 65.8769 62.5592 65.007C63.4501 64.1371 64.4849 63.7021 65.6635 63.7021C66.8422 63.7021 67.6646 63.8828 68.1305 64.2441C68.5965 64.6055 68.8295 65.0337 68.8295 65.5289C68.8295 65.8367 68.713 66.0843 68.48 66.2717L68.1305 66.5728Z" fill="#FA9600"/>
<path d="M70.207 64.2239C70.9334 64.1704 71.4953 63.7957 71.8927 63.0997C72.2902 62.4038 72.5095 61.5874 72.5506 60.6506V60.3495H73.3729V64.0433H76.1483V64.9667H73.3729V67.8575C73.3866 69.5304 73.3935 70.474 73.3935 70.6881C73.3935 70.9022 73.4415 71.1164 73.5374 71.3305C73.7293 71.8524 74.0651 72.1134 74.5448 72.1134C75.1478 72.1134 75.5179 71.6383 75.6549 70.6881C75.6686 70.581 75.6755 70.2732 75.6755 69.7646V69.062H76.4978V69.7646V70.0055C76.4978 71.0361 76.21 71.819 75.6343 72.3543C75.2643 72.7157 74.7846 72.8963 74.1953 72.8963C73.7293 72.8963 73.325 72.816 72.9823 72.6554C72.6397 72.4948 72.3793 72.2874 72.2011 72.0331C72.0229 71.7788 71.8927 71.5446 71.8105 71.3305C71.7283 71.1164 71.6803 70.9022 71.6666 70.6881C71.6529 70.5944 71.646 69.604 71.646 67.717V64.9667H70.0219V64.2239H70.207Z" fill="#FA9600"/>
<path d="M79.0676 60.47C79.0676 60.0953 79.1909 59.8009 79.4376 59.5867C79.6843 59.3726 79.9858 59.2655 80.3422 59.2655C80.6574 59.2923 80.9315 59.4061 81.1645 59.6068C81.3975 59.8076 81.514 60.0953 81.514 60.47C81.514 60.8715 81.3975 61.1727 81.1645 61.3734C80.9315 61.5742 80.6437 61.6745 80.3011 61.6745C79.9584 61.6745 79.6706 61.5742 79.4376 61.3734C79.2046 61.1727 79.0813 60.8715 79.0676 60.47ZM82.7269 72.6957C82.5214 72.6556 81.8087 72.6355 80.5889 72.6355C80.4381 72.6355 80.1846 72.6355 79.8282 72.6355C79.4719 72.6355 79.1292 72.6489 78.8003 72.6756L78.348 72.6957H78.1836V71.7723H78.5125C78.8963 71.7723 79.232 71.7522 79.5199 71.712C79.6432 71.6585 79.7186 71.5849 79.746 71.4912C79.7734 71.3975 79.7871 71.1165 79.7871 70.6481V68.5803V66.8137C79.7871 66.1178 79.7734 65.6762 79.746 65.4888C79.7186 65.3014 79.6226 65.1743 79.4582 65.1074C79.2663 65.0137 78.9442 64.9668 78.4919 64.9668H78.2658V64.5051C78.2658 64.1973 78.2795 64.0434 78.3069 64.0434L78.5125 64.0233C78.6496 64.0099 78.8414 63.9966 79.0881 63.9832C79.3348 63.9698 79.5815 63.9564 79.8282 63.943C80.0612 63.9296 80.3079 63.9163 80.5683 63.9029C80.8287 63.8895 81.0275 63.8694 81.1645 63.8426C81.3016 63.8159 81.377 63.8092 81.3907 63.8226H81.4523V71.4511C81.5209 71.5849 81.6031 71.6652 81.699 71.692C81.795 71.7187 82.0348 71.7455 82.4186 71.7723H82.8914V72.6957H82.7269Z" fill="#FA9600"/>
<path d="M90.313 64.0434C90.3952 64.0702 90.9708 64.0835 92.0399 64.0835C92.8211 64.0835 93.3762 64.0702 93.7051 64.0434H93.8079V64.9668H93.5818C92.7868 65.0204 92.2797 65.288 92.0604 65.7698C92.033 65.8234 91.5739 66.981 90.683 69.2428C89.7922 71.5046 89.3262 72.6689 89.2851 72.7359C89.2165 72.8563 89.0452 72.9165 88.7711 72.9165C88.5107 72.9165 88.3462 72.8563 88.2777 72.7359C86.3589 67.9045 85.3927 65.4553 85.379 65.3884C85.3105 65.2011 85.2008 65.0873 85.0501 65.0471C84.8993 65.007 84.632 64.9802 84.2483 64.9668H83.7549V64.0434H83.8782L84.0427 64.0635C84.1523 64.0635 84.2894 64.0635 84.4539 64.0635C84.6183 64.0635 84.7965 64.0635 84.9884 64.0635C85.1803 64.0635 85.3516 64.0702 85.5023 64.0835C85.6531 64.0969 85.7764 64.1036 85.8724 64.1036C87.1744 64.1036 87.9282 64.0835 88.1338 64.0434H88.2983V64.9668H88.0105C87.4759 64.9802 87.1881 65.0806 87.147 65.268C87.147 65.3215 87.4965 66.2316 88.1955 67.9982L89.2439 70.6481L91.1148 65.8501V65.6895C91.1148 65.5022 91.0462 65.3483 90.9092 65.2278C90.7721 65.1074 90.6488 65.0338 90.5391 65.007C90.4295 64.9802 90.3335 64.9668 90.2513 64.9668H90.1691V64.0434H90.313Z" fill="#FA9600"/>
<path d="M97.0356 66.5728C97.0356 66.5728 96.8848 66.5728 96.5833 66.5728C96.2818 66.5728 96.0282 66.4725 95.8226 66.2717C95.617 66.071 95.5143 65.81 95.5143 65.4888C95.5143 65.0204 95.7472 64.6055 96.2132 64.2441C96.6792 63.8828 97.5084 63.7021 98.7008 63.7021C99.7013 63.7021 100.51 63.9163 101.127 64.3445C101.743 64.7728 102.155 65.2813 102.36 65.8702C102.429 66.0576 102.463 66.265 102.463 66.4925C102.463 66.7201 102.47 67.4896 102.484 68.8012V70.2064C102.484 70.8488 102.518 71.2905 102.586 71.5314C102.655 71.7723 102.799 71.8927 103.018 71.8927C103.224 71.8927 103.361 71.7856 103.429 71.5715C103.498 71.3574 103.532 71.0027 103.532 70.5075V69.7848H104.354V70.5678C104.341 71.1031 104.32 71.4176 104.293 71.5113C104.169 71.9128 103.929 72.2273 103.573 72.4548C103.217 72.6823 102.84 72.8028 102.442 72.8162C102.045 72.8295 101.723 72.7091 101.476 72.4548C101.229 72.2005 101.065 71.9195 100.983 71.6117V71.5314L100.942 71.5916C100.914 71.6317 100.88 71.6719 100.839 71.712C100.798 71.7522 100.743 71.8124 100.674 71.8927C100.606 71.973 100.524 72.0466 100.428 72.1135C100.332 72.1805 100.229 72.2608 100.119 72.3544C100.01 72.4481 99.8863 72.5217 99.7493 72.5753C99.6122 72.6288 99.4614 72.6823 99.297 72.7359C99.1325 72.7894 98.9543 72.8295 98.7625 72.8563C98.5706 72.8831 98.3581 72.9032 98.1252 72.9165C97.3028 72.9165 96.5627 72.7091 95.9049 72.2942C95.247 71.8793 94.9181 71.2972 94.9181 70.5477C94.9181 70.2666 94.966 69.999 95.062 69.7447C95.1579 69.4904 95.3429 69.216 95.617 68.9216C95.8912 68.6272 96.2201 68.3796 96.6038 68.1788C96.9876 67.9781 97.5221 67.7907 98.2074 67.6167C98.8927 67.4428 99.6465 67.3424 100.469 67.3156H100.757V66.874C100.757 66.4189 100.715 66.0843 100.633 65.8702C100.332 64.92 99.667 64.4449 98.6391 64.4449C98.3924 64.4449 98.1594 64.4516 97.9401 64.465C97.7208 64.4784 97.5495 64.5051 97.4262 64.5453C97.3028 64.5854 97.248 64.6055 97.2617 64.6055C97.5632 64.8062 97.714 65.1007 97.714 65.4888C97.714 65.8234 97.6043 66.0843 97.3851 66.2717L97.0356 66.5728ZM96.8094 70.5678C96.8094 70.9826 96.9739 71.3507 97.3028 71.6719C97.6318 71.9931 98.0361 72.1604 98.5158 72.1738C99.0366 72.1738 99.4957 72.0199 99.8932 71.712C100.291 71.4042 100.558 71.0027 100.695 70.5075C100.722 70.4139 100.743 69.9722 100.757 69.1826C100.757 68.4064 100.75 68.0182 100.736 68.0182C100.626 68.0182 100.483 68.0249 100.304 68.0383C100.126 68.0517 99.8178 68.1119 99.3792 68.219C98.9406 68.3261 98.5432 68.4599 98.1868 68.6205C97.8305 68.7811 97.5153 69.0287 97.2411 69.3633C96.967 69.6978 96.8231 70.0993 96.8094 70.5678Z" fill="#FA9600"/>
<path d="M105.053 64.2239C105.78 64.1704 106.342 63.7957 106.739 63.0997C107.137 62.4038 107.356 61.5874 107.397 60.6506V60.3495H108.219V64.0433H110.995V64.9667H108.219V67.8575C108.233 69.5304 108.24 70.474 108.24 70.6881C108.24 70.9022 108.288 71.1164 108.384 71.3305C108.576 71.8524 108.911 72.1134 109.391 72.1134C109.994 72.1134 110.364 71.6383 110.501 70.6881C110.515 70.581 110.522 70.2732 110.522 69.7646V69.062H111.344V69.7646V70.0055C111.344 71.0361 111.056 71.819 110.481 72.3543C110.111 72.7157 109.631 72.8963 109.042 72.8963C108.576 72.8963 108.171 72.816 107.829 72.6554C107.486 72.4948 107.226 72.2874 107.047 72.0331C106.869 71.7788 106.739 71.5446 106.657 71.3305C106.575 71.1164 106.527 70.9022 106.513 70.6881C106.499 70.5944 106.492 69.604 106.492 67.717V64.9667H104.868V64.2239H105.053Z" fill="#FA9600"/>
<path d="M113.914 60.47C113.914 60.0953 114.037 59.8009 114.284 59.5867C114.531 59.3726 114.832 59.2655 115.189 59.2655C115.504 59.2923 115.778 59.4061 116.011 59.6068C116.244 59.8076 116.36 60.0953 116.36 60.47C116.36 60.8715 116.244 61.1727 116.011 61.3734C115.778 61.5742 115.49 61.6745 115.147 61.6745C114.805 61.6745 114.517 61.5742 114.284 61.3734C114.051 61.1727 113.928 60.8715 113.914 60.47ZM117.573 72.6957C117.368 72.6556 116.655 72.6355 115.435 72.6355C115.284 72.6355 115.031 72.6355 114.675 72.6355C114.318 72.6355 113.976 72.6489 113.647 72.6756L113.194 72.6957H113.03V71.7723H113.359C113.743 71.7723 114.078 71.7522 114.366 71.712C114.49 71.6585 114.565 71.5849 114.592 71.4912C114.62 71.3975 114.633 71.1165 114.633 70.6481V68.5803V66.8137C114.633 66.1178 114.62 65.6762 114.592 65.4888C114.565 65.3014 114.469 65.1743 114.305 65.1074C114.113 65.0137 113.791 64.9668 113.338 64.9668H113.112V64.5051C113.112 64.1973 113.126 64.0434 113.153 64.0434L113.359 64.0233C113.496 64.0099 113.688 63.9966 113.934 63.9832C114.181 63.9698 114.428 63.9564 114.675 63.943C114.908 63.9296 115.154 63.9163 115.415 63.9029C115.675 63.8895 115.874 63.8694 116.011 63.8426C116.148 63.8159 116.223 63.8092 116.237 63.8226H116.299V71.4511C116.367 71.5849 116.449 71.6652 116.545 71.692C116.641 71.7187 116.881 71.7455 117.265 71.7723H117.738V72.6957H117.573Z" fill="#FA9600"/>
<path d="M118.786 68.3995C118.786 67.1281 119.232 66.0307 120.123 65.1072C121.013 64.1838 122.089 63.7154 123.35 63.702C124.584 63.702 125.646 64.157 126.537 65.0671C127.428 65.9772 127.88 67.0813 127.894 68.3795C127.894 69.6509 127.455 70.7215 126.578 71.5915C125.701 72.4614 124.625 72.8963 123.35 72.8963C122.021 72.8963 120.931 72.448 120.081 71.5513C119.232 70.6546 118.8 69.604 118.786 68.3995ZM123.35 72.0933C125.022 72.0933 125.858 71.0026 125.858 68.8211V68.1787V67.6768C125.858 67.3824 125.851 67.1281 125.838 66.914C125.824 66.6999 125.776 66.4456 125.694 66.1511C125.612 65.8567 125.502 65.6158 125.365 65.4284C125.228 65.2411 125.015 65.0537 124.728 64.8663C124.44 64.679 124.104 64.5451 123.72 64.4648C123.652 64.4515 123.542 64.4448 123.391 64.4448C122.98 64.4448 122.59 64.5251 122.219 64.6857C121.63 64.9801 121.246 65.3883 121.068 65.9102C120.89 66.4322 120.801 67.0478 120.801 67.7571V68.1586C120.801 69.4434 120.931 70.3468 121.192 70.8688C121.63 71.6851 122.35 72.0933 123.35 72.0933Z" fill="#FA9600"/>
<path d="M129.333 71.7723H129.62C130.155 71.7723 130.477 71.6786 130.587 71.4912V71.3306C130.587 71.2102 130.587 71.0563 130.587 70.8689C130.587 70.6815 130.587 70.4741 130.587 70.2466C130.587 70.019 130.594 69.7581 130.607 69.4636C130.621 69.1692 130.621 68.8882 130.607 68.6205C130.607 68.2056 130.607 67.764 130.607 67.2955C130.607 66.8271 130.6 66.4323 130.587 66.1111V65.6494C130.546 65.3951 130.45 65.2278 130.299 65.1475C130.148 65.0672 129.84 65.007 129.374 64.9668H129.004V64.5051C129.004 64.1973 129.017 64.0434 129.045 64.0434L129.25 64.0233C129.387 64.0099 129.579 63.9966 129.826 63.9832C130.073 63.9698 130.326 63.9564 130.587 63.943C130.82 63.9296 131.066 63.9163 131.327 63.9029C131.587 63.8895 131.786 63.8694 131.923 63.8426C132.06 63.8159 132.135 63.8092 132.149 63.8226H132.211V64.6256C132.211 65.1341 132.218 65.3884 132.231 65.3884C132.245 65.3884 132.279 65.355 132.334 65.288C132.389 65.2211 132.471 65.1208 132.581 64.9869C132.691 64.8531 132.821 64.7326 132.971 64.6256C133.122 64.5185 133.321 64.3914 133.568 64.2441C133.814 64.0969 134.075 63.9899 134.349 63.9229C134.623 63.856 134.972 63.8226 135.397 63.8226C136.96 63.8761 137.83 64.6323 138.008 66.091C138.022 66.1847 138.029 67.1149 138.029 68.8815V70.6079C138.029 71.1165 138.043 71.4176 138.07 71.5113C138.097 71.605 138.173 71.6719 138.296 71.712C138.584 71.7522 138.92 71.7723 139.303 71.7723H139.632V72.6957H139.468L138.974 72.6756C138.659 72.6623 138.317 72.6556 137.947 72.6556C137.577 72.6556 137.316 72.6489 137.165 72.6355C135.754 72.6355 134.986 72.6556 134.863 72.6957H134.698V71.7723H135.027C135.863 71.7723 136.281 71.6652 136.281 71.4511C136.295 71.4243 136.302 70.5008 136.302 68.6807C136.288 66.874 136.275 65.9171 136.261 65.81C136.179 65.4353 136.042 65.1542 135.85 64.9668C135.658 64.7795 135.493 64.6657 135.356 64.6256C135.219 64.5854 135.041 64.572 134.822 64.5854C134.205 64.5854 133.664 64.8129 133.198 65.268C132.828 65.6293 132.595 65.9974 132.499 66.3721C132.403 66.7468 132.348 67.3022 132.334 68.0383V69.3231V70.5276C132.334 70.9291 132.341 71.1968 132.355 71.3306C132.368 71.4644 132.389 71.5514 132.416 71.5916C132.444 71.6317 132.505 71.6719 132.601 71.712C132.889 71.7522 133.225 71.7723 133.609 71.7723H133.938V72.6957H133.773L133.3 72.6756C132.971 72.6623 132.622 72.6556 132.252 72.6556C131.882 72.6556 131.621 72.6489 131.471 72.6355C130.059 72.6355 129.292 72.6556 129.168 72.6957H129.004V71.7723H129.333Z" fill="#FA9600"/>
<path d="M141.976 54.5078H36.553V53.3033H141.976V54.5078Z" fill="#FA9600"/>
<line x1="152.108" y1="57.5118" x2="274.108" y2="84.5118" stroke="#FA9600"/>
<path d="M37.8812 134.633H32.3901L31.1571 137.973H29.3752L34.3799 125.176H35.8914L40.9053 137.973H39.1316L37.8812 134.633ZM32.9124 133.244H37.3681L35.1357 127.259L32.9124 133.244ZM46.3145 136.821C46.9084 136.821 47.4276 136.646 47.8721 136.294C48.3155 135.942 48.5613 135.503 48.6094 134.976H50.1845C50.1548 135.521 49.9633 136.039 49.6089 136.531C49.2546 137.023 48.7805 137.416 48.1865 137.709C47.5987 138.002 46.975 138.148 46.3145 138.148C44.9883 138.148 43.9325 137.718 43.146 136.856C42.3667 135.989 41.9765 134.806 41.9765 133.306V133.033C41.9765 132.107 42.1506 131.284 42.4988 130.563C42.8459 129.843 43.3447 129.283 43.9929 128.885C44.6463 128.486 45.4174 128.287 46.3053 128.287C47.3979 128.287 48.3032 128.606 49.0242 129.245C49.7502 129.884 50.1373 130.713 50.1845 131.732H48.6094C48.5613 131.117 48.3217 130.613 47.8895 130.221C47.4635 129.822 46.9361 129.623 46.3053 129.623C45.4594 129.623 44.8029 129.922 44.3349 130.52C43.8721 131.111 43.6416 131.97 43.6416 133.095V133.402C43.6416 134.498 43.8721 135.342 44.3349 135.934C44.7968 136.525 45.4563 136.821 46.3145 136.821ZM54.3166 126.16V128.463H56.1343V129.72H54.3166V135.617C54.3166 135.998 54.3975 136.285 54.5593 136.479C54.7211 136.666 54.9976 136.76 55.3868 136.76C55.5793 136.76 55.8435 136.725 56.1794 136.654V137.973C55.7411 138.09 55.3151 138.148 54.9013 138.148C54.1568 138.148 53.5957 137.929 53.2178 137.489C52.8399 137.05 52.6515 136.426 52.6515 135.617V129.72H50.8778V128.463H52.6515V126.16H54.3166ZM59.8968 137.973H58.2316V128.463H59.8968V137.973ZM58.0965 125.94C58.0965 125.677 58.1774 125.454 58.3392 125.272C58.5071 125.091 58.7539 125 59.0775 125C59.4011 125 59.6479 125.091 59.8159 125.272C59.9838 125.454 60.0678 125.677 60.0678 125.94C60.0678 126.204 59.9838 126.424 59.8159 126.6C59.6479 126.775 59.4011 126.863 59.0775 126.863C58.7539 126.863 58.5071 126.775 58.3392 126.6C58.1774 126.424 58.0965 126.204 58.0965 125.94ZM65.7832 135.767L68.1949 128.463H69.8959L66.4038 137.973H65.1349L61.607 128.463H63.308L65.7832 135.767ZM77.3665 137.973C77.2712 137.785 77.1924 137.451 77.133 136.971C76.3588 137.756 75.4351 138.148 74.3608 138.148C73.4002 138.148 72.6117 137.885 71.9932 137.357C71.3818 136.824 71.0756 136.15 71.0756 135.336C71.0756 134.346 71.4596 133.578 72.2277 133.033C73.0019 132.482 74.0874 132.207 75.4853 132.207H77.1054V131.46C77.1054 130.892 76.9323 130.44 76.5841 130.106C76.2359 129.767 75.7228 129.597 75.0449 129.597C74.4509 129.597 73.9522 129.743 73.5508 130.036C73.1483 130.329 72.9476 130.684 72.9476 131.1H71.2732C71.2732 130.625 71.4443 130.168 71.7863 129.729C72.1345 129.283 72.6025 128.932 73.1903 128.674C73.7843 128.416 74.4356 128.287 75.1432 128.287C76.2656 128.287 77.1453 128.562 77.7813 129.113C78.4172 129.658 78.7469 130.411 78.7705 131.372V135.749C78.7705 136.622 78.8852 137.316 79.1125 137.832V137.973H77.3665ZM74.6035 136.733C75.1258 136.733 75.6204 136.602 76.0884 136.338C76.5564 136.074 76.8954 135.731 77.1054 135.31V133.358H75.8007C73.7607 133.358 72.7407 133.941 72.7407 135.107C72.7407 135.617 72.9148 136.016 73.263 136.303C73.6102 136.59 74.0577 136.733 74.6035 136.733ZM83.64 126.16V128.463H85.4587V129.72H83.64V135.617C83.64 135.998 83.7209 136.285 83.8837 136.479C84.0455 136.666 84.321 136.76 84.7112 136.76C84.9037 136.76 85.1679 136.725 85.5038 136.654V137.973C85.0655 138.09 84.6395 138.148 84.2258 138.148C83.4813 138.148 82.92 137.929 82.5422 137.489C82.1643 137.05 81.9748 136.426 81.9748 135.617V129.72H80.2022V128.463H81.9748V126.16H83.64ZM89.2212 137.973H87.556V128.463H89.2212V137.973ZM87.4209 125.94C87.4209 125.677 87.5018 125.454 87.6636 125.272C87.8315 125.091 88.0773 125 88.4019 125C88.7255 125 88.9713 125.091 89.1393 125.272C89.3082 125.454 89.3922 125.677 89.3922 125.94C89.3922 126.204 89.3082 126.424 89.1393 126.6C88.9713 126.775 88.7255 126.863 88.4019 126.863C88.0773 126.863 87.8315 126.775 87.6636 126.6C87.5018 126.424 87.4209 126.204 87.4209 125.94ZM91.4526 133.13C91.4526 132.198 91.639 131.36 92.0108 130.616C92.3887 129.872 92.9109 129.298 93.5766 128.894C94.2494 128.489 95.0144 128.287 95.8726 128.287C97.1987 128.287 98.2699 128.735 99.0851 129.632C99.9074 130.528 100.318 131.721 100.318 133.209V133.323C100.318 134.249 100.136 135.081 99.7692 135.819C99.4097 136.552 98.8905 137.123 98.2126 137.533C97.5408 137.943 96.7666 138.148 95.89 138.148C94.5699 138.148 93.4988 137.7 92.6774 136.804C91.8613 135.907 91.4526 134.721 91.4526 133.244V133.13ZM93.127 133.323C93.127 134.378 93.3759 135.225 93.8746 135.863C94.3784 136.502 95.0502 136.821 95.89 136.821C96.7359 136.821 97.4087 136.499 97.9064 135.854C98.4041 135.204 98.6539 134.296 98.6539 133.13C98.6539 132.087 98.3979 131.243 97.8879 130.599C97.3841 129.948 96.7123 129.623 95.8726 129.623C95.0502 129.623 94.3866 129.942 93.8828 130.581C93.3789 131.22 93.127 132.134 93.127 133.323ZM103.982 128.463L104.035 129.658C104.78 128.744 105.752 128.287 106.952 128.287C109.01 128.287 110.048 129.421 110.066 131.688V137.973H108.401V131.68C108.395 130.994 108.233 130.487 107.915 130.159C107.603 129.831 107.114 129.667 106.448 129.667C105.907 129.667 105.434 129.808 105.026 130.089C104.618 130.37 104.3 130.739 104.072 131.196V137.973H102.407V128.463H103.982Z" fill="black"/>
<path d="M29.6354 157.473H145.356V143.473H29.6354V157.473Z" fill="url(#paint0_linear)" stroke="black"/>
<path d="M145.356 155.973V161.973" stroke="black"/>
<path d="M29.6354 155.973V161.973" stroke="black"/>
<path d="M22.9768 172.973H21.8667V163.973H22.9768V172.973ZM24.4648 169.744C24.4648 169.123 24.5887 168.564 24.8365 168.068C25.0895 167.572 25.4367 167.189 25.8811 166.92C26.3286 166.65 26.8396 166.516 27.4111 166.516C28.2949 166.516 29.0097 166.814 29.5534 167.412C30.1013 168.01 30.3758 168.805 30.3758 169.797V169.873C30.3758 170.49 30.2539 171.045 30.0092 171.537C29.7695 172.025 29.4234 172.406 28.9718 172.68C28.5232 172.953 28.0071 173.09 27.4234 173.09C26.5427 173.09 25.8289 172.791 25.281 172.193C24.7372 171.596 24.4648 170.805 24.4648 169.82V169.744ZM25.5811 169.873C25.5811 170.576 25.7469 171.141 26.0787 171.566C26.4146 171.992 26.8632 172.205 27.4234 172.205C27.9876 172.205 28.4351 171.99 28.7669 171.561C29.0998 171.127 29.2657 170.521 29.2657 169.744C29.2657 169.049 29.0957 168.486 28.7557 168.057C28.4188 167.623 27.9712 167.406 27.4111 167.406C26.8632 167.406 26.4208 167.619 26.0849 168.045C25.749 168.471 25.5811 169.08 25.5811 169.873ZM37.5156 171.479L38.764 166.633H39.8741L37.9836 172.973H37.0835L35.5054 168.168L33.9692 172.973H33.0701L31.1858 166.633H32.2898L33.5678 171.379L35.0793 166.633H35.9734L37.5156 171.479Z" fill="black"/>
<path d="M135.529 167.4C136.021 166.811 136.661 166.516 137.449 166.516C138.821 166.516 139.514 167.271 139.526 168.783V172.973H138.416V168.777C138.412 168.32 138.303 167.982 138.091 167.764C137.883 167.545 137.558 167.436 137.113 167.436C136.754 167.436 136.437 167.529 136.165 167.717C135.893 167.904 135.681 168.15 135.529 168.455V172.973H134.419V163.973H135.529V167.4ZM142.393 172.973H141.283V166.633H142.393V172.973ZM141.194 164.951C141.194 164.775 141.247 164.627 141.356 164.506C141.467 164.385 141.631 164.324 141.847 164.324C142.063 164.324 142.227 164.385 142.34 164.506C142.452 164.627 142.508 164.775 142.508 164.951C142.508 165.127 142.452 165.273 142.34 165.391C142.227 165.508 142.063 165.566 141.847 165.566C141.631 165.566 141.467 165.508 141.356 165.391C141.247 165.273 141.194 165.127 141.194 164.951ZM143.912 169.75C143.912 168.762 144.145 167.977 144.613 167.395C145.081 166.809 145.702 166.516 146.474 166.516C147.266 166.516 147.884 166.789 148.328 167.336L148.382 166.633H149.396V172.82C149.396 173.641 149.146 174.287 148.646 174.76C148.151 175.232 147.482 175.469 146.642 175.469C146.174 175.469 145.716 175.371 145.268 175.176C144.82 174.98 144.478 174.713 144.242 174.373L144.818 173.723C145.293 174.297 145.876 174.584 146.564 174.584C147.104 174.584 147.524 174.436 147.824 174.139C148.128 173.842 148.28 173.424 148.28 172.885V172.34C147.836 172.84 147.23 173.09 146.462 173.09C145.702 173.09 145.086 172.791 144.613 172.193C144.145 171.596 143.912 170.781 143.912 169.75ZM145.028 169.873C145.028 170.588 145.178 171.15 145.478 171.561C145.778 171.967 146.198 172.17 146.738 172.17C147.438 172.17 147.952 171.859 148.28 171.238V168.344C147.94 167.738 147.43 167.436 146.75 167.436C146.21 167.436 145.788 167.641 145.484 168.051C145.18 168.461 145.028 169.068 145.028 169.873ZM152.186 167.4C152.678 166.811 153.318 166.516 154.107 166.516C155.479 166.516 156.171 167.271 156.182 168.783V172.973H155.072V168.777C155.068 168.32 154.961 167.982 154.749 167.764C154.541 167.545 154.214 167.436 153.771 167.436C153.41 167.436 153.095 167.529 152.822 167.717C152.55 167.904 152.338 168.15 152.186 168.455V172.973H151.076V163.973H152.186V167.4Z" fill="black"/>
<path d="M152 150L294 171" stroke="black"/>
<defs>
<linearGradient id="paint0_linear" x1="28.0993" y1="149.078" x2="144.844" y2="149.078" gradientUnits="userSpaceOnUse">
<stop stop-color="#595959"/>
<stop offset="1" stop-color="#C4C4C4" stop-opacity="0"/>
</linearGradient>
</defs>
</svg>
