<svg width="1010" height="226" viewBox="0 0 1010 226" fill="none" xmlns="http://www.w3.org/2000/svg">
<rect width="1010" height="226" fill="white"/>
<rect x="194.5" y="11.5" width="173" height="188" stroke="black" stroke-width="3"/>
<rect x="656.5" y="58.5" width="161" height="92" stroke="#FECECE" stroke-width="3"/>
<path d="M383.232 103.232C382.256 104.209 382.256 105.791 383.232 106.768L399.142 122.678C400.118 123.654 401.701 123.654 402.678 122.678C403.654 121.701 403.654 120.118 402.678 119.142L388.536 105L402.678 90.8579C403.654 89.8816 403.654 88.2986 402.678 87.3223C401.701 86.346 400.118 86.346 399.142 87.3223L383.232 103.232ZM473 102.5L385 102.5V107.5L473 107.5V102.5Z" fill="black"/>
<path d="M554.232 103.232C553.256 104.209 553.256 105.791 554.232 106.768L570.142 122.678C571.118 123.654 572.701 123.654 573.678 122.678C574.654 121.701 574.654 120.118 573.678 119.142L559.536 105L573.678 90.8579C574.654 89.8816 574.654 88.2986 573.678 87.3223C572.701 86.346 571.118 86.346 570.142 87.3223L554.232 103.232ZM644 102.5L556 102.5V107.5L644 107.5V102.5Z" fill="black"/>
<path d="M667.055 99.1829C666.428 99.1829 665.929 98.9738 665.557 98.5558C665.186 98.1377 665 97.6267 665 97.0229C665 95.3739 665.615 93.9455 666.846 92.7378C668.077 91.5301 669.61 90.9262 671.445 90.9262C673.559 90.9262 675.324 91.5765 676.74 92.8771C678.157 94.1778 678.877 95.8616 678.9 97.9287C678.9 98.9274 678.668 99.8796 678.204 100.785C677.739 101.691 677.182 102.481 676.531 103.154C675.881 103.828 674.952 104.687 673.744 105.732C672.908 106.452 671.747 107.521 670.261 108.938L668.205 110.888L670.853 110.923C674.499 110.923 676.439 110.865 676.671 110.749C676.833 110.703 677.112 109.669 677.507 107.649V107.544H678.9V107.649C678.877 107.718 678.726 108.775 678.448 110.819C678.169 112.863 677.995 113.931 677.925 114.024V114.128H665V113.466V113.048C665 112.886 665.07 112.712 665.209 112.526C665.348 112.34 665.697 111.934 666.254 111.307C666.928 110.563 667.508 109.913 667.996 109.356C668.205 109.123 668.6 108.694 669.181 108.067C669.761 107.439 670.156 107.01 670.365 106.778C670.574 106.545 670.911 106.162 671.375 105.628C671.84 105.094 672.165 104.699 672.351 104.443C672.537 104.188 672.804 103.84 673.152 103.398C673.501 102.957 673.744 102.585 673.884 102.283C674.023 101.982 674.197 101.645 674.406 101.273C674.615 100.902 674.766 100.53 674.859 100.158C674.952 99.7867 675.033 99.4383 675.103 99.1132C675.173 98.788 675.208 98.4048 675.208 97.9635C675.208 96.5003 674.813 95.2345 674.023 94.1662C673.233 93.0978 672.107 92.5636 670.644 92.5636C669.877 92.5636 669.204 92.761 668.623 93.1559C668.043 93.5507 667.636 93.9339 667.404 94.3055C667.172 94.6771 667.055 94.8978 667.055 94.9674C667.055 94.9907 667.114 95.0023 667.23 95.0023C667.648 95.0023 668.077 95.1649 668.519 95.49C668.96 95.8152 669.181 96.3493 669.181 97.0926C669.181 97.6732 668.995 98.1609 668.623 98.5558C668.252 98.9506 667.729 99.1596 667.055 99.1829Z" fill="black"/>
<path d="M683.952 105.419C683.952 103.817 684.068 102.295 684.3 100.855C684.533 99.4153 684.8 98.1727 685.102 97.1276C685.403 96.0824 685.833 95.0605 686.391 94.0618C686.948 93.0631 687.389 92.2851 687.714 91.7277C688.04 91.1703 688.527 90.5664 689.178 89.9161C689.828 89.2658 690.211 88.8709 690.327 88.7316C690.443 88.5922 690.734 88.3484 691.198 88H691.651H691.79C692.116 88 692.278 88.1045 692.278 88.3135C692.278 88.3832 692.081 88.6271 691.686 89.0451C691.291 89.4632 690.815 90.0787 690.258 90.8916C689.7 91.7044 689.131 92.7031 688.551 93.8876C687.97 95.0721 687.482 96.6747 687.087 98.6953C686.693 100.716 686.495 102.957 686.495 105.419C686.495 107.881 686.693 110.111 687.087 112.108C687.482 114.105 687.958 115.72 688.516 116.95C689.073 118.181 689.642 119.18 690.223 119.947C690.803 120.713 691.291 121.328 691.686 121.793C692.081 122.257 692.278 122.501 692.278 122.525C692.278 122.734 692.104 122.838 691.756 122.838H691.651H691.198L690.223 122.002C688.04 120.028 686.449 117.566 685.45 114.616C684.451 111.667 683.952 108.601 683.952 105.419Z" fill="black"/>
<path d="M698.027 99.1829C697.399 99.1829 696.9 98.9738 696.528 98.5558C696.157 98.1377 695.971 97.6267 695.971 97.0229C695.971 95.3739 696.587 93.9455 697.817 92.7378C699.048 91.5301 700.581 90.9262 702.416 90.9262C704.53 90.9262 706.295 91.5765 707.712 92.8771C709.128 94.1778 709.848 95.8616 709.871 97.9287C709.871 98.9274 709.639 99.8796 709.175 100.785C708.71 101.691 708.153 102.481 707.502 103.154C706.852 103.828 705.923 104.687 704.715 105.732C703.879 106.452 702.718 107.521 701.232 108.938L699.176 110.888L701.824 110.923C705.47 110.923 707.41 110.865 707.642 110.749C707.804 110.703 708.083 109.669 708.478 107.649V107.544H709.871V107.649C709.848 107.718 709.697 108.775 709.419 110.819C709.14 112.863 708.966 113.931 708.896 114.024V114.128H695.971V113.466V113.048C695.971 112.886 696.041 112.712 696.18 112.526C696.319 112.34 696.668 111.934 697.225 111.307C697.899 110.563 698.479 109.913 698.967 109.356C699.176 109.123 699.571 108.694 700.152 108.067C700.732 107.439 701.127 107.01 701.336 106.778C701.545 106.545 701.882 106.162 702.346 105.628C702.811 105.094 703.136 104.699 703.322 104.443C703.508 104.188 703.775 103.84 704.123 103.398C704.472 102.957 704.715 102.585 704.855 102.283C704.994 101.982 705.168 101.645 705.377 101.273C705.586 100.902 705.737 100.53 705.83 100.158C705.923 99.7867 706.004 99.4383 706.074 99.1132C706.144 98.788 706.179 98.4048 706.179 97.9635C706.179 96.5003 705.784 95.2345 704.994 94.1662C704.204 93.0978 703.078 92.5636 701.615 92.5636C700.848 92.5636 700.175 92.761 699.594 93.1559C699.014 93.5507 698.607 93.9339 698.375 94.3055C698.143 94.6771 698.027 94.8978 698.027 94.9674C698.027 94.9907 698.085 95.0023 698.201 95.0023C698.619 95.0023 699.048 95.1649 699.49 95.49C699.931 95.8152 700.152 96.3493 700.152 97.0926C700.152 97.6732 699.966 98.1609 699.594 98.5558C699.223 98.9506 698.7 99.1596 698.027 99.1829Z" fill="black"/>
<path d="M714.366 112.038C714.366 111.481 714.563 110.993 714.958 110.575C715.353 110.157 715.852 109.948 716.456 109.948C717.013 109.948 717.501 110.134 717.919 110.505C718.337 110.877 718.558 111.376 718.581 112.003C718.581 112.584 718.384 113.083 717.989 113.501C717.594 113.919 717.095 114.128 716.491 114.128C715.887 114.128 715.388 113.931 714.993 113.536C714.598 113.141 714.389 112.642 714.366 112.038Z" fill="black"/>
<path d="M728.754 93.992L728.301 94.1662C727.976 94.2823 727.511 94.3984 726.907 94.5145C726.304 94.6307 725.63 94.712 724.887 94.7584H724.225V93.1559H724.887C725.978 93.1094 726.989 92.9352 727.918 92.6333C728.847 92.3313 729.497 92.0526 729.869 91.7972C730.24 91.5417 730.565 91.2862 730.844 91.0307C730.891 90.961 731.03 90.9262 731.262 90.9262C731.471 90.9262 731.669 90.9959 731.854 91.1352V101.552L731.889 112.003C732.052 112.166 732.191 112.27 732.307 112.317C732.423 112.363 732.702 112.41 733.143 112.456C733.585 112.503 734.305 112.526 735.303 112.526H736.209V114.128H735.826C735.338 114.059 733.492 114.024 730.287 114.024C727.128 114.024 725.305 114.059 724.817 114.128H724.399V112.526H725.305C725.816 112.526 726.257 112.526 726.629 112.526C727 112.526 727.291 112.514 727.5 112.491C727.709 112.468 727.894 112.433 728.057 112.387C728.22 112.34 728.313 112.317 728.336 112.317C728.359 112.317 728.429 112.259 728.545 112.143C728.661 112.027 728.731 111.98 728.754 112.003V93.992Z" fill="black"/>
<path d="M749.42 105.872C749.42 105.872 749.42 105.721 749.42 105.419C749.42 105.117 749.582 104.885 749.908 104.722H770.148C770.497 104.908 770.671 105.14 770.671 105.419C770.671 105.698 770.497 105.93 770.148 106.116H749.908C749.582 105.953 749.42 105.721 749.42 105.419V105.872Z" fill="black"/>
<path d="M797.434 114.128C797.016 114.059 795.518 114.024 792.94 114.024C790.245 114.024 788.689 114.059 788.271 114.128H787.958V112.526H789.038C789.502 112.526 789.816 112.526 789.978 112.526C790.141 112.526 790.338 112.503 790.571 112.456C790.803 112.41 790.965 112.352 791.058 112.282C791.151 112.212 791.233 112.119 791.302 112.003C791.325 111.957 791.337 111.33 791.337 110.122V108.38H782.314V106.778L787.575 98.73C791.128 93.3417 792.928 90.6359 792.974 90.6127C793.021 90.5662 793.265 90.543 793.706 90.543H794.333L794.542 90.752V106.778H797.747V108.38H794.542V110.157C794.542 111.109 794.542 111.667 794.542 111.829C794.542 111.992 794.612 112.131 794.751 112.247C794.937 112.41 795.599 112.503 796.737 112.526H797.747V114.128H797.434ZM791.546 106.778V95.1416L783.917 106.743L787.714 106.778H791.546Z" fill="black"/>
<path d="M800.848 88.0348L800.987 88C801.103 88 801.22 88 801.336 88H801.754L802.729 88.8361C804.912 90.8103 806.503 93.2722 807.502 96.2218C808.501 99.1714 809 102.237 809 105.419C809 106.998 808.884 108.52 808.652 109.983C808.419 111.446 808.152 112.689 807.85 113.711C807.548 114.732 807.119 115.754 806.561 116.776C806.004 117.798 805.563 118.576 805.238 119.11C804.912 119.645 804.436 120.237 803.809 120.887C803.182 121.538 802.81 121.921 802.694 122.037C802.578 122.153 802.311 122.374 801.893 122.699C801.823 122.768 801.777 122.815 801.754 122.838H801.336C801.15 122.838 801.022 122.838 800.952 122.838C800.883 122.838 800.825 122.803 800.778 122.734C800.732 122.664 800.697 122.559 800.674 122.42C800.697 122.397 800.825 122.246 801.057 121.967C804.657 118.228 806.457 112.712 806.457 105.419C806.457 98.1263 804.657 92.6102 801.057 88.8709C800.825 88.5922 800.697 88.4413 800.674 88.418C800.674 88.2322 800.732 88.1045 800.848 88.0348Z" fill="black"/>
<path d="M478 105.9C478 105.9 478 105.75 478 105.449C478 105.148 478.162 104.916 478.486 104.754H498.666C499.013 104.939 499.187 105.171 499.187 105.449C499.187 105.727 499.013 105.958 498.666 106.144H478.486C478.162 105.981 478 105.75 478 105.449V105.9Z" fill="black"/>
<path d="M506.516 98.0507C505.891 98.0507 505.404 97.8539 505.057 97.4603C504.71 97.0666 504.525 96.5572 504.501 95.932C504.501 94.6585 505.057 93.5239 506.169 92.5282C507.28 91.5325 508.623 91.0347 510.198 91.0347C511.008 91.0347 511.517 91.0462 511.726 91.0694C513.439 91.3472 514.748 91.9609 515.651 92.9102C516.554 93.8596 517.017 94.89 517.04 96.0015C517.04 97.2056 516.646 98.3749 515.859 99.5095C515.072 100.644 513.984 101.466 512.594 101.976L512.49 102.045C512.49 102.068 512.594 102.103 512.803 102.149C513.011 102.196 513.347 102.3 513.81 102.462C514.273 102.624 514.713 102.867 515.13 103.191C517.028 104.418 517.978 106.039 517.978 108.054C517.978 109.883 517.26 111.481 515.824 112.847C514.389 114.213 512.571 114.896 510.371 114.896C508.519 114.896 506.921 114.398 505.578 113.403C504.235 112.407 503.564 111.145 503.564 109.617C503.564 108.968 503.772 108.447 504.189 108.054C504.606 107.66 505.127 107.452 505.752 107.429C506.4 107.429 506.933 107.637 507.349 108.054C507.766 108.471 507.975 108.992 507.975 109.617C507.975 109.872 507.94 110.103 507.87 110.311C507.801 110.52 507.72 110.705 507.627 110.867C507.535 111.029 507.407 111.168 507.245 111.284C507.083 111.4 506.944 111.492 506.829 111.562C506.713 111.631 506.597 111.678 506.481 111.701C506.365 111.724 506.273 111.759 506.203 111.805L506.064 111.84C507.245 112.882 508.681 113.403 510.371 113.403C511.645 113.403 512.606 112.789 513.254 111.562C513.648 110.798 513.845 109.628 513.845 108.054V107.359C513.845 105.159 513.104 103.689 511.622 102.948C511.274 102.809 510.568 102.728 509.503 102.705L508.044 102.67L507.94 102.601C507.894 102.531 507.87 102.346 507.87 102.045C507.87 101.628 507.963 101.42 508.148 101.42C508.797 101.42 509.468 101.362 510.163 101.246C510.95 101.13 511.668 100.644 512.316 99.7874C512.965 98.9306 513.289 97.6339 513.289 95.8973V95.6194C513.289 94.2996 512.884 93.3849 512.073 92.8755C511.564 92.5513 511.02 92.3892 510.441 92.3892C509.7 92.3892 509.017 92.5166 508.391 92.7713C507.766 93.026 507.326 93.2923 507.072 93.5702C506.817 93.848 506.69 93.987 506.69 93.987H506.794C506.863 94.0101 506.956 94.0333 507.072 94.0564C507.187 94.0796 507.303 94.1375 507.419 94.2301C507.535 94.3227 507.674 94.4038 507.836 94.4732C507.998 94.5427 508.114 94.67 508.183 94.8553C508.253 95.0405 508.345 95.2142 508.461 95.3763C508.577 95.5384 508.611 95.7699 508.565 96.0709C508.565 96.5804 508.403 97.0319 508.079 97.4255C507.755 97.8192 507.234 98.0276 506.516 98.0507Z" fill="black"/>
<path d="M522.18 112.048C522.18 111.492 522.377 111.006 522.771 110.589C523.165 110.173 523.662 109.964 524.264 109.964C524.82 109.964 525.306 110.149 525.723 110.52C526.14 110.89 526.36 111.388 526.383 112.013C526.383 112.592 526.186 113.09 525.793 113.507C525.399 113.924 524.901 114.132 524.299 114.132C523.697 114.132 523.199 113.935 522.806 113.542C522.412 113.148 522.204 112.65 522.18 112.048Z" fill="black"/>
<path d="M531.558 99.6484C531.558 99.6484 531.558 98.757 531.558 96.974C531.558 95.191 532.184 93.7554 533.434 92.6671C534.684 91.5788 536.12 91.0231 537.741 90.9999C539.385 90.9999 540.844 91.4862 542.117 92.4587C543.391 93.4312 544.028 94.6932 544.028 96.2446C544.028 96.9393 543.9 97.5876 543.645 98.1897C543.391 98.7917 543.09 99.278 542.742 99.6484C542.395 100.019 542.036 100.343 541.666 100.621C541.295 100.899 540.994 101.107 540.763 101.246C540.531 101.385 540.404 101.478 540.381 101.524L540.867 101.837C541.191 102.068 541.515 102.3 541.839 102.531C542.164 102.763 542.349 102.89 542.395 102.913C544.132 104.28 545 106.005 545 108.089C545 109.918 544.329 111.504 542.986 112.847C541.643 114.19 539.906 114.873 537.776 114.896C535.692 114.896 533.978 114.306 532.635 113.125C531.292 111.944 530.621 110.485 530.621 108.748C530.621 106.248 532.114 104.164 535.101 102.497L534.476 102.045C533.99 101.744 533.677 101.512 533.538 101.35C532.218 100.216 531.558 98.757 531.558 96.974V99.6484ZM539.061 100.725L539.269 100.586C539.408 100.494 539.512 100.424 539.582 100.378C539.651 100.332 539.767 100.25 539.929 100.135C540.091 100.019 540.23 99.9032 540.346 99.7874C540.462 99.6716 540.589 99.5327 540.728 99.3706C540.867 99.2085 540.994 99.058 541.11 98.919C541.226 98.7801 541.342 98.5949 541.457 98.3633C541.573 98.1318 541.677 97.9349 541.77 97.7729C541.863 97.6108 541.92 97.3792 541.944 97.0782C541.967 96.7772 541.99 96.5225 542.013 96.3141C542.013 95.3184 541.677 94.4732 541.006 93.7786C540.334 93.0839 539.559 92.6439 538.679 92.4587C538.517 92.4355 538.135 92.424 537.532 92.424C536.583 92.424 535.692 92.725 534.858 93.327C534.024 93.9291 533.596 94.6816 533.573 95.5847C533.573 96.1173 533.723 96.6035 534.024 97.0435C534.325 97.4834 534.626 97.8192 534.927 98.0507C535.229 98.2823 535.807 98.6528 536.664 99.1622C536.826 99.278 536.954 99.359 537.046 99.4053L539.061 100.725ZM537.81 113.403C539.153 113.403 540.311 113.009 541.284 112.222C542.256 111.435 542.742 110.485 542.742 109.374C542.742 108.98 542.685 108.61 542.569 108.262C542.453 107.915 542.314 107.625 542.152 107.394C541.99 107.162 541.735 106.908 541.388 106.63C541.041 106.352 540.774 106.144 540.589 106.005C540.404 105.866 540.068 105.646 539.582 105.345C539.095 105.044 538.783 104.847 538.644 104.754C538.32 104.546 537.972 104.326 537.602 104.094C537.231 103.863 536.93 103.666 536.699 103.504L536.421 103.33C536.282 103.33 535.946 103.527 535.414 103.921C534.881 104.314 534.325 104.951 533.747 105.831C533.168 106.711 532.867 107.66 532.844 108.679C532.844 110.045 533.341 111.168 534.337 112.048C535.333 112.928 536.49 113.38 537.81 113.403Z" fill="black"/>
<path d="M201 68.2095C201 66.6341 201.114 65.1386 201.342 63.723C201.571 62.3074 201.833 61.0859 202.13 60.0584C202.427 59.031 202.849 58.0264 203.397 57.0446C203.945 56.0628 204.379 55.298 204.699 54.75C205.018 54.202 205.498 53.6084 206.137 52.9691C206.777 52.3298 207.153 51.9417 207.267 51.8047C207.382 51.6677 207.667 51.4279 208.124 51.0855H208.569H208.706C209.025 51.0855 209.185 51.1882 209.185 51.3937C209.185 51.4622 208.991 51.7019 208.603 52.1129C208.215 52.5239 207.747 53.1289 207.199 53.9281C206.651 54.7272 206.092 55.7089 205.521 56.8734C204.95 58.0378 204.47 59.6132 204.082 61.5996C203.694 63.586 203.5 65.7893 203.5 68.2095C203.5 70.6297 203.694 72.8215 204.082 74.7851C204.47 76.7487 204.939 78.3355 205.486 79.5456C206.034 80.7557 206.594 81.7375 207.165 82.4909C207.735 83.2444 208.215 83.8494 208.603 84.3061C208.991 84.7627 209.185 85.0024 209.185 85.0253C209.185 85.2308 209.014 85.3335 208.672 85.3335H208.569H208.124L207.165 84.5115C205.018 82.5708 203.454 80.1506 202.473 77.251C201.491 74.3513 201 71.3375 201 68.2095Z" fill="black"/>
<path d="M214.836 62.0788C214.22 62.0788 213.729 61.8733 213.364 61.4624C212.998 61.0514 212.816 60.5491 212.816 59.9555C212.816 58.3344 213.421 56.9302 214.631 55.7429C215.841 54.5557 217.348 53.9621 219.151 53.9621C221.229 53.9621 222.964 54.6013 224.357 55.8799C225.75 57.1585 226.458 58.8139 226.481 60.8459C226.481 61.8277 226.252 62.7638 225.796 63.6542C225.339 64.5447 224.791 65.321 224.152 65.9831C223.512 66.6452 222.599 67.49 221.412 68.5175C220.59 69.2253 219.448 70.2755 217.987 71.6683L215.966 73.5862L218.569 73.6204C222.154 73.6204 224.06 73.5633 224.289 73.4492C224.448 73.4035 224.722 72.3875 225.111 70.4011V70.2984H226.481V70.4011C226.458 70.4696 226.309 71.5085 226.035 73.5177C225.761 75.5269 225.59 76.5772 225.522 76.6685V76.7712H212.816V76.1205V75.7096C212.816 75.5497 212.884 75.3785 213.021 75.1958C213.158 75.0132 213.501 74.6136 214.048 73.9971C214.711 73.2665 215.281 72.6272 215.761 72.0793C215.966 71.8509 216.355 71.4285 216.925 70.8121C217.496 70.1956 217.884 69.7732 218.09 69.5449C218.295 69.3166 218.626 68.9399 219.083 68.4147C219.54 67.8896 219.859 67.5014 220.042 67.2503C220.225 66.9991 220.487 66.6567 220.83 66.2228C221.172 65.789 221.412 65.4237 221.549 65.1269C221.686 64.8301 221.857 64.499 222.063 64.1337C222.268 63.7684 222.416 63.4031 222.508 63.0378C222.599 62.6725 222.679 62.33 222.747 62.0103C222.816 61.6907 222.85 61.314 222.85 60.8802C222.85 59.4417 222.462 58.1974 221.686 57.1471C220.91 56.0968 219.802 55.5717 218.364 55.5717C217.61 55.5717 216.948 55.7658 216.377 56.1539C215.807 56.5421 215.407 56.9188 215.179 57.2841C214.95 57.6494 214.836 57.8663 214.836 57.9348C214.836 57.9577 214.893 57.9691 215.007 57.9691C215.418 57.9691 215.841 58.1289 216.275 58.4485C216.708 58.7682 216.925 59.2933 216.925 60.024C216.925 60.5948 216.743 61.0742 216.377 61.4624C216.012 61.8505 215.498 62.056 214.836 62.0788Z" fill="black"/>
<path d="M230.899 74.7164C230.899 74.1684 231.093 73.6889 231.481 73.2779C231.869 72.867 232.36 72.6615 232.953 72.6615C233.501 72.6615 233.981 72.8441 234.392 73.2094C234.803 73.5748 235.02 74.0656 235.043 74.6821C235.043 75.2529 234.848 75.7438 234.46 76.1548C234.072 76.5658 233.581 76.7712 232.988 76.7712C232.394 76.7712 231.903 76.5772 231.515 76.189C231.127 75.8009 230.921 75.31 230.899 74.7164Z" fill="black"/>
<path d="M245.043 56.9759L244.598 57.1471C244.278 57.2613 243.821 57.3754 243.228 57.4896C242.634 57.6038 241.972 57.6837 241.241 57.7293H240.591V56.1539H241.241C242.315 56.1083 243.308 55.937 244.221 55.6402C245.134 55.3434 245.774 55.0694 246.139 54.8183C246.504 54.5671 246.824 54.3159 247.098 54.0648C247.144 53.9963 247.281 53.9621 247.509 53.9621C247.714 53.9621 247.908 54.0305 248.091 54.1675V64.4077L248.125 74.6821C248.285 74.8419 248.422 74.9447 248.536 74.9903C248.65 75.036 248.924 75.0817 249.358 75.1273C249.792 75.173 250.5 75.1958 251.482 75.1958H252.372V76.7712H251.995C251.516 76.7027 249.701 76.6685 246.55 76.6685C243.445 76.6685 241.652 76.7027 241.173 76.7712H240.762V75.1958H241.652C242.155 75.1958 242.589 75.1958 242.954 75.1958C243.319 75.1958 243.605 75.1844 243.81 75.1616C244.016 75.1388 244.198 75.1045 244.358 75.0588C244.518 75.0132 244.609 74.9903 244.632 74.9903C244.655 74.9903 244.723 74.9333 244.838 74.8191C244.952 74.7049 245.02 74.6593 245.043 74.6821V56.9759Z" fill="black"/>
<path d="M256.927 51.1197L257.064 51.0855C257.178 51.0855 257.292 51.0855 257.406 51.0855H257.817L258.776 51.9074C260.923 53.8481 262.487 56.2683 263.468 59.168C264.45 62.0677 264.941 65.0815 264.941 68.2095C264.941 69.7621 264.827 71.2576 264.599 72.696C264.37 74.1344 264.108 75.3559 263.811 76.3605C263.514 77.3651 263.092 78.3697 262.544 79.3743C261.996 80.3789 261.562 81.1438 261.242 81.669C260.923 82.1941 260.455 82.7763 259.838 83.4156C259.222 84.0549 258.856 84.4316 258.742 84.5458C258.628 84.66 258.365 84.8769 257.954 85.1965C257.886 85.265 257.84 85.3107 257.817 85.3335H257.406C257.224 85.3335 257.098 85.3335 257.03 85.3335C256.961 85.3335 256.904 85.2992 256.858 85.2308C256.813 85.1623 256.779 85.0595 256.756 84.9225C256.779 84.8997 256.904 84.7513 257.132 84.4773C260.671 80.8013 262.441 75.3787 262.441 68.2095C262.441 61.0402 260.671 55.6176 257.132 51.9417C256.904 51.6677 256.779 51.5193 256.756 51.4964C256.756 51.3138 256.813 51.1882 256.927 51.1197Z" fill="black"/>
<path d="M271.414 68.2095C271.414 66.6341 271.528 65.1386 271.756 63.723C271.985 62.3074 272.247 61.0859 272.544 60.0584C272.841 59.031 273.263 58.0264 273.811 57.0446C274.359 56.0628 274.793 55.298 275.113 54.75C275.432 54.202 275.912 53.6084 276.551 52.9691C277.19 52.3298 277.567 51.9417 277.681 51.8047C277.795 51.6677 278.081 51.4279 278.538 51.0855H278.983H279.12C279.439 51.0855 279.599 51.1882 279.599 51.3937C279.599 51.4622 279.405 51.7019 279.017 52.1129C278.629 52.5239 278.161 53.1289 277.613 53.9281C277.065 54.7272 276.505 55.7089 275.935 56.8734C275.364 58.0378 274.884 59.6132 274.496 61.5996C274.108 63.586 273.914 65.7893 273.914 68.2095C273.914 70.6297 274.108 72.8215 274.496 74.7851C274.884 76.7487 275.352 78.3355 275.9 79.5456C276.448 80.7557 277.008 81.7375 277.579 82.4909C278.149 83.2444 278.629 83.8494 279.017 84.3061C279.405 84.7627 279.599 85.0024 279.599 85.0253C279.599 85.2308 279.428 85.3335 279.085 85.3335H278.983H278.538L277.579 84.5115C275.432 82.5708 273.868 80.1506 272.887 77.251C271.905 74.3513 271.414 71.3375 271.414 68.2095Z" fill="black"/>
<path d="M284.394 68.6546C284.394 68.6546 284.394 68.5061 284.394 68.2093C284.394 67.9125 284.554 67.6842 284.873 67.5244H304.771C305.114 67.707 305.285 67.9353 305.285 68.2093C305.285 68.4833 305.114 68.7116 304.771 68.8943H284.873C284.554 68.7345 284.394 68.5061 284.394 68.2093V68.6546Z" fill="black"/>
<path d="M312.512 60.9146C311.895 60.9146 311.416 60.7205 311.073 60.3324C310.731 59.9442 310.548 59.4419 310.525 58.8255C310.525 57.5697 311.073 56.4509 312.169 55.4692C313.265 54.4874 314.589 53.9965 316.142 53.9965C316.941 53.9965 317.443 54.0079 317.649 54.0308C319.338 54.3047 320.628 54.9098 321.519 55.8459C322.409 56.782 322.866 57.798 322.889 58.894C322.889 60.0812 322.501 61.2343 321.724 62.353C320.948 63.4718 319.875 64.2823 318.505 64.7846L318.402 64.8531C318.402 64.876 318.505 64.9102 318.71 64.9559C318.916 65.0015 319.247 65.1043 319.704 65.2641C320.16 65.4239 320.594 65.6637 321.005 65.9833C322.877 67.1934 323.813 68.7917 323.813 70.778C323.813 72.5818 323.106 74.1572 321.69 75.5043C320.274 76.8514 318.482 77.5249 316.313 77.5249C314.487 77.5249 312.911 77.034 311.587 76.0522C310.263 75.0705 309.6 73.8261 309.6 72.3192C309.6 71.6799 309.806 71.1662 310.217 70.778C310.628 70.3899 311.142 70.1844 311.758 70.1616C312.397 70.1616 312.923 70.3671 313.333 70.778C313.744 71.189 313.95 71.7027 313.95 72.3192C313.95 72.5704 313.916 72.7987 313.847 73.0042C313.779 73.2097 313.699 73.3923 313.607 73.5521C313.516 73.712 313.391 73.8489 313.231 73.9631C313.071 74.0773 312.934 74.1686 312.82 74.2371C312.706 74.3056 312.591 74.3513 312.477 74.3741C312.363 74.3969 312.272 74.4312 312.203 74.4768L312.066 74.5111C313.231 75.5385 314.646 76.0522 316.313 76.0522C317.569 76.0522 318.516 75.4472 319.156 74.2371C319.544 73.4836 319.738 72.3306 319.738 70.778V70.0931C319.738 67.924 319.007 66.4742 317.546 65.7436C317.204 65.6066 316.507 65.5267 315.457 65.5038L314.018 65.4696L313.916 65.4011C313.87 65.3326 313.847 65.1499 313.847 64.8531C313.847 64.4422 313.939 64.2367 314.121 64.2367C314.761 64.2367 315.423 64.1796 316.108 64.0654C316.884 63.9513 317.592 63.4718 318.231 62.627C318.87 61.7822 319.19 60.5036 319.19 58.7912V58.5172C319.19 57.2158 318.79 56.314 317.991 55.8117C317.489 55.492 316.952 55.3322 316.382 55.3322C315.651 55.3322 314.977 55.4578 314.361 55.7089C313.744 55.9601 313.311 56.2226 313.06 56.4966C312.808 56.7706 312.683 56.9076 312.683 56.9076H312.786C312.854 56.9304 312.945 56.9533 313.06 56.9761C313.174 56.9989 313.288 57.056 313.402 57.1473C313.516 57.2387 313.653 57.3186 313.813 57.3871C313.973 57.4556 314.087 57.5811 314.155 57.7638C314.224 57.9464 314.315 58.1177 314.429 58.2775C314.544 58.4373 314.578 58.6657 314.532 58.9625C314.532 59.4648 314.372 59.91 314.053 60.2981C313.733 60.6863 313.219 60.8918 312.512 60.9146Z" fill="black"/>
<path d="M327.957 74.7168C327.957 74.1689 328.152 73.6894 328.54 73.2784C328.928 72.8675 329.419 72.662 330.012 72.662C330.56 72.662 331.04 72.8446 331.451 73.2099C331.862 73.5752 332.079 74.0661 332.101 74.6826C332.101 75.2534 331.907 75.7443 331.519 76.1553C331.131 76.5662 330.64 76.7717 330.047 76.7717C329.453 76.7717 328.962 76.5777 328.574 76.1895C328.186 75.8014 327.98 75.3105 327.957 74.7168Z" fill="black"/>
<path d="M337.204 62.4905C337.204 62.4905 337.204 61.6115 337.204 59.8534C337.204 58.0953 337.821 56.6798 339.054 55.6067C340.287 54.5335 341.702 53.9856 343.301 53.9627C344.922 53.9627 346.36 54.4422 347.616 55.4012C348.872 56.3601 349.499 57.6045 349.499 59.1342C349.499 59.8192 349.374 60.4585 349.123 61.0521C348.872 61.6457 348.575 62.1252 348.232 62.4905C347.89 62.8558 347.536 63.1755 347.171 63.4494C346.805 63.7234 346.508 63.9289 346.28 64.0659C346.052 64.2029 345.926 64.2942 345.903 64.3399L346.383 64.6481C346.702 64.8765 347.022 65.1048 347.342 65.3331C347.661 65.5614 347.844 65.687 347.89 65.7098C349.602 67.0569 350.458 68.7579 350.458 70.8128C350.458 72.6165 349.796 74.1805 348.472 75.5048C347.148 76.829 345.435 77.5026 343.335 77.5254C341.28 77.5254 339.59 76.9432 338.266 75.7787C336.942 74.6143 336.28 73.1759 336.28 71.4635C336.28 68.9976 337.752 66.9427 340.698 65.2988L340.081 64.8536C339.602 64.5568 339.293 64.3285 339.156 64.1687C337.855 63.0499 337.204 61.6115 337.204 59.8534V62.4905ZM344.602 63.5522L344.807 63.4152C344.944 63.3239 345.047 63.2554 345.116 63.2097C345.184 63.164 345.298 63.0841 345.458 62.97C345.618 62.8558 345.755 62.7417 345.869 62.6275C345.983 62.5133 346.109 62.3763 346.246 62.2165C346.383 62.0567 346.508 61.9083 346.623 61.7713C346.737 61.6343 346.851 61.4516 346.965 61.2233C347.079 60.995 347.182 60.8009 347.273 60.6411C347.365 60.4813 347.422 60.253 347.445 59.9562C347.467 59.6593 347.49 59.4082 347.513 59.2027C347.513 58.2209 347.182 57.3875 346.52 56.7026C345.858 56.0176 345.093 55.5838 344.225 55.4012C344.065 55.3783 343.689 55.3669 343.095 55.3669C342.159 55.3669 341.28 55.6637 340.458 56.2574C339.636 56.851 339.214 57.593 339.191 58.4835C339.191 59.0086 339.339 59.4881 339.636 59.9219C339.933 60.3557 340.23 60.6868 340.526 60.9151C340.823 61.1434 341.394 61.5087 342.239 62.011C342.399 62.1252 342.524 62.2051 342.616 62.2508L344.602 63.5522ZM343.369 76.0527C344.693 76.0527 345.835 75.6646 346.794 74.8883C347.753 74.112 348.232 73.1759 348.232 72.08C348.232 71.6918 348.175 71.3265 348.061 70.984C347.947 70.6415 347.81 70.3561 347.65 70.1278C347.49 69.8995 347.239 69.6483 346.897 69.3744C346.554 69.1004 346.292 68.8949 346.109 68.7579C345.926 68.6209 345.595 68.404 345.116 68.1072C344.636 67.8104 344.328 67.6163 344.191 67.525C343.871 67.3195 343.529 67.1026 343.164 66.8743C342.798 66.6459 342.501 66.4519 342.273 66.292L341.999 66.1208C341.862 66.1208 341.531 66.3149 341.006 66.703C340.481 67.0912 339.933 67.719 339.362 68.5867C338.791 69.4543 338.494 70.3904 338.472 71.395C338.472 72.7421 338.962 73.8494 339.944 74.7171C340.926 75.5847 342.068 76.0299 343.369 76.0527Z" fill="black"/>
<path d="M353.986 51.1197L354.123 51.0855C354.237 51.0855 354.351 51.0855 354.465 51.0855H354.876L355.835 51.9074C357.981 53.8481 359.545 56.2683 360.527 59.168C361.509 62.0677 362 65.0815 362 68.2095C362 69.7621 361.886 71.2576 361.657 72.696C361.429 74.1344 361.166 75.3559 360.87 76.3605C360.573 77.3651 360.15 78.3697 359.602 79.3743C359.055 80.3789 358.621 81.1438 358.301 81.669C357.981 82.1941 357.513 82.7763 356.897 83.4156C356.28 84.0549 355.915 84.4316 355.801 84.5458C355.687 84.66 355.424 84.8769 355.013 85.1965C354.945 85.265 354.899 85.3107 354.876 85.3335H354.465C354.283 85.3335 354.157 85.3335 354.089 85.3335C354.02 85.3335 353.963 85.2992 353.917 85.2308C353.872 85.1623 353.837 85.0595 353.815 84.9225C353.837 84.8997 353.963 84.7513 354.191 84.4773C357.73 80.8013 359.5 75.3787 359.5 68.2095C359.5 61.0402 357.73 55.6176 354.191 51.9417C353.963 51.6677 353.837 51.5193 353.815 51.4964C353.815 51.3138 353.872 51.1882 353.986 51.1197Z" fill="black"/>
<path d="M223 141.334C223 139.739 223.116 138.225 223.347 136.792C223.578 135.359 223.844 134.123 224.144 133.083C224.444 132.043 224.872 131.026 225.427 130.032C225.981 129.038 226.421 128.264 226.744 127.709C227.068 127.155 227.553 126.554 228.2 125.907C228.847 125.259 229.229 124.867 229.344 124.728C229.46 124.589 229.749 124.347 230.211 124H230.661H230.8C231.124 124 231.285 124.104 231.285 124.312C231.285 124.381 231.089 124.624 230.696 125.04C230.303 125.456 229.829 126.068 229.275 126.877C228.72 127.686 228.154 128.68 227.576 129.859C226.998 131.037 226.513 132.632 226.12 134.643C225.727 136.653 225.531 138.884 225.531 141.334C225.531 143.783 225.727 146.002 226.12 147.99C226.513 149.977 226.987 151.584 227.541 152.808C228.096 154.033 228.662 155.027 229.24 155.79C229.818 156.553 230.303 157.165 230.696 157.627C231.089 158.089 231.285 158.332 231.285 158.355C231.285 158.563 231.112 158.667 230.765 158.667H230.661H230.211L229.24 157.835C227.068 155.871 225.484 153.421 224.491 150.486C223.497 147.551 223 144.5 223 141.334Z" fill="black"/>
<path d="M240.611 129.963L240.16 130.136C239.837 130.251 239.375 130.367 238.774 130.483C238.173 130.598 237.502 130.679 236.763 130.725H236.104V129.131H236.763C237.849 129.084 238.855 128.911 239.779 128.61C240.703 128.31 241.351 128.033 241.72 127.778C242.09 127.524 242.414 127.27 242.691 127.016C242.737 126.946 242.876 126.912 243.107 126.912C243.315 126.912 243.512 126.981 243.696 127.12V137.485L243.731 147.886C243.893 148.047 244.032 148.151 244.147 148.198C244.263 148.244 244.54 148.29 244.979 148.336C245.418 148.382 246.135 148.406 247.128 148.406H248.03V150H247.648C247.163 149.931 245.326 149.896 242.136 149.896C238.993 149.896 237.179 149.931 236.694 150H236.278V148.406H237.179C237.687 148.406 238.127 148.406 238.496 148.406C238.866 148.406 239.155 148.394 239.363 148.371C239.571 148.348 239.756 148.313 239.918 148.267C240.079 148.221 240.172 148.198 240.195 148.198C240.218 148.198 240.287 148.14 240.403 148.024C240.519 147.909 240.588 147.862 240.611 147.886V129.963Z" fill="black"/>
<path d="M252.641 124.035L252.779 124C252.895 124 253.01 124 253.126 124H253.542L254.513 124.832C256.685 126.796 258.268 129.246 259.262 132.181C260.256 135.117 260.753 138.167 260.753 141.334C260.753 142.905 260.637 144.419 260.406 145.875C260.175 147.331 259.909 148.567 259.609 149.584C259.308 150.601 258.881 151.618 258.326 152.635C257.771 153.652 257.332 154.426 257.009 154.958C256.685 155.489 256.211 156.079 255.587 156.726C254.963 157.373 254.594 157.754 254.478 157.87C254.362 157.985 254.097 158.205 253.681 158.529C253.611 158.598 253.565 158.644 253.542 158.667H253.126C252.941 158.667 252.814 158.667 252.745 158.667C252.675 158.667 252.618 158.633 252.571 158.563C252.525 158.494 252.49 158.39 252.467 158.251C252.49 158.228 252.618 158.078 252.849 157.801C256.431 154.08 258.222 148.591 258.222 141.334C258.222 134.077 256.431 128.588 252.849 124.867C252.618 124.589 252.49 124.439 252.467 124.416C252.467 124.231 252.525 124.104 252.641 124.035Z" fill="black"/>
<path d="M267.305 141.334C267.305 139.739 267.42 138.225 267.651 136.792C267.883 135.359 268.148 134.123 268.449 133.083C268.749 132.043 269.177 131.026 269.732 130.032C270.286 129.038 270.725 128.264 271.049 127.709C271.372 127.155 271.858 126.554 272.505 125.907C273.152 125.259 273.533 124.867 273.649 124.728C273.764 124.589 274.053 124.347 274.516 124H274.966H275.105C275.429 124 275.59 124.104 275.59 124.312C275.59 124.381 275.394 124.624 275.001 125.04C274.608 125.456 274.134 126.068 273.58 126.877C273.025 127.686 272.459 128.68 271.881 129.859C271.303 131.037 270.818 132.632 270.425 134.643C270.032 136.653 269.836 138.884 269.836 141.334C269.836 143.783 270.032 146.002 270.425 147.99C270.818 149.977 271.292 151.584 271.846 152.808C272.401 154.033 272.967 155.027 273.545 155.79C274.123 156.553 274.608 157.165 275.001 157.627C275.394 158.089 275.59 158.332 275.59 158.355C275.59 158.563 275.417 158.667 275.07 158.667H274.966H274.516L273.545 157.835C271.372 155.871 269.789 153.421 268.796 150.486C267.802 147.551 267.305 144.5 267.305 141.334Z" fill="black"/>
<path d="M280.444 141.784C280.444 141.784 280.444 141.634 280.444 141.334C280.444 141.033 280.606 140.802 280.929 140.64H301.071C301.418 140.825 301.591 141.056 301.591 141.334C301.591 141.611 301.418 141.842 301.071 142.027H280.929C280.606 141.865 280.444 141.634 280.444 141.334V141.784Z" fill="black"/>
<path d="M308.906 133.95C308.282 133.95 307.796 133.753 307.45 133.36C307.103 132.967 306.918 132.459 306.895 131.835C306.895 130.564 307.45 129.431 308.559 128.437C309.668 127.444 311.009 126.947 312.58 126.947C313.389 126.947 313.898 126.958 314.106 126.981C315.816 127.259 317.122 127.871 318.023 128.819C318.925 129.766 319.387 130.795 319.41 131.904C319.41 133.106 319.017 134.273 318.231 135.406C317.445 136.538 316.359 137.358 314.972 137.867L314.868 137.936C314.868 137.959 314.972 137.994 315.18 138.04C315.389 138.086 315.724 138.19 316.186 138.352C316.648 138.514 317.087 138.757 317.503 139.08C319.398 140.305 320.346 141.923 320.346 143.934C320.346 145.76 319.629 147.354 318.197 148.718C316.764 150.081 314.949 150.763 312.754 150.763C310.905 150.763 309.31 150.266 307.97 149.272C306.629 148.279 305.959 147.019 305.959 145.494C305.959 144.847 306.167 144.327 306.583 143.934C306.999 143.541 307.519 143.333 308.143 143.31C308.79 143.31 309.322 143.518 309.738 143.934C310.154 144.35 310.362 144.87 310.362 145.494C310.362 145.748 310.327 145.979 310.258 146.187C310.188 146.395 310.108 146.58 310.015 146.742C309.923 146.904 309.796 147.042 309.634 147.158C309.472 147.273 309.333 147.366 309.218 147.435C309.102 147.504 308.987 147.551 308.871 147.574C308.755 147.597 308.663 147.632 308.594 147.678L308.455 147.712C309.634 148.752 311.067 149.272 312.754 149.272C314.025 149.272 314.984 148.66 315.631 147.435C316.024 146.672 316.221 145.505 316.221 143.934V143.24C316.221 141.045 315.481 139.577 314.002 138.838C313.655 138.699 312.95 138.618 311.887 138.595L310.431 138.56L310.327 138.491C310.281 138.422 310.258 138.237 310.258 137.936C310.258 137.52 310.35 137.312 310.535 137.312C311.182 137.312 311.852 137.254 312.546 137.139C313.332 137.023 314.048 136.538 314.695 135.683C315.342 134.828 315.666 133.534 315.666 131.8V131.523C315.666 130.205 315.261 129.293 314.452 128.784C313.944 128.461 313.401 128.299 312.823 128.299C312.084 128.299 311.402 128.426 310.778 128.68C310.154 128.934 309.715 129.2 309.46 129.477C309.206 129.755 309.079 129.893 309.079 129.893H309.183C309.252 129.917 309.345 129.94 309.46 129.963C309.576 129.986 309.692 130.044 309.807 130.136C309.923 130.229 310.061 130.309 310.223 130.379C310.385 130.448 310.5 130.575 310.57 130.76C310.639 130.945 310.732 131.118 310.847 131.28C310.963 131.442 310.997 131.673 310.951 131.973C310.951 132.482 310.789 132.933 310.466 133.326C310.142 133.718 309.622 133.926 308.906 133.95Z" fill="black"/>
<path d="M324.541 147.92C324.541 147.366 324.737 146.88 325.13 146.464C325.523 146.048 326.02 145.84 326.621 145.84C327.175 145.84 327.661 146.025 328.077 146.395C328.493 146.765 328.712 147.262 328.736 147.886C328.736 148.463 328.539 148.96 328.146 149.376C327.753 149.792 327.256 150 326.655 150C326.055 150 325.558 149.804 325.165 149.411C324.772 149.018 324.564 148.521 324.541 147.92Z" fill="black"/>
<path d="M333.901 135.544C333.901 135.544 333.901 134.654 333.901 132.875C333.901 131.095 334.525 129.662 335.773 128.576C337.021 127.49 338.454 126.935 340.072 126.912C341.713 126.912 343.169 127.397 344.44 128.368C345.711 129.339 346.346 130.598 346.346 132.147C346.346 132.84 346.219 133.487 345.965 134.088C345.711 134.689 345.41 135.174 345.064 135.544C344.717 135.914 344.359 136.238 343.989 136.515C343.619 136.792 343.319 137 343.088 137.139C342.857 137.278 342.729 137.37 342.706 137.416L343.192 137.728C343.515 137.959 343.839 138.19 344.162 138.422C344.486 138.653 344.671 138.78 344.717 138.803C346.45 140.167 347.317 141.888 347.317 143.968C347.317 145.794 346.647 147.377 345.306 148.718C343.966 150.058 342.233 150.74 340.106 150.763C338.026 150.763 336.316 150.174 334.976 148.995C333.635 147.816 332.965 146.36 332.965 144.627C332.965 142.131 334.456 140.051 337.437 138.387L336.813 137.936C336.328 137.636 336.016 137.405 335.877 137.243C334.56 136.11 333.901 134.654 333.901 132.875V135.544ZM341.389 136.619L341.597 136.48C341.736 136.388 341.84 136.318 341.909 136.272C341.978 136.226 342.094 136.145 342.256 136.03C342.417 135.914 342.556 135.798 342.672 135.683C342.787 135.567 342.914 135.429 343.053 135.267C343.192 135.105 343.319 134.955 343.434 134.816C343.55 134.678 343.665 134.493 343.781 134.262C343.897 134.03 344.001 133.834 344.093 133.672C344.186 133.51 344.243 133.279 344.266 132.979C344.29 132.678 344.313 132.424 344.336 132.216C344.336 131.222 344.001 130.379 343.33 129.685C342.66 128.992 341.886 128.553 341.008 128.368C340.846 128.345 340.465 128.333 339.864 128.333C338.916 128.333 338.026 128.634 337.194 129.235C336.362 129.836 335.935 130.587 335.912 131.488C335.912 132.02 336.062 132.505 336.362 132.944C336.663 133.383 336.963 133.718 337.264 133.95C337.564 134.181 338.142 134.55 338.997 135.059C339.159 135.174 339.286 135.255 339.378 135.302L341.389 136.619ZM340.141 149.272C341.481 149.272 342.637 148.88 343.608 148.094C344.578 147.308 345.064 146.36 345.064 145.251C345.064 144.858 345.006 144.488 344.89 144.142C344.775 143.795 344.636 143.506 344.474 143.275C344.313 143.044 344.058 142.79 343.712 142.512C343.365 142.235 343.099 142.027 342.914 141.888C342.729 141.75 342.394 141.53 341.909 141.23C341.424 140.929 341.112 140.733 340.973 140.64C340.649 140.432 340.303 140.213 339.933 139.982C339.563 139.751 339.263 139.554 339.032 139.392L338.754 139.219C338.616 139.219 338.281 139.415 337.749 139.808C337.217 140.201 336.663 140.837 336.085 141.715C335.507 142.593 335.207 143.541 335.184 144.558C335.184 145.921 335.68 147.042 336.674 147.92C337.668 148.799 338.824 149.249 340.141 149.272Z" fill="black"/>
<path d="M350.888 124.035L351.026 124C351.142 124 351.258 124 351.373 124H351.789L352.76 124.832C354.932 126.796 356.515 129.246 357.509 132.181C358.503 135.117 359 138.167 359 141.334C359 142.905 358.884 144.419 358.653 145.875C358.422 147.331 358.156 148.567 357.856 149.584C357.556 150.601 357.128 151.618 356.573 152.635C356.019 153.652 355.579 154.426 355.256 154.958C354.932 155.489 354.459 156.079 353.835 156.726C353.211 157.373 352.841 157.754 352.725 157.87C352.61 157.985 352.344 158.205 351.928 158.529C351.858 158.598 351.812 158.644 351.789 158.667H351.373C351.188 158.667 351.061 158.667 350.992 158.667C350.922 158.667 350.865 158.633 350.818 158.563C350.772 158.494 350.738 158.39 350.714 158.251C350.738 158.228 350.865 158.078 351.096 157.801C354.678 154.08 356.469 148.591 356.469 141.334C356.469 134.077 354.678 128.588 351.096 124.867C350.865 124.589 350.738 124.439 350.714 124.416C350.714 124.231 350.772 124.104 350.888 124.035Z" fill="black"/>
</svg>
