<svg width="1010" height="536" viewBox="0 0 1010 536" fill="none" xmlns="http://www.w3.org/2000/svg">
<rect width="1010" height="536" fill="white"/>
<rect x="194.5" y="147.5" width="173" height="100" stroke="black" stroke-width="3"/>
<rect x="637.5" y="154.5" width="161" height="92" stroke="#FECECE" stroke-width="3"/>
<path d="M181.768 204.768C182.744 203.791 182.744 202.209 181.768 201.232L165.858 185.322C164.882 184.346 163.299 184.346 162.322 185.322C161.346 186.299 161.346 187.882 162.322 188.858L176.464 203L162.322 217.142C161.346 218.118 161.346 219.701 162.322 220.678C163.299 221.654 164.882 221.654 165.858 220.678L181.768 204.768ZM91 205.5L180 205.5L180 200.5L91 200.5L91 205.5Z" fill="black"/>
<path d="M469.768 201.768C470.744 200.791 470.744 199.209 469.768 198.232L453.858 182.322C452.882 181.346 451.299 181.346 450.322 182.322C449.346 183.299 449.346 184.882 450.322 185.858L464.464 200L450.322 214.142C449.346 215.118 449.346 216.701 450.322 217.678C451.299 218.654 452.882 218.654 453.858 217.678L469.768 201.768ZM380 202.5L468 202.5L468 197.5L380 197.5L380 202.5Z" fill="black"/>
<path d="M621.768 200.768C622.744 199.791 622.744 198.209 621.768 197.232L605.858 181.322C604.882 180.346 603.299 180.346 602.322 181.322C601.346 182.299 601.346 183.882 602.322 184.858L616.464 199L602.322 213.142C601.346 214.118 601.346 215.701 602.322 216.678C603.299 217.654 604.882 217.654 605.858 216.678L621.768 200.768ZM532 201.5H620V196.5H532V201.5Z" fill="black"/>
<path d="M906.768 202.768C907.744 201.791 907.744 200.209 906.768 199.232L890.858 183.322C889.882 182.346 888.299 182.346 887.322 183.322C886.346 184.299 886.346 185.882 887.322 186.858L901.464 201L887.322 215.142C886.346 216.118 886.346 217.701 887.322 218.678C888.299 219.654 889.882 219.654 890.858 218.678L906.768 202.768ZM813 203.5L905 203.5L905 198.5L813 198.5L813 203.5Z" fill="black"/>
<path d="M645 200.51C645 198.441 645.15 196.477 645.45 194.618C645.75 192.759 646.094 191.155 646.484 189.805C646.874 188.456 647.429 187.137 648.149 185.847C648.868 184.558 649.438 183.553 649.858 182.834C650.278 182.114 650.907 181.334 651.747 180.495C652.586 179.655 653.081 179.145 653.231 178.966C653.381 178.786 653.756 178.471 654.356 178.021H654.94H655.12C655.54 178.021 655.75 178.156 655.75 178.426C655.75 178.516 655.495 178.831 654.985 179.37C654.476 179.91 653.861 180.705 653.141 181.754C652.422 182.804 651.687 184.093 650.937 185.622C650.188 187.152 649.558 189.221 649.048 191.83C648.538 194.438 648.283 197.332 648.283 200.51C648.283 203.689 648.538 206.568 649.048 209.146C649.558 211.725 650.173 213.809 650.892 215.399C651.612 216.988 652.347 218.277 653.096 219.267C653.846 220.256 654.476 221.051 654.985 221.651C655.495 222.25 655.75 222.565 655.75 222.595C655.75 222.865 655.525 223 655.075 223H654.94H654.356L653.096 221.921C650.278 219.372 648.223 216.193 646.934 212.385C645.645 208.577 645 204.619 645 200.51Z" fill="black"/>
<path d="M659.438 198.846C659.438 198.426 659.663 197.707 660.113 196.687C660.563 195.668 661.282 194.603 662.272 193.494C663.261 192.384 664.371 191.845 665.6 191.875C666.83 191.875 667.819 192.219 668.569 192.909C669.319 193.599 669.708 194.558 669.738 195.788C669.678 196.357 669.633 196.672 669.603 196.732C669.603 196.822 669.364 197.512 668.884 198.801C668.404 200.091 667.909 201.545 667.4 203.164C666.89 204.784 666.65 206.073 666.68 207.032C666.68 208.322 666.89 209.221 667.31 209.731C667.729 210.241 668.359 210.511 669.199 210.541C669.888 210.541 670.533 210.376 671.133 210.046C671.732 209.716 672.197 209.371 672.527 209.012C672.857 208.652 673.262 208.157 673.742 207.527C673.742 207.497 673.817 207.197 673.966 206.628C674.116 206.058 674.326 205.173 674.596 203.974C674.866 202.774 675.151 201.665 675.451 200.645C676.59 196.148 677.22 193.794 677.34 193.584C677.73 192.774 678.374 192.369 679.274 192.369C679.664 192.369 679.979 192.474 680.219 192.684C680.458 192.894 680.623 193.074 680.713 193.224C680.803 193.374 680.833 193.509 680.803 193.629C680.803 194.019 680.069 197.167 678.599 203.074C677.13 208.982 676.29 212.22 676.08 212.79C675.241 215.279 673.787 217.258 671.718 218.727C669.648 220.196 667.579 220.946 665.51 220.976C664.161 220.976 662.977 220.646 661.957 219.986C660.938 219.327 660.428 218.337 660.428 217.018C660.428 216.358 660.533 215.803 660.743 215.354C660.953 214.904 661.237 214.574 661.597 214.364C661.957 214.154 662.257 214.004 662.497 213.914C662.737 213.824 662.992 213.779 663.261 213.779C664.581 213.779 665.241 214.409 665.241 215.668C665.241 216.268 665.061 216.793 664.701 217.243C664.341 217.692 663.996 217.992 663.666 218.142C663.336 218.292 663.142 218.367 663.082 218.367L662.947 218.412C663.007 218.562 663.291 218.742 663.801 218.952C664.311 219.162 664.821 219.267 665.33 219.267H665.69C666.2 219.267 666.59 219.237 666.86 219.177C667.849 218.907 668.764 218.337 669.603 217.468C670.443 216.598 671.088 215.668 671.538 214.679C671.987 213.689 672.332 212.85 672.572 212.16C672.812 211.47 672.932 211.021 672.932 210.811L672.662 210.991C672.482 211.111 672.197 211.275 671.807 211.485C671.418 211.695 671.028 211.875 670.638 212.025C670.038 212.175 669.454 212.25 668.884 212.25C667.504 212.25 666.29 211.92 665.241 211.26C664.191 210.601 663.501 209.536 663.171 208.067C663.142 207.857 663.127 207.392 663.127 206.673C663.127 204.963 663.651 202.729 664.701 199.971C665.75 197.212 666.275 195.458 666.275 194.708C666.275 194.678 666.275 194.648 666.275 194.618C666.275 194.348 666.275 194.168 666.275 194.078C666.275 193.989 666.215 193.884 666.095 193.764C665.975 193.644 665.81 193.584 665.6 193.584H665.42C664.731 193.584 664.101 193.869 663.531 194.438C662.962 195.008 662.512 195.623 662.182 196.282C661.852 196.942 661.597 197.572 661.417 198.172C661.237 198.771 661.117 199.101 661.057 199.161C660.998 199.221 660.758 199.251 660.338 199.251H659.708C659.528 199.071 659.438 198.936 659.438 198.846Z" fill="black"/>
<path d="M665.807 187.871L671.969 181.844L672.329 182.204C676.227 185.922 678.176 187.811 678.176 187.871L677.007 189.176C676.947 189.146 676.077 188.396 674.398 186.927L672.014 184.858L669.541 186.972C669.151 187.302 668.761 187.646 668.371 188.006C667.981 188.366 667.666 188.651 667.426 188.861L667.067 189.131C667.007 189.191 666.782 188.981 666.392 188.501L665.807 187.871Z" fill="black"/>
<path d="M697.032 201.095C697.032 201.095 697.032 200.9 697.032 200.511C697.032 200.121 697.242 199.821 697.661 199.611H723.794C724.244 199.851 724.469 200.151 724.469 200.511C724.469 200.87 724.244 201.17 723.794 201.41H697.661C697.242 201.2 697.032 200.9 697.032 200.511V201.095Z" fill="black"/>
<path d="M739.186 198.846C739.186 198.426 739.411 197.707 739.861 196.687C740.311 195.668 741.03 194.603 742.02 193.494C743.009 192.384 744.119 191.845 745.348 191.875C746.578 191.875 747.567 192.219 748.317 192.909C749.067 193.599 749.456 194.558 749.486 195.788C749.426 196.357 749.381 196.672 749.351 196.732C749.351 196.822 749.112 197.512 748.632 198.801C748.152 200.091 747.657 201.545 747.147 203.164C746.638 204.784 746.398 206.073 746.428 207.032C746.428 208.322 746.638 209.221 747.057 209.731C747.477 210.241 748.107 210.511 748.947 210.541C749.636 210.541 750.281 210.376 750.881 210.046C751.48 209.716 751.945 209.371 752.275 209.012C752.605 208.652 753.01 208.157 753.489 207.527C753.489 207.497 753.564 207.197 753.714 206.628C753.864 206.058 754.074 205.173 754.344 203.974C754.614 202.774 754.899 201.665 755.199 200.645C756.338 196.148 756.968 193.794 757.088 193.584C757.478 192.774 758.122 192.369 759.022 192.369C759.412 192.369 759.727 192.474 759.966 192.684C760.206 192.894 760.371 193.074 760.461 193.224C760.551 193.374 760.581 193.509 760.551 193.629C760.551 194.019 759.817 197.167 758.347 203.074C756.878 208.982 756.038 212.22 755.828 212.79C754.989 215.279 753.534 217.258 751.465 218.727C749.396 220.196 747.327 220.946 745.258 220.976C743.909 220.976 742.725 220.646 741.705 219.986C740.685 219.327 740.176 218.337 740.176 217.018C740.176 216.358 740.281 215.803 740.491 215.354C740.7 214.904 740.985 214.574 741.345 214.364C741.705 214.154 742.005 214.004 742.245 213.914C742.485 213.824 742.739 213.779 743.009 213.779C744.329 213.779 744.988 214.409 744.988 215.668C744.988 216.268 744.809 216.793 744.449 217.243C744.089 217.692 743.744 217.992 743.414 218.142C743.084 218.292 742.889 218.367 742.829 218.367L742.695 218.412C742.754 218.562 743.039 218.742 743.549 218.952C744.059 219.162 744.569 219.267 745.078 219.267H745.438C745.948 219.267 746.338 219.237 746.608 219.177C747.597 218.907 748.512 218.337 749.351 217.468C750.191 216.598 750.836 215.668 751.286 214.679C751.735 213.689 752.08 212.85 752.32 212.16C752.56 211.47 752.68 211.021 752.68 210.811L752.41 210.991C752.23 211.111 751.945 211.275 751.555 211.485C751.166 211.695 750.776 211.875 750.386 212.025C749.786 212.175 749.201 212.25 748.632 212.25C747.252 212.25 746.038 211.92 744.988 211.26C743.939 210.601 743.249 209.536 742.919 208.067C742.889 207.857 742.874 207.392 742.874 206.673C742.874 204.963 743.399 202.729 744.449 199.971C745.498 197.212 746.023 195.458 746.023 194.708C746.023 194.678 746.023 194.648 746.023 194.618C746.023 194.348 746.023 194.168 746.023 194.078C746.023 193.989 745.963 193.884 745.843 193.764C745.723 193.644 745.558 193.584 745.348 193.584H745.168C744.479 193.584 743.849 193.869 743.279 194.438C742.71 195.008 742.26 195.623 741.93 196.282C741.6 196.942 741.345 197.572 741.165 198.172C740.985 198.771 740.865 199.101 740.805 199.161C740.745 199.221 740.506 199.251 740.086 199.251H739.456C739.276 199.071 739.186 198.936 739.186 198.846Z" fill="black"/>
<path d="M762.98 178.066L763.16 178.021C763.31 178.021 763.46 178.021 763.61 178.021H764.15L765.409 179.1C768.228 181.649 770.282 184.828 771.571 188.636C772.861 192.444 773.505 196.402 773.505 200.51C773.505 202.55 773.355 204.514 773.055 206.403C772.756 208.292 772.411 209.896 772.021 211.215C771.631 212.535 771.076 213.854 770.357 215.174C769.637 216.493 769.067 217.498 768.648 218.187C768.228 218.877 767.613 219.642 766.803 220.481C765.994 221.321 765.514 221.816 765.364 221.965C765.214 222.115 764.869 222.4 764.33 222.82C764.24 222.91 764.18 222.97 764.15 223H763.61C763.37 223 763.205 223 763.115 223C763.025 223 762.95 222.955 762.89 222.865C762.83 222.775 762.785 222.64 762.755 222.46C762.785 222.43 762.95 222.235 763.25 221.876C767.898 217.048 770.222 209.926 770.222 200.51C770.222 191.095 767.898 183.973 763.25 179.145C762.95 178.786 762.785 178.591 762.755 178.561C762.755 178.321 762.83 178.156 762.98 178.066Z" fill="black"/>
<path d="M781.244 179.537C780.672 179.537 780.216 179.346 779.877 178.964C779.538 178.583 779.368 178.116 779.368 177.565C779.368 176.06 779.93 174.756 781.054 173.654C782.177 172.551 783.576 172 785.251 172C787.18 172 788.792 172.594 790.085 173.781C791.378 174.968 792.035 176.505 792.056 178.392C792.056 179.303 791.844 180.173 791.42 180.999C790.996 181.826 790.488 182.547 789.894 183.162C789.3 183.777 788.452 184.561 787.35 185.515C786.587 186.172 785.527 187.147 784.17 188.441L782.294 190.221L784.711 190.253C788.039 190.253 789.809 190.2 790.021 190.094C790.17 190.052 790.424 189.108 790.784 187.264V187.169H792.056V187.264C792.035 187.328 791.897 188.292 791.643 190.158C791.389 192.023 791.23 192.999 791.166 193.083V193.179H779.368V192.575V192.193C779.368 192.045 779.432 191.886 779.559 191.716C779.686 191.546 780.004 191.175 780.513 190.603C781.128 189.925 781.658 189.331 782.103 188.822C782.294 188.61 782.654 188.218 783.184 187.646C783.714 187.073 784.075 186.681 784.265 186.469C784.456 186.257 784.764 185.907 785.188 185.42C785.612 184.932 785.908 184.572 786.078 184.338C786.248 184.105 786.491 183.787 786.809 183.384C787.127 182.982 787.35 182.642 787.477 182.367C787.604 182.091 787.763 181.784 787.954 181.445C788.145 181.105 788.283 180.766 788.368 180.427C788.452 180.088 788.527 179.77 788.59 179.473C788.654 179.176 788.686 178.826 788.686 178.424C788.686 177.088 788.325 175.933 787.604 174.957C786.884 173.982 785.855 173.495 784.52 173.495C783.82 173.495 783.205 173.675 782.675 174.035C782.145 174.396 781.774 174.745 781.562 175.085C781.35 175.424 781.244 175.625 781.244 175.689C781.244 175.71 781.297 175.721 781.403 175.721C781.785 175.721 782.177 175.869 782.58 176.166C782.983 176.463 783.184 176.95 783.184 177.629C783.184 178.159 783.015 178.604 782.675 178.964C782.336 179.325 781.859 179.515 781.244 179.537Z" fill="black"/>
<path d="M483 192.838C483 192.151 483.368 190.972 484.105 189.303C484.841 187.634 486.019 185.891 487.64 184.074C489.26 182.258 491.076 181.374 493.089 181.423C495.102 181.423 496.723 181.988 497.95 183.117C499.177 184.246 499.816 185.817 499.865 187.83C499.767 188.763 499.693 189.278 499.644 189.377C499.644 189.524 499.251 190.653 498.466 192.764C497.68 194.875 496.87 197.257 496.035 199.908C495.201 202.559 494.808 204.67 494.857 206.241C494.857 208.353 495.201 209.826 495.888 210.66C496.575 211.495 497.606 211.937 498.981 211.986C500.11 211.986 501.166 211.716 502.148 211.176C503.13 210.636 503.891 210.071 504.431 209.482C504.971 208.893 505.634 208.083 506.419 207.052C506.419 207.002 506.542 206.511 506.787 205.579C507.033 204.646 507.377 203.197 507.819 201.234C508.26 199.27 508.727 197.453 509.218 195.784C511.083 188.419 512.115 184.565 512.311 184.221C512.949 182.896 514.005 182.233 515.478 182.233C516.116 182.233 516.631 182.405 517.024 182.749C517.417 183.092 517.687 183.387 517.834 183.632C517.982 183.878 518.031 184.099 517.982 184.295C517.982 184.933 516.779 190.089 514.373 199.761C511.967 209.433 510.592 214.735 510.249 215.668C508.874 219.743 506.493 222.984 503.105 225.389C499.718 227.795 496.33 229.022 492.942 229.072C490.733 229.072 488.793 228.531 487.124 227.451C485.455 226.371 484.62 224.751 484.62 222.591C484.62 221.511 484.792 220.602 485.136 219.866C485.479 219.129 485.946 218.589 486.535 218.246C487.124 217.902 487.615 217.656 488.008 217.509C488.401 217.362 488.818 217.288 489.26 217.288C491.42 217.288 492.5 218.319 492.5 220.381C492.5 221.363 492.206 222.223 491.617 222.959C491.027 223.695 490.463 224.186 489.923 224.432C489.383 224.677 489.063 224.8 488.965 224.8L488.744 224.874C488.843 225.119 489.309 225.414 490.144 225.757C490.978 226.101 491.813 226.273 492.648 226.273H493.237C494.071 226.273 494.71 226.224 495.151 226.126C496.772 225.684 498.269 224.751 499.644 223.327C501.019 221.903 502.074 220.381 502.811 218.761C503.547 217.141 504.112 215.766 504.504 214.637C504.897 213.508 505.094 212.771 505.094 212.428L504.652 212.722C504.357 212.919 503.891 213.189 503.252 213.532C502.614 213.876 501.976 214.171 501.338 214.416C500.356 214.662 499.398 214.784 498.466 214.784C496.207 214.784 494.219 214.244 492.5 213.164C490.782 212.084 489.653 210.341 489.113 207.935C489.063 207.592 489.039 206.831 489.039 205.652C489.039 202.854 489.898 199.196 491.617 194.679C493.335 190.162 494.194 187.29 494.194 186.063C494.194 186.013 494.194 185.964 494.194 185.915C494.194 185.473 494.194 185.179 494.194 185.032C494.194 184.884 494.096 184.712 493.9 184.516C493.703 184.32 493.433 184.221 493.089 184.221H492.795C491.666 184.221 490.635 184.688 489.702 185.621C488.769 186.554 488.032 187.56 487.492 188.64C486.952 189.72 486.535 190.751 486.24 191.733C485.946 192.715 485.749 193.255 485.651 193.353C485.553 193.452 485.16 193.501 484.473 193.501H483.442C483.147 193.206 483 192.985 483 192.838Z" fill="black"/>
<path d="M493.428 174.868L503.518 165L504.107 165.589C510.489 171.677 513.681 174.77 513.681 174.868L511.766 177.004C511.668 176.955 510.244 175.728 507.495 173.322L503.591 169.934L499.541 173.396C498.903 173.936 498.264 174.5 497.626 175.089C496.988 175.679 496.472 176.145 496.079 176.489L495.49 176.931C495.392 177.029 495.024 176.685 494.386 175.9L493.428 174.868Z" fill="black"/>
<path d="M921.768 211.114H922.44C923.687 211.114 924.439 210.89 924.695 210.442V210.058C924.695 209.77 924.695 209.402 924.695 208.954C924.695 208.506 924.695 207.978 924.695 207.371C924.695 206.763 924.711 206.075 924.743 205.307C924.775 204.539 924.775 203.739 924.743 202.907C924.711 202.076 924.711 201.196 924.743 200.268C924.775 199.34 924.775 198.428 924.743 197.533C924.743 196.349 924.743 195.101 924.743 193.789C924.743 192.478 924.743 191.278 924.743 190.19C924.743 189.102 924.743 188.142 924.743 187.311C924.743 186.479 924.727 185.775 924.695 185.199C924.663 184.623 924.663 184.351 924.695 184.383C924.599 183.775 924.375 183.375 924.023 183.183C923.671 182.991 922.952 182.847 921.864 182.751H921V181.648C921 180.912 921.032 180.544 921.096 180.544L921.576 180.496C921.896 180.464 922.36 180.432 922.968 180.4C923.575 180.368 924.167 180.336 924.743 180.304C925.287 180.272 925.879 180.24 926.519 180.208C927.159 180.176 927.639 180.128 927.959 180.064C928.279 180 928.455 179.984 928.487 180.016H928.63V195.133C928.63 205.275 928.646 210.378 928.678 210.442C928.806 210.698 928.998 210.874 929.254 210.97C929.926 211.066 930.71 211.114 931.606 211.114H932.374V213.321H931.99L930.886 213.273C930.15 213.241 929.366 213.225 928.534 213.225C927.703 213.225 927.095 213.209 926.711 213.177C926.327 213.145 925.719 213.145 924.887 213.177C924.055 213.209 923.256 213.241 922.488 213.273L921.384 213.321H921V211.114H921.768Z" fill="black"/>
<path d="M934.437 203.051C934.437 200.012 935.477 197.389 937.557 195.181C939.636 192.973 942.148 191.854 945.091 191.822C947.971 191.822 950.45 192.909 952.53 195.085C954.609 197.261 955.665 199.9 955.697 203.003C955.697 206.043 954.673 208.602 952.626 210.682C950.578 212.761 948.067 213.801 945.091 213.801C941.988 213.801 939.444 212.729 937.461 210.586C935.477 208.442 934.469 205.931 934.437 203.051ZM945.091 211.882C948.994 211.882 950.946 209.274 950.946 204.059V202.524V201.324C950.946 200.62 950.93 200.012 950.898 199.5C950.866 198.988 950.754 198.38 950.562 197.676C950.37 196.973 950.114 196.397 949.794 195.949C949.474 195.501 948.978 195.053 948.306 194.605C947.635 194.157 946.851 193.837 945.955 193.645C945.795 193.613 945.539 193.597 945.187 193.597C944.227 193.597 943.315 193.789 942.452 194.173C941.076 194.877 940.18 195.853 939.764 197.101C939.348 198.348 939.14 199.82 939.14 201.516V202.476C939.14 205.547 939.444 207.706 940.052 208.954C941.076 210.906 942.756 211.882 945.091 211.882Z" fill="black"/>
<path d="M971.246 198.156C971.246 196.877 970.814 195.773 969.95 194.845C969.086 193.917 967.839 193.453 966.207 193.453C965.055 193.453 964.063 193.661 963.232 194.077C962.272 194.685 961.792 195.517 961.792 196.573C961.76 196.733 961.76 196.941 961.792 197.197C961.824 197.453 962.08 197.836 962.56 198.348C963.04 198.86 963.727 199.26 964.623 199.548C965.199 199.708 965.903 199.852 966.735 199.98C967.567 200.108 968.271 200.252 968.846 200.412C969.422 200.572 969.934 200.78 970.382 201.036C970.926 201.292 971.454 201.612 971.966 201.996C972.478 202.38 972.99 203.035 973.502 203.963C974.013 204.891 974.285 205.883 974.317 206.939C974.317 208.922 973.709 210.554 972.494 211.834C971.278 213.113 969.31 213.769 966.591 213.801H966.207C964.543 213.801 963.008 213.225 961.6 212.074L961.216 212.41L960.784 212.841C960.592 213.033 960.4 213.209 960.208 213.369L959.68 213.849H959.296H959.104C959.008 213.849 958.864 213.753 958.672 213.561V209.77V206.987C958.672 206.315 958.704 205.915 958.768 205.787C958.832 205.659 958.992 205.579 959.248 205.547H959.68C960.064 205.547 960.32 205.611 960.448 205.739C960.576 205.867 960.656 206.059 960.688 206.315C960.72 206.571 960.832 207.003 961.024 207.61C961.216 208.218 961.52 208.89 961.936 209.626C963.056 211.258 964.607 212.074 966.591 212.074C969.694 212.074 971.246 210.826 971.246 208.33C971.246 207.403 970.958 206.651 970.382 206.075C969.742 205.307 968.415 204.731 966.399 204.347C964.383 203.963 963.056 203.595 962.416 203.243C961.264 202.699 960.352 201.964 959.68 201.036C959.008 200.108 958.672 199.116 958.672 198.06C958.672 196.813 958.944 195.757 959.488 194.893C960.032 194.029 960.72 193.389 961.552 192.973C962.384 192.557 963.184 192.27 963.951 192.11C964.719 191.95 965.423 191.87 966.063 191.87H966.591C967.871 191.87 968.99 192.11 969.95 192.589L970.67 192.973L971.102 192.637C971.422 192.35 971.774 192.078 972.158 191.822H972.542H972.734C972.83 191.822 972.974 191.918 973.166 192.11V198.444L972.878 198.732H971.534C971.342 198.54 971.246 198.348 971.246 198.156Z" fill="black"/>
<path d="M990.154 198.156C990.154 196.877 989.722 195.773 988.858 194.845C987.995 193.917 986.747 193.453 985.115 193.453C983.963 193.453 982.972 193.661 982.14 194.077C981.18 194.685 980.7 195.517 980.7 196.573C980.668 196.733 980.668 196.941 980.7 197.197C980.732 197.453 980.988 197.836 981.468 198.348C981.948 198.86 982.636 199.26 983.531 199.548C984.107 199.708 984.811 199.852 985.643 199.98C986.475 200.108 987.179 200.252 987.755 200.412C988.331 200.572 988.842 200.78 989.29 201.036C989.834 201.292 990.362 201.612 990.874 201.996C991.386 202.38 991.898 203.035 992.41 203.963C992.922 204.891 993.194 205.883 993.226 206.939C993.226 208.922 992.618 210.554 991.402 211.834C990.186 213.113 988.219 213.769 985.499 213.801H985.115C983.452 213.801 981.916 213.225 980.508 212.074L980.124 212.41L979.692 212.841C979.5 213.033 979.308 213.209 979.116 213.369L978.588 213.849H978.205H978.013C977.917 213.849 977.773 213.753 977.581 213.561V209.77V206.987C977.581 206.315 977.613 205.915 977.677 205.787C977.741 205.659 977.901 205.579 978.157 205.547H978.588C978.972 205.547 979.228 205.611 979.356 205.739C979.484 205.867 979.564 206.059 979.596 206.315C979.628 206.571 979.74 207.003 979.932 207.61C980.124 208.218 980.428 208.89 980.844 209.626C981.964 211.258 983.516 212.074 985.499 212.074C988.602 212.074 990.154 210.826 990.154 208.33C990.154 207.403 989.866 206.651 989.29 206.075C988.65 205.307 987.323 204.731 985.307 204.347C983.292 203.963 981.964 203.595 981.324 203.243C980.172 202.699 979.26 201.964 978.588 201.036C977.917 200.108 977.581 199.116 977.581 198.06C977.581 196.813 977.853 195.757 978.397 194.893C978.94 194.029 979.628 193.389 980.46 192.973C981.292 192.557 982.092 192.27 982.86 192.11C983.627 191.95 984.331 191.87 984.971 191.87H985.499C986.779 191.87 987.899 192.11 988.858 192.589L989.578 192.973L990.01 192.637C990.33 192.35 990.682 192.078 991.066 191.822H991.45H991.642C991.738 191.822 991.882 191.918 992.074 192.11V198.444L991.786 198.732H990.442C990.25 198.54 990.154 198.348 990.154 198.156Z" fill="black"/>
<path d="M23.7652 195.887C24.2497 192.979 26.1188 189.622 29.3722 185.815C32.6257 182.007 36.6406 180.069 41.417 180C43.8398 180 46.055 180.623 48.0624 181.869C50.0699 183.115 51.5582 184.673 52.5273 186.542C55.4347 182.181 58.9304 180 63.0146 180C65.5758 180 67.791 180.761 69.66 182.284C71.529 183.807 72.4981 185.849 72.5673 188.411C72.5673 190.418 72.0828 192.045 71.1137 193.291C70.1445 194.537 69.21 195.298 68.3101 195.575C67.4102 195.852 66.6142 195.991 65.9219 195.991C64.6067 195.991 63.5338 195.61 62.7031 194.848C61.8724 194.087 61.4571 193.083 61.4571 191.837C61.4571 188.653 63.1876 186.472 66.6488 185.296C65.8873 184.396 64.5029 183.946 62.4954 183.946C61.5955 183.946 60.9379 184.015 60.5226 184.153C57.8921 185.261 55.9538 187.545 54.7078 191.006C50.5545 206.305 48.4778 215.234 48.4778 217.796C48.4778 219.734 49.0315 221.118 50.1391 221.949C51.2467 222.78 52.4581 223.195 53.7733 223.195C56.3346 223.195 58.8612 222.053 61.3532 219.769C63.8453 217.484 65.5412 214.681 66.4411 211.358C66.6488 210.666 66.8565 210.285 67.0641 210.216C67.2718 210.147 67.8256 210.077 68.7255 210.008H69.1408C70.1792 210.008 70.6983 210.285 70.6983 210.839C70.6983 210.908 70.6291 211.289 70.4907 211.981C69.3831 215.927 67.2372 219.422 64.0529 222.468C60.8687 225.514 57.1652 227.037 52.9426 227.037C48.097 227.037 44.4282 224.856 41.9362 220.495C39.0981 224.787 35.8446 226.933 32.1758 226.933H31.5528C28.1608 226.933 25.738 226.033 24.2844 224.233C22.8307 222.434 22.0692 220.53 22 218.523C22 216.307 22.6576 214.508 23.9729 213.123C25.2881 211.739 26.8456 211.046 28.6454 211.046C31.622 211.046 33.1103 212.5 33.1103 215.408C33.1103 216.792 32.6949 218.003 31.8643 219.042C31.0336 220.08 30.2375 220.772 29.4761 221.118C28.7146 221.465 28.2647 221.638 28.1262 221.638L27.8147 221.741C27.8147 221.811 28.0224 221.949 28.4377 222.157C28.8531 222.364 29.4069 222.607 30.0991 222.884C30.7913 223.161 31.4489 223.264 32.0719 223.195C34.564 223.195 36.7099 221.638 38.5097 218.523C39.1327 217.415 39.9287 215.061 40.8979 211.462C41.867 207.862 42.8361 204.124 43.8052 200.248C44.7743 196.371 45.3281 194.087 45.4666 193.395C45.8127 191.526 45.9857 190.176 45.9857 189.345C45.9857 187.407 45.4666 186.022 44.4282 185.192C43.3899 184.361 42.2131 183.946 40.8979 183.946C38.1289 183.946 35.5331 185.053 33.1103 187.268C30.6875 189.484 28.9915 192.322 28.0224 195.783C27.8839 196.406 27.7109 196.752 27.5032 196.821C27.2956 196.89 26.7418 196.96 25.8419 197.029H24.3882C23.9729 196.614 23.7652 196.233 23.7652 195.887Z" fill="black"/>
<path d="M233.814 191.928C233.814 191.206 234.141 190.536 234.794 189.918C235.447 189.299 236.168 188.973 236.959 188.938C237.577 188.938 238.144 189.247 238.66 189.866C239.175 190.485 239.45 191.464 239.485 192.804C239.485 193.801 239.158 195.777 238.505 198.732C237.99 200.656 237.526 202.237 237.113 203.474C236.701 204.711 236.1 206.103 235.309 207.649C234.519 209.196 233.574 210.364 232.474 211.155C231.375 211.945 230.137 212.34 228.763 212.34C227.251 212.34 225.911 212.065 224.742 211.515C223.574 210.966 222.732 210.227 222.216 209.299C222.182 209.333 222.131 209.402 222.062 209.505C220.653 211.395 218.935 212.34 216.907 212.34C216.014 212.34 215.155 212.237 214.33 212.031C213.505 211.825 212.698 211.498 211.907 211.052C211.117 210.605 210.481 209.935 210 209.041C209.519 208.148 209.278 207.065 209.278 205.794C209.278 203.938 209.863 201.43 211.031 198.268C212.199 195.107 212.801 193.096 212.835 192.237C212.835 192.203 212.835 192.168 212.835 192.134C212.835 191.825 212.835 191.619 212.835 191.515C212.835 191.412 212.766 191.292 212.629 191.155C212.491 191.017 212.302 190.948 212.062 190.948H211.856C211.065 190.948 210.344 191.275 209.691 191.928C209.038 192.581 208.522 193.285 208.144 194.041C207.766 194.797 207.474 195.519 207.268 196.206C207.062 196.893 206.924 197.271 206.856 197.34C206.787 197.409 206.512 197.443 206.031 197.443H205.309C205.103 197.237 205 197.082 205 196.979C205 196.773 205.137 196.292 205.412 195.536C205.687 194.78 206.082 193.904 206.598 192.907C207.113 191.911 207.869 191.017 208.866 190.227C209.863 189.436 210.979 189.041 212.216 189.041C213.694 189.041 214.828 189.471 215.619 190.33C216.409 191.189 216.804 192.186 216.804 193.32C216.804 193.938 216.237 195.794 215.103 198.887C213.969 201.979 213.402 204.368 213.402 206.052C213.402 207.632 213.763 208.749 214.485 209.402C215.206 210.055 216.117 210.399 217.216 210.433C218.694 210.433 220 209.385 221.134 207.289L221.392 206.825V205.639C221.392 205.536 221.392 205.381 221.392 205.175C221.392 204.969 221.409 204.832 221.443 204.763C221.478 204.694 221.495 204.574 221.495 204.402C221.495 204.23 221.512 204.076 221.546 203.938C221.581 203.801 221.632 203.577 221.701 203.268C221.77 202.959 221.821 202.667 221.856 202.392C221.89 202.117 221.993 201.704 222.165 201.155C222.337 200.605 222.474 200.055 222.577 199.505C222.68 198.955 222.869 198.217 223.144 197.289C224.141 193.371 224.708 191.258 224.845 190.948C225.292 190.021 226.031 189.557 227.062 189.557C227.715 189.557 228.162 189.729 228.402 190.072C228.643 190.416 228.78 190.742 228.814 191.052C228.814 191.498 228.316 193.698 227.32 197.649C226.323 201.601 225.773 203.869 225.67 204.454C225.601 204.832 225.567 205.433 225.567 206.258V206.619C225.567 207.134 225.619 207.632 225.722 208.113C225.825 208.595 226.151 209.093 226.701 209.608C227.251 210.124 228.024 210.399 229.021 210.433C231.46 210.433 233.402 208.337 234.845 204.144C235.155 203.354 235.498 202.237 235.876 200.794C236.254 199.351 236.46 198.32 236.495 197.701C236.495 196.567 236.271 195.674 235.825 195.021C235.378 194.368 234.931 193.818 234.485 193.371C234.038 192.924 233.814 192.443 233.814 191.928Z" fill="black"/>
<path d="M243.505 196.876C243.746 195.433 244.674 193.766 246.289 191.876C247.904 189.986 249.897 189.024 252.268 188.99C253.471 188.99 254.57 189.299 255.567 189.918C256.564 190.536 257.302 191.309 257.783 192.237C259.227 190.072 260.962 188.99 262.99 188.99C264.261 188.99 265.361 189.368 266.289 190.124C267.216 190.88 267.698 191.893 267.732 193.165C267.732 194.162 267.491 194.969 267.01 195.588C266.529 196.206 266.065 196.584 265.619 196.722C265.172 196.859 264.777 196.928 264.433 196.928C263.78 196.928 263.247 196.739 262.835 196.361C262.423 195.983 262.216 195.485 262.216 194.866C262.216 193.285 263.076 192.203 264.794 191.619C264.416 191.172 263.728 190.948 262.732 190.948C262.285 190.948 261.959 190.983 261.753 191.052C260.447 191.601 259.485 192.735 258.866 194.454C256.804 202.048 255.773 206.481 255.773 207.753C255.773 208.715 256.048 209.402 256.598 209.814C257.148 210.227 257.749 210.433 258.402 210.433C259.674 210.433 260.928 209.866 262.165 208.732C263.402 207.598 264.244 206.206 264.691 204.557C264.794 204.213 264.897 204.024 265 203.99C265.103 203.955 265.378 203.921 265.825 203.887H266.031C266.546 203.887 266.804 204.024 266.804 204.299C266.804 204.333 266.77 204.522 266.701 204.866C266.151 206.825 265.086 208.56 263.505 210.072C261.924 211.584 260.086 212.34 257.99 212.34C255.584 212.34 253.763 211.258 252.526 209.093C251.117 211.223 249.502 212.289 247.68 212.289H247.371C245.687 212.289 244.485 211.842 243.763 210.948C243.041 210.055 242.663 209.11 242.629 208.113C242.629 207.014 242.955 206.12 243.608 205.433C244.261 204.746 245.034 204.402 245.928 204.402C247.405 204.402 248.144 205.124 248.144 206.567C248.144 207.254 247.938 207.856 247.526 208.371C247.113 208.887 246.718 209.23 246.34 209.402C245.962 209.574 245.739 209.66 245.67 209.66L245.515 209.711C245.515 209.746 245.619 209.814 245.825 209.918C246.031 210.021 246.306 210.141 246.649 210.278C246.993 210.416 247.32 210.467 247.629 210.433C248.866 210.433 249.931 209.66 250.825 208.113C251.134 207.564 251.529 206.395 252.01 204.608C252.491 202.821 252.972 200.966 253.454 199.041C253.935 197.117 254.21 195.983 254.278 195.639C254.45 194.711 254.536 194.041 254.536 193.629C254.536 192.667 254.278 191.979 253.763 191.567C253.247 191.155 252.663 190.948 252.01 190.948C250.636 190.948 249.347 191.498 248.144 192.598C246.942 193.698 246.1 195.107 245.619 196.825C245.55 197.134 245.464 197.306 245.361 197.34C245.258 197.375 244.983 197.409 244.536 197.443H243.814C243.608 197.237 243.505 197.048 243.505 196.876Z" fill="black"/>
<path d="M284.65 199.557C284.65 199.557 284.65 199.333 284.65 198.887C284.65 198.44 284.89 198.096 285.371 197.856H300.784V190.124L300.835 182.392C301.179 181.945 301.505 181.722 301.814 181.722C302.261 181.722 302.605 181.979 302.845 182.495V197.856H318.206C318.722 198.131 318.979 198.474 318.979 198.887C318.979 199.299 318.722 199.643 318.206 199.918H302.845V215.278C302.57 215.759 302.261 216 301.918 216H301.814H301.711C301.299 216 300.99 215.759 300.784 215.278V199.918H285.371C284.89 199.677 284.65 199.333 284.65 198.887V199.557Z" fill="black"/>
<path d="M337.083 178.423C337.083 178.079 337.151 177.684 337.289 177.237C337.426 176.79 337.632 176.567 337.907 176.567C337.942 176.567 339.179 176.481 341.619 176.309C344.058 176.137 345.313 176.034 345.381 176C345.794 176 346 176.155 346 176.464C346 176.773 345.416 179.23 344.247 183.835C343.973 185.003 343.68 186.206 343.371 187.443C343.062 188.68 342.804 189.608 342.598 190.227L342.392 191.206C342.392 191.309 342.495 191.258 342.701 191.052C344.385 189.677 346.12 188.99 347.907 188.99C350.038 188.99 351.756 189.78 353.062 191.361C354.368 192.942 355.038 194.935 355.072 197.34C355.072 201.155 353.715 204.608 351 207.701C348.285 210.794 345.364 212.34 342.237 212.34C340.519 212.34 338.955 211.687 337.546 210.381C336.137 209.076 335.416 206.962 335.381 204.041V203.577C335.381 202.856 335.519 201.859 335.794 200.588C336.069 199.316 336.911 195.931 338.32 190.433C340.038 183.663 340.897 180.072 340.897 179.66C340.897 179.247 340.244 179.007 338.938 178.938C338.766 178.938 338.629 178.938 338.526 178.938H338.268C337.924 178.938 337.701 178.938 337.598 178.938C337.495 178.938 337.375 178.887 337.237 178.784C337.1 178.68 337.048 178.56 337.083 178.423ZM350.639 195.021V194.711C350.639 192.168 349.591 190.897 347.495 190.897C346.911 190.897 346.309 191.034 345.691 191.309C345.072 191.584 344.505 191.945 343.99 192.392C343.474 192.838 343.028 193.251 342.65 193.629C342.272 194.007 341.962 194.385 341.722 194.763L341.412 195.175L340.33 199.608C339.574 202.564 339.196 204.66 339.196 205.897C339.196 207.546 339.608 208.784 340.433 209.608C340.983 210.158 341.67 210.433 342.495 210.433C343.629 210.433 344.78 209.883 345.948 208.784C346.808 207.993 347.495 207.031 348.01 205.897C348.526 204.763 349.093 202.959 349.711 200.485C350.33 198.01 350.639 196.189 350.639 195.021Z" fill="black"/>
</svg>
