<svg width="481" height="94" viewBox="0 0 481 94" fill="none" xmlns="http://www.w3.org/2000/svg">
<path d="M163.179 16.8232H160.173V22H158.477V9.20312H162.713C164.154 9.20312 165.262 9.53125 166.035 10.1875C166.814 10.8438 167.204 11.7988 167.204 13.0527C167.204 13.8496 166.987 14.5439 166.554 15.1357C166.126 15.7275 165.528 16.1699 164.761 16.4629L167.767 21.8945V22H165.956L163.179 16.8232ZM160.173 15.4434H162.766C163.604 15.4434 164.269 15.2266 164.761 14.793C165.259 14.3594 165.508 13.7793 165.508 13.0527C165.508 12.2617 165.271 11.6553 164.796 11.2334C164.327 10.8115 163.647 10.5977 162.757 10.5918H160.173V15.4434ZM173.269 22.1758C171.979 22.1758 170.931 21.7539 170.122 20.9102C169.313 20.0605 168.909 18.9268 168.909 17.5088V17.21C168.909 16.2666 169.088 15.4258 169.445 14.6875C169.809 13.9434 170.312 13.3633 170.957 12.9473C171.607 12.5254 172.311 12.3145 173.066 12.3145C174.303 12.3145 175.264 12.7217 175.949 13.5361C176.635 14.3506 176.978 15.5166 176.978 17.0342V17.7109H170.535C170.559 18.6484 170.831 19.4072 171.353 19.9873C171.88 20.5615 172.548 20.8486 173.356 20.8486C173.931 20.8486 174.417 20.7314 174.815 20.4971C175.214 20.2627 175.562 19.9521 175.861 19.5654L176.854 20.3389C176.058 21.5635 174.862 22.1758 173.269 22.1758ZM173.066 13.6504C172.41 13.6504 171.859 13.8906 171.414 14.3711C170.969 14.8457 170.693 15.5137 170.588 16.375H175.352V16.252C175.305 15.4258 175.082 14.7871 174.684 14.3359C174.285 13.8789 173.746 13.6504 173.066 13.6504ZM180.818 20.6201H186.883V22H179.122V9.20312H180.818V20.6201ZM197.342 9.20312V17.9043C197.336 19.1113 196.955 20.0986 196.199 20.8662C195.449 21.6338 194.43 22.0645 193.141 22.1582L192.692 22.1758C191.292 22.1758 190.176 21.7979 189.344 21.042C188.512 20.2861 188.09 19.2461 188.078 17.9219V9.20312H189.748V17.8691C189.748 18.7949 190.003 19.5156 190.513 20.0312C191.022 20.541 191.749 20.7959 192.692 20.7959C193.647 20.7959 194.377 20.541 194.881 20.0312C195.391 19.5215 195.646 18.8037 195.646 17.8779V9.20312H197.342ZM214.305 22H212.608L206.166 12.1387V22H204.47V9.20312H206.166L212.626 19.1084V9.20312H214.305V22ZM220.993 22.1758C219.704 22.1758 218.655 21.7539 217.847 20.9102C217.038 20.0605 216.634 18.9268 216.634 17.5088V17.21C216.634 16.2666 216.812 15.4258 217.17 14.6875C217.533 13.9434 218.037 13.3633 218.682 12.9473C219.332 12.5254 220.035 12.3145 220.791 12.3145C222.027 12.3145 222.988 12.7217 223.674 13.5361C224.359 14.3506 224.702 15.5166 224.702 17.0342V17.7109H218.26C218.283 18.6484 218.556 19.4072 219.077 19.9873C219.604 20.5615 220.272 20.8486 221.081 20.8486C221.655 20.8486 222.142 20.7314 222.54 20.4971C222.938 20.2627 223.287 19.9521 223.586 19.5654L224.579 20.3389C223.782 21.5635 222.587 22.1758 220.993 22.1758ZM220.791 13.6504C220.135 13.6504 219.584 13.8906 219.139 14.3711C218.693 14.8457 218.418 15.5137 218.312 16.375H223.076V16.252C223.029 15.4258 222.807 14.7871 222.408 14.3359C222.01 13.8789 221.471 13.6504 220.791 13.6504ZM232.463 21.0596C231.83 21.8037 230.901 22.1758 229.677 22.1758C228.663 22.1758 227.89 21.8828 227.356 21.2969C226.829 20.7051 226.562 19.832 226.557 18.6777V12.4902H228.183V18.6338C228.183 20.0752 228.769 20.7959 229.94 20.7959C231.183 20.7959 232.009 20.333 232.419 19.4072V12.4902H234.045V22H232.498L232.463 21.0596ZM241.12 13.9492C240.874 13.9082 240.607 13.8877 240.32 13.8877C239.254 13.8877 238.53 14.3418 238.149 15.25V22H236.523V12.4902H238.105L238.132 13.5889C238.665 12.7393 239.421 12.3145 240.399 12.3145C240.716 12.3145 240.956 12.3555 241.12 12.4375V13.9492ZM242.017 17.1572C242.017 16.2256 242.198 15.3877 242.562 14.6436C242.931 13.8994 243.44 13.3252 244.091 12.9209C244.747 12.5166 245.494 12.3145 246.332 12.3145C247.627 12.3145 248.673 12.7627 249.47 13.6592C250.272 14.5557 250.674 15.748 250.674 17.2363V17.3506C250.674 18.2764 250.495 19.1084 250.138 19.8467C249.786 20.5791 249.279 21.1504 248.617 21.5605C247.961 21.9707 247.205 22.1758 246.35 22.1758C245.061 22.1758 244.015 21.7275 243.212 20.8311C242.415 19.9346 242.017 18.748 242.017 17.2715V17.1572ZM243.651 17.3506C243.651 18.4053 243.895 19.252 244.381 19.8906C244.873 20.5293 245.529 20.8486 246.35 20.8486C247.176 20.8486 247.832 20.5264 248.318 19.8818C248.805 19.2314 249.048 18.3232 249.048 17.1572C249.048 16.1143 248.799 15.2705 248.301 14.626C247.809 13.9756 247.152 13.6504 246.332 13.6504C245.529 13.6504 244.882 13.9697 244.39 14.6084C243.897 15.2471 243.651 16.1611 243.651 17.3506ZM254.251 12.4902L254.304 13.6855C255.03 12.7715 255.979 12.3145 257.151 12.3145C259.161 12.3145 260.175 13.4482 260.192 15.7158V22H258.566V15.707C258.561 15.0215 258.402 14.5146 258.092 14.1865C257.787 13.8584 257.31 13.6943 256.659 13.6943C256.132 13.6943 255.669 13.835 255.271 14.1162C254.872 14.3975 254.562 14.7666 254.339 15.2236V22H252.713V12.4902H254.251Z" fill="black"/>
<path d="M319.182 22.6201H325.246V24H317.485V11.2031H319.182V22.6201ZM328.683 24H327.057V14.4902H328.683V24ZM326.925 11.9678C326.925 11.7041 327.004 11.4814 327.162 11.2998C327.326 11.1182 327.566 11.0273 327.883 11.0273C328.199 11.0273 328.439 11.1182 328.604 11.2998C328.768 11.4814 328.85 11.7041 328.85 11.9678C328.85 12.2314 328.768 12.4512 328.604 12.627C328.439 12.8027 328.199 12.8906 327.883 12.8906C327.566 12.8906 327.326 12.8027 327.162 12.627C327.004 12.4512 326.925 12.2314 326.925 11.9678ZM332.831 14.4902L332.884 15.6855C333.61 14.7715 334.56 14.3145 335.731 14.3145C337.741 14.3145 338.755 15.4482 338.772 17.7158V24H337.146V17.707C337.141 17.0215 336.982 16.5146 336.672 16.1865C336.367 15.8584 335.89 15.6943 335.239 15.6943C334.712 15.6943 334.249 15.835 333.851 16.1162C333.452 16.3975 333.142 16.7666 332.919 17.2236V24H331.293V14.4902H332.831ZM345.171 24.1758C343.882 24.1758 342.833 23.7539 342.024 22.9102C341.216 22.0605 340.812 20.9268 340.812 19.5088V19.21C340.812 18.2666 340.99 17.4258 341.348 16.6875C341.711 15.9434 342.215 15.3633 342.859 14.9473C343.51 14.5254 344.213 14.3145 344.969 14.3145C346.205 14.3145 347.166 14.7217 347.852 15.5361C348.537 16.3506 348.88 17.5166 348.88 19.0342V19.7109H342.438C342.461 20.6484 342.733 21.4072 343.255 21.9873C343.782 22.5615 344.45 22.8486 345.259 22.8486C345.833 22.8486 346.319 22.7314 346.718 22.4971C347.116 22.2627 347.465 21.9521 347.764 21.5654L348.757 22.3389C347.96 23.5635 346.765 24.1758 345.171 24.1758ZM344.969 15.6504C344.312 15.6504 343.762 15.8906 343.316 16.3711C342.871 16.8457 342.596 17.5137 342.49 18.375H347.254V18.252C347.207 17.4258 346.984 16.7871 346.586 16.3359C346.188 15.8789 345.648 15.6504 344.969 15.6504ZM356.641 24C356.547 23.8125 356.471 23.4785 356.412 22.998C355.656 23.7832 354.754 24.1758 353.705 24.1758C352.768 24.1758 351.997 23.9121 351.394 23.3848C350.796 22.8516 350.497 22.1777 350.497 21.3633C350.497 20.373 350.872 19.6055 351.622 19.0605C352.378 18.5098 353.438 18.2344 354.804 18.2344H356.386V17.4873C356.386 16.9189 356.216 16.4678 355.876 16.1338C355.536 15.7939 355.035 15.624 354.373 15.624C353.793 15.624 353.307 15.7705 352.914 16.0635C352.521 16.3564 352.325 16.7109 352.325 17.127H350.69C350.69 16.6523 350.857 16.1953 351.191 15.7559C351.531 15.3105 351.988 14.959 352.562 14.7012C353.143 14.4434 353.778 14.3145 354.47 14.3145C355.565 14.3145 356.424 14.5898 357.045 15.1406C357.666 15.6855 357.988 16.4385 358.012 17.3994V21.7764C358.012 22.6494 358.123 23.3438 358.346 23.8594V24H356.641ZM353.942 22.7607C354.452 22.7607 354.936 22.6289 355.393 22.3652C355.85 22.1016 356.181 21.7588 356.386 21.3369V19.3857H355.111C353.119 19.3857 352.123 19.9688 352.123 21.1348C352.123 21.6445 352.293 22.043 352.633 22.3301C352.973 22.6172 353.409 22.7607 353.942 22.7607ZM365.157 15.9492C364.911 15.9082 364.645 15.8877 364.357 15.8877C363.291 15.8877 362.567 16.3418 362.187 17.25V24H360.561V14.4902H362.143L362.169 15.5889C362.702 14.7393 363.458 14.3145 364.437 14.3145C364.753 14.3145 364.993 14.3555 365.157 14.4375V15.9492ZM381.215 24H379.519L373.076 14.1387V24H371.38V11.2031H373.076L379.536 21.1084V11.2031H381.215V24ZM387.903 24.1758C386.614 24.1758 385.565 23.7539 384.757 22.9102C383.948 22.0605 383.544 20.9268 383.544 19.5088V19.21C383.544 18.2666 383.723 17.4258 384.08 16.6875C384.443 15.9434 384.947 15.3633 385.592 14.9473C386.242 14.5254 386.945 14.3145 387.701 14.3145C388.938 14.3145 389.898 14.7217 390.584 15.5361C391.27 16.3506 391.612 17.5166 391.612 19.0342V19.7109H385.17C385.193 20.6484 385.466 21.4072 385.987 21.9873C386.515 22.5615 387.183 22.8486 387.991 22.8486C388.565 22.8486 389.052 22.7314 389.45 22.4971C389.849 22.2627 390.197 21.9521 390.496 21.5654L391.489 22.3389C390.692 23.5635 389.497 24.1758 387.903 24.1758ZM387.701 15.6504C387.045 15.6504 386.494 15.8906 386.049 16.3711C385.604 16.8457 385.328 17.5137 385.223 18.375H389.986V18.252C389.939 17.4258 389.717 16.7871 389.318 16.3359C388.92 15.8789 388.381 15.6504 387.701 15.6504ZM399.373 23.0596C398.74 23.8037 397.812 24.1758 396.587 24.1758C395.573 24.1758 394.8 23.8828 394.267 23.2969C393.739 22.7051 393.473 21.832 393.467 20.6777V14.4902H395.093V20.6338C395.093 22.0752 395.679 22.7959 396.851 22.7959C398.093 22.7959 398.919 22.333 399.329 21.4072V14.4902H400.955V24H399.408L399.373 23.0596ZM408.03 15.9492C407.784 15.9082 407.518 15.8877 407.23 15.8877C406.164 15.8877 405.44 16.3418 405.06 17.25V24H403.434V14.4902H405.016L405.042 15.5889C405.575 14.7393 406.331 14.3145 407.31 14.3145C407.626 14.3145 407.866 14.3555 408.03 14.4375V15.9492ZM408.927 19.1572C408.927 18.2256 409.108 17.3877 409.472 16.6436C409.841 15.8994 410.351 15.3252 411.001 14.9209C411.657 14.5166 412.404 14.3145 413.242 14.3145C414.537 14.3145 415.583 14.7627 416.38 15.6592C417.183 16.5557 417.584 17.748 417.584 19.2363V19.3506C417.584 20.2764 417.405 21.1084 417.048 21.8467C416.696 22.5791 416.189 23.1504 415.527 23.5605C414.871 23.9707 414.115 24.1758 413.26 24.1758C411.971 24.1758 410.925 23.7275 410.122 22.8311C409.325 21.9346 408.927 20.748 408.927 19.2715V19.1572ZM410.562 19.3506C410.562 20.4053 410.805 21.252 411.291 21.8906C411.783 22.5293 412.439 22.8486 413.26 22.8486C414.086 22.8486 414.742 22.5264 415.229 21.8818C415.715 21.2314 415.958 20.3232 415.958 19.1572C415.958 18.1143 415.709 17.2705 415.211 16.626C414.719 15.9756 414.062 15.6504 413.242 15.6504C412.439 15.6504 411.792 15.9697 411.3 16.6084C410.808 17.2471 410.562 18.1611 410.562 19.3506ZM421.161 14.4902L421.214 15.6855C421.94 14.7715 422.89 14.3145 424.062 14.3145C426.071 14.3145 427.085 15.4482 427.103 17.7158V24H425.477V17.707C425.471 17.0215 425.312 16.5146 425.002 16.1865C424.697 15.8584 424.22 15.6943 423.569 15.6943C423.042 15.6943 422.579 15.835 422.181 16.1162C421.782 16.3975 421.472 16.7666 421.249 17.2236V24H419.623V14.4902H421.161Z" fill="black"/>
<path d="M176.552 52.6602H171.19L169.986 56H168.246L173.133 43.2031H174.609L179.505 56H177.773L176.552 52.6602ZM171.7 51.2715H176.051L173.871 45.2861L171.7 51.2715ZM184.787 54.8486C185.367 54.8486 185.874 54.6729 186.308 54.3213C186.741 53.9697 186.981 53.5303 187.028 53.0029H188.566C188.537 53.5479 188.35 54.0664 188.004 54.5586C187.658 55.0508 187.195 55.4434 186.615 55.7363C186.041 56.0293 185.432 56.1758 184.787 56.1758C183.492 56.1758 182.461 55.7451 181.693 54.8838C180.932 54.0166 180.551 52.833 180.551 51.333V51.0605C180.551 50.1348 180.721 49.3115 181.061 48.5908C181.4 47.8701 181.887 47.3105 182.52 46.9121C183.158 46.5137 183.911 46.3145 184.778 46.3145C185.845 46.3145 186.729 46.6338 187.433 47.2725C188.142 47.9111 188.52 48.7402 188.566 49.7598H187.028C186.981 49.1445 186.747 48.6406 186.325 48.248C185.909 47.8496 185.394 47.6504 184.778 47.6504C183.952 47.6504 183.311 47.9492 182.854 48.5469C182.402 49.1387 182.177 49.9971 182.177 51.1221V51.4297C182.177 52.5254 182.402 53.3691 182.854 53.9609C183.305 54.5527 183.949 54.8486 184.787 54.8486ZM192.601 44.1875V46.4902H194.376V47.7471H192.601V53.6445C192.601 54.0254 192.68 54.3125 192.838 54.5059C192.996 54.6934 193.266 54.7871 193.646 54.7871C193.834 54.7871 194.092 54.752 194.42 54.6816V56C193.992 56.1172 193.576 56.1758 193.172 56.1758C192.445 56.1758 191.897 55.9561 191.528 55.5166C191.159 55.0771 190.975 54.4531 190.975 53.6445V47.7471H189.243V46.4902H190.975V44.1875H192.601ZM198.05 56H196.424V46.4902H198.05V56ZM196.292 43.9678C196.292 43.7041 196.371 43.4814 196.529 43.2998C196.693 43.1182 196.934 43.0273 197.25 43.0273C197.566 43.0273 197.807 43.1182 197.971 43.2998C198.135 43.4814 198.217 43.7041 198.217 43.9678C198.217 44.2314 198.135 44.4512 197.971 44.627C197.807 44.8027 197.566 44.8906 197.25 44.8906C196.934 44.8906 196.693 44.8027 196.529 44.627C196.371 44.4512 196.292 44.2314 196.292 43.9678ZM203.798 53.7939L206.153 46.4902H207.814L204.404 56H203.165L199.72 46.4902H201.381L203.798 53.7939ZM215.109 56C215.016 55.8125 214.939 55.4785 214.881 54.998C214.125 55.7832 213.223 56.1758 212.174 56.1758C211.236 56.1758 210.466 55.9121 209.862 55.3848C209.265 54.8516 208.966 54.1777 208.966 53.3633C208.966 52.373 209.341 51.6055 210.091 51.0605C210.847 50.5098 211.907 50.2344 213.272 50.2344H214.854V49.4873C214.854 48.9189 214.685 48.4678 214.345 48.1338C214.005 47.7939 213.504 47.624 212.842 47.624C212.262 47.624 211.775 47.7705 211.383 48.0635C210.99 48.3564 210.794 48.7109 210.794 49.127H209.159C209.159 48.6523 209.326 48.1953 209.66 47.7559C210 47.3105 210.457 46.959 211.031 46.7012C211.611 46.4434 212.247 46.3145 212.938 46.3145C214.034 46.3145 214.893 46.5898 215.514 47.1406C216.135 47.6855 216.457 48.4385 216.48 49.3994V53.7764C216.48 54.6494 216.592 55.3438 216.814 55.8594V56H215.109ZM212.411 54.7607C212.921 54.7607 213.404 54.6289 213.861 54.3652C214.318 54.1016 214.649 53.7588 214.854 53.3369V51.3857H213.58C211.588 51.3857 210.592 51.9688 210.592 53.1348C210.592 53.6445 210.762 54.043 211.102 54.3301C211.441 54.6172 211.878 54.7607 212.411 54.7607ZM221.235 44.1875V46.4902H223.011V47.7471H221.235V53.6445C221.235 54.0254 221.314 54.3125 221.473 54.5059C221.631 54.6934 221.9 54.7871 222.281 54.7871C222.469 54.7871 222.727 54.752 223.055 54.6816V56C222.627 56.1172 222.211 56.1758 221.807 56.1758C221.08 56.1758 220.532 55.9561 220.163 55.5166C219.794 55.0771 219.609 54.4531 219.609 53.6445V47.7471H217.878V46.4902H219.609V44.1875H221.235ZM226.685 56H225.059V46.4902H226.685V56ZM224.927 43.9678C224.927 43.7041 225.006 43.4814 225.164 43.2998C225.328 43.1182 225.568 43.0273 225.885 43.0273C226.201 43.0273 226.441 43.1182 226.605 43.2998C226.77 43.4814 226.852 43.7041 226.852 43.9678C226.852 44.2314 226.77 44.4512 226.605 44.627C226.441 44.8027 226.201 44.8906 225.885 44.8906C225.568 44.8906 225.328 44.8027 225.164 44.627C225.006 44.4512 224.927 44.2314 224.927 43.9678ZM228.864 51.1572C228.864 50.2256 229.046 49.3877 229.409 48.6436C229.778 47.8994 230.288 47.3252 230.938 46.9209C231.595 46.5166 232.342 46.3145 233.18 46.3145C234.475 46.3145 235.521 46.7627 236.317 47.6592C237.12 48.5557 237.521 49.748 237.521 51.2363V51.3506C237.521 52.2764 237.343 53.1084 236.985 53.8467C236.634 54.5791 236.127 55.1504 235.465 55.5605C234.809 55.9707 234.053 56.1758 233.197 56.1758C231.908 56.1758 230.862 55.7275 230.06 54.8311C229.263 53.9346 228.864 52.748 228.864 51.2715V51.1572ZM230.499 51.3506C230.499 52.4053 230.742 53.252 231.229 53.8906C231.721 54.5293 232.377 54.8486 233.197 54.8486C234.023 54.8486 234.68 54.5264 235.166 53.8818C235.652 53.2314 235.896 52.3232 235.896 51.1572C235.896 50.1143 235.646 49.2705 235.148 48.626C234.656 47.9756 234 47.6504 233.18 47.6504C232.377 47.6504 231.729 47.9697 231.237 48.6084C230.745 49.2471 230.499 50.1611 230.499 51.3506ZM241.099 46.4902L241.151 47.6855C241.878 46.7715 242.827 46.3145 243.999 46.3145C246.009 46.3145 247.022 47.4482 247.04 49.7158V56H245.414V49.707C245.408 49.0215 245.25 48.5146 244.939 48.1865C244.635 47.8584 244.157 47.6943 243.507 47.6943C242.979 47.6943 242.517 47.835 242.118 48.1162C241.72 48.3975 241.409 48.7666 241.187 49.2236V56H239.561V46.4902H241.099Z" fill="black"/>
<path d="M4.24512 50.9658L4.49121 52.6533L4.85156 51.1328L7.38281 42.2031H8.80664L11.2764 51.1328L11.6279 52.6797L11.9004 50.957L13.8867 42.2031H15.583L12.4805 55H10.9424L8.30566 45.6748L8.10352 44.6992L7.90137 45.6748L5.16797 55H3.62988L0.536133 42.2031H2.22363L4.24512 50.9658ZM20.874 55.1758C19.585 55.1758 18.5361 54.7539 17.7275 53.9102C16.9189 53.0605 16.5146 51.9268 16.5146 50.5088V50.21C16.5146 49.2666 16.6934 48.4258 17.0508 47.6875C17.4141 46.9434 17.918 46.3633 18.5625 45.9473C19.2129 45.5254 19.916 45.3145 20.6719 45.3145C21.9082 45.3145 22.8691 45.7217 23.5547 46.5361C24.2402 47.3506 24.583 48.5166 24.583 50.0342V50.7109H18.1406C18.1641 51.6484 18.4365 52.4072 18.958 52.9873C19.4854 53.5615 20.1533 53.8486 20.9619 53.8486C21.5361 53.8486 22.0225 53.7314 22.4209 53.4971C22.8193 53.2627 23.168 52.9521 23.4668 52.5654L24.46 53.3389C23.6631 54.5635 22.4678 55.1758 20.874 55.1758ZM20.6719 46.6504C20.0156 46.6504 19.4648 46.8906 19.0195 47.3711C18.5742 47.8457 18.2988 48.5137 18.1934 49.375H22.957V49.252C22.9102 48.4258 22.6875 47.7871 22.2891 47.3359C21.8906 46.8789 21.3516 46.6504 20.6719 46.6504ZM28.2393 55H26.6133V45.4902H28.2393V55ZM26.4814 42.9678C26.4814 42.7041 26.5605 42.4814 26.7188 42.2998C26.8828 42.1182 27.123 42.0273 27.4395 42.0273C27.7559 42.0273 27.9961 42.1182 28.1602 42.2998C28.3242 42.4814 28.4062 42.7041 28.4062 42.9678C28.4062 43.2314 28.3242 43.4512 28.1602 43.627C27.9961 43.8027 27.7559 43.8906 27.4395 43.8906C27.123 43.8906 26.8828 43.8027 26.7188 43.627C26.5605 43.4512 26.4814 43.2314 26.4814 42.9678ZM30.4629 50.166C30.4629 48.6836 30.8057 47.5059 31.4912 46.6328C32.1768 45.7539 33.085 45.3145 34.2158 45.3145C35.376 45.3145 36.2812 45.7246 36.9316 46.5449L37.0107 45.4902H38.4961V54.7715C38.4961 56.002 38.1299 56.9717 37.3975 57.6807C36.6709 58.3896 35.6924 58.7441 34.4619 58.7441C33.7764 58.7441 33.1055 58.5977 32.4492 58.3047C31.793 58.0117 31.292 57.6104 30.9463 57.1006L31.79 56.125C32.4873 56.9863 33.3398 57.417 34.3477 57.417C35.1387 57.417 35.7539 57.1943 36.1934 56.749C36.6387 56.3037 36.8613 55.6768 36.8613 54.8682V54.0508C36.2109 54.8008 35.3232 55.1758 34.1982 55.1758C33.085 55.1758 32.1826 54.7275 31.4912 53.8311C30.8057 52.9346 30.4629 51.7129 30.4629 50.166ZM32.0977 50.3506C32.0977 51.4229 32.3174 52.2666 32.7568 52.8818C33.1963 53.4912 33.8115 53.7959 34.6025 53.7959C35.6279 53.7959 36.3809 53.3301 36.8613 52.3984V48.0566C36.3633 47.1484 35.6162 46.6943 34.6201 46.6943C33.8291 46.6943 33.2109 47.002 32.7656 47.6172C32.3203 48.2324 32.0977 49.1436 32.0977 50.3506ZM42.583 46.6416C43.3037 45.7568 44.2412 45.3145 45.3955 45.3145C47.4053 45.3145 48.4189 46.4482 48.4365 48.7158V55H46.8105V48.707C46.8047 48.0215 46.6465 47.5146 46.3359 47.1865C46.0312 46.8584 45.5537 46.6943 44.9033 46.6943C44.376 46.6943 43.9131 46.835 43.5146 47.1162C43.1162 47.3975 42.8057 47.7666 42.583 48.2236V55H40.957V41.5H42.583V46.6416ZM53.0771 43.1875V45.4902H54.8525V46.7471H53.0771V52.6445C53.0771 53.0254 53.1562 53.3125 53.3145 53.5059C53.4727 53.6934 53.7422 53.7871 54.123 53.7871C54.3105 53.7871 54.5684 53.752 54.8965 53.6816V55C54.4688 55.1172 54.0527 55.1758 53.6484 55.1758C52.9219 55.1758 52.374 54.9561 52.0049 54.5166C51.6357 54.0771 51.4512 53.4531 51.4512 52.6445V46.7471H49.7197V45.4902H51.4512V43.1875H53.0771Z" fill="black"/>
<path d="M168.5 75.5L281.5 75.5V61.5L168.5 61.5V75.5Z" fill="url(#paint0_linear)" stroke="black"/>
<path d="M281.5 74V80" stroke="black"/>
<path d="M168.5 74V80" stroke="black"/>
<path d="M161.998 91H160.914V82H161.998V91ZM163.451 87.7715C163.451 87.1504 163.572 86.5918 163.814 86.0957C164.061 85.5996 164.4 85.2168 164.834 84.9473C165.271 84.6777 165.77 84.543 166.328 84.543C167.191 84.543 167.889 84.8418 168.42 85.4395C168.955 86.0371 169.223 86.832 169.223 87.8242V87.9004C169.223 88.5176 169.104 89.0723 168.865 89.5645C168.631 90.0527 168.293 90.4336 167.852 90.707C167.414 90.9805 166.91 91.1172 166.34 91.1172C165.48 91.1172 164.783 90.8184 164.248 90.2207C163.717 89.623 163.451 88.832 163.451 87.8477V87.7715ZM164.541 87.9004C164.541 88.6035 164.703 89.168 165.027 89.5938C165.355 90.0195 165.793 90.2324 166.34 90.2324C166.891 90.2324 167.328 90.0176 167.652 89.5879C167.977 89.1543 168.139 88.5488 168.139 87.7715C168.139 87.0762 167.973 86.5137 167.641 86.084C167.312 85.6504 166.875 85.4336 166.328 85.4336C165.793 85.4336 165.361 85.6465 165.033 86.0723C164.705 86.498 164.541 87.1074 164.541 87.9004ZM176.195 89.5059L177.414 84.6602H178.498L176.652 91H175.773L174.232 86.1953L172.732 91H171.854L170.014 84.6602H171.092L172.34 89.4062L173.816 84.6602H174.689L176.195 89.5059Z" fill="black"/>
<path d="M271.904 85.4277C272.385 84.8379 273.01 84.543 273.779 84.543C275.119 84.543 275.795 85.2988 275.807 86.8105V91H274.723V86.8047C274.719 86.3477 274.613 86.0098 274.406 85.791C274.203 85.5723 273.885 85.4629 273.451 85.4629C273.1 85.4629 272.791 85.5566 272.525 85.7441C272.26 85.9316 272.053 86.1777 271.904 86.4824V91H270.82V82H271.904V85.4277ZM278.607 91H277.523V84.6602H278.607V91ZM277.436 82.9785C277.436 82.8027 277.488 82.6543 277.594 82.5332C277.703 82.4121 277.863 82.3516 278.074 82.3516C278.285 82.3516 278.445 82.4121 278.555 82.5332C278.664 82.6543 278.719 82.8027 278.719 82.9785C278.719 83.1543 278.664 83.3008 278.555 83.418C278.445 83.5352 278.285 83.5938 278.074 83.5938C277.863 83.5938 277.703 83.5352 277.594 83.418C277.488 83.3008 277.436 83.1543 277.436 82.9785ZM280.09 87.7773C280.09 86.7891 280.318 86.0039 280.775 85.4219C281.232 84.8359 281.838 84.543 282.592 84.543C283.365 84.543 283.969 84.8164 284.402 85.3633L284.455 84.6602H285.445V90.8477C285.445 91.668 285.201 92.3145 284.713 92.7871C284.229 93.2598 283.576 93.4961 282.756 93.4961C282.299 93.4961 281.852 93.3984 281.414 93.2031C280.977 93.0078 280.643 92.7402 280.412 92.4004L280.975 91.75C281.439 92.3242 282.008 92.6113 282.68 92.6113C283.207 92.6113 283.617 92.4629 283.91 92.166C284.207 91.8691 284.355 91.4512 284.355 90.9121V90.3672C283.922 90.8672 283.33 91.1172 282.58 91.1172C281.838 91.1172 281.236 90.8184 280.775 90.2207C280.318 89.623 280.09 88.8086 280.09 87.7773ZM281.18 87.9004C281.18 88.6152 281.326 89.1777 281.619 89.5879C281.912 89.9941 282.322 90.1973 282.85 90.1973C283.533 90.1973 284.035 89.8867 284.355 89.2656V86.3711C284.023 85.7656 283.525 85.4629 282.861 85.4629C282.334 85.4629 281.922 85.668 281.625 86.0781C281.328 86.4883 281.18 87.0957 281.18 87.9004ZM288.17 85.4277C288.65 84.8379 289.275 84.543 290.045 84.543C291.385 84.543 292.061 85.2988 292.072 86.8105V91H290.988V86.8047C290.984 86.3477 290.879 86.0098 290.672 85.791C290.469 85.5723 290.15 85.4629 289.717 85.4629C289.365 85.4629 289.057 85.5566 288.791 85.7441C288.525 85.9316 288.318 86.1777 288.17 86.4824V91H287.086V82H288.17V85.4277Z" fill="black"/>
<path d="M4.5 74.5L117.5 74.5V60.5L4.5 60.5V74.5Z" fill="url(#paint1_linear)" stroke="black"/>
<path d="M117.5 73V79" stroke="black"/>
<path d="M4.5 73V79" stroke="black"/>
<path d="M62 74V80" stroke="black"/>
<path d="M7.82031 86.1855H1.94922V85.3008H7.82031V86.1855Z" fill="black"/>
<path d="M64.5586 86.3613C64.5586 87.6309 64.3418 88.5742 63.9082 89.1914C63.4746 89.8086 62.7969 90.1172 61.875 90.1172C60.9648 90.1172 60.291 89.8164 59.8535 89.2148C59.416 88.6094 59.1895 87.707 59.1738 86.5078V85.0605C59.1738 83.8066 59.3906 82.875 59.8242 82.2656C60.2578 81.6562 60.9375 81.3516 61.8633 81.3516C62.7812 81.3516 63.457 81.6465 63.8906 82.2363C64.3242 82.8223 64.5469 83.7285 64.5586 84.9551V86.3613ZM63.4746 84.8789C63.4746 83.9609 63.3457 83.293 63.0879 82.875C62.8301 82.4531 62.4219 82.2422 61.8633 82.2422C61.3086 82.2422 60.9043 82.4512 60.6504 82.8691C60.3965 83.2871 60.2656 83.9297 60.2578 84.7969V86.5312C60.2578 87.4531 60.3906 88.1348 60.6562 88.5762C60.9258 89.0137 61.332 89.2324 61.875 89.2324C62.4102 89.2324 62.8066 89.0254 63.0645 88.6113C63.3262 88.1973 63.4629 87.5449 63.4746 86.6543V84.8789Z" fill="black"/>
<path d="M118.176 85.4238H120.555V86.4492H118.176V89.1445H117.086V86.4492H114.707V85.4238H117.086V82.9336H118.176V85.4238Z" fill="black"/>
<path d="M456 65.2272L444 73.4544V57L456 65.2272Z" fill="#FA9600"/>
<path d="M294.5 4.5H265.5V33.5H294.5V4.5Z" fill="#959595" stroke="black" stroke-width="3"/>
<path d="M464.5 4.5H435.5V33.5H464.5V4.5Z" fill="#959595" stroke="#517AB7" stroke-width="3"/>
<path d="M3.2959 22H1.6084V9.20312H3.2959V22ZM7.67285 12.4902L7.72559 13.6855C8.45215 12.7715 9.40137 12.3145 10.5732 12.3145C12.583 12.3145 13.5967 13.4482 13.6143 15.7158V22H11.9883V15.707C11.9824 15.0215 11.8242 14.5146 11.5137 14.1865C11.209 13.8584 10.7314 13.6943 10.0811 13.6943C9.55371 13.6943 9.09082 13.835 8.69238 14.1162C8.29395 14.3975 7.9834 14.7666 7.76074 15.2236V22H6.13477V12.4902H7.67285ZM24.0996 17.3506C24.0996 18.7979 23.7686 19.9639 23.1064 20.8486C22.4443 21.7334 21.5479 22.1758 20.417 22.1758C19.2627 22.1758 18.3545 21.8096 17.6924 21.0771V25.6562H16.0664V12.4902H17.5518L17.6309 13.5449C18.293 12.7246 19.2129 12.3145 20.3906 12.3145C21.5332 12.3145 22.4355 12.7451 23.0977 13.6064C23.7656 14.4678 24.0996 15.666 24.0996 17.2012V17.3506ZM22.4736 17.166C22.4736 16.0938 22.2451 15.2471 21.7881 14.626C21.3311 14.0049 20.7041 13.6943 19.9072 13.6943C18.9229 13.6943 18.1846 14.1309 17.6924 15.0039V19.5479C18.1787 20.415 18.9229 20.8486 19.9248 20.8486C20.7041 20.8486 21.3223 20.541 21.7793 19.9258C22.2422 19.3047 22.4736 18.3848 22.4736 17.166ZM32.0449 21.0596C31.4121 21.8037 30.4834 22.1758 29.2588 22.1758C28.2451 22.1758 27.4717 21.8828 26.9385 21.2969C26.4111 20.7051 26.1445 19.832 26.1387 18.6777V12.4902H27.7646V18.6338C27.7646 20.0752 28.3506 20.7959 29.5225 20.7959C30.7646 20.7959 31.5908 20.333 32.001 19.4072V12.4902H33.627V22H32.0801L32.0449 21.0596ZM38.3115 10.1875V12.4902H40.0869V13.7471H38.3115V19.6445C38.3115 20.0254 38.3906 20.3125 38.5488 20.5059C38.707 20.6934 38.9766 20.7871 39.3574 20.7871C39.5449 20.7871 39.8027 20.752 40.1309 20.6816V22C39.7031 22.1172 39.2871 22.1758 38.8828 22.1758C38.1562 22.1758 37.6084 21.9561 37.2393 21.5166C36.8701 21.0771 36.6855 20.4531 36.6855 19.6445V13.7471H34.9541V12.4902H36.6855V10.1875H38.3115ZM56.5488 22H54.8525L48.4102 12.1387V22H46.7139V9.20312H48.4102L54.8701 19.1084V9.20312H56.5488V22ZM63.2373 22.1758C61.9482 22.1758 60.8994 21.7539 60.0908 20.9102C59.2822 20.0605 58.8779 18.9268 58.8779 17.5088V17.21C58.8779 16.2666 59.0566 15.4258 59.4141 14.6875C59.7773 13.9434 60.2812 13.3633 60.9258 12.9473C61.5762 12.5254 62.2793 12.3145 63.0352 12.3145C64.2715 12.3145 65.2324 12.7217 65.918 13.5361C66.6035 14.3506 66.9463 15.5166 66.9463 17.0342V17.7109H60.5039C60.5273 18.6484 60.7998 19.4072 61.3213 19.9873C61.8486 20.5615 62.5166 20.8486 63.3252 20.8486C63.8994 20.8486 64.3857 20.7314 64.7842 20.4971C65.1826 20.2627 65.5312 19.9521 65.8301 19.5654L66.8232 20.3389C66.0264 21.5635 64.8311 22.1758 63.2373 22.1758ZM63.0352 13.6504C62.3789 13.6504 61.8281 13.8906 61.3828 14.3711C60.9375 14.8457 60.6621 15.5137 60.5566 16.375H65.3203V16.252C65.2734 15.4258 65.0508 14.7871 64.6523 14.3359C64.2539 13.8789 63.7148 13.6504 63.0352 13.6504ZM74.707 21.0596C74.0742 21.8037 73.1455 22.1758 71.9209 22.1758C70.9072 22.1758 70.1338 21.8828 69.6006 21.2969C69.0732 20.7051 68.8066 19.832 68.8008 18.6777V12.4902H70.4268V18.6338C70.4268 20.0752 71.0127 20.7959 72.1846 20.7959C73.4268 20.7959 74.2529 20.333 74.6631 19.4072V12.4902H76.2891V22H74.7422L74.707 21.0596ZM83.3643 13.9492C83.1182 13.9082 82.8516 13.8877 82.5645 13.8877C81.498 13.8877 80.7744 14.3418 80.3936 15.25V22H78.7676V12.4902H80.3496L80.376 13.5889C80.9092 12.7393 81.665 12.3145 82.6436 12.3145C82.96 12.3145 83.2002 12.3555 83.3643 12.4375V13.9492ZM84.2607 17.1572C84.2607 16.2256 84.4424 15.3877 84.8057 14.6436C85.1748 13.8994 85.6846 13.3252 86.335 12.9209C86.9912 12.5166 87.7383 12.3145 88.5762 12.3145C89.8711 12.3145 90.917 12.7627 91.7139 13.6592C92.5166 14.5557 92.918 15.748 92.918 17.2363V17.3506C92.918 18.2764 92.7393 19.1084 92.3818 19.8467C92.0303 20.5791 91.5234 21.1504 90.8613 21.5605C90.2051 21.9707 89.4492 22.1758 88.5938 22.1758C87.3047 22.1758 86.2588 21.7275 85.4561 20.8311C84.6592 19.9346 84.2607 18.748 84.2607 17.2715V17.1572ZM85.8955 17.3506C85.8955 18.4053 86.1387 19.252 86.625 19.8906C87.1172 20.5293 87.7734 20.8486 88.5938 20.8486C89.4199 20.8486 90.0762 20.5264 90.5625 19.8818C91.0488 19.2314 91.292 18.3232 91.292 17.1572C91.292 16.1143 91.043 15.2705 90.5449 14.626C90.0527 13.9756 89.3965 13.6504 88.5762 13.6504C87.7734 13.6504 87.126 13.9697 86.6338 14.6084C86.1416 15.2471 85.8955 16.1611 85.8955 17.3506ZM96.4951 12.4902L96.5479 13.6855C97.2744 12.7715 98.2236 12.3145 99.3955 12.3145C101.405 12.3145 102.419 13.4482 102.437 15.7158V22H100.811V15.707C100.805 15.0215 100.646 14.5146 100.336 14.1865C100.031 13.8584 99.5537 13.6943 98.9033 13.6943C98.376 13.6943 97.9131 13.835 97.5146 14.1162C97.1162 14.3975 96.8057 14.7666 96.583 15.2236V22H94.957V12.4902H96.4951Z" fill="black"/>
<path d="M139.5 1.5H110.5V30.5H139.5V1.5Z" fill="#959595" stroke="#959595" stroke-width="3"/>
<path d="M312 65.1665C312 65.1665 312 65.0795 312 64.9055C312 64.7315 312.094 64.5977 312.281 64.504H323.945C324.145 64.6111 324.246 64.7449 324.246 64.9055C324.246 65.0661 324.145 65.1999 323.945 65.307H312.281C312.094 65.2133 312 65.0795 312 64.9055V65.1665Z" fill="black"/>
<path d="M362.469 46.1554C362.161 46.1554 361.94 46.0751 361.806 45.9145C361.672 45.7539 361.599 45.5733 361.585 45.3725C361.585 45.2387 361.625 45.0379 361.706 44.7703C361.786 44.5026 361.926 44.1881 362.127 43.8267C362.328 43.4654 362.629 43.1241 363.031 42.8029C363.432 42.4817 363.907 42.2475 364.456 42.1003L365.098 41.9999H365.339C365.781 41.9999 366.042 42.0066 366.122 42.02C366.965 42.1672 367.668 42.5219 368.23 43.084C368.792 43.6461 369.194 44.2684 369.435 44.9509C369.675 45.6335 369.789 46.3763 369.776 47.1793C369.776 48.4507 369.461 49.9028 368.832 51.5355C368.203 53.1683 367.42 54.4196 366.483 55.2895C365.399 56.2933 364.202 56.7952 362.89 56.7952C361.552 56.7952 360.548 56.2732 359.879 55.2293C359.464 54.6137 359.257 53.9981 359.257 53.3824V53.1616C359.257 51.5957 359.839 50.1838 361.003 48.9258C362.167 47.6677 363.459 47.032 364.877 47.0187C365.694 47.0187 366.31 47.2261 366.724 47.641C367.139 48.0559 367.414 48.5042 367.547 48.986L367.608 48.7652C367.875 47.6544 368.009 46.7376 368.009 46.0149C368.009 44.8372 367.735 44.0074 367.186 43.5256C366.637 43.0438 366.015 42.7962 365.319 42.7828C364.275 42.7828 363.466 43.2111 362.89 44.0676C363.439 44.1479 363.713 44.4156 363.713 44.8706C363.713 45.2052 363.593 45.4996 363.352 45.7539C363.111 46.0082 362.816 46.142 362.469 46.1554ZM367.046 50.2106C367.046 49.3273 366.852 48.6983 366.463 48.3235C366.075 47.9488 365.62 47.7614 365.098 47.7614C364.255 47.7614 363.512 48.0692 362.87 48.6849C362.535 49.0596 362.274 49.4544 362.087 49.8693C361.9 50.2842 361.679 50.9667 361.425 51.9169C361.184 52.8805 361.063 53.5832 361.063 54.0248C361.063 55.2962 361.732 55.9319 363.071 55.9319C363.231 55.9319 363.352 55.9253 363.432 55.9119C364.463 55.7379 365.292 55.1356 365.921 54.1051C366.122 53.7705 366.356 53.2084 366.624 52.4188C366.892 51.6292 367.032 50.8931 367.046 50.2106Z" fill="black"/>
<path d="M370.619 55.4301H370.9C371.422 55.4301 371.736 55.3364 371.844 55.149V54.9884C371.844 54.868 371.844 54.7141 371.844 54.5267C371.844 54.3393 371.844 54.1185 371.844 53.8642C371.844 53.6099 371.85 53.3222 371.864 53.001C371.877 52.6798 371.877 52.3452 371.864 51.9972C371.85 51.6493 371.85 51.2812 371.864 50.8931C371.877 50.505 371.877 50.1236 371.864 49.7488C371.864 49.2537 371.864 48.7317 371.864 48.183C371.864 47.6343 371.864 47.1324 371.864 46.6774C371.864 46.2223 371.864 45.8208 371.864 45.4729C371.864 45.1249 371.857 44.8305 371.844 44.5896C371.83 44.3487 371.83 44.2349 371.844 44.2483C371.803 43.994 371.71 43.8267 371.562 43.7464C371.415 43.6661 371.114 43.6059 370.659 43.5658H370.298V43.104C370.298 42.7962 370.311 42.6423 370.338 42.6423L370.539 42.6222C370.672 42.6088 370.867 42.5955 371.121 42.5821C371.375 42.5687 371.623 42.5553 371.864 42.5419C372.091 42.5285 372.339 42.5152 372.606 42.5018C372.874 42.4884 373.075 42.4683 373.209 42.4416C373.342 42.4148 373.416 42.4081 373.429 42.4215H373.49V48.7451C373.49 52.9876 373.496 55.1223 373.51 55.149C373.563 55.2561 373.644 55.3297 373.751 55.3698C374.032 55.41 374.36 55.4301 374.734 55.4301H375.056V56.3535H374.895L374.433 56.3334C374.125 56.3201 373.797 56.3134 373.45 56.3134C373.102 56.3134 372.847 56.3067 372.687 56.2933C372.526 56.2799 372.272 56.2799 371.924 56.2933C371.576 56.3067 371.241 56.3201 370.92 56.3334L370.458 56.3535H370.298V55.4301H370.619Z" fill="black"/>
<path d="M375.919 52.0575C375.919 50.7861 376.354 49.6887 377.224 48.7652C378.094 47.8418 379.144 47.3734 380.375 47.36C381.58 47.36 382.617 47.815 383.487 48.7251C384.357 49.6351 384.799 50.7393 384.812 52.0375C384.812 53.3089 384.384 54.3795 383.527 55.2494C382.671 56.1194 381.62 56.5543 380.375 56.5543C379.077 56.5543 378.013 56.106 377.183 55.2093C376.354 54.3126 375.932 53.262 375.919 52.0575ZM380.375 55.7513C382.008 55.7513 382.825 54.6606 382.825 52.4791V51.8367V51.3348C382.825 51.0404 382.818 50.7861 382.804 50.572C382.791 50.3578 382.744 50.1036 382.664 49.8091C382.584 49.5147 382.477 49.2738 382.343 49.0864C382.209 48.8991 382.001 48.7117 381.72 48.5243C381.439 48.337 381.111 48.2031 380.737 48.1228C380.67 48.1094 380.563 48.1028 380.416 48.1028C380.014 48.1028 379.633 48.1831 379.271 48.3437C378.696 48.6381 378.321 49.0463 378.147 49.5682C377.973 50.0902 377.886 50.7058 377.886 51.4151V51.8166C377.886 53.1014 378.013 54.0048 378.268 54.5267C378.696 55.3431 379.398 55.7513 380.375 55.7513Z" fill="black"/>
<path d="M391.316 50.0098C391.316 49.4745 391.136 49.0128 390.774 48.6246C390.413 48.2365 389.891 48.0425 389.208 48.0425C388.727 48.0425 388.312 48.1295 387.964 48.3034C387.562 48.5577 387.361 48.9057 387.361 49.3473C387.348 49.4143 387.348 49.5013 387.361 49.6083C387.375 49.7154 387.482 49.876 387.683 50.0901C387.883 50.3043 388.171 50.4715 388.546 50.592C388.787 50.6589 389.081 50.7191 389.429 50.7727C389.777 50.8262 390.072 50.8864 390.312 50.9533C390.553 51.0203 390.768 51.1073 390.955 51.2143C391.182 51.3214 391.403 51.4552 391.617 51.6158C391.832 51.7764 392.046 52.0508 392.26 52.4389C392.474 52.827 392.588 53.2419 392.601 53.6835C392.601 54.5133 392.347 55.1959 391.838 55.7312C391.33 56.2665 390.507 56.5409 389.369 56.5543H389.208C388.512 56.5543 387.87 56.3134 387.281 55.8316L387.121 55.9721L386.94 56.1528C386.86 56.2331 386.779 56.3067 386.699 56.3736L386.478 56.5743H386.318H386.237C386.197 56.5743 386.137 56.5342 386.057 56.4539V54.868V53.7036C386.057 53.4226 386.07 53.2553 386.097 53.2017C386.124 53.1482 386.19 53.1148 386.298 53.1014H386.478C386.639 53.1014 386.746 53.1281 386.799 53.1817C386.853 53.2352 386.886 53.3155 386.9 53.4226C386.913 53.5296 386.96 53.7103 387.04 53.9646C387.121 54.2189 387.248 54.4999 387.422 54.8077C387.89 55.4903 388.539 55.8316 389.369 55.8316C390.667 55.8316 391.316 55.3096 391.316 54.2657C391.316 53.8776 391.196 53.5631 390.955 53.3222C390.687 53.001 390.132 52.7601 389.289 52.5995C388.446 52.4389 387.89 52.285 387.622 52.1378C387.141 51.9103 386.759 51.6024 386.478 51.2143C386.197 50.8262 386.057 50.4113 386.057 49.9697C386.057 49.4477 386.17 49.0061 386.398 48.6447C386.625 48.2834 386.913 48.0157 387.261 47.8417C387.609 47.6677 387.944 47.5473 388.265 47.4804C388.586 47.4135 388.88 47.38 389.148 47.38H389.369C389.904 47.38 390.373 47.4804 390.774 47.6811L391.075 47.8417L391.256 47.7012C391.39 47.5807 391.537 47.467 391.698 47.3599H391.858H391.939C391.979 47.3599 392.039 47.4001 392.119 47.4804V50.1303L391.999 50.2507H391.437C391.356 50.1704 391.316 50.0901 391.316 50.0098Z" fill="black"/>
<path d="M399.226 50.0098C399.226 49.4745 399.045 49.0128 398.684 48.6246C398.322 48.2365 397.8 48.0425 397.118 48.0425C396.636 48.0425 396.221 48.1295 395.873 48.3034C395.472 48.5577 395.271 48.9057 395.271 49.3473C395.258 49.4143 395.258 49.5013 395.271 49.6083C395.284 49.7154 395.391 49.876 395.592 50.0901C395.793 50.3043 396.081 50.4715 396.455 50.592C396.696 50.6589 396.991 50.7191 397.339 50.7727C397.687 50.8262 397.981 50.8864 398.222 50.9533C398.463 51.0203 398.677 51.1073 398.864 51.2143C399.092 51.3214 399.313 51.4552 399.527 51.6158C399.741 51.7764 399.955 52.0508 400.169 52.4389C400.383 52.827 400.497 53.2419 400.511 53.6835C400.511 54.5133 400.256 55.1959 399.748 55.7312C399.239 56.2665 398.416 56.5409 397.279 56.5543H397.118C396.422 56.5543 395.78 56.3134 395.191 55.8316L395.03 55.9721L394.849 56.1528C394.769 56.2331 394.689 56.3067 394.609 56.3736L394.388 56.5743H394.227H394.147C394.107 56.5743 394.046 56.5342 393.966 56.4539V54.868V53.7036C393.966 53.4226 393.98 53.2553 394.006 53.2017C394.033 53.1482 394.1 53.1148 394.207 53.1014H394.388C394.548 53.1014 394.655 53.1281 394.709 53.1817C394.762 53.2352 394.796 53.3155 394.809 53.4226C394.823 53.5296 394.87 53.7103 394.95 53.9646C395.03 54.2189 395.157 54.4999 395.331 54.8077C395.8 55.4903 396.449 55.8316 397.279 55.8316C398.577 55.8316 399.226 55.3096 399.226 54.2657C399.226 53.8776 399.105 53.5631 398.864 53.3222C398.597 53.001 398.041 52.7601 397.198 52.5995C396.355 52.4389 395.8 52.285 395.532 52.1378C395.05 51.9103 394.669 51.6024 394.388 51.2143C394.107 50.8262 393.966 50.4113 393.966 49.9697C393.966 49.4477 394.08 49.0061 394.307 48.6447C394.535 48.2834 394.823 48.0157 395.171 47.8417C395.519 47.6677 395.853 47.5473 396.174 47.4804C396.496 47.4135 396.79 47.38 397.058 47.38H397.279C397.814 47.38 398.282 47.4804 398.684 47.6811L398.985 47.8417L399.166 47.7012C399.299 47.5807 399.447 47.467 399.607 47.3599H399.768H399.848C399.888 47.3599 399.948 47.4001 400.029 47.4804V50.1303L399.908 50.2507H399.346C399.266 50.1704 399.226 50.0901 399.226 50.0098Z" fill="black"/>
<path d="M334.404 73.4976C334.096 73.4976 333.875 73.4173 333.741 73.2567C333.607 73.0961 333.534 72.9154 333.52 72.7147C333.52 72.5808 333.561 72.3801 333.641 72.1124C333.721 71.8448 333.862 71.5302 334.062 71.1689C334.263 70.8075 334.564 70.4663 334.966 70.1451C335.367 69.8239 335.842 69.5897 336.391 69.4424L337.034 69.3421H337.274C337.716 69.3421 337.977 69.3488 338.057 69.3621C338.9 69.5094 339.603 69.864 340.165 70.4261C340.727 70.9882 341.129 71.6105 341.37 72.2931C341.611 72.9756 341.724 73.7184 341.711 74.5214C341.711 75.7928 341.396 77.2449 340.767 78.8777C340.138 80.5104 339.356 81.7618 338.419 82.6317C337.335 83.6355 336.137 84.1373 334.825 84.1373C333.487 84.1373 332.483 83.6154 331.814 82.5715C331.399 81.9558 331.192 81.3402 331.192 80.7246V80.5038C331.192 78.9379 331.774 77.526 332.938 76.2679C334.103 75.0099 335.394 74.3742 336.813 74.3608C337.629 74.3608 338.245 74.5683 338.66 74.9831C339.074 75.398 339.349 75.8464 339.483 76.3282L339.543 76.1073C339.811 74.9965 339.944 74.0798 339.944 73.3571C339.944 72.1793 339.67 71.3496 339.121 70.8678C338.573 70.386 337.95 70.1384 337.254 70.125C336.21 70.125 335.401 70.5533 334.825 71.4098C335.374 71.4901 335.648 71.7578 335.648 72.2128C335.648 72.5474 335.528 72.8418 335.287 73.0961C335.046 73.3504 334.752 73.4842 334.404 73.4976ZM338.981 77.5527C338.981 76.6694 338.787 76.0404 338.399 75.6657C338.01 75.291 337.555 75.1036 337.034 75.1036C336.19 75.1036 335.448 75.4114 334.805 76.027C334.471 76.4018 334.21 76.7966 334.022 77.2115C333.835 77.6263 333.614 78.3089 333.36 79.2591C333.119 80.2227 332.998 80.9253 332.998 81.367C332.998 82.6384 333.668 83.2741 335.006 83.2741C335.167 83.2741 335.287 83.2674 335.367 83.254C336.398 83.08 337.228 82.4778 337.857 81.4473C338.057 81.1127 338.292 80.5506 338.559 79.761C338.827 78.9714 338.967 78.2353 338.981 77.5527Z" fill="black"/>
<path d="M344.461 77.572C344.461 77.572 344.314 77.572 344.02 77.572C343.725 77.572 343.478 77.4716 343.277 77.2708C343.076 77.0701 342.976 76.8091 342.976 76.4879C342.976 76.0195 343.203 75.6046 343.658 75.2433C344.113 74.8819 344.923 74.7012 346.087 74.7012C347.064 74.7012 347.854 74.9154 348.456 75.3436C349.058 75.7719 349.46 76.2805 349.661 76.8693C349.728 77.0567 349.761 77.2641 349.761 77.4917C349.761 77.7192 349.768 78.4887 349.781 79.8003V81.2055C349.781 81.8479 349.815 82.2896 349.881 82.5305C349.948 82.7714 350.089 82.8918 350.303 82.8918C350.504 82.8918 350.638 82.7848 350.705 82.5706C350.771 82.3565 350.805 82.0018 350.805 81.5067V80.784H351.608V81.5669C351.595 82.1022 351.574 82.4167 351.548 82.5104C351.427 82.9119 351.193 83.2264 350.845 83.4539C350.497 83.6814 350.129 83.8019 349.741 83.8153C349.353 83.8287 349.038 83.7082 348.797 83.4539C348.557 83.1996 348.396 82.9186 348.316 82.6108V82.5305L348.275 82.5907C348.249 82.6309 348.215 82.671 348.175 82.7112C348.135 82.7513 348.081 82.8115 348.015 82.8918C347.948 82.9721 347.867 83.0457 347.774 83.1127C347.68 83.1796 347.58 83.2599 347.472 83.3535C347.365 83.4472 347.245 83.5208 347.111 83.5744C346.977 83.6279 346.83 83.6814 346.67 83.735C346.509 83.7885 346.335 83.8287 346.148 83.8554C345.96 83.8822 345.753 83.9023 345.525 83.9156C344.722 83.9156 344 83.7082 343.357 83.2933C342.715 82.8784 342.394 82.2963 342.394 81.5468C342.394 81.2658 342.44 80.9981 342.534 80.7438C342.628 80.4895 342.808 80.2152 343.076 79.9207C343.344 79.6263 343.665 79.3787 344.04 79.178C344.414 78.9772 344.936 78.7898 345.606 78.6159C346.275 78.4419 347.011 78.3415 347.814 78.3147H348.095V77.8731C348.095 77.418 348.055 77.0835 347.974 76.8693C347.68 75.9191 347.031 75.444 346.027 75.444C345.786 75.444 345.559 75.4507 345.345 75.4641C345.13 75.4775 344.963 75.5042 344.843 75.5444C344.722 75.5845 344.669 75.6046 344.682 75.6046C344.977 75.8054 345.124 76.0998 345.124 76.4879C345.124 76.8225 345.017 77.0835 344.803 77.2708L344.461 77.572ZM344.24 81.5669C344.24 81.9818 344.401 82.3498 344.722 82.671C345.043 82.9922 345.438 83.1595 345.907 83.1729C346.415 83.1729 346.864 83.019 347.252 82.7112C347.64 82.4033 347.901 82.0018 348.035 81.5067C348.061 81.413 348.081 80.9713 348.095 80.1817C348.095 79.4055 348.088 79.0174 348.075 79.0174C347.968 79.0174 347.827 79.024 347.653 79.0374C347.479 79.0508 347.178 79.111 346.75 79.2181C346.322 79.3252 345.933 79.459 345.585 79.6196C345.237 79.7802 344.93 80.0278 344.662 80.3624C344.394 80.697 344.254 81.0985 344.24 81.5669Z" fill="black"/>
<path d="M359.176 77.5728C359.176 77.5728 359.036 77.5728 358.755 77.5728C358.474 77.5728 358.233 77.4724 358.032 77.2717C357.831 77.0709 357.724 76.8167 357.711 76.5088C357.711 76.201 357.811 75.9467 358.012 75.746C358.079 75.6791 358.112 75.6389 358.112 75.6255C358.112 75.6122 358.045 75.5988 357.911 75.5854C357.564 75.5319 357.236 75.5051 356.928 75.5051C356.272 75.5051 355.737 75.7192 355.322 76.1475C354.693 76.7765 354.378 77.8271 354.378 79.2993C354.378 80.3967 354.586 81.2599 355.001 81.8889C355.549 82.7053 356.285 83.1135 357.209 83.1135C357.758 83.1135 358.199 82.9395 358.534 82.5916C358.868 82.2436 359.109 81.8287 359.257 81.3469C359.283 81.2398 359.317 81.1729 359.357 81.1462C359.397 81.1194 359.504 81.106 359.678 81.106H359.959C360.039 81.1863 360.08 81.2465 360.08 81.2867C360.08 81.3402 360.053 81.4473 359.999 81.6079C359.946 81.7685 359.839 81.9893 359.678 82.2704C359.517 82.5514 359.323 82.8057 359.096 83.0332C358.868 83.2607 358.547 83.4682 358.132 83.6555C357.717 83.8429 357.256 83.9299 356.747 83.9165C355.596 83.9165 354.592 83.4882 353.736 82.6317C352.879 81.7752 352.444 80.6978 352.431 79.3996C352.431 78.0078 352.866 76.8769 353.736 76.007C354.606 75.1371 355.616 74.7021 356.767 74.7021C357.918 74.7021 358.721 74.8828 359.176 75.2441C359.631 75.6055 359.859 76.0337 359.859 76.5289C359.859 76.8367 359.745 77.0843 359.517 77.2717L359.176 77.5728Z" fill="black"/>
<path d="M361.204 75.224C361.913 75.1704 362.462 74.7957 362.85 74.0998C363.238 73.4038 363.452 72.5875 363.492 71.6506V71.3495H364.295V75.0433H367.005V75.9667H364.295V78.8575C364.309 80.5305 364.315 81.474 364.315 81.6881C364.315 81.9022 364.362 82.1164 364.456 82.3305C364.643 82.8525 364.971 83.1134 365.44 83.1134C366.028 83.1134 366.39 82.6383 366.524 81.6881C366.537 81.581 366.544 81.2732 366.544 80.7647V80.062H367.347V80.7647V81.0056C367.347 82.0361 367.066 82.819 366.504 83.3543C366.142 83.7157 365.674 83.8964 365.098 83.8964C364.643 83.8964 364.248 83.8161 363.914 83.6555C363.579 83.4949 363.325 83.2874 363.151 83.0331C362.977 82.7789 362.85 82.5446 362.77 82.3305C362.689 82.1164 362.642 81.9022 362.629 81.6881C362.616 81.5944 362.609 80.6041 362.609 78.717V75.9667H361.023V75.224H361.204Z" fill="black"/>
<path d="M369.856 71.47C369.856 71.0953 369.977 70.8009 370.217 70.5867C370.458 70.3726 370.753 70.2655 371.101 70.2655C371.409 70.2923 371.676 70.406 371.904 70.6068C372.131 70.8075 372.245 71.0953 372.245 71.47C372.245 71.8715 372.131 72.1726 371.904 72.3734C371.676 72.5741 371.395 72.6745 371.061 72.6745C370.726 72.6745 370.445 72.5741 370.217 72.3734C369.99 72.1726 369.869 71.8715 369.856 71.47ZM373.429 83.6957C373.229 83.6555 372.533 83.6355 371.342 83.6355C371.194 83.6355 370.947 83.6355 370.599 83.6355C370.251 83.6355 369.916 83.6488 369.595 83.6756L369.153 83.6957H368.993V82.7722H369.314C369.689 82.7722 370.017 82.7522 370.298 82.712C370.418 82.6585 370.492 82.5849 370.519 82.4912C370.545 82.3975 370.559 82.1164 370.559 81.648V79.5803V77.8137C370.559 77.1178 370.545 76.6761 370.519 76.4888C370.492 76.3014 370.398 76.1743 370.238 76.1073C370.05 76.0137 369.736 75.9668 369.294 75.9668H369.073V75.5051C369.073 75.1973 369.087 75.0434 369.113 75.0434L369.314 75.0233C369.448 75.0099 369.635 74.9965 369.876 74.9831C370.117 74.9698 370.358 74.9564 370.599 74.943C370.826 74.9296 371.067 74.9162 371.322 74.9028C371.576 74.8895 371.77 74.8694 371.904 74.8426C372.038 74.8158 372.111 74.8092 372.125 74.8225H372.185V82.451C372.252 82.5849 372.332 82.6652 372.426 82.6919C372.519 82.7187 372.754 82.7455 373.128 82.7722H373.59V83.6957H373.429Z" fill="black"/>
<path d="M380.837 75.0434C380.917 75.0701 381.48 75.0835 382.523 75.0835C383.286 75.0835 383.828 75.0701 384.149 75.0434H384.25V75.9668H384.029C383.253 76.0203 382.758 76.288 382.543 76.7698C382.517 76.8233 382.068 77.981 381.198 80.2428C380.329 82.5046 379.874 83.6689 379.833 83.7358C379.766 83.8563 379.599 83.9165 379.331 83.9165C379.077 83.9165 378.917 83.8563 378.85 83.7358C376.976 78.9045 376.033 76.4553 376.019 76.3884C375.952 76.201 375.845 76.0873 375.698 76.0471C375.551 76.007 375.29 75.9802 374.915 75.9668H374.433V75.0434H374.554L374.714 75.0634C374.821 75.0634 374.955 75.0634 375.116 75.0634C375.276 75.0634 375.45 75.0634 375.638 75.0634C375.825 75.0634 375.992 75.0701 376.14 75.0835C376.287 75.0969 376.407 75.1036 376.501 75.1036C377.772 75.1036 378.508 75.0835 378.709 75.0434H378.87V75.9668H378.589C378.067 75.9802 377.786 76.0806 377.746 76.2679C377.746 76.3215 378.087 77.2315 378.769 78.9981L379.793 81.648L381.62 76.8501V76.6895C381.62 76.5021 381.553 76.3482 381.419 76.2278C381.285 76.1073 381.165 76.0337 381.058 76.007C380.951 75.9802 380.857 75.9668 380.777 75.9668H380.697V75.0434H380.837Z" fill="black"/>
<path d="M387.402 77.5728C387.402 77.5728 387.254 77.5728 386.96 77.5728C386.666 77.5728 386.418 77.4724 386.217 77.2717C386.016 77.0709 385.916 76.81 385.916 76.4888C385.916 76.0203 386.144 75.6055 386.599 75.2441C387.054 74.8828 387.863 74.7021 389.028 74.7021C390.005 74.7021 390.794 74.9162 391.397 75.3445C391.999 75.7728 392.4 76.2813 392.601 76.8702C392.668 77.0576 392.701 77.265 392.701 77.4925C392.701 77.72 392.708 78.4896 392.722 79.8011V81.2064C392.722 81.8488 392.755 82.2904 392.822 82.5313C392.889 82.7722 393.029 82.8927 393.243 82.8927C393.444 82.8927 393.578 82.7856 393.645 82.5715C393.712 82.3573 393.745 82.0027 393.745 81.5075V80.7848H394.548V81.5677C394.535 82.1031 394.515 82.4176 394.488 82.5113C394.368 82.9128 394.133 83.2273 393.785 83.4548C393.438 83.6823 393.069 83.8027 392.681 83.8161C392.293 83.8295 391.979 83.7091 391.738 83.4548C391.497 83.2005 391.336 82.9194 391.256 82.6116V82.5313L391.216 82.5916C391.189 82.6317 391.156 82.6719 391.116 82.712C391.075 82.7522 391.022 82.8124 390.955 82.8927C390.888 82.973 390.808 83.0466 390.714 83.1135C390.62 83.1804 390.52 83.2607 390.413 83.3544C390.306 83.4481 390.185 83.5217 390.052 83.5752C389.918 83.6288 389.77 83.6823 389.61 83.7358C389.449 83.7894 389.275 83.8295 389.088 83.8563C388.901 83.883 388.693 83.9031 388.466 83.9165C387.663 83.9165 386.94 83.7091 386.298 83.2942C385.655 82.8793 385.334 82.2971 385.334 81.5477C385.334 81.2666 385.381 80.9989 385.474 80.7447C385.568 80.4904 385.749 80.216 386.016 79.9216C386.284 79.6271 386.605 79.3796 386.98 79.1788C387.355 78.9781 387.877 78.7907 388.546 78.6167C389.215 78.4427 389.951 78.3424 390.754 78.3156H391.035V77.8739C391.035 77.4189 390.995 77.0843 390.915 76.8702C390.62 75.92 389.971 75.4449 388.967 75.4449C388.727 75.4449 388.499 75.4516 388.285 75.4649C388.071 75.4783 387.904 75.5051 387.783 75.5452C387.663 75.5854 387.609 75.6055 387.622 75.6055C387.917 75.8062 388.064 76.1006 388.064 76.4888C388.064 76.8233 387.957 77.0843 387.743 77.2717L387.402 77.5728ZM387.181 81.5677C387.181 81.9826 387.341 82.3507 387.663 82.6719C387.984 82.9931 388.379 83.1603 388.847 83.1737C389.356 83.1737 389.804 83.0198 390.192 82.712C390.58 82.4042 390.841 82.0027 390.975 81.5075C391.002 81.4138 391.022 80.9722 391.035 80.1826C391.035 79.4063 391.029 79.0182 391.015 79.0182C390.908 79.0182 390.768 79.0249 390.594 79.0383C390.42 79.0517 390.118 79.1119 389.69 79.219C389.262 79.326 388.874 79.4599 388.526 79.6205C388.178 79.7811 387.87 80.0286 387.602 80.3632C387.335 80.6978 387.194 81.0993 387.181 81.5677Z" fill="black"/>
<path d="M395.231 75.224C395.94 75.1704 396.489 74.7957 396.877 74.0998C397.265 73.4038 397.479 72.5875 397.519 71.6506V71.3495H398.322V75.0433H401.033V75.9667H398.322V78.8575C398.336 80.5305 398.342 81.474 398.342 81.6881C398.342 81.9022 398.389 82.1164 398.483 82.3305C398.67 82.8525 398.998 83.1134 399.467 83.1134C400.056 83.1134 400.417 82.6383 400.551 81.6881C400.564 81.581 400.571 81.2732 400.571 80.7647V80.062H401.374V80.7647V81.0056C401.374 82.0361 401.093 82.819 400.531 83.3543C400.169 83.7157 399.701 83.8964 399.125 83.8964C398.67 83.8964 398.276 83.8161 397.941 83.6555C397.606 83.4949 397.352 83.2874 397.178 83.0331C397.004 82.7789 396.877 82.5446 396.797 82.3305C396.716 82.1164 396.67 81.9022 396.656 81.6881C396.643 81.5944 396.636 80.6041 396.636 78.717V75.9667H395.05V75.224H395.231Z" fill="black"/>
<path d="M403.883 71.47C403.883 71.0953 404.004 70.8009 404.245 70.5867C404.485 70.3726 404.78 70.2655 405.128 70.2655C405.436 70.2923 405.703 70.406 405.931 70.6068C406.158 70.8075 406.272 71.0953 406.272 71.47C406.272 71.8715 406.158 72.1726 405.931 72.3734C405.703 72.5741 405.422 72.6745 405.088 72.6745C404.753 72.6745 404.472 72.5741 404.245 72.3734C404.017 72.1726 403.897 71.8715 403.883 71.47ZM407.457 83.6957C407.256 83.6555 406.56 83.6355 405.369 83.6355C405.222 83.6355 404.974 83.6355 404.626 83.6355C404.278 83.6355 403.943 83.6488 403.622 83.6756L403.181 83.6957H403.02V82.7722H403.341C403.716 82.7722 404.044 82.7522 404.325 82.712C404.445 82.6585 404.519 82.5849 404.546 82.4912C404.572 82.3975 404.586 82.1164 404.586 81.648V79.5803V77.8137C404.586 77.1178 404.572 76.6761 404.546 76.4888C404.519 76.3014 404.425 76.1743 404.265 76.1073C404.077 76.0137 403.763 75.9668 403.321 75.9668H403.1V75.5051C403.1 75.1973 403.114 75.0434 403.14 75.0434L403.341 75.0233C403.475 75.0099 403.662 74.9965 403.903 74.9831C404.144 74.9698 404.385 74.9564 404.626 74.943C404.853 74.9296 405.094 74.9162 405.349 74.9028C405.603 74.8895 405.797 74.8694 405.931 74.8426C406.065 74.8158 406.138 74.8092 406.152 74.8225H406.212V82.451C406.279 82.5849 406.359 82.6652 406.453 82.6919C406.546 82.7187 406.781 82.7455 407.155 82.7722H407.617V83.6957H407.457Z" fill="black"/>
<path d="M408.641 79.3996C408.641 78.1282 409.076 77.0307 409.946 76.1073C410.816 75.1838 411.866 74.7154 413.098 74.702C414.302 74.702 415.339 75.1571 416.209 76.0671C417.079 76.9772 417.521 78.0813 417.534 79.3795C417.534 80.6509 417.106 81.7216 416.249 82.5915C415.393 83.4614 414.342 83.8964 413.098 83.8964C411.799 83.8964 410.735 83.448 409.906 82.5513C409.076 81.6547 408.654 80.6041 408.641 79.3996ZM413.098 83.0934C414.73 83.0934 415.547 82.0026 415.547 79.8211V79.1787V78.6769C415.547 78.3824 415.54 78.1282 415.527 77.914C415.513 77.6999 415.466 77.4456 415.386 77.1512C415.306 76.8567 415.199 76.6158 415.065 76.4285C414.931 76.2411 414.724 76.0537 414.443 75.8664C414.162 75.679 413.834 75.5452 413.459 75.4649C413.392 75.4515 413.285 75.4448 413.138 75.4448C412.736 75.4448 412.355 75.5251 411.993 75.6857C411.418 75.9801 411.043 76.3883 410.869 76.9103C410.695 77.4322 410.608 78.0479 410.608 78.7572V79.1587C410.608 80.4435 410.735 81.3468 410.99 81.8688C411.418 82.6852 412.121 83.0934 413.098 83.0934Z" fill="black"/>
<path d="M418.939 82.7722H419.22C419.742 82.7722 420.057 82.6785 420.164 82.4912V82.3306C420.164 82.2101 420.164 82.0562 420.164 81.8689C420.164 81.6815 420.164 81.474 420.164 81.2465C420.164 81.019 420.171 80.758 420.184 80.4636C420.197 80.1692 420.197 79.8881 420.184 79.6205C420.184 79.2056 420.184 78.7639 420.184 78.2955C420.184 77.8271 420.177 77.4323 420.164 77.1111V76.6494C420.124 76.3951 420.03 76.2278 419.883 76.1475C419.736 76.0672 419.435 76.007 418.98 75.9668H418.618V75.5051C418.618 75.1973 418.632 75.0434 418.658 75.0434L418.859 75.0233C418.993 75.0099 419.18 74.9965 419.421 74.9831C419.662 74.9698 419.91 74.9564 420.164 74.943C420.392 74.9296 420.632 74.9162 420.887 74.9028C421.141 74.8895 421.335 74.8694 421.469 74.8426C421.603 74.8158 421.676 74.8092 421.69 74.8225H421.75V75.6255C421.75 76.1341 421.757 76.3884 421.77 76.3884C421.783 76.3884 421.817 76.3549 421.87 76.288C421.924 76.2211 422.004 76.1207 422.111 75.9869C422.218 75.8531 422.345 75.7326 422.493 75.6255C422.64 75.5185 422.834 75.3913 423.075 75.2441C423.316 75.0969 423.57 74.9898 423.838 74.9229C424.105 74.856 424.447 74.8225 424.862 74.8225C426.387 74.8761 427.237 75.6322 427.411 77.091C427.424 77.1847 427.431 78.1148 427.431 79.8814V81.6079C427.431 82.1164 427.445 82.4176 427.471 82.5113C427.498 82.6049 427.572 82.6719 427.692 82.712C427.973 82.7522 428.301 82.7722 428.676 82.7722H428.997V83.6957H428.836L428.355 83.6756C428.047 83.6622 427.712 83.6555 427.351 83.6555C426.989 83.6555 426.735 83.6488 426.588 83.6355C425.21 83.6355 424.46 83.6555 424.34 83.6957H424.179V82.7722H424.5C425.317 82.7722 425.725 82.6652 425.725 82.451C425.738 82.4243 425.745 81.5008 425.745 79.6807C425.731 77.8739 425.718 76.917 425.705 76.81C425.624 76.4352 425.491 76.1542 425.303 75.9668C425.116 75.7794 424.955 75.6657 424.821 75.6255C424.688 75.5854 424.514 75.572 424.299 75.5854C423.697 75.5854 423.169 75.8129 422.714 76.2679C422.352 76.6293 422.125 76.9973 422.031 77.3721C421.937 77.7468 421.884 78.3022 421.87 79.0383V80.3231V81.5276C421.87 81.9291 421.877 82.1967 421.89 82.3306C421.904 82.4644 421.924 82.5514 421.951 82.5916C421.977 82.6317 422.038 82.6719 422.131 82.712C422.412 82.7522 422.74 82.7722 423.115 82.7722H423.436V83.6957H423.276L422.814 83.6756C422.493 83.6622 422.151 83.6555 421.79 83.6555C421.429 83.6555 421.174 83.6488 421.027 83.6355C419.649 83.6355 418.899 83.6555 418.779 83.6957H418.618V82.7722H418.939Z" fill="black"/>
<path d="M431.286 65.5078H328.341V64.3033H431.286V65.5078Z" fill="black"/>
<defs>
<linearGradient id="paint0_linear" x1="167" y1="67.1053" x2="281" y2="67.1053" gradientUnits="userSpaceOnUse">
<stop stop-color="#595959"/>
<stop offset="1" stop-color="#C4C4C4" stop-opacity="0"/>
</linearGradient>
<linearGradient id="paint1_linear" x1="3" y1="66.1053" x2="117" y2="66.1053" gradientUnits="userSpaceOnUse">
<stop stop-color="#D62839"/>
<stop offset="0.510417" stop-color="#5B5B5B" stop-opacity="0"/>
<stop offset="1" stop-color="#4BA3C3"/>
</linearGradient>
</defs>
</svg>
