<svg width="510" height="94" viewBox="0 0 510 94" fill="none" xmlns="http://www.w3.org/2000/svg">
<path d="M179.179 16.8232H176.173V22H174.477V9.20312H178.713C180.154 9.20312 181.262 9.53125 182.035 10.1875C182.814 10.8438 183.204 11.7988 183.204 13.0527C183.204 13.8496 182.987 14.5439 182.554 15.1357C182.126 15.7275 181.528 16.1699 180.761 16.4629L183.767 21.8945V22H181.956L179.179 16.8232ZM176.173 15.4434H178.766C179.604 15.4434 180.269 15.2266 180.761 14.793C181.259 14.3594 181.508 13.7793 181.508 13.0527C181.508 12.2617 181.271 11.6553 180.796 11.2334C180.327 10.8115 179.647 10.5977 178.757 10.5918H176.173V15.4434ZM189.269 22.1758C187.979 22.1758 186.931 21.7539 186.122 20.9102C185.313 20.0605 184.909 18.9268 184.909 17.5088V17.21C184.909 16.2666 185.088 15.4258 185.445 14.6875C185.809 13.9434 186.312 13.3633 186.957 12.9473C187.607 12.5254 188.311 12.3145 189.066 12.3145C190.303 12.3145 191.264 12.7217 191.949 13.5361C192.635 14.3506 192.978 15.5166 192.978 17.0342V17.7109H186.535C186.559 18.6484 186.831 19.4072 187.353 19.9873C187.88 20.5615 188.548 20.8486 189.356 20.8486C189.931 20.8486 190.417 20.7314 190.815 20.4971C191.214 20.2627 191.562 19.9521 191.861 19.5654L192.854 20.3389C192.058 21.5635 190.862 22.1758 189.269 22.1758ZM189.066 13.6504C188.41 13.6504 187.859 13.8906 187.414 14.3711C186.969 14.8457 186.693 15.5137 186.588 16.375H191.352V16.252C191.305 15.4258 191.082 14.7871 190.684 14.3359C190.285 13.8789 189.746 13.6504 189.066 13.6504ZM196.818 20.6201H202.883V22H195.122V9.20312H196.818V20.6201ZM213.342 9.20312V17.9043C213.336 19.1113 212.955 20.0986 212.199 20.8662C211.449 21.6338 210.43 22.0645 209.141 22.1582L208.692 22.1758C207.292 22.1758 206.176 21.7979 205.344 21.042C204.512 20.2861 204.09 19.2461 204.078 17.9219V9.20312H205.748V17.8691C205.748 18.7949 206.003 19.5156 206.513 20.0312C207.022 20.541 207.749 20.7959 208.692 20.7959C209.647 20.7959 210.377 20.541 210.881 20.0312C211.391 19.5215 211.646 18.8037 211.646 17.8779V9.20312H213.342ZM230.305 22H228.608L222.166 12.1387V22H220.47V9.20312H222.166L228.626 19.1084V9.20312H230.305V22ZM236.993 22.1758C235.704 22.1758 234.655 21.7539 233.847 20.9102C233.038 20.0605 232.634 18.9268 232.634 17.5088V17.21C232.634 16.2666 232.812 15.4258 233.17 14.6875C233.533 13.9434 234.037 13.3633 234.682 12.9473C235.332 12.5254 236.035 12.3145 236.791 12.3145C238.027 12.3145 238.988 12.7217 239.674 13.5361C240.359 14.3506 240.702 15.5166 240.702 17.0342V17.7109H234.26C234.283 18.6484 234.556 19.4072 235.077 19.9873C235.604 20.5615 236.272 20.8486 237.081 20.8486C237.655 20.8486 238.142 20.7314 238.54 20.4971C238.938 20.2627 239.287 19.9521 239.586 19.5654L240.579 20.3389C239.782 21.5635 238.587 22.1758 236.993 22.1758ZM236.791 13.6504C236.135 13.6504 235.584 13.8906 235.139 14.3711C234.693 14.8457 234.418 15.5137 234.312 16.375H239.076V16.252C239.029 15.4258 238.807 14.7871 238.408 14.3359C238.01 13.8789 237.471 13.6504 236.791 13.6504ZM248.463 21.0596C247.83 21.8037 246.901 22.1758 245.677 22.1758C244.663 22.1758 243.89 21.8828 243.356 21.2969C242.829 20.7051 242.562 19.832 242.557 18.6777V12.4902H244.183V18.6338C244.183 20.0752 244.769 20.7959 245.94 20.7959C247.183 20.7959 248.009 20.333 248.419 19.4072V12.4902H250.045V22H248.498L248.463 21.0596ZM257.12 13.9492C256.874 13.9082 256.607 13.8877 256.32 13.8877C255.254 13.8877 254.53 14.3418 254.149 15.25V22H252.523V12.4902H254.105L254.132 13.5889C254.665 12.7393 255.421 12.3145 256.399 12.3145C256.716 12.3145 256.956 12.3555 257.12 12.4375V13.9492ZM258.017 17.1572C258.017 16.2256 258.198 15.3877 258.562 14.6436C258.931 13.8994 259.44 13.3252 260.091 12.9209C260.747 12.5166 261.494 12.3145 262.332 12.3145C263.627 12.3145 264.673 12.7627 265.47 13.6592C266.272 14.5557 266.674 15.748 266.674 17.2363V17.3506C266.674 18.2764 266.495 19.1084 266.138 19.8467C265.786 20.5791 265.279 21.1504 264.617 21.5605C263.961 21.9707 263.205 22.1758 262.35 22.1758C261.061 22.1758 260.015 21.7275 259.212 20.8311C258.415 19.9346 258.017 18.748 258.017 17.2715V17.1572ZM259.651 17.3506C259.651 18.4053 259.895 19.252 260.381 19.8906C260.873 20.5293 261.529 20.8486 262.35 20.8486C263.176 20.8486 263.832 20.5264 264.318 19.8818C264.805 19.2314 265.048 18.3232 265.048 17.1572C265.048 16.1143 264.799 15.2705 264.301 14.626C263.809 13.9756 263.152 13.6504 262.332 13.6504C261.529 13.6504 260.882 13.9697 260.39 14.6084C259.897 15.2471 259.651 16.1611 259.651 17.3506ZM270.251 12.4902L270.304 13.6855C271.03 12.7715 271.979 12.3145 273.151 12.3145C275.161 12.3145 276.175 13.4482 276.192 15.7158V22H274.566V15.707C274.561 15.0215 274.402 14.5146 274.092 14.1865C273.787 13.8584 273.31 13.6943 272.659 13.6943C272.132 13.6943 271.669 13.835 271.271 14.1162C270.872 14.3975 270.562 14.7666 270.339 15.2236V22H268.713V12.4902H270.251Z" fill="black"/>
<path d="M340.182 22.6201H346.246V24H338.485V11.2031H340.182V22.6201ZM349.683 24H348.057V14.4902H349.683V24ZM347.925 11.9678C347.925 11.7041 348.004 11.4814 348.162 11.2998C348.326 11.1182 348.566 11.0273 348.883 11.0273C349.199 11.0273 349.439 11.1182 349.604 11.2998C349.768 11.4814 349.85 11.7041 349.85 11.9678C349.85 12.2314 349.768 12.4512 349.604 12.627C349.439 12.8027 349.199 12.8906 348.883 12.8906C348.566 12.8906 348.326 12.8027 348.162 12.627C348.004 12.4512 347.925 12.2314 347.925 11.9678ZM353.831 14.4902L353.884 15.6855C354.61 14.7715 355.56 14.3145 356.731 14.3145C358.741 14.3145 359.755 15.4482 359.772 17.7158V24H358.146V17.707C358.141 17.0215 357.982 16.5146 357.672 16.1865C357.367 15.8584 356.89 15.6943 356.239 15.6943C355.712 15.6943 355.249 15.835 354.851 16.1162C354.452 16.3975 354.142 16.7666 353.919 17.2236V24H352.293V14.4902H353.831ZM366.171 24.1758C364.882 24.1758 363.833 23.7539 363.024 22.9102C362.216 22.0605 361.812 20.9268 361.812 19.5088V19.21C361.812 18.2666 361.99 17.4258 362.348 16.6875C362.711 15.9434 363.215 15.3633 363.859 14.9473C364.51 14.5254 365.213 14.3145 365.969 14.3145C367.205 14.3145 368.166 14.7217 368.852 15.5361C369.537 16.3506 369.88 17.5166 369.88 19.0342V19.7109H363.438C363.461 20.6484 363.733 21.4072 364.255 21.9873C364.782 22.5615 365.45 22.8486 366.259 22.8486C366.833 22.8486 367.319 22.7314 367.718 22.4971C368.116 22.2627 368.465 21.9521 368.764 21.5654L369.757 22.3389C368.96 23.5635 367.765 24.1758 366.171 24.1758ZM365.969 15.6504C365.312 15.6504 364.762 15.8906 364.316 16.3711C363.871 16.8457 363.596 17.5137 363.49 18.375H368.254V18.252C368.207 17.4258 367.984 16.7871 367.586 16.3359C367.188 15.8789 366.648 15.6504 365.969 15.6504ZM377.641 24C377.547 23.8125 377.471 23.4785 377.412 22.998C376.656 23.7832 375.754 24.1758 374.705 24.1758C373.768 24.1758 372.997 23.9121 372.394 23.3848C371.796 22.8516 371.497 22.1777 371.497 21.3633C371.497 20.373 371.872 19.6055 372.622 19.0605C373.378 18.5098 374.438 18.2344 375.804 18.2344H377.386V17.4873C377.386 16.9189 377.216 16.4678 376.876 16.1338C376.536 15.7939 376.035 15.624 375.373 15.624C374.793 15.624 374.307 15.7705 373.914 16.0635C373.521 16.3564 373.325 16.7109 373.325 17.127H371.69C371.69 16.6523 371.857 16.1953 372.191 15.7559C372.531 15.3105 372.988 14.959 373.562 14.7012C374.143 14.4434 374.778 14.3145 375.47 14.3145C376.565 14.3145 377.424 14.5898 378.045 15.1406C378.666 15.6855 378.988 16.4385 379.012 17.3994V21.7764C379.012 22.6494 379.123 23.3438 379.346 23.8594V24H377.641ZM374.942 22.7607C375.452 22.7607 375.936 22.6289 376.393 22.3652C376.85 22.1016 377.181 21.7588 377.386 21.3369V19.3857H376.111C374.119 19.3857 373.123 19.9688 373.123 21.1348C373.123 21.6445 373.293 22.043 373.633 22.3301C373.973 22.6172 374.409 22.7607 374.942 22.7607ZM386.157 15.9492C385.911 15.9082 385.645 15.8877 385.357 15.8877C384.291 15.8877 383.567 16.3418 383.187 17.25V24H381.561V14.4902H383.143L383.169 15.5889C383.702 14.7393 384.458 14.3145 385.437 14.3145C385.753 14.3145 385.993 14.3555 386.157 14.4375V15.9492ZM402.215 24H400.519L394.076 14.1387V24H392.38V11.2031H394.076L400.536 21.1084V11.2031H402.215V24ZM408.903 24.1758C407.614 24.1758 406.565 23.7539 405.757 22.9102C404.948 22.0605 404.544 20.9268 404.544 19.5088V19.21C404.544 18.2666 404.723 17.4258 405.08 16.6875C405.443 15.9434 405.947 15.3633 406.592 14.9473C407.242 14.5254 407.945 14.3145 408.701 14.3145C409.938 14.3145 410.898 14.7217 411.584 15.5361C412.27 16.3506 412.612 17.5166 412.612 19.0342V19.7109H406.17C406.193 20.6484 406.466 21.4072 406.987 21.9873C407.515 22.5615 408.183 22.8486 408.991 22.8486C409.565 22.8486 410.052 22.7314 410.45 22.4971C410.849 22.2627 411.197 21.9521 411.496 21.5654L412.489 22.3389C411.692 23.5635 410.497 24.1758 408.903 24.1758ZM408.701 15.6504C408.045 15.6504 407.494 15.8906 407.049 16.3711C406.604 16.8457 406.328 17.5137 406.223 18.375H410.986V18.252C410.939 17.4258 410.717 16.7871 410.318 16.3359C409.92 15.8789 409.381 15.6504 408.701 15.6504ZM420.373 23.0596C419.74 23.8037 418.812 24.1758 417.587 24.1758C416.573 24.1758 415.8 23.8828 415.267 23.2969C414.739 22.7051 414.473 21.832 414.467 20.6777V14.4902H416.093V20.6338C416.093 22.0752 416.679 22.7959 417.851 22.7959C419.093 22.7959 419.919 22.333 420.329 21.4072V14.4902H421.955V24H420.408L420.373 23.0596ZM429.03 15.9492C428.784 15.9082 428.518 15.8877 428.23 15.8877C427.164 15.8877 426.44 16.3418 426.06 17.25V24H424.434V14.4902H426.016L426.042 15.5889C426.575 14.7393 427.331 14.3145 428.31 14.3145C428.626 14.3145 428.866 14.3555 429.03 14.4375V15.9492ZM429.927 19.1572C429.927 18.2256 430.108 17.3877 430.472 16.6436C430.841 15.8994 431.351 15.3252 432.001 14.9209C432.657 14.5166 433.404 14.3145 434.242 14.3145C435.537 14.3145 436.583 14.7627 437.38 15.6592C438.183 16.5557 438.584 17.748 438.584 19.2363V19.3506C438.584 20.2764 438.405 21.1084 438.048 21.8467C437.696 22.5791 437.189 23.1504 436.527 23.5605C435.871 23.9707 435.115 24.1758 434.26 24.1758C432.971 24.1758 431.925 23.7275 431.122 22.8311C430.325 21.9346 429.927 20.748 429.927 19.2715V19.1572ZM431.562 19.3506C431.562 20.4053 431.805 21.252 432.291 21.8906C432.783 22.5293 433.439 22.8486 434.26 22.8486C435.086 22.8486 435.742 22.5264 436.229 21.8818C436.715 21.2314 436.958 20.3232 436.958 19.1572C436.958 18.1143 436.709 17.2705 436.211 16.626C435.719 15.9756 435.062 15.6504 434.242 15.6504C433.439 15.6504 432.792 15.9697 432.3 16.6084C431.808 17.2471 431.562 18.1611 431.562 19.3506ZM442.161 14.4902L442.214 15.6855C442.94 14.7715 443.89 14.3145 445.062 14.3145C447.071 14.3145 448.085 15.4482 448.103 17.7158V24H446.477V17.707C446.471 17.0215 446.312 16.5146 446.002 16.1865C445.697 15.8584 445.22 15.6943 444.569 15.6943C444.042 15.6943 443.579 15.835 443.181 16.1162C442.782 16.3975 442.472 16.7666 442.249 17.2236V24H440.623V14.4902H442.161Z" fill="black"/>
<path d="M176.552 52.6602H171.19L169.986 56H168.246L173.133 43.2031H174.609L179.505 56H177.773L176.552 52.6602ZM171.7 51.2715H176.051L173.871 45.2861L171.7 51.2715ZM184.787 54.8486C185.367 54.8486 185.874 54.6729 186.308 54.3213C186.741 53.9697 186.981 53.5303 187.028 53.0029H188.566C188.537 53.5479 188.35 54.0664 188.004 54.5586C187.658 55.0508 187.195 55.4434 186.615 55.7363C186.041 56.0293 185.432 56.1758 184.787 56.1758C183.492 56.1758 182.461 55.7451 181.693 54.8838C180.932 54.0166 180.551 52.833 180.551 51.333V51.0605C180.551 50.1348 180.721 49.3115 181.061 48.5908C181.4 47.8701 181.887 47.3105 182.52 46.9121C183.158 46.5137 183.911 46.3145 184.778 46.3145C185.845 46.3145 186.729 46.6338 187.433 47.2725C188.142 47.9111 188.52 48.7402 188.566 49.7598H187.028C186.981 49.1445 186.747 48.6406 186.325 48.248C185.909 47.8496 185.394 47.6504 184.778 47.6504C183.952 47.6504 183.311 47.9492 182.854 48.5469C182.402 49.1387 182.177 49.9971 182.177 51.1221V51.4297C182.177 52.5254 182.402 53.3691 182.854 53.9609C183.305 54.5527 183.949 54.8486 184.787 54.8486ZM192.601 44.1875V46.4902H194.376V47.7471H192.601V53.6445C192.601 54.0254 192.68 54.3125 192.838 54.5059C192.996 54.6934 193.266 54.7871 193.646 54.7871C193.834 54.7871 194.092 54.752 194.42 54.6816V56C193.992 56.1172 193.576 56.1758 193.172 56.1758C192.445 56.1758 191.897 55.9561 191.528 55.5166C191.159 55.0771 190.975 54.4531 190.975 53.6445V47.7471H189.243V46.4902H190.975V44.1875H192.601ZM198.05 56H196.424V46.4902H198.05V56ZM196.292 43.9678C196.292 43.7041 196.371 43.4814 196.529 43.2998C196.693 43.1182 196.934 43.0273 197.25 43.0273C197.566 43.0273 197.807 43.1182 197.971 43.2998C198.135 43.4814 198.217 43.7041 198.217 43.9678C198.217 44.2314 198.135 44.4512 197.971 44.627C197.807 44.8027 197.566 44.8906 197.25 44.8906C196.934 44.8906 196.693 44.8027 196.529 44.627C196.371 44.4512 196.292 44.2314 196.292 43.9678ZM203.798 53.7939L206.153 46.4902H207.814L204.404 56H203.165L199.72 46.4902H201.381L203.798 53.7939ZM215.109 56C215.016 55.8125 214.939 55.4785 214.881 54.998C214.125 55.7832 213.223 56.1758 212.174 56.1758C211.236 56.1758 210.466 55.9121 209.862 55.3848C209.265 54.8516 208.966 54.1777 208.966 53.3633C208.966 52.373 209.341 51.6055 210.091 51.0605C210.847 50.5098 211.907 50.2344 213.272 50.2344H214.854V49.4873C214.854 48.9189 214.685 48.4678 214.345 48.1338C214.005 47.7939 213.504 47.624 212.842 47.624C212.262 47.624 211.775 47.7705 211.383 48.0635C210.99 48.3564 210.794 48.7109 210.794 49.127H209.159C209.159 48.6523 209.326 48.1953 209.66 47.7559C210 47.3105 210.457 46.959 211.031 46.7012C211.611 46.4434 212.247 46.3145 212.938 46.3145C214.034 46.3145 214.893 46.5898 215.514 47.1406C216.135 47.6855 216.457 48.4385 216.48 49.3994V53.7764C216.48 54.6494 216.592 55.3438 216.814 55.8594V56H215.109ZM212.411 54.7607C212.921 54.7607 213.404 54.6289 213.861 54.3652C214.318 54.1016 214.649 53.7588 214.854 53.3369V51.3857H213.58C211.588 51.3857 210.592 51.9688 210.592 53.1348C210.592 53.6445 210.762 54.043 211.102 54.3301C211.441 54.6172 211.878 54.7607 212.411 54.7607ZM221.235 44.1875V46.4902H223.011V47.7471H221.235V53.6445C221.235 54.0254 221.314 54.3125 221.473 54.5059C221.631 54.6934 221.9 54.7871 222.281 54.7871C222.469 54.7871 222.727 54.752 223.055 54.6816V56C222.627 56.1172 222.211 56.1758 221.807 56.1758C221.08 56.1758 220.532 55.9561 220.163 55.5166C219.794 55.0771 219.609 54.4531 219.609 53.6445V47.7471H217.878V46.4902H219.609V44.1875H221.235ZM226.685 56H225.059V46.4902H226.685V56ZM224.927 43.9678C224.927 43.7041 225.006 43.4814 225.164 43.2998C225.328 43.1182 225.568 43.0273 225.885 43.0273C226.201 43.0273 226.441 43.1182 226.605 43.2998C226.77 43.4814 226.852 43.7041 226.852 43.9678C226.852 44.2314 226.77 44.4512 226.605 44.627C226.441 44.8027 226.201 44.8906 225.885 44.8906C225.568 44.8906 225.328 44.8027 225.164 44.627C225.006 44.4512 224.927 44.2314 224.927 43.9678ZM228.864 51.1572C228.864 50.2256 229.046 49.3877 229.409 48.6436C229.778 47.8994 230.288 47.3252 230.938 46.9209C231.595 46.5166 232.342 46.3145 233.18 46.3145C234.475 46.3145 235.521 46.7627 236.317 47.6592C237.12 48.5557 237.521 49.748 237.521 51.2363V51.3506C237.521 52.2764 237.343 53.1084 236.985 53.8467C236.634 54.5791 236.127 55.1504 235.465 55.5605C234.809 55.9707 234.053 56.1758 233.197 56.1758C231.908 56.1758 230.862 55.7275 230.06 54.8311C229.263 53.9346 228.864 52.748 228.864 51.2715V51.1572ZM230.499 51.3506C230.499 52.4053 230.742 53.252 231.229 53.8906C231.721 54.5293 232.377 54.8486 233.197 54.8486C234.023 54.8486 234.68 54.5264 235.166 53.8818C235.652 53.2314 235.896 52.3232 235.896 51.1572C235.896 50.1143 235.646 49.2705 235.148 48.626C234.656 47.9756 234 47.6504 233.18 47.6504C232.377 47.6504 231.729 47.9697 231.237 48.6084C230.745 49.2471 230.499 50.1611 230.499 51.3506ZM241.099 46.4902L241.151 47.6855C241.878 46.7715 242.827 46.3145 243.999 46.3145C246.009 46.3145 247.022 47.4482 247.04 49.7158V56H245.414V49.707C245.408 49.0215 245.25 48.5146 244.939 48.1865C244.635 47.8584 244.157 47.6943 243.507 47.6943C242.979 47.6943 242.517 47.835 242.118 48.1162C241.72 48.3975 241.409 48.7666 241.187 49.2236V56H239.561V46.4902H241.099Z" fill="black"/>
<path d="M168.5 75.5L281.5 75.5V61.5L168.5 61.5V75.5Z" fill="url(#paint0_linear)" stroke="black"/>
<path d="M281.5 74V80" stroke="black"/>
<path d="M168.5 74V80" stroke="black"/>
<path d="M161.998 91H160.914V82H161.998V91ZM163.451 87.7715C163.451 87.1504 163.572 86.5918 163.814 86.0957C164.061 85.5996 164.4 85.2168 164.834 84.9473C165.271 84.6777 165.77 84.543 166.328 84.543C167.191 84.543 167.889 84.8418 168.42 85.4395C168.955 86.0371 169.223 86.832 169.223 87.8242V87.9004C169.223 88.5176 169.104 89.0723 168.865 89.5645C168.631 90.0527 168.293 90.4336 167.852 90.707C167.414 90.9805 166.91 91.1172 166.34 91.1172C165.48 91.1172 164.783 90.8184 164.248 90.2207C163.717 89.623 163.451 88.832 163.451 87.8477V87.7715ZM164.541 87.9004C164.541 88.6035 164.703 89.168 165.027 89.5938C165.355 90.0195 165.793 90.2324 166.34 90.2324C166.891 90.2324 167.328 90.0176 167.652 89.5879C167.977 89.1543 168.139 88.5488 168.139 87.7715C168.139 87.0762 167.973 86.5137 167.641 86.084C167.312 85.6504 166.875 85.4336 166.328 85.4336C165.793 85.4336 165.361 85.6465 165.033 86.0723C164.705 86.498 164.541 87.1074 164.541 87.9004ZM176.195 89.5059L177.414 84.6602H178.498L176.652 91H175.773L174.232 86.1953L172.732 91H171.854L170.014 84.6602H171.092L172.34 89.4062L173.816 84.6602H174.689L176.195 89.5059Z" fill="black"/>
<path d="M271.904 85.4277C272.385 84.8379 273.01 84.543 273.779 84.543C275.119 84.543 275.795 85.2988 275.807 86.8105V91H274.723V86.8047C274.719 86.3477 274.613 86.0098 274.406 85.791C274.203 85.5723 273.885 85.4629 273.451 85.4629C273.1 85.4629 272.791 85.5566 272.525 85.7441C272.26 85.9316 272.053 86.1777 271.904 86.4824V91H270.82V82H271.904V85.4277ZM278.607 91H277.523V84.6602H278.607V91ZM277.436 82.9785C277.436 82.8027 277.488 82.6543 277.594 82.5332C277.703 82.4121 277.863 82.3516 278.074 82.3516C278.285 82.3516 278.445 82.4121 278.555 82.5332C278.664 82.6543 278.719 82.8027 278.719 82.9785C278.719 83.1543 278.664 83.3008 278.555 83.418C278.445 83.5352 278.285 83.5938 278.074 83.5938C277.863 83.5938 277.703 83.5352 277.594 83.418C277.488 83.3008 277.436 83.1543 277.436 82.9785ZM280.09 87.7773C280.09 86.7891 280.318 86.0039 280.775 85.4219C281.232 84.8359 281.838 84.543 282.592 84.543C283.365 84.543 283.969 84.8164 284.402 85.3633L284.455 84.6602H285.445V90.8477C285.445 91.668 285.201 92.3145 284.713 92.7871C284.229 93.2598 283.576 93.4961 282.756 93.4961C282.299 93.4961 281.852 93.3984 281.414 93.2031C280.977 93.0078 280.643 92.7402 280.412 92.4004L280.975 91.75C281.439 92.3242 282.008 92.6113 282.68 92.6113C283.207 92.6113 283.617 92.4629 283.91 92.166C284.207 91.8691 284.355 91.4512 284.355 90.9121V90.3672C283.922 90.8672 283.33 91.1172 282.58 91.1172C281.838 91.1172 281.236 90.8184 280.775 90.2207C280.318 89.623 280.09 88.8086 280.09 87.7773ZM281.18 87.9004C281.18 88.6152 281.326 89.1777 281.619 89.5879C281.912 89.9941 282.322 90.1973 282.85 90.1973C283.533 90.1973 284.035 89.8867 284.355 89.2656V86.3711C284.023 85.7656 283.525 85.4629 282.861 85.4629C282.334 85.4629 281.922 85.668 281.625 86.0781C281.328 86.4883 281.18 87.0957 281.18 87.9004ZM288.17 85.4277C288.65 84.8379 289.275 84.543 290.045 84.543C291.385 84.543 292.061 85.2988 292.072 86.8105V91H290.988V86.8047C290.984 86.3477 290.879 86.0098 290.672 85.791C290.469 85.5723 290.15 85.4629 289.717 85.4629C289.365 85.4629 289.057 85.5566 288.791 85.7441C288.525 85.9316 288.318 86.1777 288.17 86.4824V91H287.086V82H288.17V85.4277Z" fill="black"/>
<path d="M4.24512 50.9658L4.49121 52.6533L4.85156 51.1328L7.38281 42.2031H8.80664L11.2764 51.1328L11.6279 52.6797L11.9004 50.957L13.8867 42.2031H15.583L12.4805 55H10.9424L8.30566 45.6748L8.10352 44.6992L7.90137 45.6748L5.16797 55H3.62988L0.536133 42.2031H2.22363L4.24512 50.9658ZM20.874 55.1758C19.585 55.1758 18.5361 54.7539 17.7275 53.9102C16.9189 53.0605 16.5146 51.9268 16.5146 50.5088V50.21C16.5146 49.2666 16.6934 48.4258 17.0508 47.6875C17.4141 46.9434 17.918 46.3633 18.5625 45.9473C19.2129 45.5254 19.916 45.3145 20.6719 45.3145C21.9082 45.3145 22.8691 45.7217 23.5547 46.5361C24.2402 47.3506 24.583 48.5166 24.583 50.0342V50.7109H18.1406C18.1641 51.6484 18.4365 52.4072 18.958 52.9873C19.4854 53.5615 20.1533 53.8486 20.9619 53.8486C21.5361 53.8486 22.0225 53.7314 22.4209 53.4971C22.8193 53.2627 23.168 52.9521 23.4668 52.5654L24.46 53.3389C23.6631 54.5635 22.4678 55.1758 20.874 55.1758ZM20.6719 46.6504C20.0156 46.6504 19.4648 46.8906 19.0195 47.3711C18.5742 47.8457 18.2988 48.5137 18.1934 49.375H22.957V49.252C22.9102 48.4258 22.6875 47.7871 22.2891 47.3359C21.8906 46.8789 21.3516 46.6504 20.6719 46.6504ZM28.2393 55H26.6133V45.4902H28.2393V55ZM26.4814 42.9678C26.4814 42.7041 26.5605 42.4814 26.7188 42.2998C26.8828 42.1182 27.123 42.0273 27.4395 42.0273C27.7559 42.0273 27.9961 42.1182 28.1602 42.2998C28.3242 42.4814 28.4062 42.7041 28.4062 42.9678C28.4062 43.2314 28.3242 43.4512 28.1602 43.627C27.9961 43.8027 27.7559 43.8906 27.4395 43.8906C27.123 43.8906 26.8828 43.8027 26.7188 43.627C26.5605 43.4512 26.4814 43.2314 26.4814 42.9678ZM30.4629 50.166C30.4629 48.6836 30.8057 47.5059 31.4912 46.6328C32.1768 45.7539 33.085 45.3145 34.2158 45.3145C35.376 45.3145 36.2812 45.7246 36.9316 46.5449L37.0107 45.4902H38.4961V54.7715C38.4961 56.002 38.1299 56.9717 37.3975 57.6807C36.6709 58.3896 35.6924 58.7441 34.4619 58.7441C33.7764 58.7441 33.1055 58.5977 32.4492 58.3047C31.793 58.0117 31.292 57.6104 30.9463 57.1006L31.79 56.125C32.4873 56.9863 33.3398 57.417 34.3477 57.417C35.1387 57.417 35.7539 57.1943 36.1934 56.749C36.6387 56.3037 36.8613 55.6768 36.8613 54.8682V54.0508C36.2109 54.8008 35.3232 55.1758 34.1982 55.1758C33.085 55.1758 32.1826 54.7275 31.4912 53.8311C30.8057 52.9346 30.4629 51.7129 30.4629 50.166ZM32.0977 50.3506C32.0977 51.4229 32.3174 52.2666 32.7568 52.8818C33.1963 53.4912 33.8115 53.7959 34.6025 53.7959C35.6279 53.7959 36.3809 53.3301 36.8613 52.3984V48.0566C36.3633 47.1484 35.6162 46.6943 34.6201 46.6943C33.8291 46.6943 33.2109 47.002 32.7656 47.6172C32.3203 48.2324 32.0977 49.1436 32.0977 50.3506ZM42.583 46.6416C43.3037 45.7568 44.2412 45.3145 45.3955 45.3145C47.4053 45.3145 48.4189 46.4482 48.4365 48.7158V55H46.8105V48.707C46.8047 48.0215 46.6465 47.5146 46.3359 47.1865C46.0312 46.8584 45.5537 46.6943 44.9033 46.6943C44.376 46.6943 43.9131 46.835 43.5146 47.1162C43.1162 47.3975 42.8057 47.7666 42.583 48.2236V55H40.957V41.5H42.583V46.6416ZM53.0771 43.1875V45.4902H54.8525V46.7471H53.0771V52.6445C53.0771 53.0254 53.1562 53.3125 53.3145 53.5059C53.4727 53.6934 53.7422 53.7871 54.123 53.7871C54.3105 53.7871 54.5684 53.752 54.8965 53.6816V55C54.4688 55.1172 54.0527 55.1758 53.6484 55.1758C52.9219 55.1758 52.374 54.9561 52.0049 54.5166C51.6357 54.0771 51.4512 53.4531 51.4512 52.6445V46.7471H49.7197V45.4902H51.4512V43.1875H53.0771Z" fill="black"/>
<path d="M4.5 74.5L117.5 74.5V60.5L4.5 60.5V74.5Z" fill="url(#paint1_linear)" stroke="black"/>
<path d="M117.5 73V79" stroke="black"/>
<path d="M4.5 73V79" stroke="black"/>
<path d="M62 74V80" stroke="black"/>
<path d="M7.82031 86.1855H1.94922V85.3008H7.82031V86.1855Z" fill="black"/>
<path d="M64.5586 86.3613C64.5586 87.6309 64.3418 88.5742 63.9082 89.1914C63.4746 89.8086 62.7969 90.1172 61.875 90.1172C60.9648 90.1172 60.291 89.8164 59.8535 89.2148C59.416 88.6094 59.1895 87.707 59.1738 86.5078V85.0605C59.1738 83.8066 59.3906 82.875 59.8242 82.2656C60.2578 81.6562 60.9375 81.3516 61.8633 81.3516C62.7812 81.3516 63.457 81.6465 63.8906 82.2363C64.3242 82.8223 64.5469 83.7285 64.5586 84.9551V86.3613ZM63.4746 84.8789C63.4746 83.9609 63.3457 83.293 63.0879 82.875C62.8301 82.4531 62.4219 82.2422 61.8633 82.2422C61.3086 82.2422 60.9043 82.4512 60.6504 82.8691C60.3965 83.2871 60.2656 83.9297 60.2578 84.7969V86.5312C60.2578 87.4531 60.3906 88.1348 60.6562 88.5762C60.9258 89.0137 61.332 89.2324 61.875 89.2324C62.4102 89.2324 62.8066 89.0254 63.0645 88.6113C63.3262 88.1973 63.4629 87.5449 63.4746 86.6543V84.8789Z" fill="black"/>
<path d="M118.176 85.4238H120.555V86.4492H118.176V89.1445H117.086V86.4492H114.707V85.4238H117.086V82.9336H118.176V85.4238Z" fill="black"/>
<path d="M310.5 4.5H281.5V33.5H310.5V4.5Z" fill="#959595" stroke="black" stroke-width="3"/>
<path d="M485.5 4.5H456.5V33.5H485.5V4.5Z" fill="#959595" stroke="#517AB7" stroke-width="3"/>
<path d="M3.2959 22H1.6084V9.20312H3.2959V22ZM7.67285 12.4902L7.72559 13.6855C8.45215 12.7715 9.40137 12.3145 10.5732 12.3145C12.583 12.3145 13.5967 13.4482 13.6143 15.7158V22H11.9883V15.707C11.9824 15.0215 11.8242 14.5146 11.5137 14.1865C11.209 13.8584 10.7314 13.6943 10.0811 13.6943C9.55371 13.6943 9.09082 13.835 8.69238 14.1162C8.29395 14.3975 7.9834 14.7666 7.76074 15.2236V22H6.13477V12.4902H7.67285ZM24.0996 17.3506C24.0996 18.7979 23.7686 19.9639 23.1064 20.8486C22.4443 21.7334 21.5479 22.1758 20.417 22.1758C19.2627 22.1758 18.3545 21.8096 17.6924 21.0771V25.6562H16.0664V12.4902H17.5518L17.6309 13.5449C18.293 12.7246 19.2129 12.3145 20.3906 12.3145C21.5332 12.3145 22.4355 12.7451 23.0977 13.6064C23.7656 14.4678 24.0996 15.666 24.0996 17.2012V17.3506ZM22.4736 17.166C22.4736 16.0938 22.2451 15.2471 21.7881 14.626C21.3311 14.0049 20.7041 13.6943 19.9072 13.6943C18.9229 13.6943 18.1846 14.1309 17.6924 15.0039V19.5479C18.1787 20.415 18.9229 20.8486 19.9248 20.8486C20.7041 20.8486 21.3223 20.541 21.7793 19.9258C22.2422 19.3047 22.4736 18.3848 22.4736 17.166ZM32.0449 21.0596C31.4121 21.8037 30.4834 22.1758 29.2588 22.1758C28.2451 22.1758 27.4717 21.8828 26.9385 21.2969C26.4111 20.7051 26.1445 19.832 26.1387 18.6777V12.4902H27.7646V18.6338C27.7646 20.0752 28.3506 20.7959 29.5225 20.7959C30.7646 20.7959 31.5908 20.333 32.001 19.4072V12.4902H33.627V22H32.0801L32.0449 21.0596ZM38.3115 10.1875V12.4902H40.0869V13.7471H38.3115V19.6445C38.3115 20.0254 38.3906 20.3125 38.5488 20.5059C38.707 20.6934 38.9766 20.7871 39.3574 20.7871C39.5449 20.7871 39.8027 20.752 40.1309 20.6816V22C39.7031 22.1172 39.2871 22.1758 38.8828 22.1758C38.1562 22.1758 37.6084 21.9561 37.2393 21.5166C36.8701 21.0771 36.6855 20.4531 36.6855 19.6445V13.7471H34.9541V12.4902H36.6855V10.1875H38.3115ZM56.5488 22H54.8525L48.4102 12.1387V22H46.7139V9.20312H48.4102L54.8701 19.1084V9.20312H56.5488V22ZM63.2373 22.1758C61.9482 22.1758 60.8994 21.7539 60.0908 20.9102C59.2822 20.0605 58.8779 18.9268 58.8779 17.5088V17.21C58.8779 16.2666 59.0566 15.4258 59.4141 14.6875C59.7773 13.9434 60.2812 13.3633 60.9258 12.9473C61.5762 12.5254 62.2793 12.3145 63.0352 12.3145C64.2715 12.3145 65.2324 12.7217 65.918 13.5361C66.6035 14.3506 66.9463 15.5166 66.9463 17.0342V17.7109H60.5039C60.5273 18.6484 60.7998 19.4072 61.3213 19.9873C61.8486 20.5615 62.5166 20.8486 63.3252 20.8486C63.8994 20.8486 64.3857 20.7314 64.7842 20.4971C65.1826 20.2627 65.5312 19.9521 65.8301 19.5654L66.8232 20.3389C66.0264 21.5635 64.8311 22.1758 63.2373 22.1758ZM63.0352 13.6504C62.3789 13.6504 61.8281 13.8906 61.3828 14.3711C60.9375 14.8457 60.6621 15.5137 60.5566 16.375H65.3203V16.252C65.2734 15.4258 65.0508 14.7871 64.6523 14.3359C64.2539 13.8789 63.7148 13.6504 63.0352 13.6504ZM74.707 21.0596C74.0742 21.8037 73.1455 22.1758 71.9209 22.1758C70.9072 22.1758 70.1338 21.8828 69.6006 21.2969C69.0732 20.7051 68.8066 19.832 68.8008 18.6777V12.4902H70.4268V18.6338C70.4268 20.0752 71.0127 20.7959 72.1846 20.7959C73.4268 20.7959 74.2529 20.333 74.6631 19.4072V12.4902H76.2891V22H74.7422L74.707 21.0596ZM83.3643 13.9492C83.1182 13.9082 82.8516 13.8877 82.5645 13.8877C81.498 13.8877 80.7744 14.3418 80.3936 15.25V22H78.7676V12.4902H80.3496L80.376 13.5889C80.9092 12.7393 81.665 12.3145 82.6436 12.3145C82.96 12.3145 83.2002 12.3555 83.3643 12.4375V13.9492ZM84.2607 17.1572C84.2607 16.2256 84.4424 15.3877 84.8057 14.6436C85.1748 13.8994 85.6846 13.3252 86.335 12.9209C86.9912 12.5166 87.7383 12.3145 88.5762 12.3145C89.8711 12.3145 90.917 12.7627 91.7139 13.6592C92.5166 14.5557 92.918 15.748 92.918 17.2363V17.3506C92.918 18.2764 92.7393 19.1084 92.3818 19.8467C92.0303 20.5791 91.5234 21.1504 90.8613 21.5605C90.2051 21.9707 89.4492 22.1758 88.5938 22.1758C87.3047 22.1758 86.2588 21.7275 85.4561 20.8311C84.6592 19.9346 84.2607 18.748 84.2607 17.2715V17.1572ZM85.8955 17.3506C85.8955 18.4053 86.1387 19.252 86.625 19.8906C87.1172 20.5293 87.7734 20.8486 88.5938 20.8486C89.4199 20.8486 90.0762 20.5264 90.5625 19.8818C91.0488 19.2314 91.292 18.3232 91.292 17.1572C91.292 16.1143 91.043 15.2705 90.5449 14.626C90.0527 13.9756 89.3965 13.6504 88.5762 13.6504C87.7734 13.6504 87.126 13.9697 86.6338 14.6084C86.1416 15.2471 85.8955 16.1611 85.8955 17.3506ZM96.4951 12.4902L96.5479 13.6855C97.2744 12.7715 98.2236 12.3145 99.3955 12.3145C101.405 12.3145 102.419 13.4482 102.437 15.7158V22H100.811V15.707C100.805 15.0215 100.646 14.5146 100.336 14.1865C100.031 13.8584 99.5537 13.6943 98.9033 13.6943C98.376 13.6943 97.9131 13.835 97.5146 14.1162C97.1162 14.3975 96.8057 14.7666 96.583 15.2236V22H94.957V12.4902H96.4951Z" fill="black"/>
<path d="M139.5 1.5H110.5V30.5H139.5V1.5Z" fill="#959595" stroke="#959595" stroke-width="3"/>
<path d="M316.238 57V46.3359H319.248C320.176 46.3359 320.996 46.541 321.709 46.9512C322.422 47.3613 322.971 47.9448 323.357 48.7017C323.748 49.4585 323.945 50.3276 323.95 51.3091V51.9902C323.95 52.9961 323.755 53.8774 323.364 54.6343C322.979 55.3911 322.424 55.9722 321.702 56.3774C320.984 56.7827 320.146 56.9902 319.189 57H316.238ZM317.644 47.4932V55.8501H319.124C320.208 55.8501 321.05 55.5132 321.65 54.8394C322.256 54.1655 322.559 53.2061 322.559 51.9609V51.3384C322.559 50.1274 322.273 49.1875 321.702 48.5186C321.135 47.8447 320.33 47.5029 319.285 47.4932H317.644ZM327.341 57H325.986V49.0752H327.341V57ZM325.876 46.9731C325.876 46.7534 325.942 46.5679 326.074 46.4165C326.211 46.2651 326.411 46.1895 326.675 46.1895C326.938 46.1895 327.139 46.2651 327.275 46.4165C327.412 46.5679 327.48 46.7534 327.48 46.9731C327.48 47.1929 327.412 47.376 327.275 47.5225C327.139 47.6689 326.938 47.7422 326.675 47.7422C326.411 47.7422 326.211 47.6689 326.074 47.5225C325.942 47.376 325.876 47.1929 325.876 46.9731ZM333.347 50.291C333.142 50.2568 332.92 50.2397 332.681 50.2397C331.792 50.2397 331.189 50.6182 330.872 51.375V57H329.517V49.0752H330.835L330.857 49.9907C331.301 49.2827 331.931 48.9287 332.747 48.9287C333.01 48.9287 333.21 48.9629 333.347 49.0312V50.291ZM337.742 57.1465C336.667 57.1465 335.793 56.7949 335.12 56.0918C334.446 55.3838 334.109 54.439 334.109 53.2573V53.0083C334.109 52.2222 334.258 51.5215 334.556 50.9062C334.858 50.2861 335.278 49.8027 335.815 49.4561C336.357 49.1045 336.943 48.9287 337.573 48.9287C338.604 48.9287 339.404 49.2681 339.976 49.9468C340.547 50.6255 340.833 51.5972 340.833 52.8618V53.4258H335.464C335.483 54.207 335.71 54.8394 336.145 55.3228C336.584 55.8013 337.141 56.0405 337.815 56.0405C338.293 56.0405 338.699 55.9429 339.031 55.7476C339.363 55.5522 339.653 55.2935 339.902 54.9712L340.73 55.6157C340.066 56.6362 339.07 57.1465 337.742 57.1465ZM337.573 50.042C337.026 50.042 336.567 50.2422 336.196 50.6426C335.825 51.0381 335.596 51.5947 335.508 52.3125H339.478V52.21C339.438 51.5215 339.253 50.9893 338.921 50.6133C338.589 50.2324 338.14 50.042 337.573 50.042ZM345.586 56.0405C346.069 56.0405 346.492 55.894 346.853 55.6011C347.214 55.3081 347.415 54.9419 347.454 54.5024H348.735C348.711 54.9565 348.555 55.3887 348.267 55.7988C347.979 56.209 347.593 56.5361 347.109 56.7803C346.631 57.0244 346.123 57.1465 345.586 57.1465C344.507 57.1465 343.647 56.7876 343.008 56.0698C342.373 55.3472 342.056 54.3608 342.056 53.1108V52.8838C342.056 52.1123 342.197 51.4263 342.48 50.8257C342.764 50.2251 343.169 49.7588 343.696 49.4268C344.229 49.0947 344.856 48.9287 345.579 48.9287C346.467 48.9287 347.205 49.1948 347.791 49.7271C348.381 50.2593 348.696 50.9502 348.735 51.7998H347.454C347.415 51.2871 347.219 50.8672 346.868 50.54C346.521 50.208 346.091 50.042 345.579 50.042C344.89 50.042 344.355 50.291 343.975 50.7891C343.599 51.2822 343.411 51.9976 343.411 52.9351V53.1914C343.411 54.1045 343.599 54.8076 343.975 55.3008C344.351 55.7939 344.888 56.0405 345.586 56.0405ZM352.097 47.1562V49.0752H353.577V50.1226H352.097V55.0371C352.097 55.3545 352.163 55.5938 352.295 55.7549C352.427 55.9111 352.651 55.9893 352.969 55.9893C353.125 55.9893 353.34 55.96 353.613 55.9014V57C353.257 57.0977 352.91 57.1465 352.573 57.1465C351.968 57.1465 351.511 56.9634 351.204 56.5972C350.896 56.231 350.742 55.7109 350.742 55.0371V50.1226H349.299V49.0752H350.742V47.1562H352.097ZM356.638 57H355.283V49.0752H356.638V57ZM355.173 46.9731C355.173 46.7534 355.239 46.5679 355.371 46.4165C355.508 46.2651 355.708 46.1895 355.972 46.1895C356.235 46.1895 356.436 46.2651 356.572 46.4165C356.709 46.5679 356.777 46.7534 356.777 46.9731C356.777 47.1929 356.709 47.376 356.572 47.5225C356.436 47.6689 356.235 47.7422 355.972 47.7422C355.708 47.7422 355.508 47.6689 355.371 47.5225C355.239 47.376 355.173 47.1929 355.173 46.9731ZM358.455 52.9644C358.455 52.188 358.606 51.4897 358.909 50.8696C359.216 50.2495 359.641 49.771 360.183 49.4341C360.73 49.0972 361.353 48.9287 362.051 48.9287C363.13 48.9287 364.001 49.3022 364.666 50.0493C365.334 50.7964 365.669 51.79 365.669 53.0303V53.1255C365.669 53.897 365.52 54.5903 365.222 55.2056C364.929 55.8159 364.507 56.292 363.955 56.6338C363.408 56.9756 362.778 57.1465 362.065 57.1465C360.991 57.1465 360.12 56.7729 359.451 56.0259C358.787 55.2788 358.455 54.29 358.455 53.0596V52.9644ZM359.817 53.1255C359.817 54.0044 360.02 54.71 360.425 55.2422C360.835 55.7744 361.382 56.0405 362.065 56.0405C362.754 56.0405 363.301 55.772 363.706 55.2349C364.111 54.6929 364.314 53.936 364.314 52.9644C364.314 52.0952 364.106 51.3921 363.691 50.855C363.281 50.313 362.734 50.042 362.051 50.042C361.382 50.042 360.842 50.3081 360.432 50.8403C360.022 51.3726 359.817 52.1343 359.817 53.1255ZM368.65 49.0752L368.694 50.0713C369.299 49.3096 370.09 48.9287 371.067 48.9287C372.742 48.9287 373.586 49.8735 373.601 51.7632V57H372.246V51.7559C372.241 51.1846 372.109 50.7622 371.851 50.4888C371.597 50.2153 371.199 50.0786 370.657 50.0786C370.217 50.0786 369.832 50.1958 369.5 50.4302C369.167 50.6646 368.909 50.9722 368.723 51.353V57H367.368V49.0752H368.65ZM381.204 47.1562V49.0752H382.683V50.1226H381.204V55.0371C381.204 55.3545 381.27 55.5938 381.401 55.7549C381.533 55.9111 381.758 55.9893 382.075 55.9893C382.231 55.9893 382.446 55.96 382.72 55.9014V57C382.363 57.0977 382.017 57.1465 381.68 57.1465C381.074 57.1465 380.618 56.9634 380.31 56.5972C380.002 56.231 379.849 55.7109 379.849 55.0371V50.1226H378.406V49.0752H379.849V47.1562H381.204ZM385.627 50.0347C386.228 49.2974 387.009 48.9287 387.971 48.9287C389.646 48.9287 390.491 49.8735 390.505 51.7632V57H389.15V51.7559C389.146 51.1846 389.014 50.7622 388.755 50.4888C388.501 50.2153 388.103 50.0786 387.561 50.0786C387.122 50.0786 386.736 50.1958 386.404 50.4302C386.072 50.6646 385.813 50.9722 385.627 51.353V57H384.272V45.75H385.627V50.0347ZM395.823 57.1465C394.749 57.1465 393.875 56.7949 393.201 56.0918C392.527 55.3838 392.19 54.439 392.19 53.2573V53.0083C392.19 52.2222 392.339 51.5215 392.637 50.9062C392.939 50.2861 393.359 49.8027 393.896 49.4561C394.438 49.1045 395.024 48.9287 395.654 48.9287C396.685 48.9287 397.485 49.2681 398.057 49.9468C398.628 50.6255 398.914 51.5972 398.914 52.8618V53.4258H393.545C393.564 54.207 393.792 54.8394 394.226 55.3228C394.666 55.8013 395.222 56.0405 395.896 56.0405C396.375 56.0405 396.78 55.9429 397.112 55.7476C397.444 55.5522 397.734 55.2935 397.983 54.9712L398.811 55.6157C398.147 56.6362 397.151 57.1465 395.823 57.1465ZM395.654 50.042C395.107 50.042 394.648 50.2422 394.277 50.6426C393.906 51.0381 393.677 51.5947 393.589 52.3125H397.559V52.21C397.52 51.5215 397.334 50.9893 397.002 50.6133C396.67 50.2324 396.221 50.042 395.654 50.042ZM403.85 52.9644C403.85 52.188 404.001 51.4897 404.304 50.8696C404.612 50.2495 405.037 49.771 405.579 49.4341C406.125 49.0972 406.748 48.9287 407.446 48.9287C408.525 48.9287 409.397 49.3022 410.061 50.0493C410.73 50.7964 411.064 51.79 411.064 53.0303V53.1255C411.064 53.897 410.916 54.5903 410.618 55.2056C410.325 55.8159 409.902 56.292 409.351 56.6338C408.804 56.9756 408.174 57.1465 407.461 57.1465C406.387 57.1465 405.515 56.7729 404.846 56.0259C404.182 55.2788 403.85 54.29 403.85 53.0596V52.9644ZM405.212 53.1255C405.212 54.0044 405.415 54.71 405.82 55.2422C406.23 55.7744 406.777 56.0405 407.461 56.0405C408.149 56.0405 408.696 55.772 409.102 55.2349C409.507 54.6929 409.709 53.936 409.709 52.9644C409.709 52.0952 409.502 51.3921 409.087 50.855C408.677 50.313 408.13 50.042 407.446 50.042C406.777 50.042 406.238 50.3081 405.828 50.8403C405.417 51.3726 405.212 52.1343 405.212 53.1255ZM417.656 56.2163C417.129 56.8364 416.355 57.1465 415.334 57.1465C414.49 57.1465 413.845 56.9023 413.401 56.4141C412.961 55.9209 412.739 55.1934 412.734 54.2314V49.0752H414.089V54.1948C414.089 55.396 414.578 55.9966 415.554 55.9966C416.589 55.9966 417.278 55.6108 417.62 54.8394V49.0752H418.975V57H417.686L417.656 56.2163ZM422.878 47.1562V49.0752H424.358V50.1226H422.878V55.0371C422.878 55.3545 422.944 55.5938 423.076 55.7549C423.208 55.9111 423.433 55.9893 423.75 55.9893C423.906 55.9893 424.121 55.96 424.395 55.9014V57C424.038 57.0977 423.691 57.1465 423.354 57.1465C422.749 57.1465 422.292 56.9634 421.985 56.5972C421.677 56.231 421.523 55.7109 421.523 55.0371V50.1226H420.081V49.0752H421.523V47.1562H422.878ZM432.642 53.1255C432.642 54.3315 432.366 55.3032 431.814 56.0405C431.262 56.7778 430.515 57.1465 429.573 57.1465C428.611 57.1465 427.854 56.8413 427.302 56.231V60.0469H425.947V49.0752H427.185L427.251 49.9541C427.803 49.2705 428.569 48.9287 429.551 48.9287C430.503 48.9287 431.255 49.2876 431.807 50.0054C432.363 50.7231 432.642 51.7217 432.642 53.001V53.1255ZM431.287 52.9717C431.287 52.0781 431.096 51.3726 430.715 50.855C430.334 50.3374 429.812 50.0786 429.148 50.0786C428.328 50.0786 427.712 50.4424 427.302 51.1699V54.9565C427.708 55.6792 428.328 56.0405 429.163 56.0405C429.812 56.0405 430.327 55.7842 430.708 55.2715C431.094 54.7539 431.287 53.9873 431.287 52.9717ZM439.263 56.2163C438.735 56.8364 437.961 57.1465 436.941 57.1465C436.096 57.1465 435.452 56.9023 435.007 56.4141C434.568 55.9209 434.346 55.1934 434.341 54.2314V49.0752H435.696V54.1948C435.696 55.396 436.184 55.9966 437.161 55.9966C438.196 55.9966 438.884 55.6108 439.226 54.8394V49.0752H440.581V57H439.292L439.263 56.2163ZM444.485 47.1562V49.0752H445.964V50.1226H444.485V55.0371C444.485 55.3545 444.551 55.5938 444.683 55.7549C444.814 55.9111 445.039 55.9893 445.356 55.9893C445.513 55.9893 445.728 55.96 446.001 55.9014V57C445.645 57.0977 445.298 57.1465 444.961 57.1465C444.355 57.1465 443.899 56.9634 443.591 56.5972C443.284 56.231 443.13 55.7109 443.13 55.0371V50.1226H441.687V49.0752H443.13V47.1562H444.485ZM317.307 67.0752L317.351 68.0713C317.957 67.3096 318.748 66.9287 319.724 66.9287C321.399 66.9287 322.244 67.8735 322.258 69.7632V75H320.903V69.7559C320.898 69.1846 320.767 68.7622 320.508 68.4888C320.254 68.2153 319.856 68.0786 319.314 68.0786C318.875 68.0786 318.489 68.1958 318.157 68.4302C317.825 68.6646 317.566 68.9722 317.38 69.353V75H316.025V67.0752H317.307ZM327.59 75.1465C326.516 75.1465 325.642 74.7949 324.968 74.0918C324.294 73.3838 323.958 72.439 323.958 71.2573V71.0083C323.958 70.2222 324.106 69.5215 324.404 68.9062C324.707 68.2861 325.127 67.8027 325.664 67.4561C326.206 67.1045 326.792 66.9287 327.422 66.9287C328.452 66.9287 329.253 67.2681 329.824 67.9468C330.396 68.6255 330.681 69.5972 330.681 70.8618V71.4258H325.312C325.332 72.207 325.559 72.8394 325.994 73.3228C326.433 73.8013 326.99 74.0405 327.664 74.0405C328.142 74.0405 328.547 73.9429 328.879 73.7476C329.211 73.5522 329.502 73.2935 329.751 72.9712L330.579 73.6157C329.915 74.6362 328.918 75.1465 327.59 75.1465ZM327.422 68.042C326.875 68.042 326.416 68.2422 326.045 68.6426C325.674 69.0381 325.444 69.5947 325.356 70.3125H329.326V70.21C329.287 69.5215 329.102 68.9893 328.77 68.6133C328.438 68.2324 327.988 68.042 327.422 68.042ZM335.544 75.1465C334.47 75.1465 333.596 74.7949 332.922 74.0918C332.249 73.3838 331.912 72.439 331.912 71.2573V71.0083C331.912 70.2222 332.061 69.5215 332.358 68.9062C332.661 68.2861 333.081 67.8027 333.618 67.4561C334.16 67.1045 334.746 66.9287 335.376 66.9287C336.406 66.9287 337.207 67.2681 337.778 67.9468C338.35 68.6255 338.635 69.5972 338.635 70.8618V71.4258H333.267C333.286 72.207 333.513 72.8394 333.948 73.3228C334.387 73.8013 334.944 74.0405 335.618 74.0405C336.096 74.0405 336.501 73.9429 336.833 73.7476C337.166 73.5522 337.456 73.2935 337.705 72.9712L338.533 73.6157C337.869 74.6362 336.873 75.1465 335.544 75.1465ZM335.376 68.042C334.829 68.042 334.37 68.2422 333.999 68.6426C333.628 69.0381 333.398 69.5947 333.311 70.3125H337.28V70.21C337.241 69.5215 337.056 68.9893 336.724 68.6133C336.392 68.2324 335.942 68.042 335.376 68.042ZM339.88 70.9717C339.88 69.7559 340.168 68.7793 340.745 68.042C341.321 67.2998 342.075 66.9287 343.008 66.9287C343.936 66.9287 344.67 67.2461 345.212 67.8809V63.75H346.567V75H345.322L345.256 74.1504C344.714 74.8145 343.96 75.1465 342.993 75.1465C342.075 75.1465 341.326 74.7705 340.745 74.0186C340.168 73.2666 339.88 72.2852 339.88 71.0742V70.9717ZM341.235 71.1255C341.235 72.0239 341.421 72.7271 341.792 73.2349C342.163 73.7427 342.676 73.9966 343.33 73.9966C344.189 73.9966 344.817 73.6108 345.212 72.8394V69.1992C344.807 68.4521 344.185 68.0786 343.345 68.0786C342.681 68.0786 342.163 68.335 341.792 68.8477C341.421 69.3604 341.235 70.1196 341.235 71.1255ZM353.291 72.8979C353.291 72.5317 353.152 72.2485 352.874 72.0483C352.6 71.8433 352.119 71.6675 351.431 71.521C350.747 71.3745 350.203 71.1987 349.797 70.9937C349.397 70.7886 349.099 70.5444 348.904 70.2612C348.713 69.978 348.618 69.6411 348.618 69.2505C348.618 68.6011 348.892 68.0518 349.438 67.6025C349.99 67.1533 350.693 66.9287 351.548 66.9287C352.446 66.9287 353.174 67.1606 353.73 67.6245C354.292 68.0884 354.573 68.6816 354.573 69.4043H353.21C353.21 69.0332 353.052 68.7134 352.734 68.4448C352.422 68.1763 352.026 68.042 351.548 68.042C351.055 68.042 350.669 68.1494 350.391 68.3643C350.112 68.5791 349.973 68.8599 349.973 69.2065C349.973 69.5337 350.103 69.7803 350.361 69.9463C350.62 70.1123 351.086 70.271 351.76 70.4224C352.439 70.5737 352.988 70.7544 353.408 70.9644C353.828 71.1743 354.138 71.4282 354.338 71.7261C354.543 72.019 354.646 72.3779 354.646 72.8027C354.646 73.5107 354.363 74.0796 353.796 74.5093C353.23 74.9341 352.495 75.1465 351.592 75.1465C350.957 75.1465 350.396 75.0342 349.907 74.8096C349.419 74.585 349.036 74.2725 348.757 73.8721C348.484 73.4668 348.347 73.0298 348.347 72.561H349.702C349.727 73.0151 349.907 73.3765 350.244 73.645C350.586 73.9087 351.035 74.0405 351.592 74.0405C352.104 74.0405 352.515 73.938 352.822 73.7329C353.135 73.5229 353.291 73.2446 353.291 72.8979ZM361.97 65.1562V67.0752H363.45V68.1226H361.97V73.0371C361.97 73.3545 362.036 73.5938 362.168 73.7549C362.3 73.9111 362.524 73.9893 362.842 73.9893C362.998 73.9893 363.213 73.96 363.486 73.9014V75C363.13 75.0977 362.783 75.1465 362.446 75.1465C361.841 75.1465 361.384 74.9634 361.077 74.5972C360.769 74.231 360.615 73.7109 360.615 73.0371V68.1226H359.172V67.0752H360.615V65.1562H361.97ZM364.534 70.9644C364.534 70.188 364.685 69.4897 364.988 68.8696C365.295 68.2495 365.72 67.771 366.262 67.4341C366.809 67.0972 367.432 66.9287 368.13 66.9287C369.209 66.9287 370.081 67.3022 370.745 68.0493C371.414 68.7964 371.748 69.79 371.748 71.0303V71.1255C371.748 71.897 371.599 72.5903 371.301 73.2056C371.008 73.8159 370.586 74.292 370.034 74.6338C369.487 74.9756 368.857 75.1465 368.145 75.1465C367.07 75.1465 366.199 74.7729 365.53 74.0259C364.866 73.2788 364.534 72.29 364.534 71.0596V70.9644ZM365.896 71.1255C365.896 72.0044 366.099 72.71 366.504 73.2422C366.914 73.7744 367.461 74.0405 368.145 74.0405C368.833 74.0405 369.38 73.772 369.785 73.2349C370.19 72.6929 370.393 71.936 370.393 70.9644C370.393 70.0952 370.186 69.3921 369.771 68.855C369.36 68.313 368.813 68.042 368.13 68.042C367.461 68.042 366.921 68.3081 366.511 68.8403C366.101 69.3726 365.896 70.1343 365.896 71.1255ZM380.347 74.0405C380.83 74.0405 381.252 73.894 381.614 73.6011C381.975 73.3081 382.175 72.9419 382.214 72.5024H383.496C383.472 72.9565 383.315 73.3887 383.027 73.7988C382.739 74.209 382.354 74.5361 381.87 74.7803C381.392 75.0244 380.884 75.1465 380.347 75.1465C379.268 75.1465 378.408 74.7876 377.769 74.0698C377.134 73.3472 376.816 72.3608 376.816 71.1108V70.8838C376.816 70.1123 376.958 69.4263 377.241 68.8257C377.524 68.2251 377.93 67.7588 378.457 67.4268C378.989 67.0947 379.617 66.9287 380.339 66.9287C381.228 66.9287 381.965 67.1948 382.551 67.7271C383.142 68.2593 383.457 68.9502 383.496 69.7998H382.214C382.175 69.2871 381.98 68.8672 381.628 68.54C381.282 68.208 380.852 68.042 380.339 68.042C379.651 68.042 379.116 68.291 378.735 68.7891C378.359 69.2822 378.171 69.9976 378.171 70.9351V71.1914C378.171 72.1045 378.359 72.8076 378.735 73.3008C379.111 73.7939 379.648 74.0405 380.347 74.0405ZM386.375 68.0347C386.975 67.2974 387.756 66.9287 388.718 66.9287C390.393 66.9287 391.238 67.8735 391.252 69.7632V75H389.897V69.7559C389.893 69.1846 389.761 68.7622 389.502 68.4888C389.248 68.2153 388.85 68.0786 388.308 68.0786C387.869 68.0786 387.483 68.1958 387.151 68.4302C386.819 68.6646 386.56 68.9722 386.375 69.353V75H385.02V63.75H386.375V68.0347ZM398.174 75C398.096 74.8438 398.032 74.5654 397.983 74.165C397.354 74.8193 396.602 75.1465 395.728 75.1465C394.946 75.1465 394.304 74.9268 393.801 74.4873C393.303 74.043 393.054 73.4814 393.054 72.8027C393.054 71.9775 393.367 71.3379 393.992 70.8838C394.622 70.4248 395.505 70.1953 396.643 70.1953H397.961V69.5728C397.961 69.0991 397.82 68.7231 397.537 68.4448C397.253 68.1616 396.836 68.02 396.284 68.02C395.801 68.02 395.396 68.1421 395.068 68.3862C394.741 68.6304 394.578 68.9258 394.578 69.2725H393.215C393.215 68.877 393.354 68.4961 393.633 68.1299C393.916 67.7588 394.297 67.4658 394.775 67.251C395.259 67.0361 395.789 66.9287 396.365 66.9287C397.278 66.9287 397.993 67.1582 398.511 67.6172C399.028 68.0713 399.297 68.6987 399.316 69.4995V73.147C399.316 73.8745 399.409 74.4531 399.595 74.8828V75H398.174ZM395.925 73.9673C396.35 73.9673 396.753 73.8574 397.134 73.6377C397.515 73.418 397.791 73.1323 397.961 72.7808V71.1548H396.899C395.239 71.1548 394.409 71.6406 394.409 72.6123C394.409 73.0371 394.551 73.3691 394.834 73.6084C395.117 73.8477 395.481 73.9673 395.925 73.9673ZM402.722 67.0752L402.766 68.0713C403.372 67.3096 404.163 66.9287 405.139 66.9287C406.814 66.9287 407.659 67.8735 407.673 69.7632V75H406.318V69.7559C406.313 69.1846 406.182 68.7622 405.923 68.4888C405.669 68.2153 405.271 68.0786 404.729 68.0786C404.29 68.0786 403.904 68.1958 403.572 68.4302C403.24 68.6646 402.981 68.9722 402.795 69.353V75H401.44V67.0752H402.722ZM409.395 70.9717C409.395 69.7363 409.68 68.7549 410.251 68.0273C410.823 67.2949 411.58 66.9287 412.522 66.9287C413.489 66.9287 414.243 67.2705 414.785 67.9541L414.851 67.0752H416.089V74.8096C416.089 75.835 415.784 76.6431 415.173 77.2339C414.568 77.8247 413.752 78.1201 412.727 78.1201C412.156 78.1201 411.597 77.998 411.05 77.7539C410.503 77.5098 410.085 77.1753 409.797 76.7505L410.5 75.9375C411.082 76.6553 411.792 77.0142 412.632 77.0142C413.291 77.0142 413.804 76.8286 414.17 76.4575C414.541 76.0864 414.727 75.564 414.727 74.8901V74.209C414.185 74.834 413.445 75.1465 412.507 75.1465C411.58 75.1465 410.828 74.7729 410.251 74.0259C409.68 73.2788 409.395 72.2607 409.395 70.9717ZM410.757 71.1255C410.757 72.019 410.94 72.7222 411.306 73.2349C411.672 73.7427 412.185 73.9966 412.844 73.9966C413.699 73.9966 414.326 73.6084 414.727 72.832V69.2139C414.312 68.457 413.689 68.0786 412.859 68.0786C412.2 68.0786 411.685 68.335 411.313 68.8477C410.942 69.3604 410.757 70.1196 410.757 71.1255ZM421.428 75.1465C420.354 75.1465 419.48 74.7949 418.806 74.0918C418.132 73.3838 417.795 72.439 417.795 71.2573V71.0083C417.795 70.2222 417.944 69.5215 418.242 68.9062C418.545 68.2861 418.965 67.8027 419.502 67.4561C420.044 67.1045 420.63 66.9287 421.26 66.9287C422.29 66.9287 423.091 67.2681 423.662 67.9468C424.233 68.6255 424.519 69.5972 424.519 70.8618V71.4258H419.15C419.17 72.207 419.397 72.8394 419.832 73.3228C420.271 73.8013 420.828 74.0405 421.501 74.0405C421.98 74.0405 422.385 73.9429 422.717 73.7476C423.049 73.5522 423.34 73.2935 423.589 72.9712L424.417 73.6157C423.752 74.6362 422.756 75.1465 421.428 75.1465ZM421.26 68.042C420.713 68.042 420.254 68.2422 419.883 68.6426C419.512 69.0381 419.282 69.5947 419.194 70.3125H423.164V70.21C423.125 69.5215 422.939 68.9893 422.607 68.6133C422.275 68.2324 421.826 68.042 421.26 68.042ZM431.653 65.1562V67.0752H433.132V68.1226H431.653V73.0371C431.653 73.3545 431.719 73.5938 431.851 73.7549C431.982 73.9111 432.207 73.9893 432.524 73.9893C432.681 73.9893 432.896 73.96 433.169 73.9014V75C432.812 75.0977 432.466 75.1465 432.129 75.1465C431.523 75.1465 431.067 74.9634 430.759 74.5972C430.452 74.231 430.298 73.7109 430.298 73.0371V68.1226H428.855V67.0752H430.298V65.1562H431.653ZM434.216 70.9644C434.216 70.188 434.368 69.4897 434.67 68.8696C434.978 68.2495 435.403 67.771 435.945 67.4341C436.492 67.0972 437.114 66.9287 437.812 66.9287C438.892 66.9287 439.763 67.3022 440.427 68.0493C441.096 68.7964 441.431 69.79 441.431 71.0303V71.1255C441.431 71.897 441.282 72.5903 440.984 73.2056C440.691 73.8159 440.269 74.292 439.717 74.6338C439.17 74.9756 438.54 75.1465 437.827 75.1465C436.753 75.1465 435.881 74.7729 435.212 74.0259C434.548 73.2788 434.216 72.29 434.216 71.0596V70.9644ZM435.579 71.1255C435.579 72.0044 435.781 72.71 436.187 73.2422C436.597 73.7744 437.144 74.0405 437.827 74.0405C438.516 74.0405 439.062 73.772 439.468 73.2349C439.873 72.6929 440.076 71.936 440.076 70.9644C440.076 70.0952 439.868 69.3921 439.453 68.855C439.043 68.313 438.496 68.042 437.812 68.042C437.144 68.042 436.604 68.3081 436.194 68.8403C435.784 69.3726 435.579 70.1343 435.579 71.1255ZM317.498 93H316.143V81.75H317.498V93ZM319.314 88.9644C319.314 88.188 319.465 87.4897 319.768 86.8696C320.076 86.2495 320.5 85.771 321.042 85.4341C321.589 85.0972 322.212 84.9287 322.91 84.9287C323.989 84.9287 324.861 85.3022 325.525 86.0493C326.194 86.7964 326.528 87.79 326.528 89.0303V89.1255C326.528 89.897 326.379 90.5903 326.082 91.2056C325.789 91.8159 325.366 92.292 324.814 92.6338C324.268 92.9756 323.638 93.1465 322.925 93.1465C321.851 93.1465 320.979 92.7729 320.31 92.0259C319.646 91.2788 319.314 90.29 319.314 89.0596V88.9644ZM320.676 89.1255C320.676 90.0044 320.879 90.71 321.284 91.2422C321.694 91.7744 322.241 92.0405 322.925 92.0405C323.613 92.0405 324.16 91.772 324.565 91.2349C324.971 90.6929 325.173 89.936 325.173 88.9644C325.173 88.0952 324.966 87.3921 324.551 86.855C324.141 86.313 323.594 86.042 322.91 86.042C322.241 86.042 321.702 86.3081 321.292 86.8403C320.881 87.3726 320.676 88.1343 320.676 89.1255ZM335.244 91.1323L336.768 85.0752H338.123L335.815 93H334.717L332.791 86.9941L330.916 93H329.817L327.517 85.0752H328.865L330.425 91.0078L332.271 85.0752H333.362L335.244 91.1323ZM342.795 93.1465C341.721 93.1465 340.847 92.7949 340.173 92.0918C339.5 91.3838 339.163 90.439 339.163 89.2573V89.0083C339.163 88.2222 339.312 87.5215 339.609 86.9062C339.912 86.2861 340.332 85.8027 340.869 85.4561C341.411 85.1045 341.997 84.9287 342.627 84.9287C343.657 84.9287 344.458 85.2681 345.029 85.9468C345.601 86.6255 345.886 87.5972 345.886 88.8618V89.4258H340.518C340.537 90.207 340.764 90.8394 341.199 91.3228C341.638 91.8013 342.195 92.0405 342.869 92.0405C343.347 92.0405 343.752 91.9429 344.084 91.7476C344.417 91.5522 344.707 91.2935 344.956 90.9712L345.784 91.6157C345.12 92.6362 344.124 93.1465 342.795 93.1465ZM342.627 86.042C342.08 86.042 341.621 86.2422 341.25 86.6426C340.879 87.0381 340.649 87.5947 340.562 88.3125H344.531V88.21C344.492 87.5215 344.307 86.9893 343.975 86.6133C343.643 86.2324 343.193 86.042 342.627 86.042ZM351.292 86.291C351.086 86.2568 350.864 86.2397 350.625 86.2397C349.736 86.2397 349.133 86.6182 348.816 87.375V93H347.461V85.0752H348.779L348.801 85.9907C349.246 85.2827 349.875 84.9287 350.691 84.9287C350.955 84.9287 351.155 84.9629 351.292 85.0312V86.291ZM357.737 93H356.382V81.75H357.737V93ZM359.553 88.9644C359.553 88.188 359.705 87.4897 360.007 86.8696C360.315 86.2495 360.74 85.771 361.282 85.4341C361.829 85.0972 362.451 84.9287 363.149 84.9287C364.229 84.9287 365.1 85.3022 365.764 86.0493C366.433 86.7964 366.768 87.79 366.768 89.0303V89.1255C366.768 89.897 366.619 90.5903 366.321 91.2056C366.028 91.8159 365.605 92.292 365.054 92.6338C364.507 92.9756 363.877 93.1465 363.164 93.1465C362.09 93.1465 361.218 92.7729 360.549 92.0259C359.885 91.2788 359.553 90.29 359.553 89.0596V88.9644ZM360.916 89.1255C360.916 90.0044 361.118 90.71 361.523 91.2422C361.934 91.7744 362.48 92.0405 363.164 92.0405C363.853 92.0405 364.399 91.772 364.805 91.2349C365.21 90.6929 365.413 89.936 365.413 88.9644C365.413 88.0952 365.205 87.3921 364.79 86.855C364.38 86.313 363.833 86.042 363.149 86.042C362.48 86.042 361.941 86.3081 361.531 86.8403C361.121 87.3726 360.916 88.1343 360.916 89.1255ZM373.081 90.8979C373.081 90.5317 372.942 90.2485 372.664 90.0483C372.39 89.8433 371.909 89.6675 371.221 89.521C370.537 89.3745 369.993 89.1987 369.587 88.9937C369.187 88.7886 368.889 88.5444 368.694 88.2612C368.503 87.978 368.408 87.6411 368.408 87.2505C368.408 86.6011 368.682 86.0518 369.229 85.6025C369.78 85.1533 370.483 84.9287 371.338 84.9287C372.236 84.9287 372.964 85.1606 373.521 85.6245C374.082 86.0884 374.363 86.6816 374.363 87.4043H373C373 87.0332 372.842 86.7134 372.524 86.4448C372.212 86.1763 371.816 86.042 371.338 86.042C370.845 86.042 370.459 86.1494 370.181 86.3643C369.902 86.5791 369.763 86.8599 369.763 87.2065C369.763 87.5337 369.893 87.7803 370.151 87.9463C370.41 88.1123 370.876 88.271 371.55 88.4224C372.229 88.5737 372.778 88.7544 373.198 88.9644C373.618 89.1743 373.928 89.4282 374.128 89.7261C374.333 90.019 374.436 90.3779 374.436 90.8027C374.436 91.5107 374.153 92.0796 373.586 92.5093C373.02 92.9341 372.285 93.1465 371.382 93.1465C370.747 93.1465 370.186 93.0342 369.697 92.8096C369.209 92.585 368.826 92.2725 368.547 91.8721C368.274 91.4668 368.137 91.0298 368.137 90.561H369.492C369.517 91.0151 369.697 91.3765 370.034 91.645C370.376 91.9087 370.825 92.0405 371.382 92.0405C371.895 92.0405 372.305 91.938 372.612 91.7329C372.925 91.5229 373.081 91.2446 373.081 90.8979ZM380.815 90.8979C380.815 90.5317 380.676 90.2485 380.398 90.0483C380.125 89.8433 379.644 89.6675 378.955 89.521C378.271 89.3745 377.727 89.1987 377.322 88.9937C376.921 88.7886 376.624 88.5444 376.428 88.2612C376.238 87.978 376.143 87.6411 376.143 87.2505C376.143 86.6011 376.416 86.0518 376.963 85.6025C377.515 85.1533 378.218 84.9287 379.072 84.9287C379.971 84.9287 380.698 85.1606 381.255 85.6245C381.816 86.0884 382.097 86.6816 382.097 87.4043H380.735C380.735 87.0332 380.576 86.7134 380.259 86.4448C379.946 86.1763 379.551 86.042 379.072 86.042C378.579 86.042 378.193 86.1494 377.915 86.3643C377.637 86.5791 377.498 86.8599 377.498 87.2065C377.498 87.5337 377.627 87.7803 377.886 87.9463C378.145 88.1123 378.611 88.271 379.285 88.4224C379.963 88.5737 380.513 88.7544 380.933 88.9644C381.353 89.1743 381.663 89.4282 381.863 89.7261C382.068 90.019 382.17 90.3779 382.17 90.8027C382.17 91.5107 381.887 92.0796 381.321 92.5093C380.754 92.9341 380.02 93.1465 379.116 93.1465C378.481 93.1465 377.92 93.0342 377.432 92.8096C376.943 92.585 376.56 92.2725 376.282 91.8721C376.008 91.4668 375.872 91.0298 375.872 90.561H377.227C377.251 91.0151 377.432 91.3765 377.769 91.645C378.11 91.9087 378.56 92.0405 379.116 92.0405C379.629 92.0405 380.039 91.938 380.347 91.7329C380.659 91.5229 380.815 91.2446 380.815 90.8979Z" fill="black"/>
<path d="M462.5 62L475.057 76.3633H449.943L462.5 62Z" fill="#FA9600"/>
<rect x="460" y="75" width="5" height="15" fill="#FA9600"/>
<path d="M455 52.0224C455 52.0224 455 51.9219 455 51.721C455 51.52 455.108 51.3654 455.325 51.2572H462.257V47.7793L462.28 44.3014C462.435 44.1005 462.582 44 462.721 44C462.922 44 463.077 44.1159 463.185 44.3478V51.2572H470.094C470.326 51.3809 470.442 51.5355 470.442 51.721C470.442 51.9065 470.326 52.061 470.094 52.1847H463.185V59.0942C463.061 59.3106 462.922 59.4188 462.767 59.4188H462.721H462.675C462.489 59.4188 462.35 59.3106 462.257 59.0942V52.1847H455.325C455.108 52.0765 455 51.9219 455 51.721V52.0224Z" fill="#33B438" stroke="#33B438"/>
<path d="M493.5 83L480.943 68.6367L506.057 68.6367L493.5 83Z" fill="#FA9600"/>
<rect x="496" y="70" width="5" height="15" transform="rotate(-180 496 70)" fill="#FA9600"/>
<path d="M486 89.2499C486 89.2499 486 89.4046 486 89.714C486 90.0234 486.115 90.2614 486.344 90.428H500.631C500.877 90.2376 501 89.9996 501 89.714C501 89.4284 500.877 89.1904 500.631 89H486.344C486.115 89.1666 486 89.4046 486 89.714V89.2499Z" fill="#CA1414"/>
<defs>
<linearGradient id="paint0_linear" x1="167" y1="67.1053" x2="281" y2="67.1053" gradientUnits="userSpaceOnUse">
<stop stop-color="#595959"/>
<stop offset="1" stop-color="#C4C4C4" stop-opacity="0"/>
</linearGradient>
<linearGradient id="paint1_linear" x1="3" y1="66.1053" x2="117" y2="66.1053" gradientUnits="userSpaceOnUse">
<stop stop-color="#D62839"/>
<stop offset="0.510417" stop-color="#5B5B5B" stop-opacity="0"/>
<stop offset="1" stop-color="#4BA3C3"/>
</linearGradient>
</defs>
</svg>
