<svg width="481" height="94" viewBox="0 0 481 94" fill="none" xmlns="http://www.w3.org/2000/svg">
<g clip-path="url(#clip0)">
<path d="M163.179 16.8232H160.173V22H158.477V9.20312H162.713C164.154 9.20312 165.262 9.53125 166.035 10.1875C166.814 10.8438 167.204 11.7988 167.204 13.0527C167.204 13.8496 166.987 14.5439 166.554 15.1357C166.126 15.7275 165.528 16.1699 164.761 16.4629L167.767 21.8945V22H165.956L163.179 16.8232ZM160.173 15.4434H162.766C163.604 15.4434 164.269 15.2266 164.761 14.793C165.259 14.3594 165.508 13.7793 165.508 13.0527C165.508 12.2617 165.271 11.6553 164.796 11.2334C164.327 10.8115 163.647 10.5977 162.757 10.5918H160.173V15.4434ZM173.269 22.1758C171.979 22.1758 170.931 21.7539 170.122 20.9102C169.313 20.0605 168.909 18.9268 168.909 17.5088V17.21C168.909 16.2666 169.088 15.4258 169.445 14.6875C169.809 13.9434 170.312 13.3633 170.957 12.9473C171.607 12.5254 172.311 12.3145 173.066 12.3145C174.303 12.3145 175.264 12.7217 175.949 13.5361C176.635 14.3506 176.978 15.5166 176.978 17.0342V17.7109H170.535C170.559 18.6484 170.831 19.4072 171.353 19.9873C171.88 20.5615 172.548 20.8486 173.356 20.8486C173.931 20.8486 174.417 20.7314 174.815 20.4971C175.214 20.2627 175.562 19.9521 175.861 19.5654L176.854 20.3389C176.058 21.5635 174.862 22.1758 173.269 22.1758ZM173.066 13.6504C172.41 13.6504 171.859 13.8906 171.414 14.3711C170.969 14.8457 170.693 15.5137 170.588 16.375H175.352V16.252C175.305 15.4258 175.082 14.7871 174.684 14.3359C174.285 13.8789 173.746 13.6504 173.066 13.6504ZM180.818 20.6201H186.883V22H179.122V9.20312H180.818V20.6201ZM197.342 9.20312V17.9043C197.336 19.1113 196.955 20.0986 196.199 20.8662C195.449 21.6338 194.43 22.0645 193.141 22.1582L192.692 22.1758C191.292 22.1758 190.176 21.7979 189.344 21.042C188.512 20.2861 188.09 19.2461 188.078 17.9219V9.20312H189.748V17.8691C189.748 18.7949 190.003 19.5156 190.513 20.0312C191.022 20.541 191.749 20.7959 192.692 20.7959C193.647 20.7959 194.377 20.541 194.881 20.0312C195.391 19.5215 195.646 18.8037 195.646 17.8779V9.20312H197.342ZM214.305 22H212.608L206.166 12.1387V22H204.47V9.20312H206.166L212.626 19.1084V9.20312H214.305V22ZM220.993 22.1758C219.704 22.1758 218.655 21.7539 217.847 20.9102C217.038 20.0605 216.634 18.9268 216.634 17.5088V17.21C216.634 16.2666 216.812 15.4258 217.17 14.6875C217.533 13.9434 218.037 13.3633 218.682 12.9473C219.332 12.5254 220.035 12.3145 220.791 12.3145C222.027 12.3145 222.988 12.7217 223.674 13.5361C224.359 14.3506 224.702 15.5166 224.702 17.0342V17.7109H218.26C218.283 18.6484 218.556 19.4072 219.077 19.9873C219.604 20.5615 220.272 20.8486 221.081 20.8486C221.655 20.8486 222.142 20.7314 222.54 20.4971C222.938 20.2627 223.287 19.9521 223.586 19.5654L224.579 20.3389C223.782 21.5635 222.587 22.1758 220.993 22.1758ZM220.791 13.6504C220.135 13.6504 219.584 13.8906 219.139 14.3711C218.693 14.8457 218.418 15.5137 218.312 16.375H223.076V16.252C223.029 15.4258 222.807 14.7871 222.408 14.3359C222.01 13.8789 221.471 13.6504 220.791 13.6504ZM232.463 21.0596C231.83 21.8037 230.901 22.1758 229.677 22.1758C228.663 22.1758 227.89 21.8828 227.356 21.2969C226.829 20.7051 226.562 19.832 226.557 18.6777V12.4902H228.183V18.6338C228.183 20.0752 228.769 20.7959 229.94 20.7959C231.183 20.7959 232.009 20.333 232.419 19.4072V12.4902H234.045V22H232.498L232.463 21.0596ZM241.12 13.9492C240.874 13.9082 240.607 13.8877 240.32 13.8877C239.254 13.8877 238.53 14.3418 238.149 15.25V22H236.523V12.4902H238.105L238.132 13.5889C238.665 12.7393 239.421 12.3145 240.399 12.3145C240.716 12.3145 240.956 12.3555 241.12 12.4375V13.9492ZM242.017 17.1572C242.017 16.2256 242.198 15.3877 242.562 14.6436C242.931 13.8994 243.44 13.3252 244.091 12.9209C244.747 12.5166 245.494 12.3145 246.332 12.3145C247.627 12.3145 248.673 12.7627 249.47 13.6592C250.272 14.5557 250.674 15.748 250.674 17.2363V17.3506C250.674 18.2764 250.495 19.1084 250.138 19.8467C249.786 20.5791 249.279 21.1504 248.617 21.5605C247.961 21.9707 247.205 22.1758 246.35 22.1758C245.061 22.1758 244.015 21.7275 243.212 20.8311C242.415 19.9346 242.017 18.748 242.017 17.2715V17.1572ZM243.651 17.3506C243.651 18.4053 243.895 19.252 244.381 19.8906C244.873 20.5293 245.529 20.8486 246.35 20.8486C247.176 20.8486 247.832 20.5264 248.318 19.8818C248.805 19.2314 249.048 18.3232 249.048 17.1572C249.048 16.1143 248.799 15.2705 248.301 14.626C247.809 13.9756 247.152 13.6504 246.332 13.6504C245.529 13.6504 244.882 13.9697 244.39 14.6084C243.897 15.2471 243.651 16.1611 243.651 17.3506ZM254.251 12.4902L254.304 13.6855C255.03 12.7715 255.979 12.3145 257.151 12.3145C259.161 12.3145 260.175 13.4482 260.192 15.7158V22H258.566V15.707C258.561 15.0215 258.402 14.5146 258.092 14.1865C257.787 13.8584 257.31 13.6943 256.659 13.6943C256.132 13.6943 255.669 13.835 255.271 14.1162C254.872 14.3975 254.562 14.7666 254.339 15.2236V22H252.713V12.4902H254.251Z" fill="black"/>
<path d="M319.182 22.6201H325.246V24H317.485V11.2031H319.182V22.6201ZM328.683 24H327.057V14.4902H328.683V24ZM326.925 11.9678C326.925 11.7041 327.004 11.4814 327.162 11.2998C327.326 11.1182 327.566 11.0273 327.883 11.0273C328.199 11.0273 328.439 11.1182 328.604 11.2998C328.768 11.4814 328.85 11.7041 328.85 11.9678C328.85 12.2314 328.768 12.4512 328.604 12.627C328.439 12.8027 328.199 12.8906 327.883 12.8906C327.566 12.8906 327.326 12.8027 327.162 12.627C327.004 12.4512 326.925 12.2314 326.925 11.9678ZM332.831 14.4902L332.884 15.6855C333.61 14.7715 334.56 14.3145 335.731 14.3145C337.741 14.3145 338.755 15.4482 338.772 17.7158V24H337.146V17.707C337.141 17.0215 336.982 16.5146 336.672 16.1865C336.367 15.8584 335.89 15.6943 335.239 15.6943C334.712 15.6943 334.249 15.835 333.851 16.1162C333.452 16.3975 333.142 16.7666 332.919 17.2236V24H331.293V14.4902H332.831ZM345.171 24.1758C343.882 24.1758 342.833 23.7539 342.024 22.9102C341.216 22.0605 340.812 20.9268 340.812 19.5088V19.21C340.812 18.2666 340.99 17.4258 341.348 16.6875C341.711 15.9434 342.215 15.3633 342.859 14.9473C343.51 14.5254 344.213 14.3145 344.969 14.3145C346.205 14.3145 347.166 14.7217 347.852 15.5361C348.537 16.3506 348.88 17.5166 348.88 19.0342V19.7109H342.438C342.461 20.6484 342.733 21.4072 343.255 21.9873C343.782 22.5615 344.45 22.8486 345.259 22.8486C345.833 22.8486 346.319 22.7314 346.718 22.4971C347.116 22.2627 347.465 21.9521 347.764 21.5654L348.757 22.3389C347.96 23.5635 346.765 24.1758 345.171 24.1758ZM344.969 15.6504C344.312 15.6504 343.762 15.8906 343.316 16.3711C342.871 16.8457 342.596 17.5137 342.49 18.375H347.254V18.252C347.207 17.4258 346.984 16.7871 346.586 16.3359C346.188 15.8789 345.648 15.6504 344.969 15.6504ZM356.641 24C356.547 23.8125 356.471 23.4785 356.412 22.998C355.656 23.7832 354.754 24.1758 353.705 24.1758C352.768 24.1758 351.997 23.9121 351.394 23.3848C350.796 22.8516 350.497 22.1777 350.497 21.3633C350.497 20.373 350.872 19.6055 351.622 19.0605C352.378 18.5098 353.438 18.2344 354.804 18.2344H356.386V17.4873C356.386 16.9189 356.216 16.4678 355.876 16.1338C355.536 15.7939 355.035 15.624 354.373 15.624C353.793 15.624 353.307 15.7705 352.914 16.0635C352.521 16.3564 352.325 16.7109 352.325 17.127H350.69C350.69 16.6523 350.857 16.1953 351.191 15.7559C351.531 15.3105 351.988 14.959 352.562 14.7012C353.143 14.4434 353.778 14.3145 354.47 14.3145C355.565 14.3145 356.424 14.5898 357.045 15.1406C357.666 15.6855 357.988 16.4385 358.012 17.3994V21.7764C358.012 22.6494 358.123 23.3438 358.346 23.8594V24H356.641ZM353.942 22.7607C354.452 22.7607 354.936 22.6289 355.393 22.3652C355.85 22.1016 356.181 21.7588 356.386 21.3369V19.3857H355.111C353.119 19.3857 352.123 19.9688 352.123 21.1348C352.123 21.6445 352.293 22.043 352.633 22.3301C352.973 22.6172 353.409 22.7607 353.942 22.7607ZM365.157 15.9492C364.911 15.9082 364.645 15.8877 364.357 15.8877C363.291 15.8877 362.567 16.3418 362.187 17.25V24H360.561V14.4902H362.143L362.169 15.5889C362.702 14.7393 363.458 14.3145 364.437 14.3145C364.753 14.3145 364.993 14.3555 365.157 14.4375V15.9492ZM381.215 24H379.519L373.076 14.1387V24H371.38V11.2031H373.076L379.536 21.1084V11.2031H381.215V24ZM387.903 24.1758C386.614 24.1758 385.565 23.7539 384.757 22.9102C383.948 22.0605 383.544 20.9268 383.544 19.5088V19.21C383.544 18.2666 383.723 17.4258 384.08 16.6875C384.443 15.9434 384.947 15.3633 385.592 14.9473C386.242 14.5254 386.945 14.3145 387.701 14.3145C388.938 14.3145 389.898 14.7217 390.584 15.5361C391.27 16.3506 391.612 17.5166 391.612 19.0342V19.7109H385.17C385.193 20.6484 385.466 21.4072 385.987 21.9873C386.515 22.5615 387.183 22.8486 387.991 22.8486C388.565 22.8486 389.052 22.7314 389.45 22.4971C389.849 22.2627 390.197 21.9521 390.496 21.5654L391.489 22.3389C390.692 23.5635 389.497 24.1758 387.903 24.1758ZM387.701 15.6504C387.045 15.6504 386.494 15.8906 386.049 16.3711C385.604 16.8457 385.328 17.5137 385.223 18.375H389.986V18.252C389.939 17.4258 389.717 16.7871 389.318 16.3359C388.92 15.8789 388.381 15.6504 387.701 15.6504ZM399.373 23.0596C398.74 23.8037 397.812 24.1758 396.587 24.1758C395.573 24.1758 394.8 23.8828 394.267 23.2969C393.739 22.7051 393.473 21.832 393.467 20.6777V14.4902H395.093V20.6338C395.093 22.0752 395.679 22.7959 396.851 22.7959C398.093 22.7959 398.919 22.333 399.329 21.4072V14.4902H400.955V24H399.408L399.373 23.0596ZM408.03 15.9492C407.784 15.9082 407.518 15.8877 407.23 15.8877C406.164 15.8877 405.44 16.3418 405.06 17.25V24H403.434V14.4902H405.016L405.042 15.5889C405.575 14.7393 406.331 14.3145 407.31 14.3145C407.626 14.3145 407.866 14.3555 408.03 14.4375V15.9492ZM408.927 19.1572C408.927 18.2256 409.108 17.3877 409.472 16.6436C409.841 15.8994 410.351 15.3252 411.001 14.9209C411.657 14.5166 412.404 14.3145 413.242 14.3145C414.537 14.3145 415.583 14.7627 416.38 15.6592C417.183 16.5557 417.584 17.748 417.584 19.2363V19.3506C417.584 20.2764 417.405 21.1084 417.048 21.8467C416.696 22.5791 416.189 23.1504 415.527 23.5605C414.871 23.9707 414.115 24.1758 413.26 24.1758C411.971 24.1758 410.925 23.7275 410.122 22.8311C409.325 21.9346 408.927 20.748 408.927 19.2715V19.1572ZM410.562 19.3506C410.562 20.4053 410.805 21.252 411.291 21.8906C411.783 22.5293 412.439 22.8486 413.26 22.8486C414.086 22.8486 414.742 22.5264 415.229 21.8818C415.715 21.2314 415.958 20.3232 415.958 19.1572C415.958 18.1143 415.709 17.2705 415.211 16.626C414.719 15.9756 414.062 15.6504 413.242 15.6504C412.439 15.6504 411.792 15.9697 411.3 16.6084C410.808 17.2471 410.562 18.1611 410.562 19.3506ZM421.161 14.4902L421.214 15.6855C421.94 14.7715 422.89 14.3145 424.062 14.3145C426.071 14.3145 427.085 15.4482 427.103 17.7158V24H425.477V17.707C425.471 17.0215 425.312 16.5146 425.002 16.1865C424.697 15.8584 424.22 15.6943 423.569 15.6943C423.042 15.6943 422.579 15.835 422.181 16.1162C421.782 16.3975 421.472 16.7666 421.249 17.2236V24H419.623V14.4902H421.161Z" fill="black"/>
<path d="M176.552 52.6602H171.19L169.986 56H168.246L173.133 43.2031H174.609L179.505 56H177.773L176.552 52.6602ZM171.7 51.2715H176.051L173.871 45.2861L171.7 51.2715ZM184.787 54.8486C185.367 54.8486 185.874 54.6729 186.308 54.3213C186.741 53.9697 186.981 53.5303 187.028 53.0029H188.566C188.537 53.5479 188.35 54.0664 188.004 54.5586C187.658 55.0508 187.195 55.4434 186.615 55.7363C186.041 56.0293 185.432 56.1758 184.787 56.1758C183.492 56.1758 182.461 55.7451 181.693 54.8838C180.932 54.0166 180.551 52.833 180.551 51.333V51.0605C180.551 50.1348 180.721 49.3115 181.061 48.5908C181.4 47.8701 181.887 47.3105 182.52 46.9121C183.158 46.5137 183.911 46.3145 184.778 46.3145C185.845 46.3145 186.729 46.6338 187.433 47.2725C188.142 47.9111 188.52 48.7402 188.566 49.7598H187.028C186.981 49.1445 186.747 48.6406 186.325 48.248C185.909 47.8496 185.394 47.6504 184.778 47.6504C183.952 47.6504 183.311 47.9492 182.854 48.5469C182.402 49.1387 182.177 49.9971 182.177 51.1221V51.4297C182.177 52.5254 182.402 53.3691 182.854 53.9609C183.305 54.5527 183.949 54.8486 184.787 54.8486ZM192.601 44.1875V46.4902H194.376V47.7471H192.601V53.6445C192.601 54.0254 192.68 54.3125 192.838 54.5059C192.996 54.6934 193.266 54.7871 193.646 54.7871C193.834 54.7871 194.092 54.752 194.42 54.6816V56C193.992 56.1172 193.576 56.1758 193.172 56.1758C192.445 56.1758 191.897 55.9561 191.528 55.5166C191.159 55.0771 190.975 54.4531 190.975 53.6445V47.7471H189.243V46.4902H190.975V44.1875H192.601ZM198.05 56H196.424V46.4902H198.05V56ZM196.292 43.9678C196.292 43.7041 196.371 43.4814 196.529 43.2998C196.693 43.1182 196.934 43.0273 197.25 43.0273C197.566 43.0273 197.807 43.1182 197.971 43.2998C198.135 43.4814 198.217 43.7041 198.217 43.9678C198.217 44.2314 198.135 44.4512 197.971 44.627C197.807 44.8027 197.566 44.8906 197.25 44.8906C196.934 44.8906 196.693 44.8027 196.529 44.627C196.371 44.4512 196.292 44.2314 196.292 43.9678ZM203.798 53.7939L206.153 46.4902H207.814L204.404 56H203.165L199.72 46.4902H201.381L203.798 53.7939ZM215.109 56C215.016 55.8125 214.939 55.4785 214.881 54.998C214.125 55.7832 213.223 56.1758 212.174 56.1758C211.236 56.1758 210.466 55.9121 209.862 55.3848C209.265 54.8516 208.966 54.1777 208.966 53.3633C208.966 52.373 209.341 51.6055 210.091 51.0605C210.847 50.5098 211.907 50.2344 213.272 50.2344H214.854V49.4873C214.854 48.9189 214.685 48.4678 214.345 48.1338C214.005 47.7939 213.504 47.624 212.842 47.624C212.262 47.624 211.775 47.7705 211.383 48.0635C210.99 48.3564 210.794 48.7109 210.794 49.127H209.159C209.159 48.6523 209.326 48.1953 209.66 47.7559C210 47.3105 210.457 46.959 211.031 46.7012C211.611 46.4434 212.247 46.3145 212.938 46.3145C214.034 46.3145 214.893 46.5898 215.514 47.1406C216.135 47.6855 216.457 48.4385 216.48 49.3994V53.7764C216.48 54.6494 216.592 55.3438 216.814 55.8594V56H215.109ZM212.411 54.7607C212.921 54.7607 213.404 54.6289 213.861 54.3652C214.318 54.1016 214.649 53.7588 214.854 53.3369V51.3857H213.58C211.588 51.3857 210.592 51.9688 210.592 53.1348C210.592 53.6445 210.762 54.043 211.102 54.3301C211.441 54.6172 211.878 54.7607 212.411 54.7607ZM221.235 44.1875V46.4902H223.011V47.7471H221.235V53.6445C221.235 54.0254 221.314 54.3125 221.473 54.5059C221.631 54.6934 221.9 54.7871 222.281 54.7871C222.469 54.7871 222.727 54.752 223.055 54.6816V56C222.627 56.1172 222.211 56.1758 221.807 56.1758C221.08 56.1758 220.532 55.9561 220.163 55.5166C219.794 55.0771 219.609 54.4531 219.609 53.6445V47.7471H217.878V46.4902H219.609V44.1875H221.235ZM226.685 56H225.059V46.4902H226.685V56ZM224.927 43.9678C224.927 43.7041 225.006 43.4814 225.164 43.2998C225.328 43.1182 225.568 43.0273 225.885 43.0273C226.201 43.0273 226.441 43.1182 226.605 43.2998C226.77 43.4814 226.852 43.7041 226.852 43.9678C226.852 44.2314 226.77 44.4512 226.605 44.627C226.441 44.8027 226.201 44.8906 225.885 44.8906C225.568 44.8906 225.328 44.8027 225.164 44.627C225.006 44.4512 224.927 44.2314 224.927 43.9678ZM228.864 51.1572C228.864 50.2256 229.046 49.3877 229.409 48.6436C229.778 47.8994 230.288 47.3252 230.938 46.9209C231.595 46.5166 232.342 46.3145 233.18 46.3145C234.475 46.3145 235.521 46.7627 236.317 47.6592C237.12 48.5557 237.521 49.748 237.521 51.2363V51.3506C237.521 52.2764 237.343 53.1084 236.985 53.8467C236.634 54.5791 236.127 55.1504 235.465 55.5605C234.809 55.9707 234.053 56.1758 233.197 56.1758C231.908 56.1758 230.862 55.7275 230.06 54.8311C229.263 53.9346 228.864 52.748 228.864 51.2715V51.1572ZM230.499 51.3506C230.499 52.4053 230.742 53.252 231.229 53.8906C231.721 54.5293 232.377 54.8486 233.197 54.8486C234.023 54.8486 234.68 54.5264 235.166 53.8818C235.652 53.2314 235.896 52.3232 235.896 51.1572C235.896 50.1143 235.646 49.2705 235.148 48.626C234.656 47.9756 234 47.6504 233.18 47.6504C232.377 47.6504 231.729 47.9697 231.237 48.6084C230.745 49.2471 230.499 50.1611 230.499 51.3506ZM241.099 46.4902L241.151 47.6855C241.878 46.7715 242.827 46.3145 243.999 46.3145C246.009 46.3145 247.022 47.4482 247.04 49.7158V56H245.414V49.707C245.408 49.0215 245.25 48.5146 244.939 48.1865C244.635 47.8584 244.157 47.6943 243.507 47.6943C242.979 47.6943 242.517 47.835 242.118 48.1162C241.72 48.3975 241.409 48.7666 241.187 49.2236V56H239.561V46.4902H241.099Z" fill="black"/>
<path d="M4.24512 50.9658L4.49121 52.6533L4.85156 51.1328L7.38281 42.2031H8.80664L11.2764 51.1328L11.6279 52.6797L11.9004 50.957L13.8867 42.2031H15.583L12.4805 55H10.9424L8.30566 45.6748L8.10352 44.6992L7.90137 45.6748L5.16797 55H3.62988L0.536133 42.2031H2.22363L4.24512 50.9658ZM20.874 55.1758C19.585 55.1758 18.5361 54.7539 17.7275 53.9102C16.9189 53.0605 16.5146 51.9268 16.5146 50.5088V50.21C16.5146 49.2666 16.6934 48.4258 17.0508 47.6875C17.4141 46.9434 17.918 46.3633 18.5625 45.9473C19.2129 45.5254 19.916 45.3145 20.6719 45.3145C21.9082 45.3145 22.8691 45.7217 23.5547 46.5361C24.2402 47.3506 24.583 48.5166 24.583 50.0342V50.7109H18.1406C18.1641 51.6484 18.4365 52.4072 18.958 52.9873C19.4854 53.5615 20.1533 53.8486 20.9619 53.8486C21.5361 53.8486 22.0225 53.7314 22.4209 53.4971C22.8193 53.2627 23.168 52.9521 23.4668 52.5654L24.46 53.3389C23.6631 54.5635 22.4678 55.1758 20.874 55.1758ZM20.6719 46.6504C20.0156 46.6504 19.4648 46.8906 19.0195 47.3711C18.5742 47.8457 18.2988 48.5137 18.1934 49.375H22.957V49.252C22.9102 48.4258 22.6875 47.7871 22.2891 47.3359C21.8906 46.8789 21.3516 46.6504 20.6719 46.6504ZM28.2393 55H26.6133V45.4902H28.2393V55ZM26.4814 42.9678C26.4814 42.7041 26.5605 42.4814 26.7188 42.2998C26.8828 42.1182 27.123 42.0273 27.4395 42.0273C27.7559 42.0273 27.9961 42.1182 28.1602 42.2998C28.3242 42.4814 28.4062 42.7041 28.4062 42.9678C28.4062 43.2314 28.3242 43.4512 28.1602 43.627C27.9961 43.8027 27.7559 43.8906 27.4395 43.8906C27.123 43.8906 26.8828 43.8027 26.7188 43.627C26.5605 43.4512 26.4814 43.2314 26.4814 42.9678ZM30.4629 50.166C30.4629 48.6836 30.8057 47.5059 31.4912 46.6328C32.1768 45.7539 33.085 45.3145 34.2158 45.3145C35.376 45.3145 36.2812 45.7246 36.9316 46.5449L37.0107 45.4902H38.4961V54.7715C38.4961 56.002 38.1299 56.9717 37.3975 57.6807C36.6709 58.3896 35.6924 58.7441 34.4619 58.7441C33.7764 58.7441 33.1055 58.5977 32.4492 58.3047C31.793 58.0117 31.292 57.6104 30.9463 57.1006L31.79 56.125C32.4873 56.9863 33.3398 57.417 34.3477 57.417C35.1387 57.417 35.7539 57.1943 36.1934 56.749C36.6387 56.3037 36.8613 55.6768 36.8613 54.8682V54.0508C36.2109 54.8008 35.3232 55.1758 34.1982 55.1758C33.085 55.1758 32.1826 54.7275 31.4912 53.8311C30.8057 52.9346 30.4629 51.7129 30.4629 50.166ZM32.0977 50.3506C32.0977 51.4229 32.3174 52.2666 32.7568 52.8818C33.1963 53.4912 33.8115 53.7959 34.6025 53.7959C35.6279 53.7959 36.3809 53.3301 36.8613 52.3984V48.0566C36.3633 47.1484 35.6162 46.6943 34.6201 46.6943C33.8291 46.6943 33.2109 47.002 32.7656 47.6172C32.3203 48.2324 32.0977 49.1436 32.0977 50.3506ZM42.583 46.6416C43.3037 45.7568 44.2412 45.3145 45.3955 45.3145C47.4053 45.3145 48.4189 46.4482 48.4365 48.7158V55H46.8105V48.707C46.8047 48.0215 46.6465 47.5146 46.3359 47.1865C46.0312 46.8584 45.5537 46.6943 44.9033 46.6943C44.376 46.6943 43.9131 46.835 43.5146 47.1162C43.1162 47.3975 42.8057 47.7666 42.583 48.2236V55H40.957V41.5H42.583V46.6416ZM53.0771 43.1875V45.4902H54.8525V46.7471H53.0771V52.6445C53.0771 53.0254 53.1562 53.3125 53.3145 53.5059C53.4727 53.6934 53.7422 53.7871 54.123 53.7871C54.3105 53.7871 54.5684 53.752 54.8965 53.6816V55C54.4688 55.1172 54.0527 55.1758 53.6484 55.1758C52.9219 55.1758 52.374 54.9561 52.0049 54.5166C51.6357 54.0771 51.4512 53.4531 51.4512 52.6445V46.7471H49.7197V45.4902H51.4512V43.1875H53.0771Z" fill="black"/>
<rect x="281.5" y="75.5" width="113" height="14" transform="rotate(180 281.5 75.5)" fill="url(#paint0_linear)" stroke="black"/>
<path d="M281.5 74V80" stroke="black"/>
<path d="M168.5 74V80" stroke="black"/>
<path d="M161.998 91H160.914V82H161.998V91ZM163.451 87.7715C163.451 87.1504 163.572 86.5918 163.814 86.0957C164.061 85.5996 164.4 85.2168 164.834 84.9473C165.271 84.6777 165.77 84.543 166.328 84.543C167.191 84.543 167.889 84.8418 168.42 85.4395C168.955 86.0371 169.223 86.832 169.223 87.8242V87.9004C169.223 88.5176 169.104 89.0723 168.865 89.5645C168.631 90.0527 168.293 90.4336 167.852 90.707C167.414 90.9805 166.91 91.1172 166.34 91.1172C165.48 91.1172 164.783 90.8184 164.248 90.2207C163.717 89.623 163.451 88.832 163.451 87.8477V87.7715ZM164.541 87.9004C164.541 88.6035 164.703 89.168 165.027 89.5938C165.355 90.0195 165.793 90.2324 166.34 90.2324C166.891 90.2324 167.328 90.0176 167.652 89.5879C167.977 89.1543 168.139 88.5488 168.139 87.7715C168.139 87.0762 167.973 86.5137 167.641 86.084C167.312 85.6504 166.875 85.4336 166.328 85.4336C165.793 85.4336 165.361 85.6465 165.033 86.0723C164.705 86.498 164.541 87.1074 164.541 87.9004ZM176.195 89.5059L177.414 84.6602H178.498L176.652 91H175.773L174.232 86.1953L172.732 91H171.854L170.014 84.6602H171.092L172.34 89.4062L173.816 84.6602H174.689L176.195 89.5059Z" fill="black"/>
<path d="M271.904 85.4277C272.385 84.8379 273.01 84.543 273.779 84.543C275.119 84.543 275.795 85.2988 275.807 86.8105V91H274.723V86.8047C274.719 86.3477 274.613 86.0098 274.406 85.791C274.203 85.5723 273.885 85.4629 273.451 85.4629C273.1 85.4629 272.791 85.5566 272.525 85.7441C272.26 85.9316 272.053 86.1777 271.904 86.4824V91H270.82V82H271.904V85.4277ZM278.607 91H277.523V84.6602H278.607V91ZM277.436 82.9785C277.436 82.8027 277.488 82.6543 277.594 82.5332C277.703 82.4121 277.863 82.3516 278.074 82.3516C278.285 82.3516 278.445 82.4121 278.555 82.5332C278.664 82.6543 278.719 82.8027 278.719 82.9785C278.719 83.1543 278.664 83.3008 278.555 83.418C278.445 83.5352 278.285 83.5938 278.074 83.5938C277.863 83.5938 277.703 83.5352 277.594 83.418C277.488 83.3008 277.436 83.1543 277.436 82.9785ZM280.09 87.7773C280.09 86.7891 280.318 86.0039 280.775 85.4219C281.232 84.8359 281.838 84.543 282.592 84.543C283.365 84.543 283.969 84.8164 284.402 85.3633L284.455 84.6602H285.445V90.8477C285.445 91.668 285.201 92.3145 284.713 92.7871C284.229 93.2598 283.576 93.4961 282.756 93.4961C282.299 93.4961 281.852 93.3984 281.414 93.2031C280.977 93.0078 280.643 92.7402 280.412 92.4004L280.975 91.75C281.439 92.3242 282.008 92.6113 282.68 92.6113C283.207 92.6113 283.617 92.4629 283.91 92.166C284.207 91.8691 284.355 91.4512 284.355 90.9121V90.3672C283.922 90.8672 283.33 91.1172 282.58 91.1172C281.838 91.1172 281.236 90.8184 280.775 90.2207C280.318 89.623 280.09 88.8086 280.09 87.7773ZM281.18 87.9004C281.18 88.6152 281.326 89.1777 281.619 89.5879C281.912 89.9941 282.322 90.1973 282.85 90.1973C283.533 90.1973 284.035 89.8867 284.355 89.2656V86.3711C284.023 85.7656 283.525 85.4629 282.861 85.4629C282.334 85.4629 281.922 85.668 281.625 86.0781C281.328 86.4883 281.18 87.0957 281.18 87.9004ZM288.17 85.4277C288.65 84.8379 289.275 84.543 290.045 84.543C291.385 84.543 292.061 85.2988 292.072 86.8105V91H290.988V86.8047C290.984 86.3477 290.879 86.0098 290.672 85.791C290.469 85.5723 290.15 85.4629 289.717 85.4629C289.365 85.4629 289.057 85.5566 288.791 85.7441C288.525 85.9316 288.318 86.1777 288.17 86.4824V91H287.086V82H288.17V85.4277Z" fill="black"/>
<rect x="117.5" y="74.5" width="113" height="14" transform="rotate(180 117.5 74.5)" fill="url(#paint1_linear)" stroke="black"/>
<path d="M117.5 73V79" stroke="black"/>
<path d="M4.5 73V79" stroke="black"/>
<path d="M62 74V80" stroke="black"/>
<path d="M7.82031 86.1855H1.94922V85.3008H7.82031V86.1855Z" fill="black"/>
<path d="M64.5586 86.3613C64.5586 87.6309 64.3418 88.5742 63.9082 89.1914C63.4746 89.8086 62.7969 90.1172 61.875 90.1172C60.9648 90.1172 60.291 89.8164 59.8535 89.2148C59.416 88.6094 59.1895 87.707 59.1738 86.5078V85.0605C59.1738 83.8066 59.3906 82.875 59.8242 82.2656C60.2578 81.6562 60.9375 81.3516 61.8633 81.3516C62.7812 81.3516 63.457 81.6465 63.8906 82.2363C64.3242 82.8223 64.5469 83.7285 64.5586 84.9551V86.3613ZM63.4746 84.8789C63.4746 83.9609 63.3457 83.293 63.0879 82.875C62.8301 82.4531 62.4219 82.2422 61.8633 82.2422C61.3086 82.2422 60.9043 82.4512 60.6504 82.8691C60.3965 83.2871 60.2656 83.9297 60.2578 84.7969V86.5312C60.2578 87.4531 60.3906 88.1348 60.6562 88.5762C60.9258 89.0137 61.332 89.2324 61.875 89.2324C62.4102 89.2324 62.8066 89.0254 63.0645 88.6113C63.3262 88.1973 63.4629 87.5449 63.4746 86.6543V84.8789Z" fill="black"/>
<path d="M118.176 85.4238H120.555V86.4492H118.176V89.1445H117.086V86.4492H114.707V85.4238H117.086V82.9336H118.176V85.4238Z" fill="black"/>
<path d="M458 67.5L446 75.7272L446 59.2728L458 67.5Z" fill="#FA9600"/>
<rect x="265.5" y="4.5" width="29" height="29" fill="#959595" stroke="black" stroke-width="3"/>
<rect x="435.5" y="4.5" width="29" height="29" fill="#959595" stroke="#517AB7" stroke-width="3"/>
<path d="M3.2959 22H1.6084V9.20312H3.2959V22ZM7.67285 12.4902L7.72559 13.6855C8.45215 12.7715 9.40137 12.3145 10.5732 12.3145C12.583 12.3145 13.5967 13.4482 13.6143 15.7158V22H11.9883V15.707C11.9824 15.0215 11.8242 14.5146 11.5137 14.1865C11.209 13.8584 10.7314 13.6943 10.0811 13.6943C9.55371 13.6943 9.09082 13.835 8.69238 14.1162C8.29395 14.3975 7.9834 14.7666 7.76074 15.2236V22H6.13477V12.4902H7.67285ZM24.0996 17.3506C24.0996 18.7979 23.7686 19.9639 23.1064 20.8486C22.4443 21.7334 21.5479 22.1758 20.417 22.1758C19.2627 22.1758 18.3545 21.8096 17.6924 21.0771V25.6562H16.0664V12.4902H17.5518L17.6309 13.5449C18.293 12.7246 19.2129 12.3145 20.3906 12.3145C21.5332 12.3145 22.4355 12.7451 23.0977 13.6064C23.7656 14.4678 24.0996 15.666 24.0996 17.2012V17.3506ZM22.4736 17.166C22.4736 16.0938 22.2451 15.2471 21.7881 14.626C21.3311 14.0049 20.7041 13.6943 19.9072 13.6943C18.9229 13.6943 18.1846 14.1309 17.6924 15.0039V19.5479C18.1787 20.415 18.9229 20.8486 19.9248 20.8486C20.7041 20.8486 21.3223 20.541 21.7793 19.9258C22.2422 19.3047 22.4736 18.3848 22.4736 17.166ZM32.0449 21.0596C31.4121 21.8037 30.4834 22.1758 29.2588 22.1758C28.2451 22.1758 27.4717 21.8828 26.9385 21.2969C26.4111 20.7051 26.1445 19.832 26.1387 18.6777V12.4902H27.7646V18.6338C27.7646 20.0752 28.3506 20.7959 29.5225 20.7959C30.7646 20.7959 31.5908 20.333 32.001 19.4072V12.4902H33.627V22H32.0801L32.0449 21.0596ZM38.3115 10.1875V12.4902H40.0869V13.7471H38.3115V19.6445C38.3115 20.0254 38.3906 20.3125 38.5488 20.5059C38.707 20.6934 38.9766 20.7871 39.3574 20.7871C39.5449 20.7871 39.8027 20.752 40.1309 20.6816V22C39.7031 22.1172 39.2871 22.1758 38.8828 22.1758C38.1562 22.1758 37.6084 21.9561 37.2393 21.5166C36.8701 21.0771 36.6855 20.4531 36.6855 19.6445V13.7471H34.9541V12.4902H36.6855V10.1875H38.3115ZM56.5488 22H54.8525L48.4102 12.1387V22H46.7139V9.20312H48.4102L54.8701 19.1084V9.20312H56.5488V22ZM63.2373 22.1758C61.9482 22.1758 60.8994 21.7539 60.0908 20.9102C59.2822 20.0605 58.8779 18.9268 58.8779 17.5088V17.21C58.8779 16.2666 59.0566 15.4258 59.4141 14.6875C59.7773 13.9434 60.2812 13.3633 60.9258 12.9473C61.5762 12.5254 62.2793 12.3145 63.0352 12.3145C64.2715 12.3145 65.2324 12.7217 65.918 13.5361C66.6035 14.3506 66.9463 15.5166 66.9463 17.0342V17.7109H60.5039C60.5273 18.6484 60.7998 19.4072 61.3213 19.9873C61.8486 20.5615 62.5166 20.8486 63.3252 20.8486C63.8994 20.8486 64.3857 20.7314 64.7842 20.4971C65.1826 20.2627 65.5312 19.9521 65.8301 19.5654L66.8232 20.3389C66.0264 21.5635 64.8311 22.1758 63.2373 22.1758ZM63.0352 13.6504C62.3789 13.6504 61.8281 13.8906 61.3828 14.3711C60.9375 14.8457 60.6621 15.5137 60.5566 16.375H65.3203V16.252C65.2734 15.4258 65.0508 14.7871 64.6523 14.3359C64.2539 13.8789 63.7148 13.6504 63.0352 13.6504ZM74.707 21.0596C74.0742 21.8037 73.1455 22.1758 71.9209 22.1758C70.9072 22.1758 70.1338 21.8828 69.6006 21.2969C69.0732 20.7051 68.8066 19.832 68.8008 18.6777V12.4902H70.4268V18.6338C70.4268 20.0752 71.0127 20.7959 72.1846 20.7959C73.4268 20.7959 74.2529 20.333 74.6631 19.4072V12.4902H76.2891V22H74.7422L74.707 21.0596ZM83.3643 13.9492C83.1182 13.9082 82.8516 13.8877 82.5645 13.8877C81.498 13.8877 80.7744 14.3418 80.3936 15.25V22H78.7676V12.4902H80.3496L80.376 13.5889C80.9092 12.7393 81.665 12.3145 82.6436 12.3145C82.96 12.3145 83.2002 12.3555 83.3643 12.4375V13.9492ZM84.2607 17.1572C84.2607 16.2256 84.4424 15.3877 84.8057 14.6436C85.1748 13.8994 85.6846 13.3252 86.335 12.9209C86.9912 12.5166 87.7383 12.3145 88.5762 12.3145C89.8711 12.3145 90.917 12.7627 91.7139 13.6592C92.5166 14.5557 92.918 15.748 92.918 17.2363V17.3506C92.918 18.2764 92.7393 19.1084 92.3818 19.8467C92.0303 20.5791 91.5234 21.1504 90.8613 21.5605C90.2051 21.9707 89.4492 22.1758 88.5938 22.1758C87.3047 22.1758 86.2588 21.7275 85.4561 20.8311C84.6592 19.9346 84.2607 18.748 84.2607 17.2715V17.1572ZM85.8955 17.3506C85.8955 18.4053 86.1387 19.252 86.625 19.8906C87.1172 20.5293 87.7734 20.8486 88.5938 20.8486C89.4199 20.8486 90.0762 20.5264 90.5625 19.8818C91.0488 19.2314 91.292 18.3232 91.292 17.1572C91.292 16.1143 91.043 15.2705 90.5449 14.626C90.0527 13.9756 89.3965 13.6504 88.5762 13.6504C87.7734 13.6504 87.126 13.9697 86.6338 14.6084C86.1416 15.2471 85.8955 16.1611 85.8955 17.3506ZM96.4951 12.4902L96.5479 13.6855C97.2744 12.7715 98.2236 12.3145 99.3955 12.3145C101.405 12.3145 102.419 13.4482 102.437 15.7158V22H100.811V15.707C100.805 15.0215 100.646 14.5146 100.336 14.1865C100.031 13.8584 99.5537 13.6943 98.9033 13.6943C98.376 13.6943 97.9131 13.835 97.5146 14.1162C97.1162 14.3975 96.8057 14.7666 96.583 15.2236V22H94.957V12.4902H96.4951Z" fill="black"/>
<rect x="110.5" y="1.5" width="29" height="29" fill="#959595" stroke="#959595" stroke-width="3"/>
<path d="M310 71.1546C310 71.1546 310 71.0639 310 70.8825C310 70.7011 310.093 70.5616 310.28 70.4639H321.906C322.106 70.5755 322.206 70.7151 322.206 70.8825C322.206 71.05 322.106 71.1895 321.906 71.3011H310.28C310.093 71.2035 310 71.0639 310 70.8825V71.1546Z" fill="black"/>
<path d="M332.331 51.3327C332.024 51.3327 331.804 51.249 331.67 51.0815C331.537 50.9141 331.464 50.7257 331.45 50.5164C331.45 50.3769 331.49 50.1676 331.57 49.8885C331.65 49.6094 331.79 49.2815 331.99 48.9047C332.191 48.5279 332.491 48.1721 332.891 47.8372C333.291 47.5023 333.765 47.2581 334.312 47.1046L334.952 47H335.192C335.632 47 335.892 47.0069 335.972 47.0209C336.813 47.1744 337.513 47.5442 338.073 48.1302C338.634 48.7163 339.034 49.3652 339.274 50.0768C339.514 50.7885 339.627 51.563 339.614 52.4002C339.614 53.7259 339.301 55.2399 338.674 56.9423C338.047 58.6447 337.266 59.9494 336.333 60.8564C335.252 61.903 334.058 62.4263 332.751 62.4263C331.417 62.4263 330.416 61.8821 329.749 60.7936C329.336 60.1517 329.129 59.5099 329.129 58.868V58.6377C329.129 57.0051 329.709 55.5329 330.87 54.2212C332.031 52.9095 333.318 52.2467 334.732 52.2328C335.546 52.2328 336.159 52.4491 336.573 52.8816C336.986 53.3142 337.26 53.7817 337.393 54.284L337.453 54.0538C337.72 52.8956 337.853 51.9397 337.853 51.1862C337.853 49.9582 337.58 49.0931 337.033 48.5907C336.486 48.0884 335.866 47.8302 335.172 47.8163C334.132 47.8163 333.324 48.2628 332.751 49.1559C333.298 49.2396 333.571 49.5187 333.571 49.9931C333.571 50.342 333.451 50.649 333.211 50.9141C332.971 51.1792 332.677 51.3188 332.331 51.3327ZM336.893 55.5608C336.893 54.6399 336.699 53.984 336.313 53.5933C335.926 53.2026 335.472 53.0072 334.952 53.0072C334.111 53.0072 333.371 53.3282 332.731 53.9701C332.397 54.3608 332.137 54.7724 331.95 55.205C331.764 55.6376 331.544 56.3492 331.29 57.34C331.05 58.3447 330.93 59.0773 330.93 59.5378C330.93 60.8634 331.597 61.5262 332.931 61.5262C333.091 61.5262 333.211 61.5192 333.291 61.5053C334.318 61.3239 335.145 60.696 335.772 59.6215C335.972 59.2726 336.206 58.6866 336.473 57.8633C336.739 57.04 336.879 56.2725 336.893 55.5608Z" fill="black"/>
<path d="M342.355 55.582C342.355 55.582 342.209 55.582 341.915 55.582C341.622 55.582 341.375 55.4774 341.175 55.2681C340.975 55.0588 340.875 54.7866 340.875 54.4517C340.875 53.9634 341.102 53.5308 341.555 53.154C342.009 52.7773 342.816 52.5889 343.976 52.5889C344.95 52.5889 345.737 52.8121 346.337 53.2587C346.938 53.7052 347.338 54.2355 347.538 54.8494C347.605 55.0448 347.638 55.2611 347.638 55.4983C347.638 55.7355 347.645 56.5379 347.658 57.9054V59.3706C347.658 60.0404 347.691 60.5009 347.758 60.752C347.825 61.0032 347.965 61.1288 348.178 61.1288C348.378 61.1288 348.512 61.0172 348.578 60.7939C348.645 60.5706 348.678 60.2008 348.678 59.6845V58.931H349.479V59.7473C349.466 60.3055 349.446 60.6334 349.419 60.7311C349.299 61.1497 349.065 61.4777 348.718 61.7149C348.372 61.9521 348.005 62.0777 347.618 62.0916C347.231 62.1056 346.918 61.98 346.678 61.7149C346.437 61.4497 346.277 61.1567 346.197 60.8358V60.752L346.157 60.8148C346.131 60.8567 346.097 60.8986 346.057 60.9404C346.017 60.9823 345.964 61.0451 345.897 61.1288C345.83 61.2125 345.75 61.2893 345.657 61.359C345.564 61.4288 345.464 61.5125 345.357 61.6102C345.25 61.7079 345.13 61.7846 344.997 61.8405C344.863 61.8963 344.717 61.9521 344.557 62.0079C344.396 62.0637 344.223 62.1056 344.036 62.1335C343.849 62.1614 343.643 62.1823 343.416 62.1963C342.616 62.1963 341.895 61.98 341.255 61.5474C340.615 61.1148 340.294 60.5078 340.294 59.7264C340.294 59.4334 340.341 59.1543 340.435 58.8892C340.528 58.624 340.708 58.338 340.975 58.031C341.242 57.724 341.562 57.4658 341.935 57.2565C342.309 57.0472 342.829 56.8519 343.496 56.6705C344.163 56.4891 344.897 56.3844 345.697 56.3565H345.977V55.896C345.977 55.4216 345.937 55.0727 345.857 54.8494C345.564 53.8587 344.917 53.3633 343.916 53.3633C343.676 53.3633 343.449 53.3703 343.236 53.3843C343.022 53.3982 342.856 53.4261 342.736 53.468C342.616 53.5098 342.562 53.5308 342.576 53.5308C342.869 53.7401 343.016 54.0471 343.016 54.4517C343.016 54.8006 342.909 55.0727 342.696 55.2681L342.355 55.582ZM342.135 59.7473C342.135 60.1799 342.295 60.5637 342.616 60.8986C342.936 61.2335 343.329 61.4079 343.796 61.4218C344.303 61.4218 344.75 61.2614 345.137 60.9404C345.524 60.6195 345.784 60.2008 345.917 59.6845C345.944 59.5869 345.964 59.1264 345.977 58.3031C345.977 57.4937 345.971 57.0891 345.957 57.0891C345.85 57.0891 345.71 57.0961 345.537 57.11C345.364 57.124 345.063 57.1868 344.637 57.2984C344.21 57.41 343.823 57.5496 343.476 57.717C343.129 57.8845 342.822 58.1426 342.556 58.4915C342.289 58.8403 342.149 59.2589 342.135 59.7473Z" fill="black"/>
<path d="M357.022 55.5818C357.022 55.5818 356.882 55.5818 356.602 55.5818C356.322 55.5818 356.082 55.4772 355.882 55.2679C355.682 55.0586 355.575 54.7934 355.562 54.4725C355.562 54.1515 355.662 53.8864 355.862 53.6771C355.929 53.6073 355.962 53.5655 355.962 53.5515C355.962 53.5376 355.895 53.5236 355.762 53.5097C355.415 53.4538 355.088 53.4259 354.781 53.4259C354.128 53.4259 353.594 53.6492 353.181 54.0957C352.554 54.7516 352.24 55.847 352.24 57.3819C352.24 58.5262 352.447 59.4262 352.86 60.0821C353.407 60.9333 354.141 61.3589 355.061 61.3589C355.608 61.3589 356.049 61.1775 356.382 60.8147C356.716 60.4518 356.956 60.0193 357.102 59.5169C357.129 59.4053 357.162 59.3355 357.203 59.3076C357.243 59.2797 357.349 59.2657 357.523 59.2657H357.803C357.883 59.3495 357.923 59.4123 357.923 59.4541C357.923 59.5099 357.896 59.6216 357.843 59.789C357.789 59.9565 357.683 60.1867 357.523 60.4798C357.363 60.7728 357.169 61.0379 356.942 61.2751C356.716 61.5124 356.395 61.7287 355.982 61.924C355.568 62.1194 355.108 62.2101 354.601 62.1961C353.454 62.1961 352.454 61.7496 351.6 60.8565C350.746 59.9635 350.313 58.8401 350.299 57.4866C350.299 56.0354 350.733 54.8562 351.6 53.9492C352.467 53.0422 353.474 52.5887 354.621 52.5887C355.768 52.5887 356.569 52.7771 357.022 53.1538C357.476 53.5306 357.703 53.9771 357.703 54.4934C357.703 54.8144 357.589 55.0725 357.363 55.2679L357.022 55.5818Z" fill="black"/>
<path d="M359.043 53.133C359.75 53.0772 360.297 52.6865 360.684 51.9609C361.071 51.2352 361.284 50.384 361.324 49.4073V49.0933H362.125V52.9446H364.826V53.9075H362.125V56.9216C362.138 58.6658 362.145 59.6496 362.145 59.8729C362.145 60.0961 362.192 60.3194 362.285 60.5427C362.472 61.0869 362.798 61.359 363.265 61.359C363.852 61.359 364.213 60.8636 364.346 59.8729C364.359 59.7612 364.366 59.4403 364.366 58.91V58.1774H365.166V58.91V59.1612C365.166 60.2357 364.886 61.052 364.326 61.6102C363.966 61.9869 363.499 62.1753 362.925 62.1753C362.472 62.1753 362.078 62.0916 361.745 61.9241C361.411 61.7567 361.158 61.5404 360.984 61.2753C360.811 61.0101 360.684 60.7659 360.604 60.5427C360.524 60.3194 360.477 60.0961 360.464 59.8729C360.451 59.7752 360.444 58.7426 360.444 56.775V53.9075H358.863V53.133H359.043Z" fill="black"/>
<path d="M367.668 49.2188C367.668 48.8281 367.788 48.5211 368.028 48.2979C368.268 48.0746 368.561 47.963 368.908 47.963C369.215 47.9909 369.482 48.1095 369.708 48.3188C369.935 48.5281 370.049 48.8281 370.049 49.2188C370.049 49.6375 369.935 49.9514 369.708 50.1607C369.482 50.37 369.202 50.4747 368.868 50.4747C368.535 50.4747 368.254 50.37 368.028 50.1607C367.801 49.9514 367.681 49.6375 367.668 49.2188ZM371.229 61.9659C371.029 61.9241 370.335 61.9031 369.148 61.9031C369.001 61.9031 368.755 61.9031 368.408 61.9031C368.061 61.9031 367.728 61.9171 367.407 61.945L366.967 61.9659H366.807V61.0031H367.127C367.501 61.0031 367.828 60.9822 368.108 60.9403C368.228 60.8845 368.301 60.8077 368.328 60.7101C368.355 60.6124 368.368 60.3194 368.368 59.831V57.675V55.8331C368.368 55.1075 368.355 54.647 368.328 54.4516C368.301 54.2563 368.208 54.1237 368.048 54.0539C367.861 53.9563 367.547 53.9074 367.107 53.9074H366.887V53.426C366.887 53.1051 366.9 52.9446 366.927 52.9446L367.127 52.9237C367.261 52.9097 367.447 52.8957 367.688 52.8818C367.928 52.8678 368.168 52.8539 368.408 52.8399C368.635 52.826 368.875 52.812 369.128 52.7981C369.382 52.7841 369.575 52.7632 369.708 52.7353C369.842 52.7074 369.915 52.7004 369.929 52.7143H369.989V60.6682C370.055 60.8077 370.135 60.8915 370.229 60.9194C370.322 60.9473 370.556 60.9752 370.929 61.0031H371.389V61.9659H371.229Z" fill="black"/>
<path d="M378.613 52.9446C378.693 52.9725 379.253 52.9864 380.294 52.9864C381.054 52.9864 381.594 52.9725 381.914 52.9446H382.014V53.9074H381.794C381.021 53.9632 380.527 54.2423 380.314 54.7447C380.287 54.8005 379.84 56.0075 378.973 58.3658C378.106 60.724 377.652 61.938 377.612 62.0078C377.546 62.1334 377.379 62.1962 377.112 62.1962C376.859 62.1962 376.698 62.1334 376.632 62.0078C374.764 56.9703 373.824 54.4167 373.81 54.347C373.744 54.1516 373.637 54.033 373.49 53.9911C373.344 53.9493 373.083 53.9214 372.71 53.9074H372.23V52.9446H372.35L372.51 52.9655C372.617 52.9655 372.75 52.9655 372.91 52.9655C373.07 52.9655 373.243 52.9655 373.43 52.9655C373.617 52.9655 373.784 52.9725 373.93 52.9864C374.077 53.0004 374.197 53.0074 374.291 53.0074C375.558 53.0074 376.292 52.9864 376.492 52.9446H376.652V53.9074H376.372C375.851 53.9214 375.571 54.026 375.531 54.2214C375.531 54.2772 375.871 55.2261 376.552 57.068L377.572 59.8309L379.393 54.8284V54.6609C379.393 54.4656 379.326 54.3051 379.193 54.1795C379.06 54.0539 378.94 53.9772 378.833 53.9493C378.726 53.9214 378.633 53.9074 378.553 53.9074H378.473V52.9446H378.613Z" fill="black"/>
<path d="M385.156 55.5819C385.156 55.5819 385.009 55.5819 384.716 55.5819C384.422 55.5819 384.175 55.4773 383.975 55.2679C383.775 55.0586 383.675 54.7865 383.675 54.4516C383.675 53.9632 383.902 53.5306 384.355 53.1539C384.809 52.7771 385.616 52.5887 386.777 52.5887C387.75 52.5887 388.537 52.812 389.138 53.2585C389.738 53.7051 390.138 54.2353 390.338 54.8493C390.405 55.0447 390.438 55.261 390.438 55.4982C390.438 55.7354 390.445 56.5378 390.458 57.9053V59.3705C390.458 60.0403 390.492 60.5007 390.558 60.7519C390.625 61.0031 390.765 61.1287 390.979 61.1287C391.179 61.1287 391.312 61.017 391.379 60.7938C391.446 60.5705 391.479 60.2007 391.479 59.6844V58.9309H392.279V59.7472C392.266 60.3054 392.246 60.6333 392.219 60.731C392.099 61.1496 391.866 61.4775 391.519 61.7147C391.172 61.952 390.805 62.0776 390.418 62.0915C390.032 62.1055 389.718 61.9799 389.478 61.7147C389.238 61.4496 389.078 61.1566 388.998 60.8356V60.7519L388.958 60.8147C388.931 60.8566 388.898 60.8984 388.858 60.9403C388.818 60.9822 388.764 61.045 388.698 61.1287C388.631 61.2124 388.551 61.2891 388.457 61.3589C388.364 61.4287 388.264 61.5124 388.157 61.6101C388.051 61.7078 387.931 61.7845 387.797 61.8403C387.664 61.8962 387.517 61.952 387.357 62.0078C387.197 62.0636 387.023 62.1055 386.837 62.1334C386.65 62.1613 386.443 62.1822 386.216 62.1962C385.416 62.1962 384.696 61.9799 384.055 61.5473C383.415 61.1147 383.095 60.5077 383.095 59.7263C383.095 59.4332 383.142 59.1542 383.235 58.889C383.328 58.6239 383.508 58.3378 383.775 58.0309C384.042 57.7239 384.362 57.4657 384.736 57.2564C385.109 57.0471 385.629 56.8517 386.296 56.6703C386.963 56.4889 387.697 56.3843 388.497 56.3564H388.778V55.8959C388.778 55.4214 388.738 55.0726 388.658 54.8493C388.364 53.8586 387.717 53.3632 386.717 53.3632C386.476 53.3632 386.25 53.3702 386.036 53.3841C385.823 53.3981 385.656 53.426 385.536 53.4679C385.416 53.5097 385.363 53.5306 385.376 53.5306C385.669 53.74 385.816 54.047 385.816 54.4516C385.816 54.8005 385.709 55.0726 385.496 55.2679L385.156 55.5819ZM384.936 59.7472C384.936 60.1798 385.096 60.5635 385.416 60.8984C385.736 61.2333 386.13 61.4078 386.597 61.4217C387.103 61.4217 387.55 61.2612 387.937 60.9403C388.324 60.6193 388.584 60.2007 388.718 59.6844C388.744 59.5867 388.764 59.1263 388.778 58.303C388.778 57.4936 388.771 57.089 388.758 57.089C388.651 57.089 388.511 57.0959 388.337 57.1099C388.164 57.1238 387.864 57.1866 387.437 57.2983C387.01 57.4099 386.623 57.5494 386.276 57.7169C385.93 57.8843 385.623 58.1425 385.356 58.4913C385.089 58.8402 384.949 59.2588 384.936 59.7472Z" fill="black"/>
<path d="M392.96 53.133C393.667 53.0772 394.213 52.6865 394.6 51.9609C394.987 51.2352 395.201 50.384 395.241 49.4073V49.0933H396.041V52.9446H398.742V53.9075H396.041V56.9216C396.054 58.6658 396.061 59.6496 396.061 59.8729C396.061 60.0961 396.108 60.3194 396.201 60.5427C396.388 61.0869 396.715 61.359 397.182 61.359C397.769 61.359 398.129 60.8636 398.262 59.8729C398.275 59.7612 398.282 59.4403 398.282 58.91V58.1774H399.082V58.91V59.1612C399.082 60.2357 398.802 61.052 398.242 61.6102C397.882 61.9869 397.415 62.1753 396.841 62.1753C396.388 62.1753 395.994 62.0916 395.661 61.9241C395.327 61.7567 395.074 61.5404 394.9 61.2753C394.727 61.0101 394.6 60.7659 394.52 60.5427C394.44 60.3194 394.394 60.0961 394.38 59.8729C394.367 59.7752 394.36 58.7426 394.36 56.775V53.9075H392.779V53.133H392.96Z" fill="black"/>
<path d="M401.584 49.2188C401.584 48.8281 401.704 48.5211 401.944 48.2979C402.184 48.0746 402.477 47.963 402.824 47.963C403.131 47.9909 403.398 48.1095 403.625 48.3188C403.851 48.5281 403.965 48.8281 403.965 49.2188C403.965 49.6375 403.851 49.9514 403.625 50.1607C403.398 50.37 403.118 50.4747 402.784 50.4747C402.451 50.4747 402.171 50.37 401.944 50.1607C401.717 49.9514 401.597 49.6375 401.584 49.2188ZM405.145 61.9659C404.945 61.9241 404.252 61.9031 403.064 61.9031C402.918 61.9031 402.671 61.9031 402.324 61.9031C401.977 61.9031 401.644 61.9171 401.324 61.945L400.883 61.9659H400.723V61.0031H401.043C401.417 61.0031 401.744 60.9822 402.024 60.9403C402.144 60.8845 402.217 60.8077 402.244 60.7101C402.271 60.6124 402.284 60.3194 402.284 59.831V57.675V55.8331C402.284 55.1075 402.271 54.647 402.244 54.4516C402.217 54.2563 402.124 54.1237 401.964 54.0539C401.777 53.9563 401.464 53.9074 401.023 53.9074H400.803V53.426C400.803 53.1051 400.817 52.9446 400.843 52.9446L401.043 52.9237C401.177 52.9097 401.364 52.8957 401.604 52.8818C401.844 52.8678 402.084 52.8539 402.324 52.8399C402.551 52.826 402.791 52.812 403.044 52.7981C403.298 52.7841 403.491 52.7632 403.625 52.7353C403.758 52.7074 403.831 52.7004 403.845 52.7143H403.905V60.6682C403.971 60.8077 404.052 60.8915 404.145 60.9194C404.238 60.9473 404.472 60.9752 404.845 61.0031H405.305V61.9659H405.145Z" fill="black"/>
<path d="M406.326 57.4867C406.326 56.1611 406.759 55.0168 407.627 54.054C408.494 53.0911 409.541 52.6027 410.768 52.5888C411.969 52.5888 413.002 53.0632 413.87 54.0121C414.737 54.961 415.177 56.1122 415.19 57.4658C415.19 58.7914 414.763 59.9077 413.91 60.8148C413.056 61.7218 412.009 62.1753 410.768 62.1753C409.474 62.1753 408.414 61.7078 407.587 60.7729C406.759 59.838 406.339 58.7426 406.326 57.4867ZM410.768 61.338C412.395 61.338 413.209 60.2008 413.209 57.9263V57.2565V56.7332C413.209 56.4262 413.203 56.1611 413.189 55.9378C413.176 55.7145 413.129 55.4494 413.049 55.1424C412.969 54.8354 412.862 54.5842 412.729 54.3889C412.596 54.1935 412.389 53.9982 412.109 53.8028C411.829 53.6074 411.502 53.4679 411.128 53.3842C411.062 53.3702 410.955 53.3632 410.808 53.3632C410.408 53.3632 410.028 53.447 409.668 53.6144C409.094 53.9214 408.72 54.347 408.547 54.8912C408.374 55.4354 408.287 56.0773 408.287 56.8169V57.2355C408.287 58.5751 408.414 59.517 408.667 60.0612C409.094 60.9124 409.794 61.338 410.768 61.338Z" fill="black"/>
<path d="M416.591 61.0031H416.871C417.391 61.0031 417.705 60.9054 417.811 60.7101V60.5426C417.811 60.417 417.811 60.2566 417.811 60.0612C417.811 59.8658 417.811 59.6496 417.811 59.4123C417.811 59.1751 417.818 58.903 417.831 58.596C417.845 58.289 417.845 57.996 417.831 57.7169C417.831 57.2843 417.831 56.8238 417.831 56.3354C417.831 55.847 417.825 55.4354 417.811 55.1005V54.6191C417.771 54.354 417.678 54.1795 417.531 54.0958C417.385 54.0121 417.084 53.9493 416.631 53.9074H416.271V53.426C416.271 53.1051 416.284 52.9446 416.311 52.9446L416.511 52.9237C416.644 52.9097 416.831 52.8957 417.071 52.8818C417.311 52.8678 417.558 52.8539 417.811 52.8399C418.038 52.826 418.278 52.812 418.532 52.7981C418.785 52.7841 418.979 52.7632 419.112 52.7353C419.245 52.7074 419.319 52.7004 419.332 52.7143H419.392V53.5516C419.392 54.0819 419.399 54.347 419.412 54.347C419.426 54.347 419.459 54.3121 419.512 54.2423C419.566 54.1726 419.646 54.0679 419.752 53.9284C419.859 53.7888 419.986 53.6632 420.133 53.5516C420.279 53.44 420.473 53.3074 420.713 53.1539C420.953 53.0004 421.206 52.8888 421.473 52.819C421.74 52.7492 422.08 52.7143 422.494 52.7143C424.014 52.7702 424.861 53.5586 425.035 55.0796C425.048 55.1773 425.055 56.1471 425.055 57.989V59.7891C425.055 60.3194 425.068 60.6333 425.095 60.731C425.122 60.8287 425.195 60.8985 425.315 60.9403C425.595 60.9822 425.922 61.0031 426.295 61.0031H426.616V61.9659H426.456L425.975 61.945C425.668 61.9311 425.335 61.9241 424.975 61.9241C424.615 61.9241 424.361 61.9171 424.214 61.9031C422.84 61.9031 422.093 61.9241 421.973 61.9659H421.813V61.0031H422.133C422.947 61.0031 423.354 60.8915 423.354 60.6682C423.367 60.6403 423.374 59.6775 423.374 57.7797C423.361 55.8959 423.347 54.8982 423.334 54.7865C423.254 54.3958 423.121 54.1028 422.934 53.9074C422.747 53.7121 422.587 53.5935 422.454 53.5516C422.32 53.5097 422.147 53.4958 421.933 53.5097C421.333 53.5097 420.806 53.747 420.353 54.2214C419.992 54.5982 419.766 54.9819 419.672 55.3726C419.579 55.7633 419.526 56.3424 419.512 57.1099V58.4495V59.7054C419.512 60.124 419.519 60.4031 419.532 60.5426C419.546 60.6822 419.566 60.7729 419.592 60.8147C419.619 60.8566 419.679 60.8985 419.772 60.9403C420.052 60.9822 420.379 61.0031 420.753 61.0031H421.073V61.9659H420.913L420.453 61.945C420.133 61.9311 419.792 61.9241 419.432 61.9241C419.072 61.9241 418.819 61.9171 418.672 61.9031C417.298 61.9031 416.551 61.9241 416.431 61.9659H416.271V61.0031H416.591Z" fill="black"/>
<path d="M360.304 79.8413C359.997 79.8413 359.777 79.7575 359.644 79.5901C359.51 79.4227 359.437 79.2343 359.424 79.025C359.424 78.8854 359.464 78.6761 359.544 78.397C359.624 78.1179 359.764 77.79 359.964 77.4133C360.164 77.0365 360.464 76.6807 360.864 76.3458C361.264 76.0109 361.738 75.7667 362.285 75.6132L362.925 75.5085H363.165C363.606 75.5085 363.866 75.5155 363.946 75.5294C364.786 75.6829 365.486 76.0527 366.047 76.6388C366.607 77.2249 367.007 77.8737 367.247 78.5854C367.487 79.2971 367.601 80.0715 367.587 80.9088C367.587 82.2344 367.274 83.7484 366.647 85.4508C366.02 87.1532 365.24 88.458 364.306 89.365C363.225 90.4115 362.031 90.9348 360.724 90.9348C359.39 90.9348 358.39 90.3906 357.723 89.3022C357.309 88.6603 357.102 88.0184 357.102 87.3765V87.1463C357.102 85.5136 357.683 84.0415 358.843 82.7298C360.004 81.4181 361.291 80.7553 362.705 80.7413C363.519 80.7413 364.132 80.9576 364.546 81.3902C364.96 81.8228 365.233 82.2902 365.366 82.7926L365.426 82.5623C365.693 81.4041 365.827 80.4483 365.827 79.6948C365.827 78.4668 365.553 77.6016 365.006 77.0993C364.459 76.5969 363.839 76.3388 363.145 76.3248C362.105 76.3248 361.298 76.7714 360.724 77.6644C361.271 77.7482 361.545 78.0272 361.545 78.5017C361.545 78.8505 361.425 79.1575 361.184 79.4227C360.944 79.6878 360.651 79.8273 360.304 79.8413ZM364.866 84.0694C364.866 83.1484 364.673 82.4926 364.286 82.1018C363.899 81.7111 363.446 81.5158 362.925 81.5158C362.085 81.5158 361.345 81.8367 360.704 82.4786C360.371 82.8693 360.111 83.281 359.924 83.7135C359.737 84.1461 359.517 84.8578 359.264 85.8485C359.023 86.8532 358.903 87.5858 358.903 88.0463C358.903 89.372 359.57 90.0348 360.904 90.0348C361.064 90.0348 361.184 90.0278 361.264 90.0138C362.292 89.8324 363.119 89.2045 363.746 88.13C363.946 87.7812 364.179 87.1951 364.446 86.3718C364.713 85.5485 364.853 84.781 364.866 84.0694Z" fill="black"/>
<path d="M368.428 89.5113H368.708C369.228 89.5113 369.542 89.4136 369.648 89.2182V89.0508C369.648 88.9252 369.648 88.7647 369.648 88.5694C369.648 88.374 369.648 88.1438 369.648 87.8787C369.648 87.6135 369.655 87.3135 369.668 86.9786C369.682 86.6437 369.682 86.2949 369.668 85.932C369.655 85.5692 369.655 85.1855 369.668 84.7808C369.682 84.3762 369.682 83.9785 369.668 83.5878C369.668 83.0715 369.668 82.5272 369.668 81.9551C369.668 81.383 369.668 80.8597 369.668 80.3853C369.668 79.9108 369.668 79.4922 369.668 79.1294C369.668 78.7666 369.662 78.4596 369.648 78.2084C369.635 77.9573 369.635 77.8387 369.648 77.8526C369.608 77.5875 369.515 77.413 369.368 77.3293C369.222 77.2456 368.921 77.1828 368.468 77.1409H368.108V76.6595C368.108 76.3386 368.121 76.1781 368.148 76.1781L368.348 76.1572C368.481 76.1432 368.675 76.1293 368.928 76.1153C369.182 76.1014 369.428 76.0874 369.668 76.0735C369.895 76.0595 370.142 76.0455 370.409 76.0316C370.676 76.0176 370.876 75.9967 371.009 75.9688C371.142 75.9409 371.216 75.9339 371.229 75.9479H371.289V82.5412C371.289 86.9647 371.296 89.1903 371.309 89.2182C371.363 89.3299 371.443 89.4066 371.549 89.4485C371.829 89.4904 372.156 89.5113 372.53 89.5113H372.85V90.4741H372.69L372.23 90.4532C371.923 90.4392 371.596 90.4323 371.249 90.4323C370.902 90.4323 370.649 90.4253 370.489 90.4113C370.329 90.3974 370.075 90.3974 369.728 90.4113C369.382 90.4253 369.048 90.4392 368.728 90.4532L368.268 90.4741H368.108V89.5113H368.428Z" fill="black"/>
<path d="M373.71 85.9949C373.71 84.6692 374.144 83.525 375.011 82.5622C375.878 81.5993 376.925 81.1109 378.153 81.097C379.353 81.097 380.387 81.5714 381.254 82.5203C382.121 83.4692 382.561 84.6204 382.575 85.9739C382.575 87.2996 382.148 88.4159 381.294 89.3229C380.44 90.23 379.393 90.6835 378.153 90.6835C376.859 90.6835 375.798 90.216 374.971 89.2811C374.144 88.3462 373.724 87.2508 373.71 85.9949ZM378.153 89.8462C379.78 89.8462 380.594 88.709 380.594 86.4344V85.7646V85.2414C380.594 84.9344 380.587 84.6692 380.574 84.446C380.56 84.2227 380.514 83.9576 380.434 83.6506C380.354 83.3436 380.247 83.0924 380.113 82.8971C379.98 82.7017 379.773 82.5063 379.493 82.311C379.213 82.1156 378.886 81.9761 378.513 81.8924C378.446 81.8784 378.339 81.8714 378.193 81.8714C377.792 81.8714 377.412 81.9551 377.052 82.1226C376.478 82.4296 376.105 82.8552 375.931 83.3994C375.758 83.9436 375.671 84.5855 375.671 85.3251V85.7437C375.671 87.0833 375.798 88.0252 376.052 88.5694C376.478 89.4206 377.179 89.8462 378.153 89.8462Z" fill="black"/>
<path d="M389.058 83.86C389.058 83.3018 388.878 82.8204 388.518 82.4157C388.157 82.011 387.637 81.8087 386.957 81.8087C386.477 81.8087 386.063 81.8994 385.716 82.0808C385.316 82.3459 385.116 82.7087 385.116 83.1692C385.103 83.239 385.103 83.3297 385.116 83.4413C385.129 83.553 385.236 83.7204 385.436 83.9437C385.636 84.1669 385.923 84.3414 386.296 84.467C386.537 84.5367 386.83 84.5995 387.177 84.6553C387.524 84.7112 387.817 84.774 388.057 84.8437C388.297 84.9135 388.511 85.0042 388.698 85.1158C388.924 85.2275 389.144 85.367 389.358 85.5345C389.571 85.7019 389.785 85.988 389.998 86.3926C390.212 86.7973 390.325 87.2299 390.338 87.6904C390.338 88.5555 390.085 89.2672 389.578 89.8254C389.071 90.3835 388.251 90.6696 387.117 90.6835H386.957C386.263 90.6835 385.623 90.4324 385.036 89.93L384.876 90.0765L384.696 90.2649C384.616 90.3486 384.536 90.4254 384.456 90.4952L384.235 90.7045H384.075H383.995C383.955 90.7045 383.895 90.6626 383.815 90.5789V88.9253V87.7113C383.815 87.4183 383.829 87.2438 383.855 87.188C383.882 87.1322 383.949 87.0973 384.055 87.0834H384.235C384.396 87.0834 384.502 87.1113 384.556 87.1671C384.609 87.2229 384.642 87.3066 384.656 87.4183C384.669 87.5299 384.716 87.7183 384.796 87.9834C384.876 88.2485 385.002 88.5416 385.176 88.8625C385.643 89.5742 386.29 89.93 387.117 89.93C388.411 89.93 389.058 89.3858 389.058 88.2974C389.058 87.8927 388.938 87.5648 388.698 87.3136C388.431 86.9787 387.877 86.7275 387.037 86.5601C386.196 86.3926 385.643 86.2322 385.376 86.0787C384.896 85.8414 384.516 85.5205 384.235 85.1158C383.955 84.7112 383.815 84.2786 383.815 83.8181C383.815 83.2739 383.929 82.8134 384.155 82.4366C384.382 82.0599 384.669 81.7808 385.016 81.5994C385.363 81.418 385.696 81.2924 386.016 81.2226C386.336 81.1528 386.63 81.118 386.897 81.118H387.117C387.65 81.118 388.117 81.2226 388.518 81.4319L388.818 81.5994L388.998 81.4529C389.131 81.3273 389.278 81.2087 389.438 81.097H389.598H389.678C389.718 81.097 389.778 81.1389 389.858 81.2226V83.9855L389.738 84.1111H389.178C389.098 84.0274 389.058 83.9437 389.058 83.86Z" fill="black"/>
<path d="M396.941 83.86C396.941 83.3018 396.761 82.8204 396.401 82.4157C396.041 82.011 395.521 81.8087 394.84 81.8087C394.36 81.8087 393.947 81.8994 393.6 82.0808C393.2 82.3459 393 82.7087 393 83.1692C392.986 83.239 392.986 83.3297 393 83.4413C393.013 83.553 393.12 83.7204 393.32 83.9437C393.52 84.1669 393.807 84.3414 394.18 84.467C394.42 84.5367 394.714 84.5995 395.061 84.6553C395.407 84.7112 395.701 84.774 395.941 84.8437C396.181 84.9135 396.395 85.0042 396.581 85.1158C396.808 85.2275 397.028 85.367 397.242 85.5345C397.455 85.7019 397.669 85.988 397.882 86.3926C398.095 86.7973 398.209 87.2299 398.222 87.6904C398.222 88.5555 397.969 89.2672 397.462 89.8254C396.955 90.3835 396.134 90.6696 395.001 90.6835H394.84C394.147 90.6835 393.507 90.4324 392.92 89.93L392.759 90.0765L392.579 90.2649C392.499 90.3486 392.419 90.4254 392.339 90.4952L392.119 90.7045H391.959H391.879C391.839 90.7045 391.779 90.6626 391.699 90.5789V88.9253V87.7113C391.699 87.4183 391.712 87.2438 391.739 87.188C391.766 87.1322 391.832 87.0973 391.939 87.0834H392.119C392.279 87.0834 392.386 87.1113 392.439 87.1671C392.493 87.2229 392.526 87.3066 392.539 87.4183C392.553 87.5299 392.599 87.7183 392.679 87.9834C392.759 88.2485 392.886 88.5416 393.06 88.8625C393.527 89.5742 394.173 89.93 395.001 89.93C396.295 89.93 396.941 89.3858 396.941 88.2974C396.941 87.8927 396.821 87.5648 396.581 87.3136C396.315 86.9787 395.761 86.7275 394.921 86.5601C394.08 86.3926 393.527 86.2322 393.26 86.0787C392.779 85.8414 392.399 85.5205 392.119 85.1158C391.839 84.7112 391.699 84.2786 391.699 83.8181C391.699 83.2739 391.812 82.8134 392.039 82.4366C392.266 82.0599 392.553 81.7808 392.9 81.5994C393.246 81.418 393.58 81.2924 393.9 81.2226C394.22 81.1528 394.514 81.118 394.78 81.118H395.001C395.534 81.118 396.001 81.2226 396.401 81.4319L396.701 81.5994L396.881 81.4529C397.015 81.3273 397.162 81.2087 397.322 81.097H397.482H397.562C397.602 81.097 397.662 81.1389 397.742 81.2226V83.9855L397.622 84.1111H397.062C396.982 84.0274 396.941 83.9437 396.941 83.86Z" fill="black"/>
<path d="M428.897 71.5106H326.288V70.2547H428.897V71.5106Z" fill="black"/>
</g>
<defs>
<linearGradient id="paint0_linear" x1="396" y1="83.8947" x2="282" y2="83.8947" gradientUnits="userSpaceOnUse">
<stop/>
<stop offset="1" stop-color="#C4C4C4" stop-opacity="0"/>
</linearGradient>
<linearGradient id="paint1_linear" x1="232" y1="82.8947" x2="118" y2="82.8947" gradientUnits="userSpaceOnUse">
<stop stop-color="#D62839"/>
<stop offset="0.510417" stop-color="#5B5B5B" stop-opacity="0"/>
<stop offset="1" stop-color="#4BA3C3"/>
</linearGradient>
<clipPath id="clip0">
<rect width="481" height="94" fill="white"/>
</clipPath>
</defs>
</svg>
