<svg width="618" height="265" viewBox="0 0 618 265" fill="none" xmlns="http://www.w3.org/2000/svg">
<path d="M232.734 31V13.9375H238.582C240.512 13.9375 241.98 14.3242 242.988 15.0977C243.996 15.8711 244.5 17.0234 244.5 18.5547C244.5 19.3359 244.289 20.0391 243.867 20.6641C243.445 21.2891 242.828 21.7734 242.016 22.1172C242.938 22.3672 243.648 22.8398 244.148 23.5352C244.656 24.2227 244.91 25.0508 244.91 26.0195C244.91 27.6211 244.395 28.8516 243.363 29.7109C242.34 30.5703 240.871 31 238.957 31H232.734ZM235.699 23.3008V28.6328H238.992C239.922 28.6328 240.648 28.4023 241.172 27.9414C241.695 27.4805 241.957 26.8398 241.957 26.0195C241.957 24.2461 241.051 23.3398 239.238 23.3008H235.699ZM235.699 21.1211H238.605C239.527 21.1211 240.246 20.9141 240.762 20.5C241.285 20.0781 241.547 19.4844 241.547 18.7188C241.547 17.875 241.305 17.2656 240.82 16.8906C240.344 16.5156 239.598 16.3281 238.582 16.3281H235.699V21.1211ZM255.176 31C255.051 30.7578 254.941 30.3633 254.848 29.8164C253.941 30.7617 252.832 31.2344 251.52 31.2344C250.246 31.2344 249.207 30.8711 248.402 30.1445C247.598 29.418 247.195 28.5195 247.195 27.4492C247.195 26.0977 247.695 25.0625 248.695 24.3438C249.703 23.6172 251.141 23.2539 253.008 23.2539H254.754V22.4219C254.754 21.7656 254.57 21.2422 254.203 20.8516C253.836 20.4531 253.277 20.2539 252.527 20.2539C251.879 20.2539 251.348 20.418 250.934 20.7461C250.52 21.0664 250.312 21.4766 250.312 21.9766H247.465C247.465 21.2812 247.695 20.6328 248.156 20.0312C248.617 19.4219 249.242 18.9453 250.031 18.6016C250.828 18.2578 251.715 18.0859 252.691 18.0859C254.176 18.0859 255.359 18.4609 256.242 19.2109C257.125 19.9531 257.578 21 257.602 22.3516V28.0703C257.602 29.2109 257.762 30.1211 258.082 30.8008V31H255.176ZM252.047 28.9492C252.609 28.9492 253.137 28.8125 253.629 28.5391C254.129 28.2656 254.504 27.8984 254.754 27.4375V25.0469H253.219C252.164 25.0469 251.371 25.2305 250.84 25.5977C250.309 25.9648 250.043 26.4844 250.043 27.1562C250.043 27.7031 250.223 28.1406 250.582 28.4688C250.949 28.7891 251.438 28.9492 252.047 28.9492ZM265.793 28.9609C266.504 28.9609 267.094 28.7539 267.562 28.3398C268.031 27.9258 268.281 27.4141 268.312 26.8047H270.996C270.965 27.5938 270.719 28.332 270.258 29.0195C269.797 29.6992 269.172 30.2383 268.383 30.6367C267.594 31.0352 266.742 31.2344 265.828 31.2344C264.055 31.2344 262.648 30.6602 261.609 29.5117C260.57 28.3633 260.051 26.7773 260.051 24.7539V24.4609C260.051 22.5312 260.566 20.9883 261.598 19.832C262.629 18.668 264.035 18.0859 265.816 18.0859C267.324 18.0859 268.551 18.5273 269.496 19.4102C270.449 20.2852 270.949 21.4375 270.996 22.8672H268.312C268.281 22.1406 268.031 21.543 267.562 21.0742C267.102 20.6055 266.512 20.3711 265.793 20.3711C264.871 20.3711 264.16 20.707 263.66 21.3789C263.16 22.043 262.906 23.0547 262.898 24.4141V24.8711C262.898 26.2461 263.145 27.2734 263.637 27.9531C264.137 28.625 264.855 28.9609 265.793 28.9609ZM277.266 25.5625L276 26.8633V31H273.152V13H276V23.3828L276.891 22.2695L280.395 18.3203H283.816L279.105 23.6055L284.32 31H281.027L277.266 25.5625ZM296.789 24.7891C296.789 26.75 296.344 28.3164 295.453 29.4883C294.562 30.6523 293.367 31.2344 291.867 31.2344C290.477 31.2344 289.363 30.7773 288.527 29.8633V35.875H285.68V18.3203H288.305L288.422 19.6094C289.258 18.5938 290.395 18.0859 291.832 18.0859C293.379 18.0859 294.59 18.6641 295.465 19.8203C296.348 20.9688 296.789 22.5664 296.789 24.6133V24.7891ZM293.953 24.543C293.953 23.2773 293.699 22.2734 293.191 21.5312C292.691 20.7891 291.973 20.418 291.035 20.418C289.871 20.418 289.035 20.8984 288.527 21.8594V27.4844C289.043 28.4688 289.887 28.9609 291.059 28.9609C291.965 28.9609 292.672 28.5977 293.18 27.8711C293.695 27.1367 293.953 26.0273 293.953 24.543ZM305.848 20.9219C305.473 20.8594 305.086 20.8281 304.688 20.8281C303.383 20.8281 302.504 21.3281 302.051 22.3281V31H299.203V18.3203H301.922L301.992 19.7383C302.68 18.6367 303.633 18.0859 304.852 18.0859C305.258 18.0859 305.594 18.1406 305.859 18.25L305.848 20.9219ZM306.691 24.543C306.691 23.3008 306.938 22.1836 307.43 21.1914C307.922 20.1914 308.613 19.4258 309.504 18.8945C310.395 18.3555 311.418 18.0859 312.574 18.0859C314.285 18.0859 315.672 18.6367 316.734 19.7383C317.805 20.8398 318.383 22.3008 318.469 24.1211L318.48 24.7891C318.48 26.0391 318.238 27.1562 317.754 28.1406C317.277 29.125 316.59 29.8867 315.691 30.4258C314.801 30.9648 313.77 31.2344 312.598 31.2344C310.809 31.2344 309.375 30.6406 308.297 29.4531C307.227 28.2578 306.691 26.668 306.691 24.6836V24.543ZM309.539 24.7891C309.539 26.0938 309.809 27.1172 310.348 27.8594C310.887 28.5938 311.637 28.9609 312.598 28.9609C313.559 28.9609 314.305 28.5859 314.836 27.8359C315.375 27.0859 315.645 25.9883 315.645 24.543C315.645 23.2617 315.367 22.2461 314.812 21.4961C314.266 20.7461 313.52 20.3711 312.574 20.3711C311.645 20.3711 310.906 20.7422 310.359 21.4844C309.812 22.2188 309.539 23.3203 309.539 24.7891ZM331.992 24.7891C331.992 26.75 331.547 28.3164 330.656 29.4883C329.766 30.6523 328.57 31.2344 327.07 31.2344C325.68 31.2344 324.566 30.7773 323.73 29.8633V35.875H320.883V18.3203H323.508L323.625 19.6094C324.461 18.5938 325.598 18.0859 327.035 18.0859C328.582 18.0859 329.793 18.6641 330.668 19.8203C331.551 20.9688 331.992 22.5664 331.992 24.6133V24.7891ZM329.156 24.543C329.156 23.2773 328.902 22.2734 328.395 21.5312C327.895 20.7891 327.176 20.418 326.238 20.418C325.074 20.418 324.238 20.8984 323.73 21.8594V27.4844C324.246 28.4688 325.09 28.9609 326.262 28.9609C327.168 28.9609 327.875 28.5977 328.383 27.8711C328.898 27.1367 329.156 26.0273 329.156 24.543ZM352.289 16.3281H346.969V31H344.027V16.3281H338.754V13.9375H352.289V16.3281ZM351.293 24.543C351.293 23.3008 351.539 22.1836 352.031 21.1914C352.523 20.1914 353.215 19.4258 354.105 18.8945C354.996 18.3555 356.02 18.0859 357.176 18.0859C358.887 18.0859 360.273 18.6367 361.336 19.7383C362.406 20.8398 362.984 22.3008 363.07 24.1211L363.082 24.7891C363.082 26.0391 362.84 27.1562 362.355 28.1406C361.879 29.125 361.191 29.8867 360.293 30.4258C359.402 30.9648 358.371 31.2344 357.199 31.2344C355.41 31.2344 353.977 30.6406 352.898 29.4531C351.828 28.2578 351.293 26.668 351.293 24.6836V24.543ZM354.141 24.7891C354.141 26.0938 354.41 27.1172 354.949 27.8594C355.488 28.5938 356.238 28.9609 357.199 28.9609C358.16 28.9609 358.906 28.5859 359.438 27.8359C359.977 27.0859 360.246 25.9883 360.246 24.543C360.246 23.2617 359.969 22.2461 359.414 21.4961C358.867 20.7461 358.121 20.3711 357.176 20.3711C356.246 20.3711 355.508 20.7422 354.961 21.4844C354.414 22.2188 354.141 23.3203 354.141 24.7891ZM364.957 24.543C364.957 23.3008 365.203 22.1836 365.695 21.1914C366.188 20.1914 366.879 19.4258 367.77 18.8945C368.66 18.3555 369.684 18.0859 370.84 18.0859C372.551 18.0859 373.938 18.6367 375 19.7383C376.07 20.8398 376.648 22.3008 376.734 24.1211L376.746 24.7891C376.746 26.0391 376.504 27.1562 376.02 28.1406C375.543 29.125 374.855 29.8867 373.957 30.4258C373.066 30.9648 372.035 31.2344 370.863 31.2344C369.074 31.2344 367.641 30.6406 366.562 29.4531C365.492 28.2578 364.957 26.668 364.957 24.6836V24.543ZM367.805 24.7891C367.805 26.0938 368.074 27.1172 368.613 27.8594C369.152 28.5938 369.902 28.9609 370.863 28.9609C371.824 28.9609 372.57 28.5859 373.102 27.8359C373.641 27.0859 373.91 25.9883 373.91 24.543C373.91 23.2617 373.633 22.2461 373.078 21.4961C372.531 20.7461 371.785 20.3711 370.84 20.3711C369.91 20.3711 369.172 20.7422 368.625 21.4844C368.078 22.2188 367.805 23.3203 367.805 24.7891ZM382.184 31H379.336V13H382.184V31Z" fill="black"/>
<rect x="453.5" y="155.5" width="139" height="78" stroke="#C4C4C4"/>
<rect x="455.5" y="60.5" width="138" height="77" stroke="#C4C4C4"/>
<rect x="460" y="161" width="65" height="6" fill="#C4C4C4"/>
<rect x="460" y="64" width="65" height="7" fill="#C4C4C4"/>
<rect x="472" y="194" width="18" height="9" rx="4.5" fill="#155676"/>
<rect x="472" y="173" width="18" height="9" rx="4.5" fill="#155676"/>
<rect x="498" y="194" width="19" height="9" rx="4.5" fill="#C4C4C4"/>
<rect x="498" y="173" width="19" height="9" rx="4.5" fill="#C4C4C4"/>
<rect x="524" y="194" width="18" height="9" rx="4.5" fill="#C4C4C4"/>
<rect x="534" y="216" width="18" height="10" fill="#C4C4C4"/>
<rect x="524" y="173" width="18" height="9" rx="4.5" fill="#C4C4C4"/>
<rect x="549" y="173" width="19" height="9" rx="4.5" fill="#C4C4C4"/>
<rect x="467" y="81" width="61" height="18" fill="#C4C4C4"/>
<line x1="471.332" y1="220.484" x2="523.107" y2="220.484" stroke="#155676"/>
<ellipse cx="522.595" cy="220.715" rx="2.10575" ry="2.12058" fill="#155676"/>
<ellipse cx="496" cy="117.5" rx="11" ry="10.5" fill="#155676"/>
<circle cx="473" cy="117" r="6" fill="#C4C4C4"/>
<circle cx="519" cy="117" r="6" fill="#C4C4C4"/>
<rect x="338.5" y="53.5" width="99" height="99" stroke="black" stroke-opacity="0.1"/>
<rect x="338.5" y="203.5" width="99" height="39" stroke="black" stroke-opacity="0.08"/>
<path d="M285 133V159V133Z" fill="black"/>
<path d="M285 133V159" stroke="black"/>
<path d="M291 163C314.5 163 314.5 209 338 209" stroke="black"/>
<path d="M292 140C315 140 315 101 338 101" stroke="black"/>
<path d="M23 140C52 140 52 59 81 59" stroke="#4BA3C3" stroke-width="1.76486"/>
<path d="M23 140C52 140 52 81 81 81" stroke="#4BA3C3" stroke-width="0.779581"/>
<path d="M23 140C52 140 52 104 81 104" stroke="#4BA3C3" stroke-width="0.903029"/>
<path d="M23 140C52 140 52 128 81 128" stroke="#4BA3C3" stroke-width="0.90302"/>
<path d="M23 140C52 140 52 152 81 152" stroke="#4BA3C3" stroke-width="0.171674"/>
<path d="M23 140C52 140 52 174 81 174" stroke="#4BA3C3" stroke-width="0.640565"/>
<path d="M23 140C52 140 52 197 81 197" stroke="#4BA3C3" stroke-width="0.538822"/>
<path d="M23 140C52 140 52 222 81 222" stroke="#4BA3C3" stroke-width="0.865414"/>
<path d="M81 59C115.5 59 115.5 59 150 59" stroke="#D62839" stroke-width="0.330909"/>
<path d="M81 81C115.5 81 115.5 59 150 59" stroke="#D62839" stroke-width="1.00957"/>
<path d="M81 104C115.5 104 115.5 59 150 59" stroke="#4BA3C3" stroke-width="0.690498"/>
<path d="M81 128C115.5 128 115.5 59 150 59" stroke="#D62839" stroke-width="0.41393"/>
<path d="M81 152C115.5 152 115.5 59 150 59" stroke="#D62839" stroke-width="0.543401"/>
<path d="M81 174C115.5 174 115.5 59 150 59" stroke="#4BA3C3" stroke-width="1.43404"/>
<path d="M81 197C115.5 197 115.5 59 150 59" stroke="#4BA3C3" stroke-width="0.716543"/>
<path d="M81 222C115.5 222 115.5 59 150 59" stroke="#D62839" stroke-width="0.328073"/>
<path d="M81 59C115.5 59 115.5 81 150 81" stroke="#D62839" stroke-width="0.90211"/>
<path d="M81 81C115.5 81 115.5 81 150 81" stroke="#D62839" stroke-width="0.617963"/>
<path d="M81 104C115.5 104 115.5 81 150 81" stroke="#D62839" stroke-width="0.798021"/>
<path d="M81 128C115.5 128 115.5 81 150 81" stroke="#D62839" stroke-width="1.74386"/>
<path d="M81 152C115.5 152 115.5 81 150 81" stroke="#D62839" stroke-width="0.219168"/>
<path d="M81 174C115.5 174 115.5 81 150 81" stroke="#4BA3C3" stroke-width="0.308835"/>
<path d="M81 197C115.5 197 115.5 81 150 81" stroke="#4BA3C3" stroke-width="0.450143"/>
<path d="M81 222C115.5 222 115.5 81 150 81" stroke="#D62839" stroke-width="1.00404"/>
<path d="M81 59C115.5 59 115.5 104 150 104" stroke="#D62839" stroke-width="1.01374"/>
<path d="M81 81C115.5 81 115.5 104 150 104" stroke="#D62839" stroke-width="0.217573"/>
<path d="M81 104C115.5 104 115.5 104 150 104" stroke="#4BA3C3" stroke-width="0.100671"/>
<path d="M81 128C115.5 128 115.5 104 150 104" stroke="#D62839" stroke-width="2.53182"/>
<path d="M81 152C115.5 152 115.5 104 150 104" stroke="#D62839" stroke-width="0.122076"/>
<path d="M81 174C115.5 174 115.5 104 150 104" stroke="#4BA3C3" stroke-width="0.281763"/>
<path d="M81 197C115.5 197 115.5 104 150 104" stroke="#D62839" stroke-width="3.17876"/>
<path d="M81 222C115.5 222 115.5 104 150 104" stroke="#D62839" stroke-width="0.673667"/>
<path d="M81 59C115.5 59 115.5 128 150 128" stroke="#D62839" stroke-width="0.861741"/>
<path d="M81 81C115.5 81 115.5 128 150 128" stroke="#D62839" stroke-width="0.957767"/>
<path d="M81 104C115.5 104 115.5 128 150 128" stroke="#4BA3C3" stroke-width="0.73276"/>
<path d="M81 128C115.5 128 115.5 128 150 128" stroke="#D62839" stroke-width="0.575312"/>
<path d="M81 152C115.5 152 115.5 128 150 128" stroke="#D62839" stroke-width="0.301984"/>
<path d="M81 174C115.5 174 115.5 128 150 128" stroke="#D62839" stroke-width="0.221891"/>
<path d="M81 197C115.5 197 115.5 128 150 128" stroke="#4BA3C3" stroke-width="1.20027"/>
<path d="M81 222C115.5 222 115.5 128 150 128" stroke="#D62839" stroke-width="0.261035"/>
<path d="M81 59C115.5 59 115.5 152 150 152" stroke="#D62839" stroke-width="0.944477"/>
<path d="M81 81C115.5 81 115.5 152 150 152" stroke="#4BA3C3" stroke-width="0.845458"/>
<path d="M81 104C115.5 104 115.5 152 150 152" stroke="#D62839" stroke-width="1.02784"/>
<path d="M81 128C115.5 128 115.5 152 150 152" stroke="#4BA3C3" stroke-width="0.222152"/>
<path d="M81 152C115.5 152 115.5 152 150 152" stroke="#D62839" stroke-width="0.694487"/>
<path d="M81 174C115.5 174 115.5 152 150 152" stroke="#D62839" stroke-width="0.596018"/>
<path d="M81 197C115.5 197 115.5 152 150 152" stroke="#D62839" stroke-width="0.82794"/>
<path d="M81 222C115.5 222 115.5 152 150 152" stroke="#4BA3C3" stroke-width="0.343023"/>
<path d="M81 59C115.5 59 115.5 174 150 174" stroke="#D62839" stroke-width="0.662383"/>
<path d="M81 81C115.5 81 115.5 174 150 174" stroke="#D62839" stroke-width="1.20331"/>
<path d="M81 104C115.5 104 115.5 174 150 174" stroke="#D62839" stroke-width="1.08909"/>
<path d="M81 128C115.5 128 115.5 174 150 174" stroke="#D62839" stroke-width="0.362502"/>
<path d="M81 152C115.5 152 115.5 174 150 174" stroke="#D62839" stroke-width="0.187406"/>
<path d="M81 174C115.5 174 115.5 174 150 174" stroke="#4BA3C3" stroke-width="1.32842"/>
<path d="M81 197C115.5 197 115.5 174 150 174" stroke="#D62839" stroke-width="0.572026"/>
<path d="M81 222C115.5 222 115.5 174 150 174" stroke="#4BA3C3" stroke-width="0.960087"/>
<path d="M81 59C115.5 59 115.5 197 150 197" stroke="#D62839" stroke-width="1.26778"/>
<path d="M81 81C115.5 81 115.5 197 150 197" stroke="#4BA3C3" stroke-width="0.477537"/>
<path d="M81 104C115.5 104 115.5 197 150 197" stroke="#4BA3C3" stroke-width="0.668656"/>
<path d="M81 128C115.5 128 115.5 197 150 197" stroke="#D62839" stroke-width="2.67508"/>
<path d="M81 152C115.5 152 115.5 197 150 197" stroke="#4BA3C3" stroke-width="0.15163"/>
<path d="M81 174C115.5 174 115.5 197 150 197" stroke="#D62839" stroke-width="0.673136"/>
<path d="M81 197C115.5 197 115.5 197 150 197" stroke="#D62839" stroke-width="1.81436"/>
<path d="M81 222C115.5 222 115.5 197 150 197" stroke="#4BA3C3" stroke-width="0.252174"/>
<path d="M81 59C115.5 59 115.5 222 150 222" stroke="#4BA3C3" stroke-width="0.148062"/>
<path d="M81 81C115.5 81 115.5 222 150 222" stroke="#D62839" stroke-width="0.355117"/>
<path d="M81 104C115.5 104 115.5 222 150 222" stroke="#D62839" stroke-width="1.16623"/>
<path d="M81 128C115.5 128 115.5 222 150 222" stroke="#D62839" stroke-width="1.04148"/>
<path d="M81 152C115.5 152 115.5 222 150 222" stroke="#D62839" stroke-width="1.16913"/>
<path d="M81 174C115.5 174 115.5 222 150 222" stroke="#D62839" stroke-width="0.981629"/>
<path d="M81 197C115.5 197 115.5 222 150 222" stroke="#4BA3C3" stroke-width="0.175111"/>
<path d="M81 222C115.5 222 115.5 222 150 222" stroke="#D62839" stroke-width="1.25565"/>
<path d="M150 59C183.5 59 183.5 59 217 59" stroke="#D62839" stroke-width="1.48625"/>
<path d="M150 81C183.5 81 183.5 59 217 59" stroke="#D62839" stroke-width="0.660222"/>
<path d="M150 104C183.5 104 183.5 59 217 59" stroke="#D62839" stroke-width="0.615164"/>
<path d="M150 128C183.5 128 183.5 59 217 59" stroke="#D62839" stroke-width="0.15656"/>
<path d="M150 152C183.5 152 183.5 59 217 59" stroke="#4BA3C3" stroke-width="0.987108"/>
<path d="M150 174C183.5 174 183.5 59 217 59" stroke="#D62839" stroke-width="0.220035"/>
<path d="M150 197C183.5 197 183.5 59 217 59" stroke="#D62839" stroke-width="0.620381"/>
<path d="M150 222C183.5 222 183.5 59 217 59" stroke="#D62839" stroke-width="0.18261"/>
<path d="M150 59C183.5 59 183.5 81 217 81" stroke="#D62839" stroke-width="1.56984"/>
<path d="M150 81C183.5 81 183.5 81 217 81" stroke="#4BA3C3" stroke-width="0.608941"/>
<path d="M150 104C183.5 104 183.5 81 217 81" stroke="#D62839" stroke-width="0.157885"/>
<path d="M150 128C183.5 128 183.5 81 217 81" stroke="#4BA3C3" stroke-width="0.360658"/>
<path d="M150 152C183.5 152 183.5 81 217 81" stroke="#4BA3C3" stroke-width="0.651849"/>
<path d="M150 174C183.5 174 183.5 81 217 81" stroke="#D62839" stroke-width="0.40807"/>
<path d="M150 197C183.5 197 183.5 81 217 81" stroke="#D62839" stroke-width="3.19603"/>
<path d="M150 222C183.5 222 183.5 81 217 81" stroke="#D62839" stroke-width="4.81526"/>
<path d="M150 59C183.5 59 183.5 104 217 104" stroke="#4BA3C3" stroke-width="0.923273"/>
<path d="M150 81C183.5 81 183.5 104 217 104" stroke="#4BA3C3" stroke-width="0.178698"/>
<path d="M150 104C183.5 104 183.5 104 217 104" stroke="#D62839" stroke-width="1.17917"/>
<path d="M150 128C183.5 128 183.5 104 217 104" stroke="#4BA3C3" stroke-width="0.27707"/>
<path d="M150 152C183.5 152 183.5 104 217 104" stroke="#D62839" stroke-width="1.50541"/>
<path d="M150 174C183.5 174 183.5 104 217 104" stroke="#4BA3C3" stroke-width="1.34022"/>
<path d="M150 197C183.5 197 183.5 104 217 104" stroke="#4BA3C3" stroke-width="0.224434"/>
<path d="M150 222C183.5 222 183.5 104 217 104" stroke="#D62839" stroke-width="0.641698"/>
<path d="M150 59C183.5 59 183.5 128 217 128" stroke="#4BA3C3" stroke-width="1.44056"/>
<path d="M150 81C183.5 81 183.5 128 217 128" stroke="#D62839" stroke-width="0.20061"/>
<path d="M150 104C183.5 104 183.5 128 217 128" stroke="#4BA3C3" stroke-width="0.436475"/>
<path d="M150 128C183.5 128 183.5 128 217 128" stroke="#D62839" stroke-width="0.89115"/>
<path d="M150 152C183.5 152 183.5 128 217 128" stroke="#4BA3C3" stroke-width="0.790117"/>
<path d="M150 174C183.5 174 183.5 128 217 128" stroke="#4BA3C3" stroke-width="1.0572"/>
<path d="M150 197C183.5 197 183.5 128 217 128" stroke="#D62839" stroke-width="0.78151"/>
<path d="M150 222C183.5 222 183.5 128 217 128" stroke="#D62839" stroke-width="0.807073"/>
<path d="M150 59C183.5 59 183.5 152 217 152" stroke="#D62839" stroke-width="0.841711"/>
<path d="M150 81C183.5 81 183.5 152 217 152" stroke="#D62839" stroke-width="1.06526"/>
<path d="M150 104C183.5 104 183.5 152 217 152" stroke="#4BA3C3" stroke-width="0.171654"/>
<path d="M150 128C183.5 128 183.5 152 217 152" stroke="#D62839" stroke-width="0.81732"/>
<path d="M150 152C183.5 152 183.5 152 217 152" stroke="#D62839" stroke-width="1.10263"/>
<path d="M150 174C183.5 174 183.5 152 217 152" stroke="#4BA3C3" stroke-width="0.329445"/>
<path d="M150 197C183.5 197 183.5 152 217 152" stroke="#D62839" stroke-width="1.94575"/>
<path d="M150 222C183.5 222 183.5 152 217 152" stroke="#D62839" stroke-width="1.55825"/>
<path d="M150 59C183.5 59 183.5 174 217 174" stroke="#D62839" stroke-width="0.377888"/>
<path d="M150 81C183.5 81 183.5 174 217 174" stroke="#4BA3C3" stroke-width="2.32388"/>
<path d="M150 104C183.5 104 183.5 174 217 174" stroke="#D62839" stroke-width="0.930839"/>
<path d="M150 128C183.5 128 183.5 174 217 174" stroke="#4BA3C3" stroke-width="0.144093"/>
<path d="M150 152C183.5 152 183.5 174 217 174" stroke="#4BA3C3" stroke-width="1.19065"/>
<path d="M150 174C183.5 174 183.5 174 217 174" stroke="#4BA3C3" stroke-width="0.375765"/>
<path d="M150 197C183.5 197 183.5 174 217 174" stroke="#4BA3C3" stroke-width="0.151933"/>
<path d="M150 222C183.5 222 183.5 174 217 174" stroke="#4BA3C3" stroke-width="0.183591"/>
<path d="M150 59C183.5 59 183.5 197 217 197" stroke="#D62839" stroke-width="0.263861"/>
<path d="M150 81C183.5 81 183.5 197 217 197" stroke="#D62839" stroke-width="0.793429"/>
<path d="M150 104C183.5 104 183.5 197 217 197" stroke="#D62839" stroke-width="0.26335"/>
<path d="M150 128C183.5 128 183.5 197 217 197" stroke="#4BA3C3" stroke-width="0.735506"/>
<path d="M150 152C183.5 152 183.5 197 217 197" stroke="#4BA3C3" stroke-width="0.124576"/>
<path d="M150 174C183.5 174 183.5 197 217 197" stroke="#D62839" stroke-width="0.50071"/>
<path d="M150 197C183.5 197 183.5 197 217 197" stroke="#D62839" stroke-width="0.982874"/>
<path d="M150 222C183.5 222 183.5 197 217 197" stroke="#D62839" stroke-width="0.853772"/>
<path d="M150 59C183.5 59 183.5 222 217 222" stroke="#D62839" stroke-width="0.398763"/>
<path d="M150 81C183.5 81 183.5 222 217 222" stroke="#D62839" stroke-width="0.733297"/>
<path d="M150 104C183.5 104 183.5 222 217 222" stroke="#4BA3C3" stroke-width="0.47354"/>
<path d="M150 128C183.5 128 183.5 222 217 222" stroke="#4BA3C3" stroke-width="0.257527"/>
<path d="M150 152C183.5 152 183.5 222 217 222" stroke="#D62839" stroke-width="0.164524"/>
<path d="M150 174C183.5 174 183.5 222 217 222" stroke="#D62839" stroke-width="0.591923"/>
<path d="M150 197C183.5 197 183.5 222 217 222" stroke="#D62839" stroke-width="0.382836"/>
<path d="M150 222C183.5 222 183.5 222 217 222" stroke="#D62839" stroke-width="1.51977"/>
<path d="M217 59C251 59 251 140 285 140" stroke="#4BA3C3" stroke-width="0.187576"/>
<path d="M217 81C251 81 251 140 285 140" stroke="#D62839" stroke-width="5.74881"/>
<path d="M217 104C251 104 251 140 285 140" stroke="#D62839" stroke-width="1.31209"/>
<path d="M217 128C251 128 251 140 285 140" stroke="#D62839" stroke-width="1.38153"/>
<path d="M217 152C251 152 251 140 285 140" stroke="#D62839" stroke-width="2.94115"/>
<path d="M217 174C251 174 251 140 285 140" stroke="#4BA3C3" stroke-width="1.74763"/>
<path d="M217 197C251 197 251 140 285 140" stroke="#D62839" stroke-width="0.961605"/>
<path d="M217 222C251 222 251 140 285 140" stroke="#D62839" stroke-width="0.792319"/>
<path d="M29 133H17V145H29V133Z" fill="#A9A9A9"/>
<path d="M90 51H76V65H90V51Z" fill="#959595"/>
<path d="M90 74H76V88H90V74Z" fill="#959595"/>
<path d="M90 98H76V112H90V98Z" fill="#959595"/>
<path d="M90 121H76V135H90V121Z" fill="#959595"/>
<path d="M90 144H76V158H90V144Z" fill="#959595"/>
<path d="M90 167H76V181H90V167Z" fill="#959595"/>
<path d="M90 191H76V205H90V191Z" fill="#959595"/>
<path d="M90 214H76V228H90V214Z" fill="#959595"/>
<path d="M158 51H144V65H158V51Z" fill="#959595"/>
<path d="M158 74H144V88H158V74Z" fill="#959595"/>
<path d="M158 98H144V112H158V98Z" fill="#959595"/>
<path d="M158 121H144V135H158V121Z" fill="#959595"/>
<path d="M158 144H144V158H158V144Z" fill="#959595"/>
<path d="M158 167H144V181H158V167Z" fill="#959595"/>
<path d="M158 191H144V205H158V191Z" fill="#959595"/>
<path d="M158 214H144V228H158V214Z" fill="#959595"/>
<path d="M225 52H211V66H225V52Z" fill="#959595"/>
<path d="M225 75H211V89H225V75Z" fill="#959595"/>
<path d="M225 99H211V113H225V99Z" fill="#959595"/>
<path d="M225 122H211V136H225V122Z" fill="#959595"/>
<path d="M225 145H211V159H225V145Z" fill="#959595"/>
<path d="M225 168H211V182H225V168Z" fill="#959595"/>
<path d="M225 192H211V206H225V192Z" fill="#959595"/>
<path d="M225 215H211V227H225V215Z" fill="#959595"/>
<path d="M292 132H278V146H292V132Z" fill="#959595"/>
<path d="M291 159H278V171H291V159Z" stroke="black"/>
<path d="M342 149L354.912 70.7904L361.368 62.5371L365.807 59L405.754 140.747L413.825 144.284L434 62.5371" stroke="black" stroke-opacity="0.11"/>
<path d="M340 204L349.62 221.383L358.839 213.298L355.632 221.383L358.839 230.277L363.649 218.149V230.277L369.26 225.021L372.467 237.149L376.074 230.277L384.893 237.149H394.913L414.554 242H431.388H437" stroke="black" stroke-opacity="0.1"/>
<rect x="560" y="216" width="16" height="10" fill="#C4C4C4"/>
<rect x="0.5" y="0.5" width="617" height="264" stroke="black"/>
</svg>
