<svg width="618" height="265" viewBox="0 0 618 265" fill="none" xmlns="http://www.w3.org/2000/svg">
<path d="M261.707 25.3828H254.699V30.6328H262.891V33H251.734V15.9375H262.809V18.3281H254.699V23.0391H261.707V25.3828ZM276.133 26.7891C276.133 28.75 275.688 30.3164 274.797 31.4883C273.906 32.6523 272.711 33.2344 271.211 33.2344C269.82 33.2344 268.707 32.7773 267.871 31.8633V37.875H265.023V20.3203H267.648L267.766 21.6094C268.602 20.5938 269.738 20.0859 271.176 20.0859C272.723 20.0859 273.934 20.6641 274.809 21.8203C275.691 22.9688 276.133 24.5664 276.133 26.6133V26.7891ZM273.297 26.543C273.297 25.2773 273.043 24.2734 272.535 23.5312C272.035 22.7891 271.316 22.418 270.379 22.418C269.215 22.418 268.379 22.8984 267.871 23.8594V29.4844C268.387 30.4688 269.23 30.9609 270.402 30.9609C271.309 30.9609 272.016 30.5977 272.523 29.8711C273.039 29.1367 273.297 28.0273 273.297 26.543ZM278.02 26.543C278.02 25.3008 278.266 24.1836 278.758 23.1914C279.25 22.1914 279.941 21.4258 280.832 20.8945C281.723 20.3555 282.746 20.0859 283.902 20.0859C285.613 20.0859 287 20.6367 288.062 21.7383C289.133 22.8398 289.711 24.3008 289.797 26.1211L289.809 26.7891C289.809 28.0391 289.566 29.1562 289.082 30.1406C288.605 31.125 287.918 31.8867 287.02 32.4258C286.129 32.9648 285.098 33.2344 283.926 33.2344C282.137 33.2344 280.703 32.6406 279.625 31.4531C278.555 30.2578 278.02 28.668 278.02 26.6836V26.543ZM280.867 26.7891C280.867 28.0938 281.137 29.1172 281.676 29.8594C282.215 30.5938 282.965 30.9609 283.926 30.9609C284.887 30.9609 285.633 30.5859 286.164 29.8359C286.703 29.0859 286.973 27.9883 286.973 26.543C286.973 25.2617 286.695 24.2461 286.141 23.4961C285.594 22.7461 284.848 22.3711 283.902 22.3711C282.973 22.3711 282.234 22.7422 281.688 23.4844C281.141 24.2188 280.867 25.3203 280.867 26.7891ZM297.426 30.9609C298.137 30.9609 298.727 30.7539 299.195 30.3398C299.664 29.9258 299.914 29.4141 299.945 28.8047H302.629C302.598 29.5938 302.352 30.332 301.891 31.0195C301.43 31.6992 300.805 32.2383 300.016 32.6367C299.227 33.0352 298.375 33.2344 297.461 33.2344C295.688 33.2344 294.281 32.6602 293.242 31.5117C292.203 30.3633 291.684 28.7773 291.684 26.7539V26.4609C291.684 24.5312 292.199 22.9883 293.23 21.832C294.262 20.668 295.668 20.0859 297.449 20.0859C298.957 20.0859 300.184 20.5273 301.129 21.4102C302.082 22.2852 302.582 23.4375 302.629 24.8672H299.945C299.914 24.1406 299.664 23.543 299.195 23.0742C298.734 22.6055 298.145 22.3711 297.426 22.3711C296.504 22.3711 295.793 22.707 295.293 23.3789C294.793 24.043 294.539 25.0547 294.531 26.4141V26.8711C294.531 28.2461 294.777 29.2734 295.27 29.9531C295.77 30.625 296.488 30.9609 297.426 30.9609ZM307.586 21.7031C308.516 20.625 309.691 20.0859 311.113 20.0859C313.816 20.0859 315.188 21.6289 315.227 24.7148V33H312.379V24.8203C312.379 23.9453 312.188 23.3281 311.805 22.9688C311.43 22.6016 310.875 22.418 310.141 22.418C309 22.418 308.148 22.9258 307.586 23.9414V33H304.738V15H307.586V21.7031ZM335.992 18.3281H330.672V33H327.73V18.3281H322.457V15.9375H335.992V18.3281ZM334.996 26.543C334.996 25.3008 335.242 24.1836 335.734 23.1914C336.227 22.1914 336.918 21.4258 337.809 20.8945C338.699 20.3555 339.723 20.0859 340.879 20.0859C342.59 20.0859 343.977 20.6367 345.039 21.7383C346.109 22.8398 346.688 24.3008 346.773 26.1211L346.785 26.7891C346.785 28.0391 346.543 29.1562 346.059 30.1406C345.582 31.125 344.895 31.8867 343.996 32.4258C343.105 32.9648 342.074 33.2344 340.902 33.2344C339.113 33.2344 337.68 32.6406 336.602 31.4531C335.531 30.2578 334.996 28.668 334.996 26.6836V26.543ZM337.844 26.7891C337.844 28.0938 338.113 29.1172 338.652 29.8594C339.191 30.5938 339.941 30.9609 340.902 30.9609C341.863 30.9609 342.609 30.5859 343.141 29.8359C343.68 29.0859 343.949 27.9883 343.949 26.543C343.949 25.2617 343.672 24.2461 343.117 23.4961C342.57 22.7461 341.824 22.3711 340.879 22.3711C339.949 22.3711 339.211 22.7422 338.664 23.4844C338.117 24.2188 337.844 25.3203 337.844 26.7891ZM348.66 26.543C348.66 25.3008 348.906 24.1836 349.398 23.1914C349.891 22.1914 350.582 21.4258 351.473 20.8945C352.363 20.3555 353.387 20.0859 354.543 20.0859C356.254 20.0859 357.641 20.6367 358.703 21.7383C359.773 22.8398 360.352 24.3008 360.438 26.1211L360.449 26.7891C360.449 28.0391 360.207 29.1562 359.723 30.1406C359.246 31.125 358.559 31.8867 357.66 32.4258C356.77 32.9648 355.738 33.2344 354.566 33.2344C352.777 33.2344 351.344 32.6406 350.266 31.4531C349.195 30.2578 348.66 28.668 348.66 26.6836V26.543ZM351.508 26.7891C351.508 28.0938 351.777 29.1172 352.316 29.8594C352.855 30.5938 353.605 30.9609 354.566 30.9609C355.527 30.9609 356.273 30.5859 356.805 29.8359C357.344 29.0859 357.613 27.9883 357.613 26.543C357.613 25.2617 357.336 24.2461 356.781 23.4961C356.234 22.7461 355.488 22.3711 354.543 22.3711C353.613 22.3711 352.875 22.7422 352.328 23.4844C351.781 24.2188 351.508 25.3203 351.508 26.7891ZM365.887 33H363.039V15H365.887V33Z" fill="black"/>
<rect x="453.5" y="155.5" width="139" height="78" stroke="#C4C4C4"/>
<rect x="455.5" y="60.5" width="138" height="77" stroke="#C4C4C4"/>
<rect x="460" y="161" width="65" height="6" fill="#C4C4C4"/>
<rect x="460" y="64" width="65" height="7" fill="#C4C4C4"/>
<rect x="472" y="194" width="18" height="9" rx="4.5" fill="#155676"/>
<rect x="472" y="173" width="18" height="9" rx="4.5" fill="#155676"/>
<rect x="498" y="194" width="19" height="9" rx="4.5" fill="#C4C4C4"/>
<rect x="498" y="173" width="19" height="9" rx="4.5" fill="#C4C4C4"/>
<rect x="524" y="194" width="18" height="9" rx="4.5" fill="#C4C4C4"/>
<rect x="534" y="216" width="18" height="10" fill="#C4C4C4"/>
<rect x="524" y="173" width="18" height="9" rx="4.5" fill="#C4C4C4"/>
<rect x="549" y="173" width="19" height="9" rx="4.5" fill="#C4C4C4"/>
<rect x="467" y="81" width="61" height="18" fill="#C4C4C4"/>
<line x1="471.332" y1="220.484" x2="523.107" y2="220.484" stroke="#155676"/>
<ellipse cx="522.595" cy="220.715" rx="2.10575" ry="2.12058" fill="#155676"/>
<ellipse cx="496" cy="117.5" rx="11" ry="10.5" fill="#155676"/>
<circle cx="473" cy="117" r="6" fill="#C4C4C4"/>
<circle cx="519" cy="117" r="6" fill="#C4C4C4"/>
<rect x="338.5" y="53.5" width="99" height="99" stroke="black" stroke-opacity="0.1"/>
<rect x="338.5" y="203.5" width="99" height="39" stroke="black" stroke-opacity="0.08"/>
<path d="M285 133V159V133Z" fill="black"/>
<path d="M285 133V159" stroke="black"/>
<path d="M291 163C314.5 163 314.5 209 338 209" stroke="black"/>
<path d="M292 140C315 140 315 101 338 101" stroke="black"/>
<path d="M23 140C52 140 52 59 81 59" stroke="#4BA3C3" stroke-width="1.76486"/>
<path d="M23 140C52 140 52 81 81 81" stroke="#4BA3C3" stroke-width="0.779581"/>
<path d="M23 140C52 140 52 104 81 104" stroke="#4BA3C3" stroke-width="0.903029"/>
<path d="M23 140C52 140 52 128 81 128" stroke="#4BA3C3" stroke-width="0.90302"/>
<path d="M23 140C52 140 52 152 81 152" stroke="#4BA3C3" stroke-width="0.171674"/>
<path d="M23 140C52 140 52 174 81 174" stroke="#4BA3C3" stroke-width="0.640565"/>
<path d="M23 140C52 140 52 197 81 197" stroke="#4BA3C3" stroke-width="0.538822"/>
<path d="M23 140C52 140 52 222 81 222" stroke="#4BA3C3" stroke-width="0.865414"/>
<path d="M81 59C115.5 59 115.5 59 150 59" stroke="#D62839" stroke-width="0.330909"/>
<path d="M81 81C115.5 81 115.5 59 150 59" stroke="#D62839" stroke-width="1.00957"/>
<path d="M81 104C115.5 104 115.5 59 150 59" stroke="#4BA3C3" stroke-width="0.690498"/>
<path d="M81 128C115.5 128 115.5 59 150 59" stroke="#D62839" stroke-width="0.41393"/>
<path d="M81 152C115.5 152 115.5 59 150 59" stroke="#D62839" stroke-width="0.543401"/>
<path d="M81 174C115.5 174 115.5 59 150 59" stroke="#4BA3C3" stroke-width="1.43404"/>
<path d="M81 197C115.5 197 115.5 59 150 59" stroke="#4BA3C3" stroke-width="0.716543"/>
<path d="M81 222C115.5 222 115.5 59 150 59" stroke="#D62839" stroke-width="0.328073"/>
<path d="M81 59C115.5 59 115.5 81 150 81" stroke="#D62839" stroke-width="0.90211"/>
<path d="M81 81C115.5 81 115.5 81 150 81" stroke="#D62839" stroke-width="0.617963"/>
<path d="M81 104C115.5 104 115.5 81 150 81" stroke="#D62839" stroke-width="0.798021"/>
<path d="M81 128C115.5 128 115.5 81 150 81" stroke="#D62839" stroke-width="1.74386"/>
<path d="M81 152C115.5 152 115.5 81 150 81" stroke="#D62839" stroke-width="0.219168"/>
<path d="M81 174C115.5 174 115.5 81 150 81" stroke="#4BA3C3" stroke-width="0.308835"/>
<path d="M81 197C115.5 197 115.5 81 150 81" stroke="#4BA3C3" stroke-width="0.450143"/>
<path d="M81 222C115.5 222 115.5 81 150 81" stroke="#D62839" stroke-width="1.00404"/>
<path d="M81 59C115.5 59 115.5 104 150 104" stroke="#D62839" stroke-width="1.01374"/>
<path d="M81 81C115.5 81 115.5 104 150 104" stroke="#D62839" stroke-width="0.217573"/>
<path d="M81 104C115.5 104 115.5 104 150 104" stroke="#4BA3C3" stroke-width="0.100671"/>
<path d="M81 128C115.5 128 115.5 104 150 104" stroke="#D62839" stroke-width="2.53182"/>
<path d="M81 152C115.5 152 115.5 104 150 104" stroke="#D62839" stroke-width="0.122076"/>
<path d="M81 174C115.5 174 115.5 104 150 104" stroke="#4BA3C3" stroke-width="0.281763"/>
<path d="M81 197C115.5 197 115.5 104 150 104" stroke="#D62839" stroke-width="3.17876"/>
<path d="M81 222C115.5 222 115.5 104 150 104" stroke="#D62839" stroke-width="0.673667"/>
<path d="M81 59C115.5 59 115.5 128 150 128" stroke="#D62839" stroke-width="0.861741"/>
<path d="M81 81C115.5 81 115.5 128 150 128" stroke="#D62839" stroke-width="0.957767"/>
<path d="M81 104C115.5 104 115.5 128 150 128" stroke="#4BA3C3" stroke-width="0.73276"/>
<path d="M81 128C115.5 128 115.5 128 150 128" stroke="#D62839" stroke-width="0.575312"/>
<path d="M81 152C115.5 152 115.5 128 150 128" stroke="#D62839" stroke-width="0.301984"/>
<path d="M81 174C115.5 174 115.5 128 150 128" stroke="#D62839" stroke-width="0.221891"/>
<path d="M81 197C115.5 197 115.5 128 150 128" stroke="#4BA3C3" stroke-width="1.20027"/>
<path d="M81 222C115.5 222 115.5 128 150 128" stroke="#D62839" stroke-width="0.261035"/>
<path d="M81 59C115.5 59 115.5 152 150 152" stroke="#D62839" stroke-width="0.944477"/>
<path d="M81 81C115.5 81 115.5 152 150 152" stroke="#4BA3C3" stroke-width="0.845458"/>
<path d="M81 104C115.5 104 115.5 152 150 152" stroke="#D62839" stroke-width="1.02784"/>
<path d="M81 128C115.5 128 115.5 152 150 152" stroke="#4BA3C3" stroke-width="0.222152"/>
<path d="M81 152C115.5 152 115.5 152 150 152" stroke="#D62839" stroke-width="0.694487"/>
<path d="M81 174C115.5 174 115.5 152 150 152" stroke="#D62839" stroke-width="0.596018"/>
<path d="M81 197C115.5 197 115.5 152 150 152" stroke="#D62839" stroke-width="0.82794"/>
<path d="M81 222C115.5 222 115.5 152 150 152" stroke="#4BA3C3" stroke-width="0.343023"/>
<path d="M81 59C115.5 59 115.5 174 150 174" stroke="#D62839" stroke-width="0.662383"/>
<path d="M81 81C115.5 81 115.5 174 150 174" stroke="#D62839" stroke-width="1.20331"/>
<path d="M81 104C115.5 104 115.5 174 150 174" stroke="#D62839" stroke-width="1.08909"/>
<path d="M81 128C115.5 128 115.5 174 150 174" stroke="#D62839" stroke-width="0.362502"/>
<path d="M81 152C115.5 152 115.5 174 150 174" stroke="#D62839" stroke-width="0.187406"/>
<path d="M81 174C115.5 174 115.5 174 150 174" stroke="#4BA3C3" stroke-width="1.32842"/>
<path d="M81 197C115.5 197 115.5 174 150 174" stroke="#D62839" stroke-width="0.572026"/>
<path d="M81 222C115.5 222 115.5 174 150 174" stroke="#4BA3C3" stroke-width="0.960087"/>
<path d="M81 59C115.5 59 115.5 197 150 197" stroke="#D62839" stroke-width="1.26778"/>
<path d="M81 81C115.5 81 115.5 197 150 197" stroke="#4BA3C3" stroke-width="0.477537"/>
<path d="M81 104C115.5 104 115.5 197 150 197" stroke="#4BA3C3" stroke-width="0.668656"/>
<path d="M81 128C115.5 128 115.5 197 150 197" stroke="#D62839" stroke-width="2.67508"/>
<path d="M81 152C115.5 152 115.5 197 150 197" stroke="#4BA3C3" stroke-width="0.15163"/>
<path d="M81 174C115.5 174 115.5 197 150 197" stroke="#D62839" stroke-width="0.673136"/>
<path d="M81 197C115.5 197 115.5 197 150 197" stroke="#D62839" stroke-width="1.81436"/>
<path d="M81 222C115.5 222 115.5 197 150 197" stroke="#4BA3C3" stroke-width="0.252174"/>
<path d="M81 59C115.5 59 115.5 222 150 222" stroke="#4BA3C3" stroke-width="0.148062"/>
<path d="M81 81C115.5 81 115.5 222 150 222" stroke="#D62839" stroke-width="0.355117"/>
<path d="M81 104C115.5 104 115.5 222 150 222" stroke="#D62839" stroke-width="1.16623"/>
<path d="M81 128C115.5 128 115.5 222 150 222" stroke="#D62839" stroke-width="1.04148"/>
<path d="M81 152C115.5 152 115.5 222 150 222" stroke="#D62839" stroke-width="1.16913"/>
<path d="M81 174C115.5 174 115.5 222 150 222" stroke="#D62839" stroke-width="0.981629"/>
<path d="M81 197C115.5 197 115.5 222 150 222" stroke="#4BA3C3" stroke-width="0.175111"/>
<path d="M81 222C115.5 222 115.5 222 150 222" stroke="#D62839" stroke-width="1.25565"/>
<path d="M150 59C183.5 59 183.5 59 217 59" stroke="#D62839" stroke-width="1.48625"/>
<path d="M150 81C183.5 81 183.5 59 217 59" stroke="#D62839" stroke-width="0.660222"/>
<path d="M150 104C183.5 104 183.5 59 217 59" stroke="#D62839" stroke-width="0.615164"/>
<path d="M150 128C183.5 128 183.5 59 217 59" stroke="#D62839" stroke-width="0.15656"/>
<path d="M150 152C183.5 152 183.5 59 217 59" stroke="#4BA3C3" stroke-width="0.987108"/>
<path d="M150 174C183.5 174 183.5 59 217 59" stroke="#D62839" stroke-width="0.220035"/>
<path d="M150 197C183.5 197 183.5 59 217 59" stroke="#D62839" stroke-width="0.620381"/>
<path d="M150 222C183.5 222 183.5 59 217 59" stroke="#D62839" stroke-width="0.18261"/>
<path d="M150 59C183.5 59 183.5 81 217 81" stroke="#D62839" stroke-width="1.56984"/>
<path d="M150 81C183.5 81 183.5 81 217 81" stroke="#4BA3C3" stroke-width="0.608941"/>
<path d="M150 104C183.5 104 183.5 81 217 81" stroke="#D62839" stroke-width="0.157885"/>
<path d="M150 128C183.5 128 183.5 81 217 81" stroke="#4BA3C3" stroke-width="0.360658"/>
<path d="M150 152C183.5 152 183.5 81 217 81" stroke="#4BA3C3" stroke-width="0.651849"/>
<path d="M150 174C183.5 174 183.5 81 217 81" stroke="#D62839" stroke-width="0.40807"/>
<path d="M150 197C183.5 197 183.5 81 217 81" stroke="#D62839" stroke-width="3.19603"/>
<path d="M150 222C183.5 222 183.5 81 217 81" stroke="#D62839" stroke-width="4.81526"/>
<path d="M150 59C183.5 59 183.5 104 217 104" stroke="#4BA3C3" stroke-width="0.923273"/>
<path d="M150 81C183.5 81 183.5 104 217 104" stroke="#4BA3C3" stroke-width="0.178698"/>
<path d="M150 104C183.5 104 183.5 104 217 104" stroke="#D62839" stroke-width="1.17917"/>
<path d="M150 128C183.5 128 183.5 104 217 104" stroke="#4BA3C3" stroke-width="0.27707"/>
<path d="M150 152C183.5 152 183.5 104 217 104" stroke="#D62839" stroke-width="1.50541"/>
<path d="M150 174C183.5 174 183.5 104 217 104" stroke="#4BA3C3" stroke-width="1.34022"/>
<path d="M150 197C183.5 197 183.5 104 217 104" stroke="#4BA3C3" stroke-width="0.224434"/>
<path d="M150 222C183.5 222 183.5 104 217 104" stroke="#D62839" stroke-width="0.641698"/>
<path d="M150 59C183.5 59 183.5 128 217 128" stroke="#4BA3C3" stroke-width="1.44056"/>
<path d="M150 81C183.5 81 183.5 128 217 128" stroke="#D62839" stroke-width="0.20061"/>
<path d="M150 104C183.5 104 183.5 128 217 128" stroke="#4BA3C3" stroke-width="0.436475"/>
<path d="M150 128C183.5 128 183.5 128 217 128" stroke="#D62839" stroke-width="0.89115"/>
<path d="M150 152C183.5 152 183.5 128 217 128" stroke="#4BA3C3" stroke-width="0.790117"/>
<path d="M150 174C183.5 174 183.5 128 217 128" stroke="#4BA3C3" stroke-width="1.0572"/>
<path d="M150 197C183.5 197 183.5 128 217 128" stroke="#D62839" stroke-width="0.78151"/>
<path d="M150 222C183.5 222 183.5 128 217 128" stroke="#D62839" stroke-width="0.807073"/>
<path d="M150 59C183.5 59 183.5 152 217 152" stroke="#D62839" stroke-width="0.841711"/>
<path d="M150 81C183.5 81 183.5 152 217 152" stroke="#D62839" stroke-width="1.06526"/>
<path d="M150 104C183.5 104 183.5 152 217 152" stroke="#4BA3C3" stroke-width="0.171654"/>
<path d="M150 128C183.5 128 183.5 152 217 152" stroke="#D62839" stroke-width="0.81732"/>
<path d="M150 152C183.5 152 183.5 152 217 152" stroke="#D62839" stroke-width="1.10263"/>
<path d="M150 174C183.5 174 183.5 152 217 152" stroke="#4BA3C3" stroke-width="0.329445"/>
<path d="M150 197C183.5 197 183.5 152 217 152" stroke="#D62839" stroke-width="1.94575"/>
<path d="M150 222C183.5 222 183.5 152 217 152" stroke="#D62839" stroke-width="1.55825"/>
<path d="M150 59C183.5 59 183.5 174 217 174" stroke="#D62839" stroke-width="0.377888"/>
<path d="M150 81C183.5 81 183.5 174 217 174" stroke="#4BA3C3" stroke-width="2.32388"/>
<path d="M150 104C183.5 104 183.5 174 217 174" stroke="#D62839" stroke-width="0.930839"/>
<path d="M150 128C183.5 128 183.5 174 217 174" stroke="#4BA3C3" stroke-width="0.144093"/>
<path d="M150 152C183.5 152 183.5 174 217 174" stroke="#4BA3C3" stroke-width="1.19065"/>
<path d="M150 174C183.5 174 183.5 174 217 174" stroke="#4BA3C3" stroke-width="0.375765"/>
<path d="M150 197C183.5 197 183.5 174 217 174" stroke="#4BA3C3" stroke-width="0.151933"/>
<path d="M150 222C183.5 222 183.5 174 217 174" stroke="#4BA3C3" stroke-width="0.183591"/>
<path d="M150 59C183.5 59 183.5 197 217 197" stroke="#D62839" stroke-width="0.263861"/>
<path d="M150 81C183.5 81 183.5 197 217 197" stroke="#D62839" stroke-width="0.793429"/>
<path d="M150 104C183.5 104 183.5 197 217 197" stroke="#D62839" stroke-width="0.26335"/>
<path d="M150 128C183.5 128 183.5 197 217 197" stroke="#4BA3C3" stroke-width="0.735506"/>
<path d="M150 152C183.5 152 183.5 197 217 197" stroke="#4BA3C3" stroke-width="0.124576"/>
<path d="M150 174C183.5 174 183.5 197 217 197" stroke="#D62839" stroke-width="0.50071"/>
<path d="M150 197C183.5 197 183.5 197 217 197" stroke="#D62839" stroke-width="0.982874"/>
<path d="M150 222C183.5 222 183.5 197 217 197" stroke="#D62839" stroke-width="0.853772"/>
<path d="M150 59C183.5 59 183.5 222 217 222" stroke="#D62839" stroke-width="0.398763"/>
<path d="M150 81C183.5 81 183.5 222 217 222" stroke="#D62839" stroke-width="0.733297"/>
<path d="M150 104C183.5 104 183.5 222 217 222" stroke="#4BA3C3" stroke-width="0.47354"/>
<path d="M150 128C183.5 128 183.5 222 217 222" stroke="#4BA3C3" stroke-width="0.257527"/>
<path d="M150 152C183.5 152 183.5 222 217 222" stroke="#D62839" stroke-width="0.164524"/>
<path d="M150 174C183.5 174 183.5 222 217 222" stroke="#D62839" stroke-width="0.591923"/>
<path d="M150 197C183.5 197 183.5 222 217 222" stroke="#D62839" stroke-width="0.382836"/>
<path d="M150 222C183.5 222 183.5 222 217 222" stroke="#D62839" stroke-width="1.51977"/>
<path d="M217 59C251 59 251 140 285 140" stroke="#4BA3C3" stroke-width="0.187576"/>
<path d="M217 81C251 81 251 140 285 140" stroke="#D62839" stroke-width="5.74881"/>
<path d="M217 104C251 104 251 140 285 140" stroke="#D62839" stroke-width="1.31209"/>
<path d="M217 128C251 128 251 140 285 140" stroke="#D62839" stroke-width="1.38153"/>
<path d="M217 152C251 152 251 140 285 140" stroke="#D62839" stroke-width="2.94115"/>
<path d="M217 174C251 174 251 140 285 140" stroke="#4BA3C3" stroke-width="1.74763"/>
<path d="M217 197C251 197 251 140 285 140" stroke="#D62839" stroke-width="0.961605"/>
<path d="M217 222C251 222 251 140 285 140" stroke="#D62839" stroke-width="0.792319"/>
<path d="M29 133H17V145H29V133Z" fill="#A9A9A9"/>
<path d="M90 51H76V65H90V51Z" fill="#959595"/>
<path d="M90 74H76V88H90V74Z" fill="#959595"/>
<path d="M90 98H76V112H90V98Z" fill="#959595"/>
<path d="M90 121H76V135H90V121Z" fill="#959595"/>
<path d="M90 144H76V158H90V144Z" fill="#959595"/>
<path d="M90 167H76V181H90V167Z" fill="#959595"/>
<path d="M90 191H76V205H90V191Z" fill="#959595"/>
<path d="M90 214H76V228H90V214Z" fill="#959595"/>
<path d="M158 51H144V65H158V51Z" fill="#959595"/>
<path d="M158 74H144V88H158V74Z" fill="#959595"/>
<path d="M158 98H144V112H158V98Z" fill="#959595"/>
<path d="M158 121H144V135H158V121Z" fill="#959595"/>
<path d="M158 144H144V158H158V144Z" fill="#959595"/>
<path d="M158 167H144V181H158V167Z" fill="#959595"/>
<path d="M158 191H144V205H158V191Z" fill="#959595"/>
<path d="M158 214H144V228H158V214Z" fill="#959595"/>
<path d="M225 52H211V66H225V52Z" fill="#959595"/>
<path d="M225 75H211V89H225V75Z" fill="#959595"/>
<path d="M225 99H211V113H225V99Z" fill="#959595"/>
<path d="M225 122H211V136H225V122Z" fill="#959595"/>
<path d="M225 145H211V159H225V145Z" fill="#959595"/>
<path d="M225 168H211V182H225V168Z" fill="#959595"/>
<path d="M225 192H211V206H225V192Z" fill="#959595"/>
<path d="M225 215H211V227H225V215Z" fill="#959595"/>
<path d="M292 132H278V146H292V132Z" fill="#959595"/>
<path d="M291 159H278V171H291V159Z" stroke="black"/>
<path d="M342 149L354.912 70.7904L361.368 62.5371L365.807 59L405.754 140.747L413.825 144.284L434 62.5371" stroke="black" stroke-opacity="0.11"/>
<path d="M340 204L349.62 221.383L358.839 213.298L355.632 221.383L358.839 230.277L363.649 218.149V230.277L369.26 225.021L372.467 237.149L376.074 230.277L384.893 237.149H394.913L414.554 242H431.388H437" stroke="black" stroke-opacity="0.1"/>
<rect x="560" y="216" width="16" height="10" fill="#C4C4C4"/>
<rect x="0.5" y="0.5" width="617" height="264" stroke="black"/>
</svg>
