<svg width="303" height="185" viewBox="0 0 303 185" fill="none" xmlns="http://www.w3.org/2000/svg">
<rect x="156.5" y="48.5" width="138" height="86" stroke="#C4C4C4"/>
<rect x="161" y="54" width="56" height="9" fill="#C4C4C4"/>
<rect x="161" y="66" width="124" height="5" fill="#C4C4C4"/>
<rect x="161" y="75" width="124" height="6" fill="#C4C4C4"/>
<rect x="161" y="100" width="124" height="15" fill="#C4C4C4"/>
<rect x="161" y="118" width="56" height="11" fill="#155676"/>
<g filter="url(#filter0_f)">
<rect x="17" y="39" width="122" height="121" fill="#F3F3F3"/>
</g>
<line x1="162.052" y1="95.0961" x2="284.219" y2="95.0961" stroke="#FFA500"/>
<circle cx="283.889" cy="95.2659" r="2.31127" fill="#FFA500"/>
<line x1="162.052" y1="87.6242" x2="284.219" y2="87.6242" stroke="#56A8C7"/>
<circle cx="283.889" cy="87.7941" r="2.31127" fill="#56A8C7"/>
<g filter="url(#filter1_f)">
<path d="M138.517 162.138L17.4828 39.0862" stroke="black" stroke-opacity="0.09"/>
</g>
<path d="M93.5781 10.9375L98.5 24.0156L103.41 10.9375H107.242V28H104.289V22.375L104.582 14.8516L99.543 28H97.4219L92.3945 14.8633L92.6875 22.375V28H89.7344V10.9375H93.5781ZM118.059 28C117.934 27.7578 117.824 27.3633 117.73 26.8164C116.824 27.7617 115.715 28.2344 114.402 28.2344C113.129 28.2344 112.09 27.8711 111.285 27.1445C110.48 26.418 110.078 25.5195 110.078 24.4492C110.078 23.0977 110.578 22.0625 111.578 21.3438C112.586 20.6172 114.023 20.2539 115.891 20.2539H117.637V19.4219C117.637 18.7656 117.453 18.2422 117.086 17.8516C116.719 17.4531 116.16 17.2539 115.41 17.2539C114.762 17.2539 114.23 17.418 113.816 17.7461C113.402 18.0664 113.195 18.4766 113.195 18.9766H110.348C110.348 18.2812 110.578 17.6328 111.039 17.0312C111.5 16.4219 112.125 15.9453 112.914 15.6016C113.711 15.2578 114.598 15.0859 115.574 15.0859C117.059 15.0859 118.242 15.4609 119.125 16.2109C120.008 16.9531 120.461 18 120.484 19.3516V25.0703C120.484 26.2109 120.645 27.1211 120.965 27.8008V28H118.059ZM114.93 25.9492C115.492 25.9492 116.02 25.8125 116.512 25.5391C117.012 25.2656 117.387 24.8984 117.637 24.4375V22.0469H116.102C115.047 22.0469 114.254 22.2305 113.723 22.5977C113.191 22.9648 112.926 23.4844 112.926 24.1562C112.926 24.7031 113.105 25.1406 113.465 25.4688C113.832 25.7891 114.32 25.9492 114.93 25.9492ZM126.109 15.3203L126.191 16.7852C127.129 15.6523 128.359 15.0859 129.883 15.0859C132.523 15.0859 133.867 16.5977 133.914 19.6211V28H131.066V19.7852C131.066 18.9805 130.891 18.3867 130.539 18.0039C130.195 17.6133 129.629 17.418 128.84 17.418C127.691 17.418 126.836 17.9375 126.273 18.9766V28H123.426V15.3203H126.109ZM144.508 26.7578C143.672 27.7422 142.484 28.2344 140.945 28.2344C139.57 28.2344 138.527 27.832 137.816 27.0273C137.113 26.2227 136.762 25.0586 136.762 23.5352V15.3203H139.609V23.5C139.609 25.1094 140.277 25.9141 141.613 25.9141C142.996 25.9141 143.93 25.418 144.414 24.4258V15.3203H147.262V28H144.578L144.508 26.7578ZM157.738 28C157.613 27.7578 157.504 27.3633 157.41 26.8164C156.504 27.7617 155.395 28.2344 154.082 28.2344C152.809 28.2344 151.77 27.8711 150.965 27.1445C150.16 26.418 149.758 25.5195 149.758 24.4492C149.758 23.0977 150.258 22.0625 151.258 21.3438C152.266 20.6172 153.703 20.2539 155.57 20.2539H157.316V19.4219C157.316 18.7656 157.133 18.2422 156.766 17.8516C156.398 17.4531 155.84 17.2539 155.09 17.2539C154.441 17.2539 153.91 17.418 153.496 17.7461C153.082 18.0664 152.875 18.4766 152.875 18.9766H150.027C150.027 18.2812 150.258 17.6328 150.719 17.0312C151.18 16.4219 151.805 15.9453 152.594 15.6016C153.391 15.2578 154.277 15.0859 155.254 15.0859C156.738 15.0859 157.922 15.4609 158.805 16.2109C159.688 16.9531 160.141 18 160.164 19.3516V25.0703C160.164 26.2109 160.324 27.1211 160.645 27.8008V28H157.738ZM154.609 25.9492C155.172 25.9492 155.699 25.8125 156.191 25.5391C156.691 25.2656 157.066 24.8984 157.316 24.4375V22.0469H155.781C154.727 22.0469 153.934 22.2305 153.402 22.5977C152.871 22.9648 152.605 23.4844 152.605 24.1562C152.605 24.7031 152.785 25.1406 153.145 25.4688C153.512 25.7891 154 25.9492 154.609 25.9492ZM166.176 28H163.328V10H166.176V28ZM187.164 13.3281H181.844V28H178.902V13.3281H173.629V10.9375H187.164V13.3281ZM186.168 21.543C186.168 20.3008 186.414 19.1836 186.906 18.1914C187.398 17.1914 188.09 16.4258 188.98 15.8945C189.871 15.3555 190.895 15.0859 192.051 15.0859C193.762 15.0859 195.148 15.6367 196.211 16.7383C197.281 17.8398 197.859 19.3008 197.945 21.1211L197.957 21.7891C197.957 23.0391 197.715 24.1562 197.23 25.1406C196.754 26.125 196.066 26.8867 195.168 27.4258C194.277 27.9648 193.246 28.2344 192.074 28.2344C190.285 28.2344 188.852 27.6406 187.773 26.4531C186.703 25.2578 186.168 23.668 186.168 21.6836V21.543ZM189.016 21.7891C189.016 23.0938 189.285 24.1172 189.824 24.8594C190.363 25.5938 191.113 25.9609 192.074 25.9609C193.035 25.9609 193.781 25.5859 194.312 24.8359C194.852 24.0859 195.121 22.9883 195.121 21.543C195.121 20.2617 194.844 19.2461 194.289 18.4961C193.742 17.7461 192.996 17.3711 192.051 17.3711C191.121 17.3711 190.383 17.7422 189.836 18.4844C189.289 19.2188 189.016 20.3203 189.016 21.7891ZM199.832 21.543C199.832 20.3008 200.078 19.1836 200.57 18.1914C201.062 17.1914 201.754 16.4258 202.645 15.8945C203.535 15.3555 204.559 15.0859 205.715 15.0859C207.426 15.0859 208.812 15.6367 209.875 16.7383C210.945 17.8398 211.523 19.3008 211.609 21.1211L211.621 21.7891C211.621 23.0391 211.379 24.1562 210.895 25.1406C210.418 26.125 209.73 26.8867 208.832 27.4258C207.941 27.9648 206.91 28.2344 205.738 28.2344C203.949 28.2344 202.516 27.6406 201.438 26.4531C200.367 25.2578 199.832 23.668 199.832 21.6836V21.543ZM202.68 21.7891C202.68 23.0938 202.949 24.1172 203.488 24.8594C204.027 25.5938 204.777 25.9609 205.738 25.9609C206.699 25.9609 207.445 25.5859 207.977 24.8359C208.516 24.0859 208.785 22.9883 208.785 21.543C208.785 20.2617 208.508 19.2461 207.953 18.4961C207.406 17.7461 206.66 17.3711 205.715 17.3711C204.785 17.3711 204.047 17.7422 203.5 18.4844C202.953 19.2188 202.68 20.3203 202.68 21.7891ZM217.059 28H214.211V10H217.059V28Z" fill="black"/>
<rect x="0.5" y="0.5" width="302" height="184" stroke="black"/>
<defs>
<filter id="filter0_f" x="12" y="34" width="132" height="131" filterUnits="userSpaceOnUse" color-interpolation-filters="sRGB">
<feFlood flood-opacity="0" result="BackgroundImageFix"/>
<feBlend mode="normal" in="SourceGraphic" in2="BackgroundImageFix" result="shape"/>
<feGaussianBlur stdDeviation="2.5" result="effect1_foregroundBlur"/>
</filter>
<filter id="filter1_f" x="13.1263" y="34.7356" width="129.747" height="131.753" filterUnits="userSpaceOnUse" color-interpolation-filters="sRGB">
<feFlood flood-opacity="0" result="BackgroundImageFix"/>
<feBlend mode="normal" in="SourceGraphic" in2="BackgroundImageFix" result="shape"/>
<feGaussianBlur stdDeviation="2" result="effect1_foregroundBlur"/>
</filter>
</defs>
</svg>
