<svg width="125" height="48" viewBox="0 0 125 48" fill="none" xmlns="http://www.w3.org/2000/svg">
<g clip-path="url(#clip0)">
<path d="M3.586 26.4727L116.586 26.4727V12.4727L3.586 12.4727V26.4727Z" fill="url(#paint0_linear)" stroke="black"/>
<path d="M3.586 24.9727V30.9727" stroke="black"/>
<path d="M6.05859 39.3613C6.05859 40.6309 5.8418 41.5742 5.4082 42.1914C4.97461 42.8086 4.29688 43.1172 3.375 43.1172C2.46484 43.1172 1.79102 42.8164 1.35352 42.2148C0.916016 41.6094 0.689453 40.707 0.673828 39.5078V38.0605C0.673828 36.8066 0.890625 35.875 1.32422 35.2656C1.75781 34.6562 2.4375 34.3516 3.36328 34.3516C4.28125 34.3516 4.95703 34.6465 5.39062 35.2363C5.82422 35.8223 6.04688 36.7285 6.05859 37.9551V39.3613ZM4.97461 37.8789C4.97461 36.9609 4.8457 36.293 4.58789 35.875C4.33008 35.4531 3.92188 35.2422 3.36328 35.2422C2.80859 35.2422 2.4043 35.4512 2.15039 35.8691C1.89648 36.2871 1.76562 36.9297 1.75781 37.7969V39.5312C1.75781 40.4531 1.89062 41.1348 2.15625 41.5762C2.42578 42.0137 2.83203 42.2324 3.375 42.2324C3.91016 42.2324 4.30664 42.0254 4.56445 41.6113C4.82617 41.1973 4.96289 40.5449 4.97461 39.6543V37.8789Z" fill="black"/>
<path d="M4.99805 11H3.91406V2H4.99805V11ZM6.45117 7.77148C6.45117 7.15039 6.57227 6.5918 6.81445 6.0957C7.06055 5.59961 7.40039 5.2168 7.83398 4.94727C8.27148 4.67773 8.76953 4.54297 9.32812 4.54297C10.1914 4.54297 10.8887 4.8418 11.4199 5.43945C11.9551 6.03711 12.2227 6.83203 12.2227 7.82422V7.90039C12.2227 8.51758 12.1035 9.07227 11.8652 9.56445C11.6309 10.0527 11.293 10.4336 10.8516 10.707C10.4141 10.9805 9.91016 11.1172 9.33984 11.1172C8.48047 11.1172 7.7832 10.8184 7.24805 10.2207C6.7168 9.62305 6.45117 8.83203 6.45117 7.84766V7.77148ZM7.54102 7.90039C7.54102 8.60352 7.70312 9.16797 8.02734 9.59375C8.35547 10.0195 8.79297 10.2324 9.33984 10.2324C9.89062 10.2324 10.3281 10.0176 10.6523 9.58789C10.9766 9.1543 11.1387 8.54883 11.1387 7.77148C11.1387 7.07617 10.9727 6.51367 10.6406 6.08398C10.3125 5.65039 9.875 5.43359 9.32812 5.43359C8.79297 5.43359 8.36133 5.64648 8.0332 6.07227C7.70508 6.49805 7.54102 7.10742 7.54102 7.90039ZM17.2734 9.31836C17.2734 9.02539 17.1621 8.79883 16.9395 8.63867C16.7207 8.47461 16.3359 8.33398 15.7852 8.2168C15.2383 8.09961 14.8027 7.95898 14.4785 7.79492C14.1582 7.63086 13.9199 7.43555 13.7637 7.20898C13.6113 6.98242 13.5352 6.71289 13.5352 6.40039C13.5352 5.88086 13.7539 5.44141 14.1914 5.08203C14.6328 4.72266 15.1953 4.54297 15.8789 4.54297C16.5977 4.54297 17.1797 4.72852 17.625 5.09961C18.0742 5.4707 18.2988 5.94531 18.2988 6.52344H17.209C17.209 6.22656 17.082 5.9707 16.8281 5.75586C16.5781 5.54102 16.2617 5.43359 15.8789 5.43359C15.4844 5.43359 15.1758 5.51953 14.9531 5.69141C14.7305 5.86328 14.6191 6.08789 14.6191 6.36523C14.6191 6.62695 14.7227 6.82422 14.9297 6.95703C15.1367 7.08984 15.5098 7.2168 16.0488 7.33789C16.5918 7.45898 17.0312 7.60352 17.3672 7.77148C17.7031 7.93945 17.9512 8.14258 18.1113 8.38086C18.2754 8.61523 18.3574 8.90234 18.3574 9.24219C18.3574 9.80859 18.1309 10.2637 17.6777 10.6074C17.2246 10.9473 16.6367 11.1172 15.9141 11.1172C15.4062 11.1172 14.957 11.0273 14.5664 10.8477C14.1758 10.668 13.8691 10.418 13.6465 10.0977C13.4277 9.77344 13.3184 9.42383 13.3184 9.04883H14.4023C14.4219 9.41211 14.5664 9.70117 14.8359 9.91602C15.1094 10.127 15.4688 10.2324 15.9141 10.2324C16.3242 10.2324 16.6523 10.1504 16.8984 9.98633C17.1484 9.81836 17.2734 9.5957 17.2734 9.31836ZM23.4609 9.31836C23.4609 9.02539 23.3496 8.79883 23.127 8.63867C22.9082 8.47461 22.5234 8.33398 21.9727 8.2168C21.4258 8.09961 20.9902 7.95898 20.666 7.79492C20.3457 7.63086 20.1074 7.43555 19.9512 7.20898C19.7988 6.98242 19.7227 6.71289 19.7227 6.40039C19.7227 5.88086 19.9414 5.44141 20.3789 5.08203C20.8203 4.72266 21.3828 4.54297 22.0664 4.54297C22.7852 4.54297 23.3672 4.72852 23.8125 5.09961C24.2617 5.4707 24.4863 5.94531 24.4863 6.52344H23.3965C23.3965 6.22656 23.2695 5.9707 23.0156 5.75586C22.7656 5.54102 22.4492 5.43359 22.0664 5.43359C21.6719 5.43359 21.3633 5.51953 21.1406 5.69141C20.918 5.86328 20.8066 6.08789 20.8066 6.36523C20.8066 6.62695 20.9102 6.82422 21.1172 6.95703C21.3242 7.08984 21.6973 7.2168 22.2363 7.33789C22.7793 7.45898 23.2188 7.60352 23.5547 7.77148C23.8906 7.93945 24.1387 8.14258 24.2988 8.38086C24.4629 8.61523 24.5449 8.90234 24.5449 9.24219C24.5449 9.80859 24.3184 10.2637 23.8652 10.6074C23.4121 10.9473 22.8242 11.1172 22.1016 11.1172C21.5938 11.1172 21.1445 11.0273 20.7539 10.8477C20.3633 10.668 20.0566 10.418 19.834 10.0977C19.6152 9.77344 19.5059 9.42383 19.5059 9.04883H20.5898C20.6094 9.41211 20.7539 9.70117 21.0234 9.91602C21.2969 10.127 21.6562 10.2324 22.1016 10.2324C22.5117 10.2324 22.8398 10.1504 23.0859 9.98633C23.3359 9.81836 23.4609 9.5957 23.4609 9.31836Z" fill="black"/>
</g>
<defs>
<linearGradient id="paint0_linear" x1="2.086" y1="18.078" x2="116.086" y2="18.078" gradientUnits="userSpaceOnUse">
<stop stop-color="white"/>
<stop offset="0.180002" stop-color="#6F43B5"/>
<stop offset="1" stop-color="#32DDA6"/>
</linearGradient>
<clipPath id="clip0">
<rect width="125" height="48" fill="white"/>
</clipPath>
</defs>
</svg>
