<svg width="589" height="375" viewBox="0 0 589 375" fill="none" xmlns="http://www.w3.org/2000/svg">
<rect width="589" height="375" fill="#E5E5E5"/>
<g clip-path="url(#clip0)">
<rect width="589" height="375" fill="white"/>
<path d="M37.716 189C103.719 189 103.719 30.24 169.722 30.24" stroke="#D62839" stroke-width="0.410354"/>
<path d="M37.716 189C103.719 189 103.719 75.6 169.722 75.6" stroke="#D62839" stroke-width="1.77686"/>
<path d="M37.716 189C103.719 189 103.719 120.96 169.722 120.96" stroke="#4BA3C3" stroke-width="1.10936"/>
<path d="M37.716 189C103.719 189 103.719 166.32 169.722 166.32" stroke="#D62839" stroke-width="0.13678"/>
<path d="M37.716 189C103.719 189 103.719 211.68 169.722 211.68" stroke="#D62839" stroke-width="0.613925"/>
<path d="M37.716 189C103.719 189 103.719 257.04 169.722 257.04" stroke="#4BA3C3" stroke-width="0.506232"/>
<path d="M37.716 189C103.719 189 103.719 302.4 169.722 302.4" stroke="#D62839" stroke-width="1.95211"/>
<path d="M37.716 189C103.719 189 103.719 347.76 169.722 347.76" stroke="#D62839" stroke-width="0.213162"/>
<path d="M169.722 30.24C235.725 30.24 235.725 30.24 301.728 30.24" stroke="#D62839" stroke-width="0.244995"/>
<path d="M169.722 75.6C235.725 75.6 235.725 30.24 301.728 30.24" stroke="#D62839" stroke-width="0.333272"/>
<path d="M169.722 120.96C235.725 120.96 235.725 30.24 301.728 30.24" stroke="#4BA3C3" stroke-width="1.17524"/>
<path d="M169.722 166.32C235.725 166.32 235.725 30.24 301.728 30.24" stroke="#D62839" stroke-width="0.677583"/>
<path d="M169.722 211.68C235.725 211.68 235.725 30.24 301.728 30.24" stroke="#D62839" stroke-width="0.587245"/>
<path d="M169.722 257.04C235.725 257.04 235.725 30.24 301.728 30.24" stroke="#4BA3C3" stroke-width="0.705355"/>
<path d="M169.722 302.4C235.725 302.4 235.725 30.24 301.728 30.24" stroke="#D62839" stroke-width="0.894349"/>
<path d="M169.722 347.76C235.725 347.76 235.725 30.24 301.728 30.24" stroke="#4BA3C3" stroke-width="0.119125"/>
<path d="M169.722 30.24C235.725 30.24 235.725 75.6 301.728 75.6" stroke="#4BA3C3" stroke-width="0.398823"/>
<path d="M169.722 75.6C235.725 75.6 235.725 75.6 301.728 75.6" stroke="#D62839" stroke-width="0.705358"/>
<path d="M169.722 120.96C235.725 120.96 235.725 75.6 301.728 75.6" stroke="#D62839" stroke-width="0.924224"/>
<path d="M169.722 166.32C235.725 166.32 235.725 75.6 301.728 75.6" stroke="#4BA3C3" stroke-width="0.38593"/>
<path d="M169.722 211.68C235.725 211.68 235.725 75.6 301.728 75.6" stroke="#4BA3C3" stroke-width="0.73114"/>
<path d="M169.722 257.04C235.725 257.04 235.725 75.6 301.728 75.6" stroke="#4BA3C3" stroke-width="1.29862"/>
<path d="M169.722 302.4C235.725 302.4 235.725 75.6 301.728 75.6" stroke="#D62839" stroke-width="1.10513"/>
<path d="M169.722 347.76C235.725 347.76 235.725 75.6 301.728 75.6" stroke="#4BA3C3" stroke-width="0.134486"/>
<path d="M169.722 30.24C235.725 30.24 235.725 120.96 301.728 120.96" stroke="#4BA3C3" stroke-width="0.230466"/>
<path d="M169.722 75.6C235.725 75.6 235.725 120.96 301.728 120.96" stroke="#4BA3C3" stroke-width="0.745904"/>
<path d="M169.722 120.96C235.725 120.96 235.725 120.96 301.728 120.96" stroke="#4BA3C3" stroke-width="0.141886"/>
<path d="M169.722 166.32C235.725 166.32 235.725 120.96 301.728 120.96" stroke="#D62839" stroke-width="0.33946"/>
<path d="M169.722 211.68C235.725 211.68 235.725 120.96 301.728 120.96" stroke="#4BA3C3" stroke-width="0.620147"/>
<path d="M169.722 257.04C235.725 257.04 235.725 120.96 301.728 120.96" stroke="#4BA3C3" stroke-width="0.35502"/>
<path d="M169.722 302.4C235.725 302.4 235.725 120.96 301.728 120.96" stroke="#4BA3C3" stroke-width="1.1499"/>
<path d="M169.722 347.76C235.725 347.76 235.725 120.96 301.728 120.96" stroke="#D62839" stroke-width="0.599835"/>
<path d="M169.722 30.24C235.725 30.24 235.725 166.32 301.728 166.32" stroke="#D62839" stroke-width="0.389213"/>
<path d="M169.722 75.6C235.725 75.6 235.725 166.32 301.728 166.32" stroke="#D62839" stroke-width="0.562321"/>
<path d="M169.722 120.96C235.725 120.96 235.725 166.32 301.728 166.32" stroke="#4BA3C3" stroke-width="0.758799"/>
<path d="M169.722 166.32C235.725 166.32 235.725 166.32 301.728 166.32" stroke="#4BA3C3" stroke-width="0.663629"/>
<path d="M169.722 211.68C235.725 211.68 235.725 166.32 301.728 166.32" stroke="#D62839" stroke-width="0.274292"/>
<path d="M169.722 257.04C235.725 257.04 235.725 166.32 301.728 166.32" stroke="#4BA3C3" stroke-width="0.806201"/>
<path d="M169.722 302.4C235.725 302.4 235.725 166.32 301.728 166.32" stroke="#4BA3C3" stroke-width="0.134785"/>
<path d="M169.722 347.76C235.725 347.76 235.725 166.32 301.728 166.32" stroke="#D62839" stroke-width="0.403134"/>
<path d="M169.722 30.24C235.725 30.24 235.725 211.68 301.728 211.68" stroke="#4BA3C3" stroke-width="0.320132"/>
<path d="M169.722 75.6C235.725 75.6 235.725 211.68 301.728 211.68" stroke="#D62839" stroke-width="0.884337"/>
<path d="M169.722 120.96C235.725 120.96 235.725 211.68 301.728 211.68" stroke="#D62839" stroke-width="0.902403"/>
<path d="M169.722 166.32C235.725 166.32 235.725 211.68 301.728 211.68" stroke="#4BA3C3" stroke-width="0.124747"/>
<path d="M169.722 211.68C235.725 211.68 235.725 211.68 301.728 211.68" stroke="#4BA3C3" stroke-width="0.606054"/>
<path d="M169.722 257.04C235.725 257.04 235.725 211.68 301.728 211.68" stroke="#D62839" stroke-width="1.06302"/>
<path d="M169.722 302.4C235.725 302.4 235.725 211.68 301.728 211.68" stroke="#4BA3C3" stroke-width="0.395982"/>
<path d="M169.722 347.76C235.725 347.76 235.725 211.68 301.728 211.68" stroke="#4BA3C3" stroke-width="0.911186"/>
<path d="M169.722 30.24C235.725 30.24 235.725 257.04 301.728 257.04" stroke="#D62839" stroke-width="0.929568"/>
<path d="M169.722 75.6C235.725 75.6 235.725 257.04 301.728 257.04" stroke="#D62839" stroke-width="0.332166"/>
<path d="M169.722 120.96C235.725 120.96 235.725 257.04 301.728 257.04" stroke="#4BA3C3" stroke-width="0.91222"/>
<path d="M169.722 166.32C235.725 166.32 235.725 257.04 301.728 257.04" stroke="#4BA3C3" stroke-width="1.38112"/>
<path d="M169.722 211.68C235.725 211.68 235.725 257.04 301.728 257.04" stroke="#D62839" stroke-width="0.404248"/>
<path d="M169.722 257.04C235.725 257.04 235.725 257.04 301.728 257.04" stroke="#D62839" stroke-width="0.686136"/>
<path d="M169.722 302.4C235.725 302.4 235.725 257.04 301.728 257.04" stroke="#4BA3C3" stroke-width="0.356249"/>
<path d="M169.722 347.76C235.725 347.76 235.725 257.04 301.728 257.04" stroke="#D62839" stroke-width="0.838245"/>
<path d="M169.722 30.24C235.725 30.24 235.725 302.4 301.728 302.4" stroke="#D62839" stroke-width="0.29704"/>
<path d="M169.722 75.6C235.725 75.6 235.725 302.4 301.728 302.4" stroke="#4BA3C3" stroke-width="0.582177"/>
<path d="M169.722 120.96C235.725 120.96 235.725 302.4 301.728 302.4" stroke="#D62839" stroke-width="0.522031"/>
<path d="M169.722 166.32C235.725 166.32 235.725 302.4 301.728 302.4" stroke="#D62839" stroke-width="0.349869"/>
<path d="M169.722 211.68C235.725 211.68 235.725 302.4 301.728 302.4" stroke="#D62839" stroke-width="0.205939"/>
<path d="M169.722 257.04C235.725 257.04 235.725 302.4 301.728 302.4" stroke="#D62839" stroke-width="0.862151"/>
<path d="M169.722 302.4C235.725 302.4 235.725 302.4 301.728 302.4" stroke="#4BA3C3" stroke-width="1.32021"/>
<path d="M169.722 347.76C235.725 347.76 235.725 302.4 301.728 302.4" stroke="#4BA3C3" stroke-width="0.801892"/>
<path d="M169.722 30.24C235.725 30.24 235.725 347.76 301.728 347.76" stroke="#D62839" stroke-width="0.360161"/>
<path d="M169.722 75.6C235.725 75.6 235.725 347.76 301.728 347.76" stroke="#D62839" stroke-width="0.640375"/>
<path d="M169.722 120.96C235.725 120.96 235.725 347.76 301.728 347.76" stroke="#4BA3C3" stroke-width="0.52376"/>
<path d="M169.722 166.32C235.725 166.32 235.725 347.76 301.728 347.76" stroke="#D62839" stroke-width="0.104137"/>
<path d="M169.722 211.68C235.725 211.68 235.725 347.76 301.728 347.76" stroke="#D62839" stroke-width="0.102849"/>
<path d="M169.722 257.04C235.725 257.04 235.725 347.76 301.728 347.76" stroke="#4BA3C3" stroke-width="0.626635"/>
<path d="M169.722 302.4C235.725 302.4 235.725 347.76 301.728 347.76" stroke="#4BA3C3" stroke-width="0.132089"/>
<path d="M169.722 347.76C235.725 347.76 235.725 347.76 301.728 347.76" stroke="#4BA3C3" stroke-width="0.26205"/>
<path d="M301.728 30.24C433.735 30.24 433.735 189 565.741 189" stroke="#D62839" stroke-width="0.328299"/>
<path d="M301.728 75.6C433.735 75.6 433.735 189 565.741 189" stroke="#4BA3C3" stroke-width="1.53332"/>
<path d="M301.728 120.96C433.735 120.96 433.735 189 565.741 189" stroke="#4BA3C3" stroke-width="1.50178"/>
<path d="M301.728 166.32C433.735 166.32 433.735 189 565.741 189" stroke="#D62839" stroke-width="1.04203"/>
<path d="M301.728 211.68C433.735 211.68 433.735 189 565.741 189" stroke="#D62839" stroke-width="0.246005"/>
<path d="M301.728 257.04C433.735 257.04 433.735 189 565.741 189" stroke="#D62839" stroke-width="1.4775"/>
<path d="M301.728 302.4C433.735 302.4 433.735 189 565.741 189" stroke="#D62839" stroke-width="0.332699"/>
<path d="M301.728 347.76C433.735 347.76 433.735 189 565.741 189" stroke="#D62839" stroke-width="1.3281"/>
<path d="M49.7852 176.904H25.6469V201.096H49.7852V176.904Z" fill="#A9A9A9"/>
<path d="M181.791 18.144H157.653V42.336H181.791V18.144Z" fill="#959595" stroke="black" stroke-width="2"/>
<path d="M181.791 63.504H157.653V87.696H181.791V63.504Z" fill="#959595" stroke="black" stroke-width="2"/>
<path d="M181.791 108.864H157.653V133.056H181.791V108.864Z" fill="#959595" stroke="black" stroke-width="2"/>
<path d="M181.791 154.224H157.653V178.416H181.791V154.224Z" fill="#959595" stroke="black" stroke-width="2"/>
<path d="M181.791 199.584H157.653V223.776H181.791V199.584Z" fill="#959595" stroke="black" stroke-width="2"/>
<path d="M181.791 244.944H157.653V269.136H181.791V244.944Z" fill="#959595" stroke="black" stroke-width="2"/>
<path d="M181.791 290.304H157.653V314.496H181.791V290.304Z" fill="#959595" stroke="black" stroke-width="2"/>
<path d="M181.791 335.664H157.653V359.856H181.791V335.664Z" fill="#959595" stroke="black" stroke-width="2"/>
<path d="M313.798 18.144H289.659V42.336H313.798V18.144Z" fill="#959595" stroke="black" stroke-width="2"/>
<path d="M313.798 63.504H289.659V87.696H313.798V63.504Z" fill="#959595" stroke="black" stroke-width="2"/>
<path d="M313.798 108.864H289.659V133.056H313.798V108.864Z" fill="#959595" stroke="black" stroke-width="2"/>
<path d="M313.798 154.224H289.659V178.416H313.798V154.224Z" fill="#959595" stroke="black" stroke-width="2"/>
<path d="M313.798 199.584H289.659V223.776H313.798V199.584Z" fill="#959595" stroke="black" stroke-width="2"/>
<path d="M313.798 244.944H289.659V269.136H313.798V244.944Z" fill="#959595" stroke="black" stroke-width="2"/>
<path d="M313.798 290.304H289.659V314.496H313.798V290.304Z" fill="#959595" stroke="black" stroke-width="2"/>
<path d="M313.798 335.664H289.659V359.856H313.798V335.664Z" fill="#959595" stroke="black" stroke-width="2"/>
<path d="M577.81 176.904H553.672V201.096H577.81V176.904Z" fill="#959595" stroke="black" stroke-width="2"/>
</g>
<defs>
<clipPath id="clip0">
<rect width="589" height="375" fill="white"/>
</clipPath>
</defs>
</svg>
