<svg width="303" height="185" viewBox="0 0 303 185" fill="none" xmlns="http://www.w3.org/2000/svg">
<rect x="156.5" y="48.5" width="138" height="86" stroke="#C4C4C4"/>
<rect x="161" y="54" width="56" height="9" fill="#C4C4C4"/>
<rect x="161" y="66" width="124" height="5" fill="#C4C4C4"/>
<rect x="161" y="75" width="124" height="6" fill="#C4C4C4"/>
<rect x="161" y="100" width="124" height="15" fill="#C4C4C4"/>
<rect x="161" y="118" width="56" height="11" fill="#155676"/>
<g filter="url(#filter0_f)">
<rect x="17" y="39" width="122" height="121" fill="#F3F3F3"/>
</g>
<line x1="162.052" y1="95.0961" x2="284.219" y2="95.0961" stroke="#303F9E"/>
<circle cx="283.889" cy="95.2659" r="2.31127" fill="#303F9E"/>
<line x1="162.052" y1="87.6242" x2="284.219" y2="87.6242" stroke="#F50257"/>
<circle cx="283.889" cy="87.7941" r="2.31127" fill="#F50257"/>
<g filter="url(#filter1_f)">
<path d="M138.517 162.138L17.4828 39.0862" stroke="black" stroke-opacity="0.09"/>
</g>
<path d="M19.1367 15.3203L19.2188 16.6445C20.1094 15.6055 21.3281 15.0859 22.875 15.0859C24.5703 15.0859 25.7305 15.7344 26.3555 17.0312C27.2773 15.7344 28.5742 15.0859 30.2461 15.0859C31.6445 15.0859 32.6836 15.4727 33.3633 16.2461C34.0508 17.0195 34.4023 18.1602 34.418 19.668V28H31.5703V19.75C31.5703 18.9453 31.3945 18.3555 31.043 17.9805C30.6914 17.6055 30.1094 17.418 29.2969 17.418C28.6484 17.418 28.1172 17.5938 27.7031 17.9453C27.2969 18.2891 27.0117 18.7422 26.8477 19.3047L26.8594 28H24.0117V19.6562C23.9727 18.1641 23.2109 17.418 21.7266 17.418C20.5859 17.418 19.7773 17.8828 19.3008 18.8125V28H16.4531V15.3203H19.1367ZM44.918 28C44.793 27.7578 44.6836 27.3633 44.5898 26.8164C43.6836 27.7617 42.5742 28.2344 41.2617 28.2344C39.9883 28.2344 38.9492 27.8711 38.1445 27.1445C37.3398 26.418 36.9375 25.5195 36.9375 24.4492C36.9375 23.0977 37.4375 22.0625 38.4375 21.3438C39.4453 20.6172 40.8828 20.2539 42.75 20.2539H44.4961V19.4219C44.4961 18.7656 44.3125 18.2422 43.9453 17.8516C43.5781 17.4531 43.0195 17.2539 42.2695 17.2539C41.6211 17.2539 41.0898 17.418 40.6758 17.7461C40.2617 18.0664 40.0547 18.4766 40.0547 18.9766H37.207C37.207 18.2812 37.4375 17.6328 37.8984 17.0312C38.3594 16.4219 38.9844 15.9453 39.7734 15.6016C40.5703 15.2578 41.457 15.0859 42.4336 15.0859C43.918 15.0859 45.1016 15.4609 45.9844 16.2109C46.8672 16.9531 47.3203 18 47.3438 19.3516V25.0703C47.3438 26.2109 47.5039 27.1211 47.8242 27.8008V28H44.918ZM41.7891 25.9492C42.3516 25.9492 42.8789 25.8125 43.3711 25.5391C43.8711 25.2656 44.2461 24.8984 44.4961 24.4375V22.0469H42.9609C41.9062 22.0469 41.1133 22.2305 40.582 22.5977C40.0508 22.9648 39.7852 23.4844 39.7852 24.1562C39.7852 24.7031 39.9648 25.1406 40.3242 25.4688C40.6914 25.7891 41.1797 25.9492 41.7891 25.9492ZM52.9688 15.3203L53.0508 16.7852C53.9883 15.6523 55.2188 15.0859 56.7422 15.0859C59.3828 15.0859 60.7266 16.5977 60.7734 19.6211V28H57.9258V19.7852C57.9258 18.9805 57.75 18.3867 57.3984 18.0039C57.0547 17.6133 56.4883 17.418 55.6992 17.418C54.5508 17.418 53.6953 17.9375 53.1328 18.9766V28H50.2852V15.3203H52.9688ZM71.3672 26.7578C70.5312 27.7422 69.3438 28.2344 67.8047 28.2344C66.4297 28.2344 65.3867 27.832 64.6758 27.0273C63.9727 26.2227 63.6211 25.0586 63.6211 23.5352V15.3203H66.4688V23.5C66.4688 25.1094 67.1367 25.9141 68.4727 25.9141C69.8555 25.9141 70.7891 25.418 71.2734 24.4258V15.3203H74.1211V28H71.4375L71.3672 26.7578ZM84.5977 28C84.4727 27.7578 84.3633 27.3633 84.2695 26.8164C83.3633 27.7617 82.2539 28.2344 80.9414 28.2344C79.668 28.2344 78.6289 27.8711 77.8242 27.1445C77.0195 26.418 76.6172 25.5195 76.6172 24.4492C76.6172 23.0977 77.1172 22.0625 78.1172 21.3438C79.125 20.6172 80.5625 20.2539 82.4297 20.2539H84.1758V19.4219C84.1758 18.7656 83.9922 18.2422 83.625 17.8516C83.2578 17.4531 82.6992 17.2539 81.9492 17.2539C81.3008 17.2539 80.7695 17.418 80.3555 17.7461C79.9414 18.0664 79.7344 18.4766 79.7344 18.9766H76.8867C76.8867 18.2812 77.1172 17.6328 77.5781 17.0312C78.0391 16.4219 78.6641 15.9453 79.4531 15.6016C80.25 15.2578 81.1367 15.0859 82.1133 15.0859C83.5977 15.0859 84.7812 15.4609 85.6641 16.2109C86.5469 16.9531 87 18 87.0234 19.3516V25.0703C87.0234 26.2109 87.1836 27.1211 87.5039 27.8008V28H84.5977ZM81.4688 25.9492C82.0312 25.9492 82.5586 25.8125 83.0508 25.5391C83.5508 25.2656 83.9258 24.8984 84.1758 24.4375V22.0469H82.6406C81.5859 22.0469 80.793 22.2305 80.2617 22.5977C79.7305 22.9648 79.4648 23.4844 79.4648 24.1562C79.4648 24.7031 79.6445 25.1406 80.0039 25.4688C80.3711 25.7891 80.8594 25.9492 81.4688 25.9492ZM93.0352 28H90.1875V10H93.0352V28ZM102.879 28V17.4297H100.945V15.3203H102.879V14.4531C102.887 13.4609 103.098 12.6094 103.512 11.8984C103.926 11.1875 104.512 10.6523 105.27 10.293C106.027 9.93359 106.938 9.75391 108 9.75391C108.625 9.75391 109.223 9.82031 109.793 9.95312C110.371 10.0859 110.969 10.2539 111.586 10.457L111.152 12.8125C110.074 12.4375 109.09 12.25 108.199 12.25C107.332 12.25 106.703 12.4414 106.312 12.8242C105.922 13.1992 105.727 13.7656 105.727 14.5234V15.3203H108.223V17.4297H105.727V28H102.879ZM112.934 28H110.086V15.3203H112.934V28ZM119.66 12.2383V15.3203H121.898V17.4297H119.66V24.5078C119.66 24.9922 119.754 25.3438 119.941 25.5625C120.137 25.7734 120.48 25.8789 120.973 25.8789C121.301 25.8789 121.633 25.8398 121.969 25.7617V27.9648C121.32 28.1445 120.695 28.2344 120.094 28.2344C117.906 28.2344 116.812 27.0273 116.812 24.6133V17.4297H114.727V15.3203H116.812V12.2383H119.66Z" fill="black"/>
<rect x="0.5" y="0.5" width="302" height="184" stroke="black"/>
<defs>
<filter id="filter0_f" x="12" y="34" width="132" height="131" filterUnits="userSpaceOnUse" color-interpolation-filters="sRGB">
<feFlood flood-opacity="0" result="BackgroundImageFix"/>
<feBlend mode="normal" in="SourceGraphic" in2="BackgroundImageFix" result="shape"/>
<feGaussianBlur stdDeviation="2.5" result="effect1_foregroundBlur"/>
</filter>
<filter id="filter1_f" x="13.1263" y="34.7356" width="129.747" height="131.753" filterUnits="userSpaceOnUse" color-interpolation-filters="sRGB">
<feFlood flood-opacity="0" result="BackgroundImageFix"/>
<feBlend mode="normal" in="SourceGraphic" in2="BackgroundImageFix" result="shape"/>
<feGaussianBlur stdDeviation="2" result="effect1_foregroundBlur"/>
</filter>
</defs>
</svg>
