<svg width="619" height="55" viewBox="0 0 619 55" fill="none" xmlns="http://www.w3.org/2000/svg">
<path d="M282.285 29.0273H275.676L274.293 33H271.211L277.656 15.9375H280.316L286.773 33H283.68L282.285 29.0273ZM276.508 26.6367H281.453L278.98 19.5586L276.508 26.6367ZM295.082 22.9219C294.707 22.8594 294.32 22.8281 293.922 22.8281C292.617 22.8281 291.738 23.3281 291.285 24.3281V33H288.438V20.3203H291.156L291.227 21.7383C291.914 20.6367 292.867 20.0859 294.086 20.0859C294.492 20.0859 294.828 20.1406 295.094 20.25L295.082 22.9219ZM301.035 17.2383V20.3203H303.273V22.4297H301.035V29.5078C301.035 29.9922 301.129 30.3438 301.316 30.5625C301.512 30.7734 301.855 30.8789 302.348 30.8789C302.676 30.8789 303.008 30.8398 303.344 30.7617V32.9648C302.695 33.1445 302.07 33.2344 301.469 33.2344C299.281 33.2344 298.188 32.0273 298.188 29.6133V22.4297H296.102V20.3203H298.188V17.2383H301.035ZM308.488 33H305.641V20.3203H308.488V33ZM305.465 17.0273C305.465 16.5898 305.602 16.2266 305.875 15.9375C306.156 15.6484 306.555 15.5039 307.07 15.5039C307.586 15.5039 307.984 15.6484 308.266 15.9375C308.547 16.2266 308.688 16.5898 308.688 17.0273C308.688 17.457 308.547 17.8164 308.266 18.1055C307.984 18.3867 307.586 18.5273 307.07 18.5273C306.555 18.5273 306.156 18.3867 305.875 18.1055C305.602 17.8164 305.465 17.457 305.465 17.0273ZM316.809 30.9609C317.52 30.9609 318.109 30.7539 318.578 30.3398C319.047 29.9258 319.297 29.4141 319.328 28.8047H322.012C321.98 29.5938 321.734 30.332 321.273 31.0195C320.812 31.6992 320.188 32.2383 319.398 32.6367C318.609 33.0352 317.758 33.2344 316.844 33.2344C315.07 33.2344 313.664 32.6602 312.625 31.5117C311.586 30.3633 311.066 28.7773 311.066 26.7539V26.4609C311.066 24.5312 311.582 22.9883 312.613 21.832C313.645 20.668 315.051 20.0859 316.832 20.0859C318.34 20.0859 319.566 20.5273 320.512 21.4102C321.465 22.2852 321.965 23.4375 322.012 24.8672H319.328C319.297 24.1406 319.047 23.543 318.578 23.0742C318.117 22.6055 317.527 22.3711 316.809 22.3711C315.887 22.3711 315.176 22.707 314.676 23.3789C314.176 24.043 313.922 25.0547 313.914 26.4141V26.8711C313.914 28.2461 314.16 29.2734 314.652 29.9531C315.152 30.625 315.871 30.9609 316.809 30.9609ZM327.191 33H324.344V15H327.191V33ZM335.887 33.2344C334.082 33.2344 332.617 32.668 331.492 31.5352C330.375 30.3945 329.816 28.8789 329.816 26.9883V26.6367C329.816 25.3711 330.059 24.2422 330.543 23.25C331.035 22.25 331.723 21.4727 332.605 20.918C333.488 20.3633 334.473 20.0859 335.559 20.0859C337.285 20.0859 338.617 20.6367 339.555 21.7383C340.5 22.8398 340.973 24.3984 340.973 26.4141V27.5625H332.688C332.773 28.6094 333.121 29.4375 333.73 30.0469C334.348 30.6562 335.121 30.9609 336.051 30.9609C337.355 30.9609 338.418 30.4336 339.238 29.3789L340.773 30.8438C340.266 31.6016 339.586 32.1914 338.734 32.6133C337.891 33.0273 336.941 33.2344 335.887 33.2344ZM335.547 22.3711C334.766 22.3711 334.133 22.6445 333.648 23.1914C333.172 23.7383 332.867 24.5 332.734 25.4766H338.16V25.2656C338.098 24.3125 337.844 23.5938 337.398 23.1094C336.953 22.6172 336.336 22.3711 335.547 22.3711Z" fill="black"/>
<rect x="0.5" y="0.5" width="618" height="54" stroke="black"/>
</svg>
