<svg width="618" height="265" viewBox="0 0 618 265" fill="none" xmlns="http://www.w3.org/2000/svg">
<path d="M29.5859 26.7891C29.5859 28.7578 29.1445 30.3242 28.2617 31.4883C27.3867 32.6523 26.1797 33.2344 24.6406 33.2344C23.1562 33.2344 22 32.6992 21.1719 31.6289L21.0312 33H18.4531V15H21.3008V21.5391C22.1211 20.5703 23.2266 20.0859 24.6172 20.0859C26.1641 20.0859 27.3789 20.6602 28.2617 21.8086C29.1445 22.957 29.5859 24.5625 29.5859 26.625V26.7891ZM26.7383 26.543C26.7383 25.168 26.4961 24.1367 26.0117 23.4492C25.5273 22.7617 24.8242 22.418 23.9023 22.418C22.668 22.418 21.8008 22.957 21.3008 24.0352V29.2617C21.8086 30.3633 22.6836 30.9141 23.9258 30.9141C24.8164 30.9141 25.5039 30.582 25.9883 29.918C26.4727 29.2539 26.7227 28.25 26.7383 26.9062V26.543ZM39.5586 33C39.4336 32.7578 39.3242 32.3633 39.2305 31.8164C38.3242 32.7617 37.2148 33.2344 35.9023 33.2344C34.6289 33.2344 33.5898 32.8711 32.7852 32.1445C31.9805 31.418 31.5781 30.5195 31.5781 29.4492C31.5781 28.0977 32.0781 27.0625 33.0781 26.3438C34.0859 25.6172 35.5234 25.2539 37.3906 25.2539H39.1367V24.4219C39.1367 23.7656 38.9531 23.2422 38.5859 22.8516C38.2188 22.4531 37.6602 22.2539 36.9102 22.2539C36.2617 22.2539 35.7305 22.418 35.3164 22.7461C34.9023 23.0664 34.6953 23.4766 34.6953 23.9766H31.8477C31.8477 23.2812 32.0781 22.6328 32.5391 22.0312C33 21.4219 33.625 20.9453 34.4141 20.6016C35.2109 20.2578 36.0977 20.0859 37.0742 20.0859C38.5586 20.0859 39.7422 20.4609 40.625 21.2109C41.5078 21.9531 41.9609 23 41.9844 24.3516V30.0703C41.9844 31.2109 42.1445 32.1211 42.4648 32.8008V33H39.5586ZM36.4297 30.9492C36.9922 30.9492 37.5195 30.8125 38.0117 30.5391C38.5117 30.2656 38.8867 29.8984 39.1367 29.4375V27.0469H37.6016C36.5469 27.0469 35.7539 27.2305 35.2227 27.5977C34.6914 27.9648 34.4258 28.4844 34.4258 29.1562C34.4258 29.7031 34.6055 30.1406 34.9648 30.4688C35.332 30.7891 35.8203 30.9492 36.4297 30.9492ZM50.1758 30.9609C50.8867 30.9609 51.4766 30.7539 51.9453 30.3398C52.4141 29.9258 52.6641 29.4141 52.6953 28.8047H55.3789C55.3477 29.5938 55.1016 30.332 54.6406 31.0195C54.1797 31.6992 53.5547 32.2383 52.7656 32.6367C51.9766 33.0352 51.125 33.2344 50.2109 33.2344C48.4375 33.2344 47.0312 32.6602 45.9922 31.5117C44.9531 30.3633 44.4336 28.7773 44.4336 26.7539V26.4609C44.4336 24.5312 44.9492 22.9883 45.9805 21.832C47.0117 20.668 48.418 20.0859 50.1992 20.0859C51.707 20.0859 52.9336 20.5273 53.8789 21.4102C54.832 22.2852 55.332 23.4375 55.3789 24.8672H52.6953C52.6641 24.1406 52.4141 23.543 51.9453 23.0742C51.4844 22.6055 50.8945 22.3711 50.1758 22.3711C49.2539 22.3711 48.543 22.707 48.043 23.3789C47.543 24.043 47.2891 25.0547 47.2812 26.4141V26.8711C47.2812 28.2461 47.5273 29.2734 48.0195 29.9531C48.5195 30.625 49.2383 30.9609 50.1758 30.9609ZM61.6484 27.5625L60.3828 28.8633V33H57.5352V15H60.3828V25.3828L61.2734 24.2695L64.7773 20.3203H68.1992L63.4883 25.6055L68.7031 33H65.4102L61.6484 27.5625ZM81.1719 26.7891C81.1719 28.75 80.7266 30.3164 79.8359 31.4883C78.9453 32.6523 77.75 33.2344 76.25 33.2344C74.8594 33.2344 73.7461 32.7773 72.9102 31.8633V37.875H70.0625V20.3203H72.6875L72.8047 21.6094C73.6406 20.5938 74.7773 20.0859 76.2148 20.0859C77.7617 20.0859 78.9727 20.6641 79.8477 21.8203C80.7305 22.9688 81.1719 24.5664 81.1719 26.6133V26.7891ZM78.3359 26.543C78.3359 25.2773 78.082 24.2734 77.5742 23.5312C77.0742 22.7891 76.3555 22.418 75.418 22.418C74.2539 22.418 73.418 22.8984 72.9102 23.8594V29.4844C73.4258 30.4688 74.2695 30.9609 75.4414 30.9609C76.3477 30.9609 77.0547 30.5977 77.5625 29.8711C78.0781 29.1367 78.3359 28.0273 78.3359 26.543ZM90.2305 22.9219C89.8555 22.8594 89.4688 22.8281 89.0703 22.8281C87.7656 22.8281 86.8867 23.3281 86.4336 24.3281V33H83.5859V20.3203H86.3047L86.375 21.7383C87.0625 20.6367 88.0156 20.0859 89.2344 20.0859C89.6406 20.0859 89.9766 20.1406 90.2422 20.25L90.2305 22.9219ZM91.0742 26.543C91.0742 25.3008 91.3203 24.1836 91.8125 23.1914C92.3047 22.1914 92.9961 21.4258 93.8867 20.8945C94.7773 20.3555 95.8008 20.0859 96.957 20.0859C98.668 20.0859 100.055 20.6367 101.117 21.7383C102.188 22.8398 102.766 24.3008 102.852 26.1211L102.863 26.7891C102.863 28.0391 102.621 29.1562 102.137 30.1406C101.66 31.125 100.973 31.8867 100.074 32.4258C99.1836 32.9648 98.1523 33.2344 96.9805 33.2344C95.1914 33.2344 93.7578 32.6406 92.6797 31.4531C91.6094 30.2578 91.0742 28.668 91.0742 26.6836V26.543ZM93.9219 26.7891C93.9219 28.0938 94.1914 29.1172 94.7305 29.8594C95.2695 30.5938 96.0195 30.9609 96.9805 30.9609C97.9414 30.9609 98.6875 30.5859 99.2188 29.8359C99.7578 29.0859 100.027 27.9883 100.027 26.543C100.027 25.2617 99.75 24.2461 99.1953 23.4961C98.6484 22.7461 97.9023 22.3711 96.957 22.3711C96.0273 22.3711 95.2891 22.7422 94.7422 23.4844C94.1953 24.2188 93.9219 25.3203 93.9219 26.7891ZM116.375 26.7891C116.375 28.75 115.93 30.3164 115.039 31.4883C114.148 32.6523 112.953 33.2344 111.453 33.2344C110.062 33.2344 108.949 32.7773 108.113 31.8633V37.875H105.266V20.3203H107.891L108.008 21.6094C108.844 20.5938 109.98 20.0859 111.418 20.0859C112.965 20.0859 114.176 20.6641 115.051 21.8203C115.934 22.9688 116.375 24.5664 116.375 26.6133V26.7891ZM113.539 26.543C113.539 25.2773 113.285 24.2734 112.777 23.5312C112.277 22.7891 111.559 22.418 110.621 22.418C109.457 22.418 108.621 22.8984 108.113 23.8594V29.4844C108.629 30.4688 109.473 30.9609 110.645 30.9609C111.551 30.9609 112.258 30.5977 112.766 29.8711C113.281 29.1367 113.539 28.0273 113.539 26.543ZM130.355 33.2344C128.551 33.2344 127.086 32.668 125.961 31.5352C124.844 30.3945 124.285 28.8789 124.285 26.9883V26.6367C124.285 25.3711 124.527 24.2422 125.012 23.25C125.504 22.25 126.191 21.4727 127.074 20.918C127.957 20.3633 128.941 20.0859 130.027 20.0859C131.754 20.0859 133.086 20.6367 134.023 21.7383C134.969 22.8398 135.441 24.3984 135.441 26.4141V27.5625H127.156C127.242 28.6094 127.59 29.4375 128.199 30.0469C128.816 30.6562 129.59 30.9609 130.52 30.9609C131.824 30.9609 132.887 30.4336 133.707 29.3789L135.242 30.8438C134.734 31.6016 134.055 32.1914 133.203 32.6133C132.359 33.0273 131.41 33.2344 130.355 33.2344ZM130.016 22.3711C129.234 22.3711 128.602 22.6445 128.117 23.1914C127.641 23.7383 127.336 24.5 127.203 25.4766H132.629V25.2656C132.566 24.3125 132.312 23.5938 131.867 23.1094C131.422 22.6172 130.805 22.3711 130.016 22.3711ZM142.215 24.4922L144.629 20.3203H147.793L143.914 26.5664L147.922 33H144.781L142.25 28.6641L139.73 33H136.566L140.574 26.5664L136.707 20.3203H139.848L142.215 24.4922ZM160.836 26.7891C160.836 28.75 160.391 30.3164 159.5 31.4883C158.609 32.6523 157.414 33.2344 155.914 33.2344C154.523 33.2344 153.41 32.7773 152.574 31.8633V37.875H149.727V20.3203H152.352L152.469 21.6094C153.305 20.5938 154.441 20.0859 155.879 20.0859C157.426 20.0859 158.637 20.6641 159.512 21.8203C160.395 22.9688 160.836 24.5664 160.836 26.6133V26.7891ZM158 26.543C158 25.2773 157.746 24.2734 157.238 23.5312C156.738 22.7891 156.02 22.418 155.082 22.418C153.918 22.418 153.082 22.8984 152.574 23.8594V29.4844C153.09 30.4688 153.934 30.9609 155.105 30.9609C156.012 30.9609 156.719 30.5977 157.227 29.8711C157.742 29.1367 158 28.0273 158 26.543ZM166.285 33H163.438V15H166.285V33ZM176.973 33C176.848 32.7578 176.738 32.3633 176.645 31.8164C175.738 32.7617 174.629 33.2344 173.316 33.2344C172.043 33.2344 171.004 32.8711 170.199 32.1445C169.395 31.418 168.992 30.5195 168.992 29.4492C168.992 28.0977 169.492 27.0625 170.492 26.3438C171.5 25.6172 172.938 25.2539 174.805 25.2539H176.551V24.4219C176.551 23.7656 176.367 23.2422 176 22.8516C175.633 22.4531 175.074 22.2539 174.324 22.2539C173.676 22.2539 173.145 22.418 172.73 22.7461C172.316 23.0664 172.109 23.4766 172.109 23.9766H169.262C169.262 23.2812 169.492 22.6328 169.953 22.0312C170.414 21.4219 171.039 20.9453 171.828 20.6016C172.625 20.2578 173.512 20.0859 174.488 20.0859C175.973 20.0859 177.156 20.4609 178.039 21.2109C178.922 21.9531 179.375 23 179.398 24.3516V30.0703C179.398 31.2109 179.559 32.1211 179.879 32.8008V33H176.973ZM173.844 30.9492C174.406 30.9492 174.934 30.8125 175.426 30.5391C175.926 30.2656 176.301 29.8984 176.551 29.4375V27.0469H175.016C173.961 27.0469 173.168 27.2305 172.637 27.5977C172.105 27.9648 171.84 28.4844 171.84 29.1562C171.84 29.7031 172.02 30.1406 172.379 30.4688C172.746 30.7891 173.234 30.9492 173.844 30.9492ZM185.41 33H182.562V20.3203H185.41V33ZM182.387 17.0273C182.387 16.5898 182.523 16.2266 182.797 15.9375C183.078 15.6484 183.477 15.5039 183.992 15.5039C184.508 15.5039 184.906 15.6484 185.188 15.9375C185.469 16.2266 185.609 16.5898 185.609 17.0273C185.609 17.457 185.469 17.8164 185.188 18.1055C184.906 18.3867 184.508 18.5273 183.992 18.5273C183.477 18.5273 183.078 18.3867 182.797 18.1055C182.523 17.8164 182.387 17.457 182.387 17.0273ZM191.164 20.3203L191.246 21.7852C192.184 20.6523 193.414 20.0859 194.938 20.0859C197.578 20.0859 198.922 21.5977 198.969 24.6211V33H196.121V24.7852C196.121 23.9805 195.945 23.3867 195.594 23.0039C195.25 22.6133 194.684 22.418 193.895 22.418C192.746 22.418 191.891 22.9375 191.328 23.9766V33H188.48V20.3203H191.164ZM207.465 33.2344C205.66 33.2344 204.195 32.668 203.07 31.5352C201.953 30.3945 201.395 28.8789 201.395 26.9883V26.6367C201.395 25.3711 201.637 24.2422 202.121 23.25C202.613 22.25 203.301 21.4727 204.184 20.918C205.066 20.3633 206.051 20.0859 207.137 20.0859C208.863 20.0859 210.195 20.6367 211.133 21.7383C212.078 22.8398 212.551 24.3984 212.551 26.4141V27.5625H204.266C204.352 28.6094 204.699 29.4375 205.309 30.0469C205.926 30.6562 206.699 30.9609 207.629 30.9609C208.934 30.9609 209.996 30.4336 210.816 29.3789L212.352 30.8438C211.844 31.6016 211.164 32.1914 210.312 32.6133C209.469 33.0273 208.52 33.2344 207.465 33.2344ZM207.125 22.3711C206.344 22.3711 205.711 22.6445 205.227 23.1914C204.75 23.7383 204.445 24.5 204.312 25.4766H209.738V25.2656C209.676 24.3125 209.422 23.5938 208.977 23.1094C208.531 22.6172 207.914 22.3711 207.125 22.3711ZM221.41 22.9219C221.035 22.8594 220.648 22.8281 220.25 22.8281C218.945 22.8281 218.066 23.3281 217.613 24.3281V33H214.766V20.3203H217.484L217.555 21.7383C218.242 20.6367 219.195 20.0859 220.414 20.0859C220.82 20.0859 221.156 20.1406 221.422 20.25L221.41 22.9219ZM231.863 20.3203L231.945 21.6445C232.836 20.6055 234.055 20.0859 235.602 20.0859C237.297 20.0859 238.457 20.7344 239.082 22.0312C240.004 20.7344 241.301 20.0859 242.973 20.0859C244.371 20.0859 245.41 20.4727 246.09 21.2461C246.777 22.0195 247.129 23.1602 247.145 24.668V33H244.297V24.75C244.297 23.9453 244.121 23.3555 243.77 22.9805C243.418 22.6055 242.836 22.418 242.023 22.418C241.375 22.418 240.844 22.5938 240.43 22.9453C240.023 23.2891 239.738 23.7422 239.574 24.3047L239.586 33H236.738V24.6562C236.699 23.1641 235.938 22.418 234.453 22.418C233.312 22.418 232.504 22.8828 232.027 23.8125V33H229.18V20.3203H231.863ZM257.645 33C257.52 32.7578 257.41 32.3633 257.316 31.8164C256.41 32.7617 255.301 33.2344 253.988 33.2344C252.715 33.2344 251.676 32.8711 250.871 32.1445C250.066 31.418 249.664 30.5195 249.664 29.4492C249.664 28.0977 250.164 27.0625 251.164 26.3438C252.172 25.6172 253.609 25.2539 255.477 25.2539H257.223V24.4219C257.223 23.7656 257.039 23.2422 256.672 22.8516C256.305 22.4531 255.746 22.2539 254.996 22.2539C254.348 22.2539 253.816 22.418 253.402 22.7461C252.988 23.0664 252.781 23.4766 252.781 23.9766H249.934C249.934 23.2812 250.164 22.6328 250.625 22.0312C251.086 21.4219 251.711 20.9453 252.5 20.6016C253.297 20.2578 254.184 20.0859 255.16 20.0859C256.645 20.0859 257.828 20.4609 258.711 21.2109C259.594 21.9531 260.047 23 260.07 24.3516V30.0703C260.07 31.2109 260.23 32.1211 260.551 32.8008V33H257.645ZM254.516 30.9492C255.078 30.9492 255.605 30.8125 256.098 30.5391C256.598 30.2656 256.973 29.8984 257.223 29.4375V27.0469H255.688C254.633 27.0469 253.84 27.2305 253.309 27.5977C252.777 27.9648 252.512 28.4844 252.512 29.1562C252.512 29.7031 252.691 30.1406 253.051 30.4688C253.418 30.7891 253.906 30.9492 254.516 30.9492ZM266.082 33H263.234V20.3203H266.082V33ZM263.059 17.0273C263.059 16.5898 263.195 16.2266 263.469 15.9375C263.75 15.6484 264.148 15.5039 264.664 15.5039C265.18 15.5039 265.578 15.6484 265.859 15.9375C266.141 16.2266 266.281 16.5898 266.281 17.0273C266.281 17.457 266.141 17.8164 265.859 18.1055C265.578 18.3867 265.18 18.5273 264.664 18.5273C264.148 18.5273 263.75 18.3867 263.469 18.1055C263.195 17.8164 263.059 17.457 263.059 17.0273ZM271.836 20.3203L271.918 21.7852C272.855 20.6523 274.086 20.0859 275.609 20.0859C278.25 20.0859 279.594 21.5977 279.641 24.6211V33H276.793V24.7852C276.793 23.9805 276.617 23.3867 276.266 23.0039C275.922 22.6133 275.355 22.418 274.566 22.418C273.418 22.418 272.562 22.9375 272 23.9766V33H269.152V20.3203H271.836ZM292.098 17.2383V20.3203H294.336V22.4297H292.098V29.5078C292.098 29.9922 292.191 30.3438 292.379 30.5625C292.574 30.7734 292.918 30.8789 293.41 30.8789C293.738 30.8789 294.07 30.8398 294.406 30.7617V32.9648C293.758 33.1445 293.133 33.2344 292.531 33.2344C290.344 33.2344 289.25 32.0273 289.25 29.6133V22.4297H287.164V20.3203H289.25V17.2383H292.098ZM295.637 26.543C295.637 25.3008 295.883 24.1836 296.375 23.1914C296.867 22.1914 297.559 21.4258 298.449 20.8945C299.34 20.3555 300.363 20.0859 301.52 20.0859C303.23 20.0859 304.617 20.6367 305.68 21.7383C306.75 22.8398 307.328 24.3008 307.414 26.1211L307.426 26.7891C307.426 28.0391 307.184 29.1562 306.699 30.1406C306.223 31.125 305.535 31.8867 304.637 32.4258C303.746 32.9648 302.715 33.2344 301.543 33.2344C299.754 33.2344 298.32 32.6406 297.242 31.4531C296.172 30.2578 295.637 28.668 295.637 26.6836V26.543ZM298.484 26.7891C298.484 28.0938 298.754 29.1172 299.293 29.8594C299.832 30.5938 300.582 30.9609 301.543 30.9609C302.504 30.9609 303.25 30.5859 303.781 29.8359C304.32 29.0859 304.59 27.9883 304.59 26.543C304.59 25.2617 304.312 24.2461 303.758 23.4961C303.211 22.7461 302.465 22.3711 301.52 22.3711C300.59 22.3711 299.852 22.7422 299.305 23.4844C298.758 24.2188 298.484 25.3203 298.484 26.7891ZM309.301 26.543C309.301 25.3008 309.547 24.1836 310.039 23.1914C310.531 22.1914 311.223 21.4258 312.113 20.8945C313.004 20.3555 314.027 20.0859 315.184 20.0859C316.895 20.0859 318.281 20.6367 319.344 21.7383C320.414 22.8398 320.992 24.3008 321.078 26.1211L321.09 26.7891C321.09 28.0391 320.848 29.1562 320.363 30.1406C319.887 31.125 319.199 31.8867 318.301 32.4258C317.41 32.9648 316.379 33.2344 315.207 33.2344C313.418 33.2344 311.984 32.6406 310.906 31.4531C309.836 30.2578 309.301 28.668 309.301 26.6836V26.543ZM312.148 26.7891C312.148 28.0938 312.418 29.1172 312.957 29.8594C313.496 30.5938 314.246 30.9609 315.207 30.9609C316.168 30.9609 316.914 30.5859 317.445 29.8359C317.984 29.0859 318.254 27.9883 318.254 26.543C318.254 25.2617 317.977 24.2461 317.422 23.4961C316.875 22.7461 316.129 22.3711 315.184 22.3711C314.254 22.3711 313.516 22.7422 312.969 23.4844C312.422 24.2188 312.148 25.3203 312.148 26.7891ZM326.527 33H323.68V15H326.527V33Z" fill="black"/>
<rect x="453.5" y="155.5" width="139" height="78" stroke="#C4C4C4"/>
<rect x="455.5" y="60.5" width="138" height="77" stroke="#C4C4C4"/>
<rect x="460" y="161" width="65" height="6" fill="#C4C4C4"/>
<rect x="460" y="64" width="65" height="7" fill="#C4C4C4"/>
<rect x="472" y="194" width="18" height="9" rx="4.5" fill="#155676"/>
<rect x="472" y="173" width="18" height="9" rx="4.5" fill="#155676"/>
<rect x="498" y="194" width="19" height="9" rx="4.5" fill="#C4C4C4"/>
<rect x="498" y="173" width="19" height="9" rx="4.5" fill="#C4C4C4"/>
<rect x="524" y="194" width="18" height="9" rx="4.5" fill="#C4C4C4"/>
<rect x="534" y="216" width="18" height="10" fill="#C4C4C4"/>
<rect x="524" y="173" width="18" height="9" rx="4.5" fill="#C4C4C4"/>
<rect x="549" y="173" width="19" height="9" rx="4.5" fill="#C4C4C4"/>
<rect x="467" y="81" width="61" height="18" fill="#C4C4C4"/>
<line x1="471.332" y1="220.484" x2="523.107" y2="220.484" stroke="#155676"/>
<ellipse cx="522.595" cy="220.715" rx="2.10575" ry="2.12058" fill="#155676"/>
<ellipse cx="496" cy="117.5" rx="11" ry="10.5" fill="#155676"/>
<circle cx="473" cy="117" r="6" fill="#C4C4C4"/>
<circle cx="519" cy="117" r="6" fill="#C4C4C4"/>
<rect x="338.5" y="53.5" width="99" height="99" stroke="black" stroke-opacity="0.1"/>
<rect x="338.5" y="203.5" width="99" height="39" stroke="black" stroke-opacity="0.08"/>
<path d="M285 133V159Z" fill="black"/>
<path d="M285 133V159" stroke="black"/>
<path d="M291 163C314.5 163 314.5 209 338 209" stroke="black"/>
<path d="M292 140C315 140 315 101 338 101" stroke="black"/>
<path d="M23 140C52 140 52 59 81 59" stroke="#4BA3C3" stroke-width="1.76486"/>
<path d="M23 140C52 140 52 81 81 81" stroke="#4BA3C3" stroke-width="0.779581"/>
<path d="M23 140C52 140 52 104 81 104" stroke="#4BA3C3" stroke-width="0.903029"/>
<path d="M23 140C52 140 52 128 81 128" stroke="#4BA3C3" stroke-width="0.90302"/>
<path d="M23 140C52 140 52 152 81 152" stroke="#4BA3C3" stroke-width="0.171674"/>
<path d="M23 140C52 140 52 174 81 174" stroke="#4BA3C3" stroke-width="0.640565"/>
<path d="M23 140C52 140 52 197 81 197" stroke="#4BA3C3" stroke-width="0.538822"/>
<path d="M23 140C52 140 52 222 81 222" stroke="#4BA3C3" stroke-width="0.865414"/>
<path d="M81 59C115.5 59 115.5 59 150 59" stroke="#D62839" stroke-width="0.330909"/>
<path d="M81 81C115.5 81 115.5 59 150 59" stroke="#D62839" stroke-width="1.00957"/>
<path d="M81 104C115.5 104 115.5 59 150 59" stroke="#4BA3C3" stroke-width="0.690498"/>
<path d="M81 128C115.5 128 115.5 59 150 59" stroke="#D62839" stroke-width="0.41393"/>
<path d="M81 152C115.5 152 115.5 59 150 59" stroke="#D62839" stroke-width="0.543401"/>
<path d="M81 174C115.5 174 115.5 59 150 59" stroke="#4BA3C3" stroke-width="1.43404"/>
<path d="M81 197C115.5 197 115.5 59 150 59" stroke="#4BA3C3" stroke-width="0.716543"/>
<path d="M81 222C115.5 222 115.5 59 150 59" stroke="#D62839" stroke-width="0.328073"/>
<path d="M81 59C115.5 59 115.5 81 150 81" stroke="#D62839" stroke-width="0.90211"/>
<path d="M81 81C115.5 81 115.5 81 150 81" stroke="#D62839" stroke-width="0.617963"/>
<path d="M81 104C115.5 104 115.5 81 150 81" stroke="#D62839" stroke-width="0.798021"/>
<path d="M81 128C115.5 128 115.5 81 150 81" stroke="#D62839" stroke-width="1.74386"/>
<path d="M81 152C115.5 152 115.5 81 150 81" stroke="#D62839" stroke-width="0.219168"/>
<path d="M81 174C115.5 174 115.5 81 150 81" stroke="#4BA3C3" stroke-width="0.308835"/>
<path d="M81 197C115.5 197 115.5 81 150 81" stroke="#4BA3C3" stroke-width="0.450143"/>
<path d="M81 222C115.5 222 115.5 81 150 81" stroke="#D62839" stroke-width="1.00404"/>
<path d="M81 59C115.5 59 115.5 104 150 104" stroke="#D62839" stroke-width="1.01374"/>
<path d="M81 81C115.5 81 115.5 104 150 104" stroke="#D62839" stroke-width="0.217573"/>
<path d="M81 104C115.5 104 115.5 104 150 104" stroke="#4BA3C3" stroke-width="0.100671"/>
<path d="M81 128C115.5 128 115.5 104 150 104" stroke="#D62839" stroke-width="2.53182"/>
<path d="M81 152C115.5 152 115.5 104 150 104" stroke="#D62839" stroke-width="0.122076"/>
<path d="M81 174C115.5 174 115.5 104 150 104" stroke="#4BA3C3" stroke-width="0.281763"/>
<path d="M81 197C115.5 197 115.5 104 150 104" stroke="#D62839" stroke-width="3.17876"/>
<path d="M81 222C115.5 222 115.5 104 150 104" stroke="#D62839" stroke-width="0.673667"/>
<path d="M81 59C115.5 59 115.5 128 150 128" stroke="#D62839" stroke-width="0.861741"/>
<path d="M81 81C115.5 81 115.5 128 150 128" stroke="#D62839" stroke-width="0.957767"/>
<path d="M81 104C115.5 104 115.5 128 150 128" stroke="#4BA3C3" stroke-width="0.73276"/>
<path d="M81 128C115.5 128 115.5 128 150 128" stroke="#D62839" stroke-width="0.575312"/>
<path d="M81 152C115.5 152 115.5 128 150 128" stroke="#D62839" stroke-width="0.301984"/>
<path d="M81 174C115.5 174 115.5 128 150 128" stroke="#D62839" stroke-width="0.221891"/>
<path d="M81 197C115.5 197 115.5 128 150 128" stroke="#4BA3C3" stroke-width="1.20027"/>
<path d="M81 222C115.5 222 115.5 128 150 128" stroke="#D62839" stroke-width="0.261035"/>
<path d="M81 59C115.5 59 115.5 152 150 152" stroke="#D62839" stroke-width="0.944477"/>
<path d="M81 81C115.5 81 115.5 152 150 152" stroke="#4BA3C3" stroke-width="0.845458"/>
<path d="M81 104C115.5 104 115.5 152 150 152" stroke="#D62839" stroke-width="1.02784"/>
<path d="M81 128C115.5 128 115.5 152 150 152" stroke="#4BA3C3" stroke-width="0.222152"/>
<path d="M81 152C115.5 152 115.5 152 150 152" stroke="#D62839" stroke-width="0.694487"/>
<path d="M81 174C115.5 174 115.5 152 150 152" stroke="#D62839" stroke-width="0.596018"/>
<path d="M81 197C115.5 197 115.5 152 150 152" stroke="#D62839" stroke-width="0.82794"/>
<path d="M81 222C115.5 222 115.5 152 150 152" stroke="#4BA3C3" stroke-width="0.343023"/>
<path d="M81 59C115.5 59 115.5 174 150 174" stroke="#D62839" stroke-width="0.662383"/>
<path d="M81 81C115.5 81 115.5 174 150 174" stroke="#D62839" stroke-width="1.20331"/>
<path d="M81 104C115.5 104 115.5 174 150 174" stroke="#D62839" stroke-width="1.08909"/>
<path d="M81 128C115.5 128 115.5 174 150 174" stroke="#D62839" stroke-width="0.362502"/>
<path d="M81 152C115.5 152 115.5 174 150 174" stroke="#D62839" stroke-width="0.187406"/>
<path d="M81 174C115.5 174 115.5 174 150 174" stroke="#4BA3C3" stroke-width="1.32842"/>
<path d="M81 197C115.5 197 115.5 174 150 174" stroke="#D62839" stroke-width="0.572026"/>
<path d="M81 222C115.5 222 115.5 174 150 174" stroke="#4BA3C3" stroke-width="0.960087"/>
<path d="M81 59C115.5 59 115.5 197 150 197" stroke="#D62839" stroke-width="1.26778"/>
<path d="M81 81C115.5 81 115.5 197 150 197" stroke="#4BA3C3" stroke-width="0.477537"/>
<path d="M81 104C115.5 104 115.5 197 150 197" stroke="#4BA3C3" stroke-width="0.668656"/>
<path d="M81 128C115.5 128 115.5 197 150 197" stroke="#D62839" stroke-width="2.67508"/>
<path d="M81 152C115.5 152 115.5 197 150 197" stroke="#4BA3C3" stroke-width="0.15163"/>
<path d="M81 174C115.5 174 115.5 197 150 197" stroke="#D62839" stroke-width="0.673136"/>
<path d="M81 197C115.5 197 115.5 197 150 197" stroke="#D62839" stroke-width="1.81436"/>
<path d="M81 222C115.5 222 115.5 197 150 197" stroke="#4BA3C3" stroke-width="0.252174"/>
<path d="M81 59C115.5 59 115.5 222 150 222" stroke="#4BA3C3" stroke-width="0.148062"/>
<path d="M81 81C115.5 81 115.5 222 150 222" stroke="#D62839" stroke-width="0.355117"/>
<path d="M81 104C115.5 104 115.5 222 150 222" stroke="#D62839" stroke-width="1.16623"/>
<path d="M81 128C115.5 128 115.5 222 150 222" stroke="#D62839" stroke-width="1.04148"/>
<path d="M81 152C115.5 152 115.5 222 150 222" stroke="#D62839" stroke-width="1.16913"/>
<path d="M81 174C115.5 174 115.5 222 150 222" stroke="#D62839" stroke-width="0.981629"/>
<path d="M81 197C115.5 197 115.5 222 150 222" stroke="#4BA3C3" stroke-width="0.175111"/>
<path d="M81 222C115.5 222 115.5 222 150 222" stroke="#D62839" stroke-width="1.25565"/>
<path d="M150 59C183.5 59 183.5 59 217 59" stroke="#D62839" stroke-width="1.48625"/>
<path d="M150 81C183.5 81 183.5 59 217 59" stroke="#D62839" stroke-width="0.660222"/>
<path d="M150 104C183.5 104 183.5 59 217 59" stroke="#D62839" stroke-width="0.615164"/>
<path d="M150 128C183.5 128 183.5 59 217 59" stroke="#D62839" stroke-width="0.15656"/>
<path d="M150 152C183.5 152 183.5 59 217 59" stroke="#4BA3C3" stroke-width="0.987108"/>
<path d="M150 174C183.5 174 183.5 59 217 59" stroke="#D62839" stroke-width="0.220035"/>
<path d="M150 197C183.5 197 183.5 59 217 59" stroke="#D62839" stroke-width="0.620381"/>
<path d="M150 222C183.5 222 183.5 59 217 59" stroke="#D62839" stroke-width="0.18261"/>
<path d="M150 59C183.5 59 183.5 81 217 81" stroke="#D62839" stroke-width="1.56984"/>
<path d="M150 81C183.5 81 183.5 81 217 81" stroke="#4BA3C3" stroke-width="0.608941"/>
<path d="M150 104C183.5 104 183.5 81 217 81" stroke="#D62839" stroke-width="0.157885"/>
<path d="M150 128C183.5 128 183.5 81 217 81" stroke="#4BA3C3" stroke-width="0.360658"/>
<path d="M150 152C183.5 152 183.5 81 217 81" stroke="#4BA3C3" stroke-width="0.651849"/>
<path d="M150 174C183.5 174 183.5 81 217 81" stroke="#D62839" stroke-width="0.40807"/>
<path d="M150 197C183.5 197 183.5 81 217 81" stroke="#D62839" stroke-width="3.19603"/>
<path d="M150 222C183.5 222 183.5 81 217 81" stroke="#D62839" stroke-width="4.81526"/>
<path d="M150 59C183.5 59 183.5 104 217 104" stroke="#4BA3C3" stroke-width="0.923273"/>
<path d="M150 81C183.5 81 183.5 104 217 104" stroke="#4BA3C3" stroke-width="0.178698"/>
<path d="M150 104C183.5 104 183.5 104 217 104" stroke="#D62839" stroke-width="1.17917"/>
<path d="M150 128C183.5 128 183.5 104 217 104" stroke="#4BA3C3" stroke-width="0.27707"/>
<path d="M150 152C183.5 152 183.5 104 217 104" stroke="#D62839" stroke-width="1.50541"/>
<path d="M150 174C183.5 174 183.5 104 217 104" stroke="#4BA3C3" stroke-width="1.34022"/>
<path d="M150 197C183.5 197 183.5 104 217 104" stroke="#4BA3C3" stroke-width="0.224434"/>
<path d="M150 222C183.5 222 183.5 104 217 104" stroke="#D62839" stroke-width="0.641698"/>
<path d="M150 59C183.5 59 183.5 128 217 128" stroke="#4BA3C3" stroke-width="1.44056"/>
<path d="M150 81C183.5 81 183.5 128 217 128" stroke="#D62839" stroke-width="0.20061"/>
<path d="M150 104C183.5 104 183.5 128 217 128" stroke="#4BA3C3" stroke-width="0.436475"/>
<path d="M150 128C183.5 128 183.5 128 217 128" stroke="#D62839" stroke-width="0.89115"/>
<path d="M150 152C183.5 152 183.5 128 217 128" stroke="#4BA3C3" stroke-width="0.790117"/>
<path d="M150 174C183.5 174 183.5 128 217 128" stroke="#4BA3C3" stroke-width="1.0572"/>
<path d="M150 197C183.5 197 183.5 128 217 128" stroke="#D62839" stroke-width="0.78151"/>
<path d="M150 222C183.5 222 183.5 128 217 128" stroke="#D62839" stroke-width="0.807073"/>
<path d="M150 59C183.5 59 183.5 152 217 152" stroke="#D62839" stroke-width="0.841711"/>
<path d="M150 81C183.5 81 183.5 152 217 152" stroke="#D62839" stroke-width="1.06526"/>
<path d="M150 104C183.5 104 183.5 152 217 152" stroke="#4BA3C3" stroke-width="0.171654"/>
<path d="M150 128C183.5 128 183.5 152 217 152" stroke="#D62839" stroke-width="0.81732"/>
<path d="M150 152C183.5 152 183.5 152 217 152" stroke="#D62839" stroke-width="1.10263"/>
<path d="M150 174C183.5 174 183.5 152 217 152" stroke="#4BA3C3" stroke-width="0.329445"/>
<path d="M150 197C183.5 197 183.5 152 217 152" stroke="#D62839" stroke-width="1.94575"/>
<path d="M150 222C183.5 222 183.5 152 217 152" stroke="#D62839" stroke-width="1.55825"/>
<path d="M150 59C183.5 59 183.5 174 217 174" stroke="#D62839" stroke-width="0.377888"/>
<path d="M150 81C183.5 81 183.5 174 217 174" stroke="#4BA3C3" stroke-width="2.32388"/>
<path d="M150 104C183.5 104 183.5 174 217 174" stroke="#D62839" stroke-width="0.930839"/>
<path d="M150 128C183.5 128 183.5 174 217 174" stroke="#4BA3C3" stroke-width="0.144093"/>
<path d="M150 152C183.5 152 183.5 174 217 174" stroke="#4BA3C3" stroke-width="1.19065"/>
<path d="M150 174C183.5 174 183.5 174 217 174" stroke="#4BA3C3" stroke-width="0.375765"/>
<path d="M150 197C183.5 197 183.5 174 217 174" stroke="#4BA3C3" stroke-width="0.151933"/>
<path d="M150 222C183.5 222 183.5 174 217 174" stroke="#4BA3C3" stroke-width="0.183591"/>
<path d="M150 59C183.5 59 183.5 197 217 197" stroke="#D62839" stroke-width="0.263861"/>
<path d="M150 81C183.5 81 183.5 197 217 197" stroke="#D62839" stroke-width="0.793429"/>
<path d="M150 104C183.5 104 183.5 197 217 197" stroke="#D62839" stroke-width="0.26335"/>
<path d="M150 128C183.5 128 183.5 197 217 197" stroke="#4BA3C3" stroke-width="0.735506"/>
<path d="M150 152C183.5 152 183.5 197 217 197" stroke="#4BA3C3" stroke-width="0.124576"/>
<path d="M150 174C183.5 174 183.5 197 217 197" stroke="#D62839" stroke-width="0.50071"/>
<path d="M150 197C183.5 197 183.5 197 217 197" stroke="#D62839" stroke-width="0.982874"/>
<path d="M150 222C183.5 222 183.5 197 217 197" stroke="#D62839" stroke-width="0.853772"/>
<path d="M150 59C183.5 59 183.5 222 217 222" stroke="#D62839" stroke-width="0.398763"/>
<path d="M150 81C183.5 81 183.5 222 217 222" stroke="#D62839" stroke-width="0.733297"/>
<path d="M150 104C183.5 104 183.5 222 217 222" stroke="#4BA3C3" stroke-width="0.47354"/>
<path d="M150 128C183.5 128 183.5 222 217 222" stroke="#4BA3C3" stroke-width="0.257527"/>
<path d="M150 152C183.5 152 183.5 222 217 222" stroke="#D62839" stroke-width="0.164524"/>
<path d="M150 174C183.5 174 183.5 222 217 222" stroke="#D62839" stroke-width="0.591923"/>
<path d="M150 197C183.5 197 183.5 222 217 222" stroke="#D62839" stroke-width="0.382836"/>
<path d="M150 222C183.5 222 183.5 222 217 222" stroke="#D62839" stroke-width="1.51977"/>
<path d="M217 59C251 59 251 140 285 140" stroke="#4BA3C3" stroke-width="0.187576"/>
<path d="M217 81C251 81 251 140 285 140" stroke="#D62839" stroke-width="5.74881"/>
<path d="M217 104C251 104 251 140 285 140" stroke="#D62839" stroke-width="1.31209"/>
<path d="M217 128C251 128 251 140 285 140" stroke="#D62839" stroke-width="1.38153"/>
<path d="M217 152C251 152 251 140 285 140" stroke="#D62839" stroke-width="2.94115"/>
<path d="M217 174C251 174 251 140 285 140" stroke="#4BA3C3" stroke-width="1.74763"/>
<path d="M217 197C251 197 251 140 285 140" stroke="#D62839" stroke-width="0.961605"/>
<path d="M217 222C251 222 251 140 285 140" stroke="#D62839" stroke-width="0.792319"/>
<path d="M29 133H17V145H29V133Z" fill="#A9A9A9"/>
<path d="M90 51H76V65H90V51Z" fill="#959595"/>
<path d="M90 74H76V88H90V74Z" fill="#959595"/>
<path d="M90 98H76V112H90V98Z" fill="#959595"/>
<path d="M90 121H76V135H90V121Z" fill="#959595"/>
<path d="M90 144H76V158H90V144Z" fill="#959595"/>
<path d="M90 167H76V181H90V167Z" fill="#959595"/>
<path d="M90 191H76V205H90V191Z" fill="#959595"/>
<path d="M90 214H76V228H90V214Z" fill="#959595"/>
<path d="M158 51H144V65H158V51Z" fill="#959595"/>
<path d="M158 74H144V88H158V74Z" fill="#959595"/>
<path d="M158 98H144V112H158V98Z" fill="#959595"/>
<path d="M158 121H144V135H158V121Z" fill="#959595"/>
<path d="M158 144H144V158H158V144Z" fill="#959595"/>
<path d="M158 167H144V181H158V167Z" fill="#959595"/>
<path d="M158 191H144V205H158V191Z" fill="#959595"/>
<path d="M158 214H144V228H158V214Z" fill="#959595"/>
<path d="M225 52H211V66H225V52Z" fill="#959595"/>
<path d="M225 75H211V89H225V75Z" fill="#959595"/>
<path d="M225 99H211V113H225V99Z" fill="#959595"/>
<path d="M225 122H211V136H225V122Z" fill="#959595"/>
<path d="M225 145H211V159H225V145Z" fill="#959595"/>
<path d="M225 168H211V182H225V168Z" fill="#959595"/>
<path d="M225 192H211V206H225V192Z" fill="#959595"/>
<path d="M225 215H211V227H225V215Z" fill="#959595"/>
<path d="M292 132H278V146H292V132Z" fill="#959595"/>
<path d="M291 159H278V171H291V159Z" stroke="black"/>
<path d="M342 149L354.912 70.7904L361.368 62.5371L365.807 59L405.754 140.747L413.825 144.284L434 62.5371" stroke="black" stroke-opacity="0.11"/>
<path d="M340 204L349.62 221.383L358.839 213.298L355.632 221.383L358.839 230.277L363.649 218.149V230.277L369.26 225.021L372.467 237.149L376.074 230.277L384.893 237.149H394.913L414.554 242H431.388H437" stroke="black" stroke-opacity="0.1"/>
<rect x="560" y="216" width="16" height="10" fill="#C4C4C4"/>
<rect x="0.5" y="0.5" width="617" height="264" stroke="black"/>
</svg>
