<svg width="759" height="499" viewBox="0 0 759 499" fill="none" xmlns="http://www.w3.org/2000/svg">
<path d="M75.7605 215C143.825 215 143.825 29.36 211.889 29.36" stroke="#D62839" stroke-width="1.26993"/>
<path d="M75.7605 215C143.825 215 143.825 82.4 211.889 82.4" stroke="#4BA3C3" stroke-width="0.597284"/>
<path d="M75.7605 215C143.825 215 143.825 135.44 211.889 135.44" stroke="#4BA3C3" stroke-width="0.874627"/>
<path d="M75.7605 215C143.825 215 143.825 188.48 211.889 188.48" stroke="#4BA3C3" stroke-width="1.08426"/>
<path d="M75.7605 215C143.825 215 143.825 241.52 211.889 241.52" stroke="#4BA3C3" stroke-width="1.36111"/>
<path d="M75.7605 215C143.825 215 143.825 294.56 211.889 294.56" stroke="#4BA3C3" stroke-width="0.100055"/>
<path d="M75.7605 215C143.825 215 143.825 347.6 211.889 347.6" stroke="#4BA3C3" stroke-width="0.32935"/>
<path d="M75.7605 215C143.825 215 143.825 400.64 211.889 400.64" stroke="#D62839" stroke-width="1.51116"/>
<path d="M211.889 29.36C289.235 29.36 289.235 29.36 366.58 29.36" stroke="#4BA3C3" stroke-width="0.12053"/>
<path d="M211.889 82.4C289.235 82.4 289.235 29.36 366.58 29.36" stroke="#4BA3C3" stroke-width="1.01481"/>
<path d="M211.889 135.44C289.235 135.44 289.235 29.36 366.58 29.36" stroke="#D62839" stroke-width="0.622155"/>
<path d="M211.889 188.48C289.235 188.48 289.235 29.36 366.58 29.36" stroke="#D62839" stroke-width="0.950679"/>
<path d="M211.889 241.52C289.235 241.52 289.235 29.36 366.58 29.36" stroke="#D62839" stroke-width="0.603884"/>
<path d="M211.889 294.56C289.235 294.56 289.235 29.36 366.58 29.36" stroke="#4BA3C3" stroke-width="0.741005"/>
<path d="M211.889 347.6C289.235 347.6 289.235 29.36 366.58 29.36" stroke="#4BA3C3" stroke-width="1.31969"/>
<path d="M211.889 400.64C289.235 400.64 289.235 29.36 366.58 29.36" stroke="#D62839" stroke-width="0.464118"/>
<path d="M211.889 29.36C289.235 29.36 289.235 82.4 366.58 82.4" stroke="#4BA3C3" stroke-width="0.872991"/>
<path d="M211.889 82.4C289.235 82.4 289.235 82.4 366.58 82.4" stroke="#D62839" stroke-width="0.336581"/>
<path d="M211.889 135.44C289.235 135.44 289.235 82.4 366.58 82.4" stroke="#D62839" stroke-width="0.915298"/>
<path d="M211.889 188.48C289.235 188.48 289.235 82.4 366.58 82.4" stroke="#D62839" stroke-width="0.747036"/>
<path d="M211.889 241.52C289.235 241.52 289.235 82.4 366.58 82.4" stroke="#4BA3C3" stroke-width="0.950078"/>
<path d="M211.889 294.56C289.235 294.56 289.235 82.4 366.58 82.4" stroke="#D62839" stroke-width="0.823461"/>
<path d="M211.889 347.6C289.235 347.6 289.235 82.4 366.58 82.4" stroke="#4BA3C3" stroke-width="0.961372"/>
<path d="M211.889 400.64C289.235 400.64 289.235 82.4 366.58 82.4" stroke="#4BA3C3" stroke-width="1.50412"/>
<path d="M211.889 29.36C289.235 29.36 289.235 135.44 366.58 135.44" stroke="#D62839" stroke-width="0.334261"/>
<path d="M211.889 82.4C289.235 82.4 289.235 135.44 366.58 135.44" stroke="#4BA3C3" stroke-width="0.835378"/>
<path d="M211.889 135.44C289.235 135.44 289.235 135.44 366.58 135.44" stroke="#4BA3C3" stroke-width="0.858112"/>
<path d="M211.889 188.48C289.235 188.48 289.235 135.44 366.58 135.44" stroke="#D62839" stroke-width="0.635134"/>
<path d="M211.889 241.52C289.235 241.52 289.235 135.44 366.58 135.44" stroke="#4BA3C3" stroke-width="1.01645"/>
<path d="M211.889 294.56C289.235 294.56 289.235 135.44 366.58 135.44" stroke="#4BA3C3" stroke-width="0.311786"/>
<path d="M211.889 347.6C289.235 347.6 289.235 135.44 366.58 135.44" stroke="#4BA3C3" stroke-width="0.893684"/>
<path d="M211.889 400.64C289.235 400.64 289.235 135.44 366.58 135.44" stroke="#4BA3C3" stroke-width="0.118026"/>
<path d="M211.889 29.36C289.235 29.36 289.235 188.48 366.58 188.48" stroke="#D62839" stroke-width="0.614782"/>
<path d="M211.889 82.4C289.235 82.4 289.235 188.48 366.58 188.48" stroke="#4BA3C3" stroke-width="1.0615"/>
<path d="M211.889 135.44C289.235 135.44 289.235 188.48 366.58 188.48" stroke="#D62839" stroke-width="0.68235"/>
<path d="M211.889 188.48C289.235 188.48 289.235 188.48 366.58 188.48" stroke="#D62839" stroke-width="1.0175"/>
<path d="M211.889 241.52C289.235 241.52 289.235 188.48 366.58 188.48" stroke="#4BA3C3" stroke-width="1.46832"/>
<path d="M211.889 294.56C289.235 294.56 289.235 188.48 366.58 188.48" stroke="#D62839" stroke-width="1.26758"/>
<path d="M211.889 347.6C289.235 347.6 289.235 188.48 366.58 188.48" stroke="#D62839" stroke-width="0.67392"/>
<path d="M211.889 400.64C289.235 400.64 289.235 188.48 366.58 188.48" stroke="#D62839" stroke-width="0.770823"/>
<path d="M211.889 29.36C289.235 29.36 289.235 241.52 366.58 241.52" stroke="#D62839" stroke-width="0.813849"/>
<path d="M211.889 82.4C289.235 82.4 289.235 241.52 366.58 241.52" stroke="#4BA3C3" stroke-width="0.425457"/>
<path d="M211.889 135.44C289.235 135.44 289.235 241.52 366.58 241.52" stroke="#D62839" stroke-width="0.306222"/>
<path d="M211.889 188.48C289.235 188.48 289.235 241.52 366.58 241.52" stroke="#D62839" stroke-width="0.120312"/>
<path d="M211.889 241.52C289.235 241.52 289.235 241.52 366.58 241.52" stroke="#D62839" stroke-width="0.897457"/>
<path d="M211.889 294.56C289.235 294.56 289.235 241.52 366.58 241.52" stroke="#D62839" stroke-width="0.945525"/>
<path d="M211.889 347.6C289.235 347.6 289.235 241.52 366.58 241.52" stroke="#4BA3C3" stroke-width="0.325911"/>
<path d="M211.889 400.64C289.235 400.64 289.235 241.52 366.58 241.52" stroke="#D62839" stroke-width="0.883911"/>
<path d="M211.889 29.36C289.235 29.36 289.235 294.56 366.58 294.56" stroke="#D62839" stroke-width="0.190538"/>
<path d="M211.889 82.4C289.235 82.4 289.235 294.56 366.58 294.56" stroke="#4BA3C3" stroke-width="0.633391"/>
<path d="M211.889 135.44C289.235 135.44 289.235 294.56 366.58 294.56" stroke="#4BA3C3" stroke-width="0.270071"/>
<path d="M211.889 188.48C289.235 188.48 289.235 294.56 366.58 294.56" stroke="#4BA3C3" stroke-width="0.329959"/>
<path d="M211.889 241.52C289.235 241.52 289.235 294.56 366.58 294.56" stroke="#D62839" stroke-width="0.416753"/>
<path d="M211.889 294.56C289.235 294.56 289.235 294.56 366.58 294.56" stroke="#D62839" stroke-width="0.374616"/>
<path d="M211.889 347.6C289.235 347.6 289.235 294.56 366.58 294.56" stroke="#D62839" stroke-width="0.79665"/>
<path d="M211.889 400.64C289.235 400.64 289.235 294.56 366.58 294.56" stroke="#D62839" stroke-width="0.555939"/>
<path d="M211.889 29.36C289.235 29.36 289.235 347.6 366.58 347.6" stroke="#4BA3C3" stroke-width="1.31336"/>
<path d="M211.889 82.4C289.235 82.4 289.235 347.6 366.58 347.6" stroke="#4BA3C3" stroke-width="0.623867"/>
<path d="M211.889 135.44C289.235 135.44 289.235 347.6 366.58 347.6" stroke="#D62839" stroke-width="0.599737"/>
<path d="M211.889 188.48C289.235 188.48 289.235 347.6 366.58 347.6" stroke="#D62839" stroke-width="1.02242"/>
<path d="M211.889 241.52C289.235 241.52 289.235 347.6 366.58 347.6" stroke="#4BA3C3" stroke-width="0.909239"/>
<path d="M211.889 294.56C289.235 294.56 289.235 347.6 366.58 347.6" stroke="#4BA3C3" stroke-width="0.146503"/>
<path d="M211.889 347.6C289.235 347.6 289.235 347.6 366.58 347.6" stroke="#D62839" stroke-width="0.316206"/>
<path d="M211.889 400.64C289.235 400.64 289.235 347.6 366.58 347.6" stroke="#4BA3C3" stroke-width="0.773937"/>
<path d="M211.889 29.36C289.235 29.36 289.235 400.64 366.58 400.64" stroke="#D62839" stroke-width="0.210977"/>
<path d="M211.889 82.4C289.235 82.4 289.235 400.64 366.58 400.64" stroke="#4BA3C3" stroke-width="0.475204"/>
<path d="M211.889 135.44C289.235 135.44 289.235 400.64 366.58 400.64" stroke="#4BA3C3" stroke-width="0.351906"/>
<path d="M211.889 188.48C289.235 188.48 289.235 400.64 366.58 400.64" stroke="#4BA3C3" stroke-width="1.71077"/>
<path d="M211.889 241.52C289.235 241.52 289.235 400.64 366.58 400.64" stroke="#4BA3C3" stroke-width="0.601729"/>
<path d="M211.889 294.56C289.235 294.56 289.235 400.64 366.58 400.64" stroke="#D62839" stroke-width="0.26663"/>
<path d="M211.889 347.6C289.235 347.6 289.235 400.64 366.58 400.64" stroke="#D62839" stroke-width="0.171855"/>
<path d="M211.889 400.64C289.235 400.64 289.235 400.64 366.58 400.64" stroke="#D62839" stroke-width="0.472892"/>
<path d="M366.58 29.36C443.926 29.36 443.926 29.36 521.272 29.36" stroke="#D62839" stroke-width="0.429365"/>
<path d="M366.58 82.4C443.926 82.4 443.926 29.36 521.272 29.36" stroke="#D62839" stroke-width="0.986783"/>
<path d="M366.58 135.44C443.926 135.44 443.926 29.36 521.272 29.36" stroke="#D62839" stroke-width="0.695969"/>
<path d="M366.58 188.48C443.926 188.48 443.926 29.36 521.272 29.36" stroke="#D62839" stroke-width="0.729284"/>
<path d="M366.58 241.52C443.926 241.52 443.926 29.36 521.272 29.36" stroke="#D62839" stroke-width="0.322216"/>
<path d="M366.58 294.56C443.926 294.56 443.926 29.36 521.272 29.36" stroke="#4BA3C3" stroke-width="0.162239"/>
<path d="M366.58 347.6C443.926 347.6 443.926 29.36 521.272 29.36" stroke="#4BA3C3" stroke-width="0.362872"/>
<path d="M366.58 400.64C443.926 400.64 443.926 29.36 521.272 29.36" stroke="#D62839" stroke-width="0.625551"/>
<path d="M366.58 29.36C443.926 29.36 443.926 82.4 521.272 82.4" stroke="#D62839" stroke-width="0.455485"/>
<path d="M366.58 82.4C443.926 82.4 443.926 82.4 521.272 82.4" stroke="#4BA3C3" stroke-width="2.05578"/>
<path d="M366.58 135.44C443.926 135.44 443.926 82.4 521.272 82.4" stroke="#D62839" stroke-width="1.19387"/>
<path d="M366.58 188.48C443.926 188.48 443.926 82.4 521.272 82.4" stroke="#D62839" stroke-width="0.876535"/>
<path d="M366.58 241.52C443.926 241.52 443.926 82.4 521.272 82.4" stroke="#4BA3C3" stroke-width="0.403612"/>
<path d="M366.58 294.56C443.926 294.56 443.926 82.4 521.272 82.4" stroke="#D62839" stroke-width="0.337525"/>
<path d="M366.58 347.6C443.926 347.6 443.926 82.4 521.272 82.4" stroke="#4BA3C3" stroke-width="0.686081"/>
<path d="M366.58 400.64C443.926 400.64 443.926 82.4 521.272 82.4" stroke="#D62839" stroke-width="1.29373"/>
<path d="M366.58 29.36C443.926 29.36 443.926 135.44 521.272 135.44" stroke="#4BA3C3" stroke-width="0.225668"/>
<path d="M366.58 82.4C443.926 82.4 443.926 135.44 521.272 135.44" stroke="#4BA3C3" stroke-width="0.423647"/>
<path d="M366.58 135.44C443.926 135.44 443.926 135.44 521.272 135.44" stroke="#4BA3C3" stroke-width="0.722175"/>
<path d="M366.58 188.48C443.926 188.48 443.926 135.44 521.272 135.44" stroke="#D62839" stroke-width="0.925493"/>
<path d="M366.58 241.52C443.926 241.52 443.926 135.44 521.272 135.44" stroke="#D62839" stroke-width="0.655806"/>
<path d="M366.58 294.56C443.926 294.56 443.926 135.44 521.272 135.44" stroke="#4BA3C3" stroke-width="1.15589"/>
<path d="M366.58 347.6C443.926 347.6 443.926 135.44 521.272 135.44" stroke="#D62839" stroke-width="0.494771"/>
<path d="M366.58 400.64C443.926 400.64 443.926 135.44 521.272 135.44" stroke="#D62839" stroke-width="0.806807"/>
<path d="M366.58 29.36C443.926 29.36 443.926 188.48 521.272 188.48" stroke="#4BA3C3" stroke-width="1.04688"/>
<path d="M366.58 82.4C443.926 82.4 443.926 188.48 521.272 188.48" stroke="#D62839" stroke-width="0.726364"/>
<path d="M366.58 135.44C443.926 135.44 443.926 188.48 521.272 188.48" stroke="#D62839" stroke-width="0.337057"/>
<path d="M366.58 188.48C443.926 188.48 443.926 188.48 521.272 188.48" stroke="#D62839" stroke-width="0.42466"/>
<path d="M366.58 241.52C443.926 241.52 443.926 188.48 521.272 188.48" stroke="#D62839" stroke-width="0.415964"/>
<path d="M366.58 294.56C443.926 294.56 443.926 188.48 521.272 188.48" stroke="#D62839" stroke-width="0.511993"/>
<path d="M366.58 347.6C443.926 347.6 443.926 188.48 521.272 188.48" stroke="#4BA3C3" stroke-width="0.522824"/>
<path d="M366.58 400.64C443.926 400.64 443.926 188.48 521.272 188.48" stroke="#D62839" stroke-width="0.752923"/>
<path d="M366.58 29.36C443.926 29.36 443.926 241.52 521.272 241.52" stroke="#D62839" stroke-width="0.57591"/>
<path d="M366.58 82.4C443.926 82.4 443.926 241.52 521.272 241.52" stroke="#4BA3C3" stroke-width="0.160548"/>
<path d="M366.58 135.44C443.926 135.44 443.926 241.52 521.272 241.52" stroke="#4BA3C3" stroke-width="1.19262"/>
<path d="M366.58 188.48C443.926 188.48 443.926 241.52 521.272 241.52" stroke="#4BA3C3" stroke-width="0.542084"/>
<path d="M366.58 241.52C443.926 241.52 443.926 241.52 521.272 241.52" stroke="#D62839" stroke-width="1.237"/>
<path d="M366.58 294.56C443.926 294.56 443.926 241.52 521.272 241.52" stroke="#D62839" stroke-width="0.709639"/>
<path d="M366.58 347.6C443.926 347.6 443.926 241.52 521.272 241.52" stroke="#D62839" stroke-width="0.338992"/>
<path d="M366.58 400.64C443.926 400.64 443.926 241.52 521.272 241.52" stroke="#4BA3C3" stroke-width="1.55447"/>
<path d="M366.58 29.36C443.926 29.36 443.926 294.56 521.272 294.56" stroke="#4BA3C3" stroke-width="0.163056"/>
<path d="M366.58 82.4C443.926 82.4 443.926 294.56 521.272 294.56" stroke="#D62839" stroke-width="0.244416"/>
<path d="M366.58 135.44C443.926 135.44 443.926 294.56 521.272 294.56" stroke="#4BA3C3" stroke-width="0.124899"/>
<path d="M366.58 188.48C443.926 188.48 443.926 294.56 521.272 294.56" stroke="#4BA3C3" stroke-width="0.7631"/>
<path d="M366.58 241.52C443.926 241.52 443.926 294.56 521.272 294.56" stroke="#4BA3C3" stroke-width="0.18543"/>
<path d="M366.58 294.56C443.926 294.56 443.926 294.56 521.272 294.56" stroke="#D62839" stroke-width="0.707992"/>
<path d="M366.58 347.6C443.926 347.6 443.926 294.56 521.272 294.56" stroke="#D62839" stroke-width="0.553055"/>
<path d="M366.58 400.64C443.926 400.64 443.926 294.56 521.272 294.56" stroke="#4BA3C3" stroke-width="0.99987"/>
<path d="M366.58 29.36C443.926 29.36 443.926 347.6 521.272 347.6" stroke="#4BA3C3" stroke-width="1.06638"/>
<path d="M366.58 82.4C443.926 82.4 443.926 347.6 521.272 347.6" stroke="#4BA3C3" stroke-width="0.585351"/>
<path d="M366.58 135.44C443.926 135.44 443.926 347.6 521.272 347.6" stroke="#D62839" stroke-width="0.966267"/>
<path d="M366.58 188.48C443.926 188.48 443.926 347.6 521.272 347.6" stroke="#4BA3C3" stroke-width="0.342386"/>
<path d="M366.58 241.52C443.926 241.52 443.926 347.6 521.272 347.6" stroke="#4BA3C3" stroke-width="0.107887"/>
<path d="M366.58 294.56C443.926 294.56 443.926 347.6 521.272 347.6" stroke="#4BA3C3" stroke-width="0.746017"/>
<path d="M366.58 347.6C443.926 347.6 443.926 347.6 521.272 347.6" stroke="#D62839" stroke-width="0.568634"/>
<path d="M366.58 400.64C443.926 400.64 443.926 347.6 521.272 347.6" stroke="#D62839" stroke-width="1.2414"/>
<path d="M366.58 29.36C443.926 29.36 443.926 400.64 521.272 400.64" stroke="#4BA3C3" stroke-width="0.157915"/>
<path d="M366.58 82.4C443.926 82.4 443.926 400.64 521.272 400.64" stroke="#D62839" stroke-width="0.693227"/>
<path d="M366.58 135.44C443.926 135.44 443.926 400.64 521.272 400.64" stroke="#D62839" stroke-width="0.880978"/>
<path d="M366.58 188.48C443.926 188.48 443.926 400.64 521.272 400.64" stroke="#D62839" stroke-width="1.21002"/>
<path d="M366.58 241.52C443.926 241.52 443.926 400.64 521.272 400.64" stroke="#4BA3C3" stroke-width="0.5523"/>
<path d="M366.58 294.56C443.926 294.56 443.926 400.64 521.272 400.64" stroke="#4BA3C3" stroke-width="0.434754"/>
<path d="M366.58 347.6C443.926 347.6 443.926 400.64 521.272 400.64" stroke="#D62839" stroke-width="1.27355"/>
<path d="M366.58 400.64C443.926 400.64 443.926 400.64 521.272 400.64" stroke="#4BA3C3" stroke-width="0.124822"/>
<path d="M521.272 29.36C598.617 29.36 598.617 215 675.963 215" stroke="#D62839" stroke-width="0.425705"/>
<path d="M521.272 82.4C598.617 82.4 598.617 215 675.963 215" stroke="#4BA3C3" stroke-width="2.35968"/>
<path d="M521.272 135.44C598.617 135.44 598.617 215 675.963 215" stroke="#D62839" stroke-width="0.564279"/>
<path d="M521.272 188.48C598.617 188.48 598.617 215 675.963 215" stroke="#D62839" stroke-width="2.02322"/>
<path d="M521.272 241.52C598.617 241.52 598.617 215 675.963 215" stroke="#D62839" stroke-width="2.39775"/>
<path d="M521.272 294.56C598.617 294.56 598.617 215 675.963 215" stroke="#D62839" stroke-width="0.111005"/>
<path d="M521.272 347.6C598.617 347.6 598.617 215 675.963 215" stroke="#D62839" stroke-width="0.312255"/>
<path d="M521.272 400.64C598.617 400.64 598.617 215 675.963 215" stroke="#D62839" stroke-width="0.137822"/>
<path d="M89.9037 200.856H61.6173V229.144H89.9037V200.856Z" fill="#A9A9A9"/>
<path d="M226.032 15.216H197.746V43.504H226.032V15.216Z" fill="#959595" stroke="black" stroke-width="3"/>
<path d="M226.032 68.256H197.746V96.544H226.032V68.256Z" fill="#959595" stroke="black" stroke-width="3"/>
<path d="M226.032 121.296H197.746V149.584H226.032V121.296Z" fill="#959595" stroke="black" stroke-width="3"/>
<path d="M226.032 174.336H197.746V202.624H226.032V174.336Z" fill="#959595" stroke="black" stroke-width="3"/>
<path d="M226.032 227.376H197.746V255.664H226.032V227.376Z" fill="#959595" stroke="black" stroke-width="3"/>
<path d="M226.032 280.416H197.746V308.704H226.032V280.416Z" fill="#959595" stroke="black" stroke-width="3"/>
<path d="M226.032 333.456H197.746V361.744H226.032V333.456Z" fill="#959595" stroke="black" stroke-width="3"/>
<path d="M226.032 386.496H197.746V414.784H226.032V386.496Z" fill="#959595" stroke="black" stroke-width="3"/>
<path d="M380.723 15.216H352.437V43.504H380.723V15.216Z" fill="#959595" stroke="black" stroke-width="3"/>
<path d="M380.723 68.256H352.437V96.544H380.723V68.256Z" fill="#959595" stroke="black" stroke-width="3"/>
<path d="M380.723 121.296H352.437V149.584H380.723V121.296Z" fill="#959595" stroke="black" stroke-width="3"/>
<path d="M380.723 174.336H352.437V202.624H380.723V174.336Z" fill="#959595" stroke="black" stroke-width="3"/>
<path d="M380.723 227.376H352.437V255.664H380.723V227.376Z" fill="#959595" stroke="black" stroke-width="3"/>
<path d="M380.723 280.416H352.437V308.704H380.723V280.416Z" fill="#959595" stroke="black" stroke-width="3"/>
<path d="M380.723 333.456H352.437V361.744H380.723V333.456Z" fill="#959595" stroke="black" stroke-width="3"/>
<path d="M380.723 386.496H352.437V414.784H380.723V386.496Z" fill="#959595" stroke="black" stroke-width="3"/>
<path d="M535.415 15.216H507.128V43.504H535.415V15.216Z" fill="#959595" stroke="black" stroke-width="3"/>
<path d="M535.415 68.256H507.128V96.544H535.415V68.256Z" fill="#959595" stroke="black" stroke-width="3"/>
<path d="M535.415 121.296H507.128V149.584H535.415V121.296Z" fill="#959595" stroke="black" stroke-width="3"/>
<path d="M535.415 174.336H507.128V202.624H535.415V174.336Z" fill="#959595" stroke="black" stroke-width="3"/>
<path d="M535.415 227.376H507.128V255.664H535.415V227.376Z" fill="#959595" stroke="black" stroke-width="3"/>
<path d="M535.415 280.416H507.128V308.704H535.415V280.416Z" fill="#959595" stroke="black" stroke-width="3"/>
<path d="M535.415 333.456H507.128V361.744H535.415V333.456Z" fill="#959595" stroke="black" stroke-width="3"/>
<path d="M535.415 386.496H507.128V414.784H535.415V386.496Z" fill="#959595" stroke="black" stroke-width="3"/>
<path d="M690.106 200.856H661.82V229.144H690.106V200.856Z" fill="#959595" stroke="#507BB6" stroke-width="3"/>
<path d="M21.2959 149H19.6084V136.203H21.2959V149ZM25.6729 139.49L25.7256 140.686C26.4521 139.771 27.4014 139.314 28.5732 139.314C30.583 139.314 31.5967 140.448 31.6143 142.716V149H29.9883V142.707C29.9824 142.021 29.8242 141.515 29.5137 141.187C29.209 140.858 28.7314 140.694 28.0811 140.694C27.5537 140.694 27.0908 140.835 26.6924 141.116C26.2939 141.397 25.9834 141.767 25.7607 142.224V149H24.1348V139.49H25.6729ZM42.0996 144.351C42.0996 145.798 41.7686 146.964 41.1064 147.849C40.4443 148.733 39.5479 149.176 38.417 149.176C37.2627 149.176 36.3545 148.81 35.6924 148.077V152.656H34.0664V139.49H35.5518L35.6309 140.545C36.293 139.725 37.2129 139.314 38.3906 139.314C39.5332 139.314 40.4355 139.745 41.0977 140.606C41.7656 141.468 42.0996 142.666 42.0996 144.201V144.351ZM40.4736 144.166C40.4736 143.094 40.2451 142.247 39.7881 141.626C39.3311 141.005 38.7041 140.694 37.9072 140.694C36.9229 140.694 36.1846 141.131 35.6924 142.004V146.548C36.1787 147.415 36.9229 147.849 37.9248 147.849C38.7041 147.849 39.3223 147.541 39.7793 146.926C40.2422 146.305 40.4736 145.385 40.4736 144.166ZM50.0449 148.06C49.4121 148.804 48.4834 149.176 47.2588 149.176C46.2451 149.176 45.4717 148.883 44.9385 148.297C44.4111 147.705 44.1445 146.832 44.1387 145.678V139.49H45.7646V145.634C45.7646 147.075 46.3506 147.796 47.5225 147.796C48.7646 147.796 49.5908 147.333 50.001 146.407V139.49H51.627V149H50.0801L50.0449 148.06ZM56.3115 137.188V139.49H58.0869V140.747H56.3115V146.645C56.3115 147.025 56.3906 147.312 56.5488 147.506C56.707 147.693 56.9766 147.787 57.3574 147.787C57.5449 147.787 57.8027 147.752 58.1309 147.682V149C57.7031 149.117 57.2871 149.176 56.8828 149.176C56.1562 149.176 55.6084 148.956 55.2393 148.517C54.8701 148.077 54.6855 147.453 54.6855 146.645V140.747H52.9541V139.49H54.6855V137.188H56.3115ZM74.5488 149H72.8525L66.4102 139.139V149H64.7139V136.203H66.4102L72.8701 146.108V136.203H74.5488V149ZM81.2373 149.176C79.9482 149.176 78.8994 148.754 78.0908 147.91C77.2822 147.061 76.8779 145.927 76.8779 144.509V144.21C76.8779 143.267 77.0566 142.426 77.4141 141.688C77.7773 140.943 78.2812 140.363 78.9258 139.947C79.5762 139.525 80.2793 139.314 81.0352 139.314C82.2715 139.314 83.2324 139.722 83.918 140.536C84.6035 141.351 84.9463 142.517 84.9463 144.034V144.711H78.5039C78.5273 145.648 78.7998 146.407 79.3213 146.987C79.8486 147.562 80.5166 147.849 81.3252 147.849C81.8994 147.849 82.3857 147.731 82.7842 147.497C83.1826 147.263 83.5312 146.952 83.8301 146.565L84.8232 147.339C84.0264 148.563 82.8311 149.176 81.2373 149.176ZM81.0352 140.65C80.3789 140.65 79.8281 140.891 79.3828 141.371C78.9375 141.846 78.6621 142.514 78.5566 143.375H83.3203V143.252C83.2734 142.426 83.0508 141.787 82.6523 141.336C82.2539 140.879 81.7148 140.65 81.0352 140.65ZM92.707 148.06C92.0742 148.804 91.1455 149.176 89.9209 149.176C88.9072 149.176 88.1338 148.883 87.6006 148.297C87.0732 147.705 86.8066 146.832 86.8008 145.678V139.49H88.4268V145.634C88.4268 147.075 89.0127 147.796 90.1846 147.796C91.4268 147.796 92.2529 147.333 92.6631 146.407V139.49H94.2891V149H92.7422L92.707 148.06ZM101.364 140.949C101.118 140.908 100.852 140.888 100.564 140.888C99.498 140.888 98.7744 141.342 98.3936 142.25V149H96.7676V139.49H98.3496L98.376 140.589C98.9092 139.739 99.665 139.314 100.644 139.314C100.96 139.314 101.2 139.355 101.364 139.438V140.949ZM102.261 144.157C102.261 143.226 102.442 142.388 102.806 141.644C103.175 140.899 103.685 140.325 104.335 139.921C104.991 139.517 105.738 139.314 106.576 139.314C107.871 139.314 108.917 139.763 109.714 140.659C110.517 141.556 110.918 142.748 110.918 144.236V144.351C110.918 145.276 110.739 146.108 110.382 146.847C110.03 147.579 109.523 148.15 108.861 148.561C108.205 148.971 107.449 149.176 106.594 149.176C105.305 149.176 104.259 148.728 103.456 147.831C102.659 146.935 102.261 145.748 102.261 144.271V144.157ZM103.896 144.351C103.896 145.405 104.139 146.252 104.625 146.891C105.117 147.529 105.773 147.849 106.594 147.849C107.42 147.849 108.076 147.526 108.562 146.882C109.049 146.231 109.292 145.323 109.292 144.157C109.292 143.114 109.043 142.271 108.545 141.626C108.053 140.976 107.396 140.65 106.576 140.65C105.773 140.65 105.126 140.97 104.634 141.608C104.142 142.247 103.896 143.161 103.896 144.351ZM114.495 139.49L114.548 140.686C115.274 139.771 116.224 139.314 117.396 139.314C119.405 139.314 120.419 140.448 120.437 142.716V149H118.811V142.707C118.805 142.021 118.646 141.515 118.336 141.187C118.031 140.858 117.554 140.694 116.903 140.694C116.376 140.694 115.913 140.835 115.515 141.116C115.116 141.397 114.806 141.767 114.583 142.224V149H112.957V139.49H114.495Z" fill="black"/>
<path d="M62 157L77 215" stroke="black"/>
<path d="M273.32 487H271.624V481.085H265.173V487H263.485V474.203H265.173V479.705H271.624V474.203H273.32V487ZM277.829 487H276.203V477.49H277.829V487ZM276.071 474.968C276.071 474.704 276.15 474.481 276.309 474.3C276.473 474.118 276.713 474.027 277.029 474.027C277.346 474.027 277.586 474.118 277.75 474.3C277.914 474.481 277.996 474.704 277.996 474.968C277.996 475.231 277.914 475.451 277.75 475.627C277.586 475.803 277.346 475.891 277.029 475.891C276.713 475.891 276.473 475.803 276.309 475.627C276.15 475.451 276.071 475.231 276.071 474.968ZM280.044 482.166C280.044 480.707 280.39 479.535 281.081 478.65C281.772 477.76 282.678 477.314 283.797 477.314C284.91 477.314 285.792 477.695 286.442 478.457V473.5H288.068V487H286.574L286.495 485.98C285.845 486.777 284.939 487.176 283.779 487.176C282.678 487.176 281.778 486.725 281.081 485.822C280.39 484.92 280.044 483.742 280.044 482.289V482.166ZM281.67 482.351C281.67 483.429 281.893 484.272 282.338 484.882C282.783 485.491 283.398 485.796 284.184 485.796C285.215 485.796 285.968 485.333 286.442 484.407V480.039C285.956 479.143 285.209 478.694 284.201 478.694C283.404 478.694 282.783 479.002 282.338 479.617C281.893 480.232 281.67 481.144 281.67 482.351ZM290.204 482.166C290.204 480.707 290.55 479.535 291.241 478.65C291.933 477.76 292.838 477.314 293.957 477.314C295.07 477.314 295.952 477.695 296.603 478.457V473.5H298.229V487H296.734L296.655 485.98C296.005 486.777 295.1 487.176 293.939 487.176C292.838 487.176 291.938 486.725 291.241 485.822C290.55 484.92 290.204 483.742 290.204 482.289V482.166ZM291.83 482.351C291.83 483.429 292.053 484.272 292.498 484.882C292.943 485.491 293.559 485.796 294.344 485.796C295.375 485.796 296.128 485.333 296.603 484.407V480.039C296.116 479.143 295.369 478.694 294.361 478.694C293.564 478.694 292.943 479.002 292.498 479.617C292.053 480.232 291.83 481.144 291.83 482.351ZM304.706 487.176C303.417 487.176 302.368 486.754 301.56 485.91C300.751 485.061 300.347 483.927 300.347 482.509V482.21C300.347 481.267 300.525 480.426 300.883 479.688C301.246 478.943 301.75 478.363 302.395 477.947C303.045 477.525 303.748 477.314 304.504 477.314C305.74 477.314 306.701 477.722 307.387 478.536C308.072 479.351 308.415 480.517 308.415 482.034V482.711H301.973C301.996 483.648 302.269 484.407 302.79 484.987C303.317 485.562 303.985 485.849 304.794 485.849C305.368 485.849 305.854 485.731 306.253 485.497C306.651 485.263 307 484.952 307.299 484.565L308.292 485.339C307.495 486.563 306.3 487.176 304.706 487.176ZM304.504 478.65C303.848 478.65 303.297 478.891 302.852 479.371C302.406 479.846 302.131 480.514 302.025 481.375H306.789V481.252C306.742 480.426 306.52 479.787 306.121 479.336C305.723 478.879 305.184 478.65 304.504 478.65ZM311.843 477.49L311.896 478.686C312.622 477.771 313.571 477.314 314.743 477.314C316.753 477.314 317.767 478.448 317.784 480.716V487H316.158V480.707C316.152 480.021 315.994 479.515 315.684 479.187C315.379 478.858 314.901 478.694 314.251 478.694C313.724 478.694 313.261 478.835 312.862 479.116C312.464 479.397 312.153 479.767 311.931 480.224V487H310.305V477.49H311.843ZM326.652 485.62H332.717V487H324.956V474.203H326.652V485.62ZM340.258 487C340.164 486.812 340.088 486.479 340.029 485.998C339.273 486.783 338.371 487.176 337.322 487.176C336.385 487.176 335.614 486.912 335.011 486.385C334.413 485.852 334.114 485.178 334.114 484.363C334.114 483.373 334.489 482.605 335.239 482.061C335.995 481.51 337.056 481.234 338.421 481.234H340.003V480.487C340.003 479.919 339.833 479.468 339.493 479.134C339.153 478.794 338.652 478.624 337.99 478.624C337.41 478.624 336.924 478.771 336.531 479.063C336.139 479.356 335.942 479.711 335.942 480.127H334.308C334.308 479.652 334.475 479.195 334.809 478.756C335.148 478.311 335.605 477.959 336.18 477.701C336.76 477.443 337.396 477.314 338.087 477.314C339.183 477.314 340.041 477.59 340.662 478.141C341.283 478.686 341.605 479.438 341.629 480.399V484.776C341.629 485.649 341.74 486.344 341.963 486.859V487H340.258ZM337.56 485.761C338.069 485.761 338.553 485.629 339.01 485.365C339.467 485.102 339.798 484.759 340.003 484.337V482.386H338.729C336.736 482.386 335.74 482.969 335.74 484.135C335.74 484.645 335.91 485.043 336.25 485.33C336.59 485.617 337.026 485.761 337.56 485.761ZM347.148 484.618L349.363 477.49H351.104L347.28 488.468C346.688 490.05 345.748 490.841 344.459 490.841L344.151 490.814L343.545 490.7V489.382L343.984 489.417C344.535 489.417 344.963 489.306 345.268 489.083C345.578 488.86 345.833 488.453 346.032 487.861L346.393 486.895L343 477.49H344.775L347.148 484.618ZM356.386 487.176C355.097 487.176 354.048 486.754 353.239 485.91C352.431 485.061 352.026 483.927 352.026 482.509V482.21C352.026 481.267 352.205 480.426 352.562 479.688C352.926 478.943 353.43 478.363 354.074 477.947C354.725 477.525 355.428 477.314 356.184 477.314C357.42 477.314 358.381 477.722 359.066 478.536C359.752 479.351 360.095 480.517 360.095 482.034V482.711H353.652C353.676 483.648 353.948 484.407 354.47 484.987C354.997 485.562 355.665 485.849 356.474 485.849C357.048 485.849 357.534 485.731 357.933 485.497C358.331 485.263 358.68 484.952 358.979 484.565L359.972 485.339C359.175 486.563 357.979 487.176 356.386 487.176ZM356.184 478.65C355.527 478.65 354.977 478.891 354.531 479.371C354.086 479.846 353.811 480.514 353.705 481.375H358.469V481.252C358.422 480.426 358.199 479.787 357.801 479.336C357.402 478.879 356.863 478.65 356.184 478.65ZM366.581 478.949C366.335 478.908 366.068 478.888 365.781 478.888C364.715 478.888 363.991 479.342 363.61 480.25V487H361.984V477.49H363.566L363.593 478.589C364.126 477.739 364.882 477.314 365.86 477.314C366.177 477.314 366.417 477.355 366.581 477.438V478.949ZM373.621 484.478C373.621 484.038 373.454 483.698 373.12 483.458C372.792 483.212 372.215 483.001 371.389 482.825C370.568 482.649 369.915 482.438 369.429 482.192C368.948 481.946 368.591 481.653 368.356 481.313C368.128 480.974 368.014 480.569 368.014 480.101C368.014 479.321 368.342 478.662 368.998 478.123C369.66 477.584 370.504 477.314 371.529 477.314C372.607 477.314 373.48 477.593 374.148 478.149C374.822 478.706 375.159 479.418 375.159 480.285H373.524C373.524 479.84 373.334 479.456 372.953 479.134C372.578 478.812 372.104 478.65 371.529 478.65C370.938 478.65 370.475 478.779 370.141 479.037C369.807 479.295 369.64 479.632 369.64 480.048C369.64 480.44 369.795 480.736 370.105 480.936C370.416 481.135 370.976 481.325 371.784 481.507C372.599 481.688 373.258 481.905 373.762 482.157C374.266 482.409 374.638 482.714 374.878 483.071C375.124 483.423 375.247 483.854 375.247 484.363C375.247 485.213 374.907 485.896 374.228 486.411C373.548 486.921 372.666 487.176 371.582 487.176C370.82 487.176 370.146 487.041 369.561 486.771C368.975 486.502 368.515 486.127 368.181 485.646C367.853 485.16 367.688 484.636 367.688 484.073H369.314C369.344 484.618 369.561 485.052 369.965 485.374C370.375 485.69 370.914 485.849 371.582 485.849C372.197 485.849 372.689 485.726 373.059 485.479C373.434 485.228 373.621 484.894 373.621 484.478ZM377.312 489.549L376.39 488.916C376.94 488.148 377.228 487.357 377.251 486.543V485.075H378.842V486.35C378.842 486.941 378.695 487.533 378.402 488.125C378.115 488.717 377.752 489.191 377.312 489.549ZM391.234 487C391.141 486.812 391.064 486.479 391.006 485.998C390.25 486.783 389.348 487.176 388.299 487.176C387.361 487.176 386.591 486.912 385.987 486.385C385.39 485.852 385.091 485.178 385.091 484.363C385.091 483.373 385.466 482.605 386.216 482.061C386.972 481.51 388.032 481.234 389.397 481.234H390.979V480.487C390.979 479.919 390.81 479.468 390.47 479.134C390.13 478.794 389.629 478.624 388.967 478.624C388.387 478.624 387.9 478.771 387.508 479.063C387.115 479.356 386.919 479.711 386.919 480.127H385.284C385.284 479.652 385.451 479.195 385.785 478.756C386.125 478.311 386.582 477.959 387.156 477.701C387.736 477.443 388.372 477.314 389.063 477.314C390.159 477.314 391.018 477.59 391.639 478.141C392.26 478.686 392.582 479.438 392.605 480.399V484.776C392.605 485.649 392.717 486.344 392.939 486.859V487H391.234ZM388.536 485.761C389.046 485.761 389.529 485.629 389.986 485.365C390.443 485.102 390.774 484.759 390.979 484.337V482.386H389.705C387.713 482.386 386.717 482.969 386.717 484.135C386.717 484.645 386.887 485.043 387.227 485.33C387.566 485.617 388.003 485.761 388.536 485.761ZM396.921 487H395.295V473.5H396.921V487ZM401.298 487H399.672V473.5H401.298V487ZM413.321 481.823H410.315V487H408.619V474.203H412.855C414.297 474.203 415.404 474.531 416.178 475.188C416.957 475.844 417.347 476.799 417.347 478.053C417.347 478.85 417.13 479.544 416.696 480.136C416.269 480.728 415.671 481.17 414.903 481.463L417.909 486.895V487H416.099L413.321 481.823ZM410.315 480.443H412.908C413.746 480.443 414.411 480.227 414.903 479.793C415.401 479.359 415.65 478.779 415.65 478.053C415.65 477.262 415.413 476.655 414.938 476.233C414.47 475.812 413.79 475.598 412.899 475.592H410.315V480.443ZM423.411 487.176C422.122 487.176 421.073 486.754 420.265 485.91C419.456 485.061 419.052 483.927 419.052 482.509V482.21C419.052 481.267 419.23 480.426 419.588 479.688C419.951 478.943 420.455 478.363 421.1 477.947C421.75 477.525 422.453 477.314 423.209 477.314C424.445 477.314 425.406 477.722 426.092 478.536C426.777 479.351 427.12 480.517 427.12 482.034V482.711H420.678C420.701 483.648 420.974 484.407 421.495 484.987C422.022 485.562 422.69 485.849 423.499 485.849C424.073 485.849 424.56 485.731 424.958 485.497C425.356 485.263 425.705 484.952 426.004 484.565L426.997 485.339C426.2 486.563 425.005 487.176 423.411 487.176ZM423.209 478.65C422.553 478.65 422.002 478.891 421.557 479.371C421.111 479.846 420.836 480.514 420.73 481.375H425.494V481.252C425.447 480.426 425.225 479.787 424.826 479.336C424.428 478.879 423.889 478.65 423.209 478.65ZM430.961 485.62H437.025V487H429.265V474.203H430.961V485.62ZM447.484 474.203V482.904C447.479 484.111 447.098 485.099 446.342 485.866C445.592 486.634 444.572 487.064 443.283 487.158L442.835 487.176C441.435 487.176 440.318 486.798 439.486 486.042C438.654 485.286 438.232 484.246 438.221 482.922V474.203H439.891V482.869C439.891 483.795 440.146 484.516 440.655 485.031C441.165 485.541 441.892 485.796 442.835 485.796C443.79 485.796 444.52 485.541 445.023 485.031C445.533 484.521 445.788 483.804 445.788 482.878V474.203H447.484ZM464.447 487H462.751L456.309 477.139V487H454.612V474.203H456.309L462.769 484.108V474.203H464.447V487ZM471.136 487.176C469.847 487.176 468.798 486.754 467.989 485.91C467.181 485.061 466.776 483.927 466.776 482.509V482.21C466.776 481.267 466.955 480.426 467.312 479.688C467.676 478.943 468.18 478.363 468.824 477.947C469.475 477.525 470.178 477.314 470.934 477.314C472.17 477.314 473.131 477.722 473.816 478.536C474.502 479.351 474.845 480.517 474.845 482.034V482.711H468.402C468.426 483.648 468.698 484.407 469.22 484.987C469.747 485.562 470.415 485.849 471.224 485.849C471.798 485.849 472.284 485.731 472.683 485.497C473.081 485.263 473.43 484.952 473.729 484.565L474.722 485.339C473.925 486.563 472.729 487.176 471.136 487.176ZM470.934 478.65C470.277 478.65 469.727 478.891 469.281 479.371C468.836 479.846 468.561 480.514 468.455 481.375H473.219V481.252C473.172 480.426 472.949 479.787 472.551 479.336C472.152 478.879 471.613 478.65 470.934 478.65ZM482.605 486.06C481.973 486.804 481.044 487.176 479.819 487.176C478.806 487.176 478.032 486.883 477.499 486.297C476.972 485.705 476.705 484.832 476.699 483.678V477.49H478.325V483.634C478.325 485.075 478.911 485.796 480.083 485.796C481.325 485.796 482.151 485.333 482.562 484.407V477.49H484.188V487H482.641L482.605 486.06ZM491.263 478.949C491.017 478.908 490.75 478.888 490.463 478.888C489.396 478.888 488.673 479.342 488.292 480.25V487H486.666V477.49H488.248L488.274 478.589C488.808 477.739 489.563 477.314 490.542 477.314C490.858 477.314 491.099 477.355 491.263 477.438V478.949ZM492.159 482.157C492.159 481.226 492.341 480.388 492.704 479.644C493.073 478.899 493.583 478.325 494.233 477.921C494.89 477.517 495.637 477.314 496.475 477.314C497.77 477.314 498.815 477.763 499.612 478.659C500.415 479.556 500.816 480.748 500.816 482.236V482.351C500.816 483.276 500.638 484.108 500.28 484.847C499.929 485.579 499.422 486.15 498.76 486.561C498.104 486.971 497.348 487.176 496.492 487.176C495.203 487.176 494.157 486.728 493.354 485.831C492.558 484.935 492.159 483.748 492.159 482.271V482.157ZM493.794 482.351C493.794 483.405 494.037 484.252 494.523 484.891C495.016 485.529 495.672 485.849 496.492 485.849C497.318 485.849 497.975 485.526 498.461 484.882C498.947 484.231 499.19 483.323 499.19 482.157C499.19 481.114 498.941 480.271 498.443 479.626C497.951 478.976 497.295 478.65 496.475 478.65C495.672 478.65 495.024 478.97 494.532 479.608C494.04 480.247 493.794 481.161 493.794 482.351ZM504.394 477.49L504.446 478.686C505.173 477.771 506.122 477.314 507.294 477.314C509.304 477.314 510.317 478.448 510.335 480.716V487H508.709V480.707C508.703 480.021 508.545 479.515 508.234 479.187C507.93 478.858 507.452 478.694 506.802 478.694C506.274 478.694 505.812 478.835 505.413 479.116C505.015 479.397 504.704 479.767 504.481 480.224V487H502.855V477.49H504.394ZM518.324 484.478C518.324 484.038 518.157 483.698 517.823 483.458C517.495 483.212 516.918 483.001 516.092 482.825C515.271 482.649 514.618 482.438 514.132 482.192C513.651 481.946 513.294 481.653 513.06 481.313C512.831 480.974 512.717 480.569 512.717 480.101C512.717 479.321 513.045 478.662 513.701 478.123C514.363 477.584 515.207 477.314 516.232 477.314C517.311 477.314 518.184 477.593 518.852 478.149C519.525 478.706 519.862 479.418 519.862 480.285H518.228C518.228 479.84 518.037 479.456 517.656 479.134C517.281 478.812 516.807 478.65 516.232 478.65C515.641 478.65 515.178 478.779 514.844 479.037C514.51 479.295 514.343 479.632 514.343 480.048C514.343 480.44 514.498 480.736 514.809 480.936C515.119 481.135 515.679 481.325 516.487 481.507C517.302 481.688 517.961 481.905 518.465 482.157C518.969 482.409 519.341 482.714 519.581 483.071C519.827 483.423 519.95 483.854 519.95 484.363C519.95 485.213 519.61 485.896 518.931 486.411C518.251 486.921 517.369 487.176 516.285 487.176C515.523 487.176 514.85 487.041 514.264 486.771C513.678 486.502 513.218 486.127 512.884 485.646C512.556 485.16 512.392 484.636 512.392 484.073H514.018C514.047 484.618 514.264 485.052 514.668 485.374C515.078 485.69 515.617 485.849 516.285 485.849C516.9 485.849 517.393 485.726 517.762 485.479C518.137 485.228 518.324 484.894 518.324 484.478Z" fill="black"/>
<path d="M550 431V449H189V431" stroke="black"/>
<path d="M342 449V470" stroke="black"/>
<path d="M640.182 146.62H646.246V148H638.485V135.203H640.182V146.62ZM649.683 148H648.057V138.49H649.683V148ZM647.925 135.968C647.925 135.704 648.004 135.481 648.162 135.3C648.326 135.118 648.566 135.027 648.883 135.027C649.199 135.027 649.439 135.118 649.604 135.3C649.768 135.481 649.85 135.704 649.85 135.968C649.85 136.231 649.768 136.451 649.604 136.627C649.439 136.803 649.199 136.891 648.883 136.891C648.566 136.891 648.326 136.803 648.162 136.627C648.004 136.451 647.925 136.231 647.925 135.968ZM653.831 138.49L653.884 139.686C654.61 138.771 655.56 138.314 656.731 138.314C658.741 138.314 659.755 139.448 659.772 141.716V148H658.146V141.707C658.141 141.021 657.982 140.515 657.672 140.187C657.367 139.858 656.89 139.694 656.239 139.694C655.712 139.694 655.249 139.835 654.851 140.116C654.452 140.397 654.142 140.767 653.919 141.224V148H652.293V138.49H653.831ZM666.171 148.176C664.882 148.176 663.833 147.754 663.024 146.91C662.216 146.061 661.812 144.927 661.812 143.509V143.21C661.812 142.267 661.99 141.426 662.348 140.688C662.711 139.943 663.215 139.363 663.859 138.947C664.51 138.525 665.213 138.314 665.969 138.314C667.205 138.314 668.166 138.722 668.852 139.536C669.537 140.351 669.88 141.517 669.88 143.034V143.711H663.438C663.461 144.648 663.733 145.407 664.255 145.987C664.782 146.562 665.45 146.849 666.259 146.849C666.833 146.849 667.319 146.731 667.718 146.497C668.116 146.263 668.465 145.952 668.764 145.565L669.757 146.339C668.96 147.563 667.765 148.176 666.171 148.176ZM665.969 139.65C665.312 139.65 664.762 139.891 664.316 140.371C663.871 140.846 663.596 141.514 663.49 142.375H668.254V142.252C668.207 141.426 667.984 140.787 667.586 140.336C667.188 139.879 666.648 139.65 665.969 139.65ZM677.641 148C677.547 147.812 677.471 147.479 677.412 146.998C676.656 147.783 675.754 148.176 674.705 148.176C673.768 148.176 672.997 147.912 672.394 147.385C671.796 146.852 671.497 146.178 671.497 145.363C671.497 144.373 671.872 143.605 672.622 143.061C673.378 142.51 674.438 142.234 675.804 142.234H677.386V141.487C677.386 140.919 677.216 140.468 676.876 140.134C676.536 139.794 676.035 139.624 675.373 139.624C674.793 139.624 674.307 139.771 673.914 140.063C673.521 140.356 673.325 140.711 673.325 141.127H671.69C671.69 140.652 671.857 140.195 672.191 139.756C672.531 139.311 672.988 138.959 673.562 138.701C674.143 138.443 674.778 138.314 675.47 138.314C676.565 138.314 677.424 138.59 678.045 139.141C678.666 139.686 678.988 140.438 679.012 141.399V145.776C679.012 146.649 679.123 147.344 679.346 147.859V148H677.641ZM674.942 146.761C675.452 146.761 675.936 146.629 676.393 146.365C676.85 146.102 677.181 145.759 677.386 145.337V143.386H676.111C674.119 143.386 673.123 143.969 673.123 145.135C673.123 145.645 673.293 146.043 673.633 146.33C673.973 146.617 674.409 146.761 674.942 146.761ZM686.157 139.949C685.911 139.908 685.645 139.888 685.357 139.888C684.291 139.888 683.567 140.342 683.187 141.25V148H681.561V138.49H683.143L683.169 139.589C683.702 138.739 684.458 138.314 685.437 138.314C685.753 138.314 685.993 138.355 686.157 138.438V139.949ZM702.215 148H700.519L694.076 138.139V148H692.38V135.203H694.076L700.536 145.108V135.203H702.215V148ZM708.903 148.176C707.614 148.176 706.565 147.754 705.757 146.91C704.948 146.061 704.544 144.927 704.544 143.509V143.21C704.544 142.267 704.723 141.426 705.08 140.688C705.443 139.943 705.947 139.363 706.592 138.947C707.242 138.525 707.945 138.314 708.701 138.314C709.938 138.314 710.898 138.722 711.584 139.536C712.27 140.351 712.612 141.517 712.612 143.034V143.711H706.17C706.193 144.648 706.466 145.407 706.987 145.987C707.515 146.562 708.183 146.849 708.991 146.849C709.565 146.849 710.052 146.731 710.45 146.497C710.849 146.263 711.197 145.952 711.496 145.565L712.489 146.339C711.692 147.563 710.497 148.176 708.903 148.176ZM708.701 139.65C708.045 139.65 707.494 139.891 707.049 140.371C706.604 140.846 706.328 141.514 706.223 142.375H710.986V142.252C710.939 141.426 710.717 140.787 710.318 140.336C709.92 139.879 709.381 139.65 708.701 139.65ZM720.373 147.06C719.74 147.804 718.812 148.176 717.587 148.176C716.573 148.176 715.8 147.883 715.267 147.297C714.739 146.705 714.473 145.832 714.467 144.678V138.49H716.093V144.634C716.093 146.075 716.679 146.796 717.851 146.796C719.093 146.796 719.919 146.333 720.329 145.407V138.49H721.955V148H720.408L720.373 147.06ZM729.03 139.949C728.784 139.908 728.518 139.888 728.23 139.888C727.164 139.888 726.44 140.342 726.06 141.25V148H724.434V138.49H726.016L726.042 139.589C726.575 138.739 727.331 138.314 728.31 138.314C728.626 138.314 728.866 138.355 729.03 138.438V139.949ZM729.927 143.157C729.927 142.226 730.108 141.388 730.472 140.644C730.841 139.899 731.351 139.325 732.001 138.921C732.657 138.517 733.404 138.314 734.242 138.314C735.537 138.314 736.583 138.763 737.38 139.659C738.183 140.556 738.584 141.748 738.584 143.236V143.351C738.584 144.276 738.405 145.108 738.048 145.847C737.696 146.579 737.189 147.15 736.527 147.561C735.871 147.971 735.115 148.176 734.26 148.176C732.971 148.176 731.925 147.728 731.122 146.831C730.325 145.935 729.927 144.748 729.927 143.271V143.157ZM731.562 143.351C731.562 144.405 731.805 145.252 732.291 145.891C732.783 146.529 733.439 146.849 734.26 146.849C735.086 146.849 735.742 146.526 736.229 145.882C736.715 145.231 736.958 144.323 736.958 143.157C736.958 142.114 736.709 141.271 736.211 140.626C735.719 139.976 735.062 139.65 734.242 139.65C733.439 139.65 732.792 139.97 732.3 140.608C731.808 141.247 731.562 142.161 731.562 143.351ZM742.161 138.49L742.214 139.686C742.94 138.771 743.89 138.314 745.062 138.314C747.071 138.314 748.085 139.448 748.103 141.716V148H746.477V141.707C746.471 141.021 746.312 140.515 746.002 140.187C745.697 139.858 745.22 139.694 744.569 139.694C744.042 139.694 743.579 139.835 743.181 140.116C742.782 140.397 742.472 140.767 742.249 141.224V148H740.623V138.49H742.161Z" fill="black"/>
<path d="M681.5 210L690 157" stroke="black"/>
<path d="M27.709 409.466L27.9551 411.153L28.3154 409.633L30.8467 400.703H32.2705L34.7403 409.633L35.0918 411.18L35.3643 409.457L37.3506 400.703H39.0469L35.9444 413.5H34.4063L31.7695 404.175L31.5674 403.199L31.3652 404.175L28.6318 413.5H27.0937L24 400.703H25.6875L27.709 409.466ZM44.3379 413.676C43.0489 413.676 42 413.254 41.1914 412.41C40.3828 411.56 39.9785 410.427 39.9785 409.009V408.71C39.9785 407.767 40.1573 406.926 40.5147 406.188C40.878 405.443 41.3819 404.863 42.0264 404.447C42.6768 404.025 43.3799 403.814 44.1358 403.814C45.3721 403.814 46.333 404.222 47.0186 405.036C47.7041 405.851 48.0469 407.017 48.0469 408.534V409.211H41.6045C41.628 410.148 41.9004 410.907 42.4219 411.487C42.9493 412.062 43.6172 412.349 44.4258 412.349C45 412.349 45.4864 412.231 45.8848 411.997C46.2832 411.763 46.6319 411.452 46.9307 411.065L47.9239 411.839C47.127 413.064 45.9317 413.676 44.3379 413.676ZM44.1358 405.15C43.4795 405.15 42.9287 405.391 42.4834 405.871C42.0381 406.346 41.7627 407.014 41.6573 407.875H46.4209V407.752C46.3741 406.926 46.1514 406.287 45.753 405.836C45.3545 405.379 44.8155 405.15 44.1358 405.15ZM51.7032 413.5H50.0772V403.99H51.7032V413.5ZM49.9453 401.468C49.9453 401.204 50.0244 400.981 50.1827 400.8C50.3467 400.618 50.5869 400.527 50.9034 400.527C51.2198 400.527 51.46 400.618 51.6241 400.8C51.7881 400.981 51.8701 401.204 51.8701 401.468C51.8701 401.731 51.7881 401.951 51.6241 402.127C51.46 402.303 51.2198 402.391 50.9034 402.391C50.5869 402.391 50.3467 402.303 50.1827 402.127C50.0244 401.951 49.9453 401.731 49.9453 401.468ZM53.9268 408.666C53.9268 407.184 54.2696 406.006 54.9551 405.133C55.6407 404.254 56.5489 403.814 57.6797 403.814C58.8399 403.814 59.7451 404.225 60.3955 405.045L60.4746 403.99H61.96V413.271C61.96 414.502 61.5938 415.472 60.8614 416.181C60.1348 416.89 59.1563 417.244 57.9258 417.244C57.2403 417.244 56.5694 417.098 55.9131 416.805C55.2569 416.512 54.7559 416.11 54.4102 415.601L55.2539 414.625C55.9512 415.486 56.8037 415.917 57.8116 415.917C58.6026 415.917 59.2178 415.694 59.6573 415.249C60.1026 414.804 60.3252 414.177 60.3252 413.368V412.551C59.6748 413.301 58.7871 413.676 57.6621 413.676C56.5489 413.676 55.6465 413.228 54.9551 412.331C54.2696 411.435 53.9268 410.213 53.9268 408.666ZM55.5616 408.851C55.5616 409.923 55.7813 410.767 56.2207 411.382C56.6602 411.991 57.2754 412.296 58.0664 412.296C59.0918 412.296 59.8448 411.83 60.3252 410.898V406.557C59.8272 405.648 59.0801 405.194 58.084 405.194C57.293 405.194 56.6748 405.502 56.2295 406.117C55.7842 406.732 55.5616 407.644 55.5616 408.851ZM66.0469 405.142C66.7676 404.257 67.7051 403.814 68.8594 403.814C70.8692 403.814 71.8828 404.948 71.9004 407.216V413.5H70.2744V407.207C70.2686 406.522 70.1104 406.015 69.7998 405.687C69.4951 405.358 69.0176 405.194 68.3672 405.194C67.8399 405.194 67.377 405.335 66.9785 405.616C66.5801 405.897 66.2696 406.267 66.0469 406.724V413.5H64.4209V400H66.0469V405.142ZM76.541 401.688V403.99H78.3164V405.247H76.541V411.145C76.541 411.525 76.6201 411.813 76.7784 412.006C76.9366 412.193 77.2061 412.287 77.5869 412.287C77.7744 412.287 78.0323 412.252 78.3604 412.182V413.5C77.9327 413.617 77.5166 413.676 77.1123 413.676C76.3858 413.676 75.8379 413.456 75.4688 413.017C75.0996 412.577 74.9151 411.953 74.9151 411.145V405.247H73.1836V403.99H74.9151V401.688H76.541Z" fill="black"/>
<path d="M27.9639 433H140.964V419H27.9639V433Z" fill="url(#paint0_linear)" stroke="black"/>
<path d="M140.964 431.5V437.5" stroke="black"/>
<path d="M27.9639 431.5V437.5" stroke="black"/>
<path d="M85.4639 432.5V438.5" stroke="black"/>
<path d="M31.2842 444.685H25.4131V443.801H31.2842V444.685Z" fill="black"/>
<path d="M88.0225 444.861C88.0225 446.131 87.8057 447.074 87.3721 447.691C86.9385 448.309 86.2608 448.617 85.3389 448.617C84.4287 448.617 83.7549 448.316 83.3174 447.715C82.8799 447.109 82.6534 446.207 82.6377 445.008V443.56C82.6377 442.307 82.8545 441.375 83.2881 440.766C83.7217 440.156 84.4014 439.852 85.3272 439.852C86.2451 439.852 86.9209 440.146 87.3545 440.736C87.7881 441.322 88.0108 442.228 88.0225 443.455V444.861ZM86.9385 443.379C86.9385 442.461 86.8096 441.793 86.5518 441.375C86.294 440.953 85.8858 440.742 85.3272 440.742C84.7725 440.742 84.3682 440.951 84.1143 441.369C83.8604 441.787 83.7295 442.43 83.7217 443.297V445.031C83.7217 445.953 83.8545 446.635 84.1201 447.076C84.3897 447.514 84.7959 447.732 85.3389 447.732C85.8741 447.732 86.2705 447.525 86.5284 447.111C86.7901 446.697 86.9268 446.045 86.9385 445.154V443.379Z" fill="black"/>
<path d="M141.64 443.924H144.019V444.949H141.64V447.644H140.55V444.949H138.171V443.924H140.55V441.434H141.64V443.924Z" fill="black"/>
<path d="M95.5 402L140 319" stroke="black"/>
<defs>
<linearGradient id="paint0_linear" x1="26.4639" y1="424.605" x2="140.464" y2="424.605" gradientUnits="userSpaceOnUse">
<stop stop-color="#D62839"/>
<stop offset="0.510417" stop-color="#5B5B5B" stop-opacity="0"/>
<stop offset="1" stop-color="#4BA3C3"/>
</linearGradient>
</defs>
</svg>
